DBRep_DrawableShape

CASCADE Topology V1, (c) Matra-Datavision
Locations 2
1
              1               0               0             5.3 
              0               1               0              -0 
              0               0               1               0 
2  1 -1 0
Curve2ds 29
1 0 0 0 -1 
1 6.4999999999999911 0 0 -1 
1 6.4999999999999911 0 0 -1 
1 1.7053025658242404e-13 6.5 -0.86602540378443826 -0.50000000000000067 
1 0 0 1 0 
1 0 -5.2999999999999972 1 0 
1 0 0 0 -1 
1 5.6291651245990124 3.25 -0.86602540378443826 0.50000000000000067 
1 0 0 1 0 
1 0 -5.2999999999999972 1 0 
1 0 0 0 -1 
1 -5.6291651245986714 3.25 0 -1 
1 5.6291651245990124 -3.2500000000000036 0 1 
1 -5.6291651245986714 -3.25 0.86602540378443826 -0.50000000000000067 
1 0 0 1 0 
1 0 -5.2999999999999972 1 0 
1 1.7053025658242404e-13 -6.5 0.8660254037844386 0.50000000000000033 
1 0 0 1 0 
1 0 -5.2999999999999972 1 0 
1 0 0 1 0 
2 0 0 1 0 -0 1 4
2 1.7053025658242404e-13 4.889134532947071e-72 1 2.8670188099927935e-59 -2.8670188099927935e-59 1 4
1 6.4999999999999902 0 0 -1 
1 6.4999999999999911 0 0 -1 
1 0 0 0 -1 
1 6.2831853071795862 -0 0 1 
1 0 -0 0 1 
1 0 25 1 0 
2 0 0 1 0 -0 1 4
Curves 15
1 78.099999999999994 19 495.39999999999998 1 -0 0 
1 78.099999999999994 22.25 501.02916512459882 1 -0 0 
1 78.099999999999994 19 495.39999999999998 0 0.50000000000000067 0.86602540378443826 
1 78.099999999999994 22.25 489.77083487540114 1 -0 0 
1 78.099999999999994 22.25 489.77083487540114 0 -0.50000000000000067 0.86602540378443826 
1 78.099999999999994 28.75 501.02916512459882 1 -0 0 
1 78.099999999999994 22.25 501.02916512459882 0 1 0 
1 78.099999999999994 28.750000000000004 489.77083487540114 0 -1 0 
1 78.099999999999994 28.75 501.02916512459882 0 0.50000000000000067 -0.86602540378443826 
1 78.099999999999994 32 495.39999999999998 0 -0.50000000000000022 -0.86602540378443849 
2 78.099999999999994 25.5 495.39999999999998 -1 0 -0 0 0 -1 0 -1 -0 4
1 78.099999999999994 28.750000000000004 489.77083487540114 1 -0 0 
1 78.099999999999994 32 495.39999999999998 1 -0 0 
1 78.099999999999994 25.5 491.39999999999998 -1 0 0 
2 53.099999999999994 25.5 495.39999999999998 -1 0 -0 0 0 -1 0 -1 -0 4
Polygon3D 0
PolygonOnTriangulations 0
Surfaces 10
1 78.099999999999994 19 495.39999999999998 -0 -0.86602540378443826 0.50000000000000067 0 0.50000000000000067 0.86602540378443826 -1 0 0 
1 78.099999999999994 22.25 489.77083487540114 0 -0.86602540378443826 -0.50000000000000067 0 -0.50000000000000067 0.86602540378443826 -1 -0 0 
1 78.100000000000009 25.5 495.40000000000015 -1 -2.4895018705198309e-31 1.1516435653025372e-28 -1.1516435653025372e-28 0 -1 2.4895018705198309e-31 -1 -2.8670188099927935e-59 
1 78.099999999999994 22.25 501.02916512459882 -0 0 1 0 1 0 -1 0 -0 
1 78.099999999999994 28.75 501.02916512459882 0 0.86602540378443826 0.50000000000000067 0 0.50000000000000067 -0.86602540378443826 -1 0 0 
1 78.099999999999994 32 495.39999999999998 0 0.8660254037844386 -0.50000000000000033 0 -0.50000000000000022 -0.86602540378443849 -1 0 -0 
2 78.099999999999994 25.5 495.39999999999998 -1 0 -0 0 0 -1 0 -1 -0 4
1 78.099999999999994 25.5 495.39999999999998 -1 0 -0 0 0 -1 0 -1 -0 
1 78.099999999999994 28.750000000000004 489.77083487540114 0 0 -1 0 -1 0 -1 -0 -0 
1 53.099999999999994 25.5 495.39999999999998 -1 0 -0 0 0 -1 0 -1 -0 
Triangulations 0

TShapes 47
Ve
1e-07
78.1 19 495.4
0 0

0101101
*
Ed
 1e-07 1 1 0
1  1 0 0 5.3
2  1 1 0 0 5.3
2  2 2 0 0 5.3
0

0101000
+47 0 -47 1 *
Ve
1e-07
78.1 22.25 501.029165124599
0 0

0101101
*
Ed
 1e-07 1 1 0
1  2 0 0 5.3
2  3 1 0 0 5.3
0

0101000
+45 0 -45 1 *
Ed
 1e-07 1 1 0
1  3 0 0 6.49999999999999
2  4 3 0 0 6.49999999999999
2  5 1 0 0 6.49999999999999
2  6 1 2 0 6.49999999999999
0

0101000
+47 0 -45 0 *
Wi

0101100
+46 0 -44 0 -43 0 +43 1 *
Fa
0  1e-07 1 0

0111000
+42 0 *
Ve
1e-07
78.1 22.25 489.770834875401
0 0

0101101
*
Ed
 1e-07 1 1 0
1  4 0 0 5.3
2  7 2 0 0 5.3
0

0101000
+40 0 -40 1 *
Ed
 1e-07 1 1 0
1  5 0 0 6.49999999999999
2  8 3 0 0 6.49999999999999
2  9 2 0 0 6.49999999999999
2  10 2 2 0 6.49999999999999
0

0101000
+40 0 -47 0 *
Wi

0101100
+39 0 -46 0 -38 0 +38 1 *
Fa
0  1e-07 2 0

0101000
+37 0 *
Ve
1e-07
78.1 28.75 501.029165124599
0 0

0101101
*
Ed
 1e-07 1 1 0
1  6 0 0 5.3
2  11 5 0 0 5.3
0

0101000
+35 0 -35 1 *
Ed
 1e-07 1 1 0
1  7 0 0 6.5
2  12 3 0 0 6.5
0

0101000
+45 0 -35 0 *
Wi

0101100
+44 0 -34 0 -33 0 +33 1 *
Fa
0  1e-07 4 0

0101000
+32 0 *
Ve
1e-07
78.1 28.75 489.770834875401
0 0

0101101
*
Ed
 1e-07 1 1 0
1  8 0 0 6.5
2  13 3 0 0 6.5
0

0101000
+30 0 -40 0 *
Ve
1e-07
78.1 32 495.4
0 0

0101101
*
Ed
 1e-07 1 1 0
1  9 0 0 6.49999999999999
2  14 3 0 0 6.49999999999999
2  15 5 0 0 6.49999999999999
2  16 5 2 0 6.49999999999999
0

0101000
+35 0 -28 0 *
Ed
 1e-07 1 1 0
1  10 0 0 6.49999999999999
2  17 3 0 0 6.49999999999999
2  18 6 0 0 6.49999999999999
2  19 6 2 0 6.49999999999999
0

0101000
+28 0 -30 0 *
Wi

0101100
+43 0 +38 0 +33 0 +29 0 +27 0 +26 0 *
Ve
1e-07
78.1 25.5 491.4
0 0

0101101
*
Ed
 1e-07 1 1 0
1  11 0 0 6.28318530717959
2  20 7 0 0 6.28318530717959
2  21 8 0 0 6.28318530717959
2  22 3 0 0 6.28318530717959
0

0101000
+24 0 -24 0 *
Wi

0101100
-23 0 *
Fa
0  1e-07 3 0

0111000
+25 0 +22 0 *
Wi

0101100
+43 0 +33 0 +27 0 +26 0 +29 0 +38 0 *
Fa
0  1e-07 3 0

0111000
+20 0 *
Ed
 1e-07 1 1 0
1  12 0 0 5.3
2  23 6 0 0 5.3
0

0101000
+30 0 -30 1 *
Wi

0101100
+18 0 -39 0 -29 0 +29 1 *
Fa
0  1e-07 9 0

0101000
+17 0 *
Ed
 1e-07 1 1 0
1  13 0 0 5.3
2  24 5 0 0 5.3
2  25 6 0 0 5.3
0

0101000
+28 0 -28 1 *
Wi

0101100
+34 0 -15 0 -27 0 +27 1 *
Fa
0  1e-07 5 0

0101000
+14 0 *
Wi

0101100
+15 0 -18 0 -26 0 +26 1 *
Fa
0  1e-07 6 0

0111000
+12 0 *
Ve
1e-07
53.1 25.5 491.4
0 0

0101101
*
Ed
 1e-07 1 1 0
1  14 0 0 25
3  26 27CN 7 0 0 25
0

0101000
-10 0 +24 0 *
Ed
 1e-07 1 1 0
1  15 0 0 6.28318530717959
2  28 7 0 0 6.28318530717959
2  29 10 0 0 6.28318530717959
0

0101000
+10 0 -10 0 *
Wi

0101100
+9 0 +23 0 -9 0 -8 0 *
Fa
0  1e-07 7 0

0111000
+7 0 *
Wi

0101100
+8 0 *
Fa
0  1e-07 10 0

0101000
+5 0 *
Sh

0101100
+41 0 +36 0 +31 0 +21 0 -19 1 +16 0 +13 0 +11 0 +6 0 +4 0 
*
So

0100000
+3 0 *
Co

1100000
+2 0 *

+1 0 