DBRep_DrawableShape

CASCADE Topology V1, (c) Matra-Datavision
Locations 2
1
              1               0               0             6.8 
              0               1               0              -0 
              0               0               1               0 
2  1 -1 0
Curve2ds 29
1 0 0 0 -1 
1 6.5000000000000409 0 0 -1 
1 6.5000000000000409 0 0 -1 
1 0 0 1 0 
1 0 -6.7999999999999972 1 0 
1 6.5 -4.8341432593913857e-62 -0.49999999999999684 0.86602540378444048 
1 0 0 0 -1 
1 0 0 1 0 
1 0 -6.7999999999999972 1 0 
1 3.25 -5.6291651245988987 0.49999999999999684 0.86602540378444048 
1 0 0 0 -1 
1 3.25 5.6291651245988987 -1 7.4371434759867471e-63 
1 -3.2500000000000036 -5.6291651245988987 1 -7.4371434759867471e-63 
1 0 0 1 0 
1 0 -6.7999999999999972 1 0 
1 -3.25 5.6291651245988987 -0.49999999999999684 -0.86602540378444048 
1 0 0 1 0 
1 0 -6.7999999999999972 1 0 
1 -6.5 4.8341432593913857e-62 0.49999999999999645 -0.86602540378444071 
1 0 0 1 0 
2 0 0 1 0 -0 1 4
2 0 0 0 1 -1 0 4
2 0 0 0 1 -1 0 4
1 0 6.8000000000000114 1 0 
1 6.5000000000000391 0 0 -1 
1 6.5000000000000409 0 0 -1 
1 0 0 0 -1 
1 6.2831853071795862 -0 0 1 
1 0 -0 0 1 
Curves 15
1 59.299999999999997 -19 545.39999999999998 1 -0 0 
1 59.299999999999997 -22.25 551.02916512459888 1 -0 0 
1 59.299999999999997 -19 545.39999999999998 0 -0.49999999999999678 0.86602540378444037 
1 59.299999999999997 -22.25 539.77083487540108 1 -0 0 
1 59.299999999999997 -22.25 539.77083487540108 0 0.49999999999999678 0.86602540378444037 
1 59.299999999999997 -28.75 551.02916512459888 1 -0 0 
1 59.299999999999997 -22.25 551.02916512459888 0 -1 0 
1 59.299999999999997 -28.750000000000004 539.77083487540108 0 1 0 
1 59.299999999999997 -28.75 551.02916512459888 0 -0.49999999999999678 -0.86602540378444037 
1 59.299999999999997 -32 545.39999999999998 0 0.49999999999999645 -0.86602540378444071 
2 59.299999999999997 -25.5 545.39999999999998 1 -0 0 -0 0 1 -0 -1 0 4
2 66.100000000000009 -25.5 545.39999999999998 1 -0 0 -0 0 1 -0 -1 0 4
1 59.299999999999997 -28.750000000000004 539.77083487540108 1 -0 0 
1 59.299999999999997 -32 545.39999999999998 1 -0 0 
1 59.299999999999997 -25.5 549.39999999999998 1 0 0 
Polygon3D 0
PolygonOnTriangulations 0
Surfaces 9
1 59.299999999999997 -19 545.39999999999998 0 -0.86602540378444048 -0.49999999999999684 0 -0.49999999999999684 0.86602540378444048 -1 -0 0 
1 59.299999999999997 -22.25 539.77083487540108 -0 -0.86602540378444048 0.49999999999999684 0 0.49999999999999684 0.86602540378444048 -1 0 0 
1 59.300000000000004 -25.5 545.39999999999998 1 -9.9580074820798405e-32 -7.4685056115597709e-32 9.9580074820798405e-32 1 0 7.4685056115597709e-32 -7.4371434759867471e-63 1 
1 59.299999999999997 -22.25 551.02916512459888 0 0 -1 0 -1 0 -1 -0 -0 
1 59.299999999999997 -28.75 551.02916512459888 0 0.86602540378444048 -0.49999999999999684 0 -0.49999999999999684 -0.86602540378444048 -1 0 -0 
1 59.299999999999997 -32 545.39999999999998 0 0.86602540378444071 0.49999999999999645 0 0.49999999999999645 -0.86602540378444071 -1 0 0 
2 59.299999999999997 -25.5 545.39999999999998 1 -0 0 -0 0 1 -0 -1 0 4
1 59.299999999999997 -25.5 545.39999999999998 1 -0 0 -0 0 1 -0 -1 0 
1 59.299999999999997 -28.750000000000004 539.77083487540108 -0 0 1 0 1 0 -1 0 -0 
Triangulations 0

TShapes 46
Ve
1e-07
59.3 -19 545.4
0 0

0101101
*
Ed
 1e-07 1 1 0
1  1 0 0 6.8
2  1 1 0 0 6.8
2  2 2 0 0 6.8
0

0101000
+46 0 -46 1 *
Ve
1e-07
59.3 -22.25 551.029165124599
0 0

0101101
*
Ed
 1e-07 1 1 0
1  2 0 0 6.8
2  3 1 0 0 6.8
0

0101000
+44 0 -44 1 *
Ed
 1e-07 1 1 0
1  3 0 0 6.50000000000004
2  4 1 0 0 6.50000000000004
2  5 1 2 0 6.50000000000004
2  6 3 0 0 6.50000000000004
0

0101000
+46 0 -44 0 *
Wi

0101100
+45 0 -43 0 -42 0 +42 1 *
Fa
0  1e-07 1 0

0111000
+41 0 *
Ve
1e-07
59.3 -22.25 539.770834875401
0 0

0101101
*
Ed
 1e-07 1 1 0
1  4 0 0 6.8
2  7 2 0 0 6.8
0

0101000
+39 0 -39 1 *
Ed
 1e-07 1 1 0
1  5 0 0 6.50000000000004
2  8 2 0 0 6.50000000000004
2  9 2 2 0 6.50000000000004
2  10 3 0 0 6.50000000000004
0

0101000
+39 0 -46 0 *
Wi

0101100
+38 0 -45 0 -37 0 +37 1 *
Fa
0  1e-07 2 0

0101000
+36 0 *
Ve
1e-07
59.3 -28.75 551.029165124599
0 0

0101101
*
Ed
 1e-07 1 1 0
1  6 0 0 6.8
2  11 5 0 0 6.8
0

0101000
+34 0 -34 1 *
Ed
 1e-07 1 1 0
1  7 0 0 6.5
2  12 3 0 0 6.5
0

0101000
+44 0 -34 0 *
Wi

0101100
+43 0 -33 0 -32 0 +32 1 *
Fa
0  1e-07 4 0

0101000
+31 0 *
Ve
1e-07
59.3 -28.75 539.770834875401
0 0

0101101
*
Ed
 1e-07 1 1 0
1  8 0 0 6.5
2  13 3 0 0 6.5
0

0101000
+29 0 -39 0 *
Ve
1e-07
59.3 -32 545.4
0 0

0101101
*
Ed
 1e-07 1 1 0
1  9 0 0 6.50000000000004
2  14 5 0 0 6.50000000000004
2  15 5 2 0 6.50000000000004
2  16 3 0 0 6.50000000000004
0

0101000
+34 0 -27 0 *
Ed
 1e-07 1 1 0
1  10 0 0 6.50000000000004
2  17 6 0 0 6.50000000000004
2  18 6 2 0 6.50000000000004
2  19 3 0 0 6.50000000000004
0

0101000
+27 0 -29 0 *
Wi

0101100
+42 0 +37 0 +32 0 +28 0 +26 0 +25 0 *
Ve
1e-07
59.3 -25.5 549.4
0 0

0101101
*
Ed
 1e-07 1 1 0
1  11 0 0 6.28318530717959
2  20 7 0 0 6.28318530717959
2  21 8 0 0 6.28318530717959
2  22 3 0 0 6.28318530717959
0

0101000
+23 0 -23 0 *
Wi

0101100
-22 0 *
Fa
0  1e-07 3 0

0111000
+24 0 +21 0 *
Wi

0101100
+42 1 +37 1 +32 1 +28 1 +26 1 +25 1 *
Ve
2.00001e-07
66.1 -25.5 549.4
0 0

0101101
*
Ed
 1e-07 1 1 0
1  12 0 0 6.28318530717959
2  23 3 1 0 6.28318530717959
2  24 7 0 0 6.28318530717959
0

0101000
+18 0 -18 0 *
Wi

0101100
-17 0 *
Fa
0  1e-07 3 1

0111000
+19 0 +16 0 *
Ed
 1e-07 1 1 0
1  13 0 0 6.8
2  25 6 0 0 6.8
0

0101000
+29 0 -29 1 *
Wi

0101100
+14 0 -38 0 -28 0 +28 1 *
Fa
0  1e-07 9 0

0101000
+13 0 *
Ed
 1e-07 1 1 0
1  14 0 0 6.8
2  26 5 0 0 6.8
2  27 6 0 0 6.8
0

0101000
+27 0 -27 1 *
Wi

0101100
+33 0 -11 0 -26 0 +26 1 *
Fa
0  1e-07 5 0

0101000
+10 0 *
Wi

0101100
+11 0 -14 0 -25 0 +25 1 *
Fa
0  1e-07 6 0

0111000
+8 0 *
Ed
 1e-07 1 1 0
1  15 0 0 6.80000000000001
3  28 29CN 7 0 0 6.80000000000001
0

0101000
+23 0 -18 0 *
Wi

0101100
-17 0 +6 0 +22 0 -6 0 *
Fa
0  1e-07 7 0

0111000
+5 0 *
Sh

0101100
-40 0 -35 0 -30 0 -20 0 +15 0 -12 0 -9 0 -7 0 -4 0 *
So

0100000
+3 0 *
Co

1100000
+2 0 *

+1 0 