<?xml version="1.0" encoding="UTF-8"?>
<svg version="1.1" xmlns="http://www.w3.org/2000/svg" width="199" height="188">
<path d="M0 0 C0 3.63 0 7.26 0 11 C1.65 11.66 3.3 12.32 5 13 C6.43276721 13.77700822 7.84987897 14.58356792 9.25 15.41796875 C10.41015625 16.09182617 10.41015625 16.09182617 11.59375 16.77929688 C13.20304885 17.72110245 14.80722949 18.67170665 16.40625 19.63085938 C17.1796875 20.07623047 17.953125 20.52160156 18.75 20.98046875 C19.44609375 21.39192139 20.1421875 21.80337402 20.859375 22.22729492 C23.61067887 23.2204378 25.22575434 22.80982481 28 22 C28.99 21.505 28.99 21.505 30 21 C33.0625 20.875 33.0625 20.875 36 21 C38.02527598 23.02527598 37.23271951 27.15210916 37.28125 29.9375 C37.29965942 30.732771 37.31806885 31.52804199 37.33703613 32.34741211 C37.41598124 35.76434429 37.48354351 39.18148185 37.55224609 42.59863281 C37.6038636 45.08669119 37.66115795 47.57457394 37.71875 50.0625 C37.73232544 50.84165771 37.74590088 51.62081543 37.7598877 52.42358398 C37.51587629 56.01033755 37.51587629 56.01033755 39 59 C39 61.20833333 39 63.41666667 39 65.625 C39.23922567 73.85976829 42.54234073 79.35727018 47.06640625 86.05078125 C49 89 49 89 49 91 C49.8647998 91.25885986 50.72959961 91.51771973 51.62060547 91.78442383 C55.07498549 93.02697246 57.92729723 94.55949999 61.0703125 96.44921875 C61.63265594 96.78492386 62.19499939 97.12062897 62.77438354 97.46650696 C64.56124234 98.53474414 66.34321609 99.61082389 68.125 100.6875 C69.29654494 101.39052427 70.46841781 102.09300238 71.640625 102.79492188 C73.38043413 103.8367875 75.12000492 104.87902238 76.85821533 105.92355347 C82.54111511 109.33610135 88.26527824 112.67538121 94 116 C92.75023244 119.65316671 92.32901247 120.78065836 89 123 C88.3273062 125.93443117 88.49065378 128.93502602 88.5 131.9375 C88.47164062 132.76185547 88.44328125 133.58621094 88.4140625 134.43554688 C88.40657642 136.73938934 88.45734054 138.75980517 89 141 C91.36262138 143.15195812 91.36262138 143.15195812 94 144 C93.85546875 145.7578125 93.85546875 145.7578125 93 148 C90.48828125 149.9921875 90.48828125 149.9921875 87.3125 151.875 C86.27738281 152.51179687 85.24226562 153.14859375 84.17578125 153.8046875 C81 155 81 155 78.09375 154.4765625 C74.32268779 152.67673735 70.7581556 150.66653511 67.1875 148.5 C65.69154348 147.60523928 64.19544525 146.71071543 62.69921875 145.81640625 C61.9314209 145.35508301 61.16362305 144.89375977 60.37255859 144.41845703 C57.9710399 142.98268592 55.55993669 141.56461404 53.14453125 140.15234375 C52.36634033 139.69730469 51.58814941 139.24226562 50.78637695 138.7734375 C49.28130501 137.89401906 47.77594146 137.01509949 46.27026367 136.13671875 C41.11107576 133.11107576 41.11107576 133.11107576 40 132 C37.55941461 135.66087808 37.75394582 138.36444143 37.796875 142.58984375 C37.78632811 144.1113367 37.77457197 145.63282166 37.76171875 147.15429688 C37.75139651 149.54881016 37.75003927 151.94220673 37.77001953 154.33666992 C37.78478748 156.6511889 37.76233532 158.96299916 37.734375 161.27734375 C37.74974304 161.99099594 37.76511108 162.70464813 37.78094482 163.43992615 C37.74121094 165.47241211 37.74121094 165.47241211 37 169 C34.13012695 171.37841797 34.13012695 171.37841797 31 173 C30.07058594 173.55042969 29.14117187 174.10085937 28.18359375 174.66796875 C27.27738281 175.16941406 26.37117188 175.67085937 25.4375 176.1875 C24.52871094 176.69667969 23.61992188 177.20585937 22.68359375 177.73046875 C20.06745752 178.96808778 17.86822163 179.66226564 15 180 C14 179 14 179 13.90234375 176.49609375 C13.91394531 175.48675781 13.92554687 174.47742188 13.9375 173.4375 C13.94652344 172.42558594 13.95554687 171.41367188 13.96484375 170.37109375 C13.97644531 169.58863281 13.98804687 168.80617187 14 168 C13.175 167.76667969 12.35 167.53335938 11.5 167.29296875 C6.59817515 165.48213836 2.34228945 162.7764309 -2.078125 160.01367188 C-6.34203955 157.48676065 -6.34203955 157.48676065 -11.23046875 157.19140625 C-12.14441406 157.45824219 -13.05835937 157.72507813 -14 158 C-16.6710595 158.40814152 -19.30834704 158.72627258 -22 159 C-24.05088424 156.94911576 -23.23335305 152.6699541 -23.28125 149.84375 C-23.30886414 148.61754944 -23.30886414 148.61754944 -23.33703613 147.36657715 C-23.41598605 143.85406016 -23.48354529 140.34134325 -23.55224609 136.82861328 C-23.60386124 134.27105892 -23.66115657 131.71367556 -23.71875 129.15625 C-23.73232544 128.35521851 -23.74590088 127.55418701 -23.7598877 126.72888184 C-23.50168515 123.06171177 -23.50168515 123.06171177 -25 120 C-25 117.79166667 -25 115.58333333 -25 113.375 C-25.26535893 107.20242326 -26.67287007 102.41873194 -29.75 97.0625 C-30.06582031 96.4732373 -30.38164063 95.88397461 -30.70703125 95.27685547 C-34.73268441 88.84338557 -41.57353684 85.62614761 -48 82 C-49.20448844 81.31101991 -50.40875255 80.6216475 -51.61279297 79.93188477 C-55.87928568 77.49862994 -60.15929441 75.08950184 -64.44946289 72.69824219 C-66.28346152 71.67446001 -68.11268191 70.64254121 -69.94140625 69.609375 C-71.54544312 68.7117041 -71.54544312 68.7117041 -73.18188477 67.79589844 C-75.85749778 66.0908123 -77.86731114 64.33404346 -80 62 C-79 59 -79 59 -76.984375 57.88671875 C-74.19672171 55.23625313 -74.44284696 53.06985795 -74.29296875 49.33789062 C-74.27878906 48.50451172 -74.26460937 47.67113281 -74.25 46.8125 C-74.22035156 45.96751953 -74.19070312 45.12253906 -74.16015625 44.25195312 C-74.0895301 42.16848178 -74.04249205 40.08423494 -74 38 C-75.65 37.34 -77.3 36.68 -79 36 C-79 34.68 -79 33.36 -79 32 C-76.55078125 30.04296875 -76.55078125 30.04296875 -73.3125 28.1875 C-72.25675781 27.56230469 -71.20101562 26.93710937 -70.11328125 26.29296875 C-66.53520934 24.806969 -65.63102692 24.93176133 -62 26 C-59.85339284 27.07147601 -57.74528786 28.22157152 -55.66796875 29.421875 C-55.07252762 29.7637384 -54.47708649 30.10560181 -53.86360168 30.45782471 C-51.96772073 31.54869942 -50.07770737 32.64933015 -48.1875 33.75 C-46.92938789 34.47456888 -45.67092726 35.19853297 -44.41210938 35.921875 C-38.20153814 39.50052639 -32.04534811 43.14675428 -26 47 C-23.63401009 45.09338389 -23.63401009 45.09338389 -23.91918945 41.79467773 C-23.97793298 40.42404828 -24.04308318 39.05368431 -24.11328125 37.68359375 C-24.8183284 14.04957047 -24.8183284 14.04957047 -21.53759766 8.54736328 C-17.62346129 4.84621273 -13.11287679 3.39955126 -8 2 C-5 0 -5 0 0 0 Z " fill="#514942" transform="translate(84,5)"/>
<path d="M0 0 C0 3.63 0 7.26 0 11 C1.65 11.66 3.3 12.32 5 13 C6.43276721 13.77700822 7.84987897 14.58356792 9.25 15.41796875 C10.41015625 16.09182617 10.41015625 16.09182617 11.59375 16.77929688 C13.20304885 17.72110245 14.80722949 18.67170665 16.40625 19.63085938 C17.1796875 20.07623047 17.953125 20.52160156 18.75 20.98046875 C19.44609375 21.39192139 20.1421875 21.80337402 20.859375 22.22729492 C23.61067887 23.2204378 25.22575434 22.80982481 28 22 C28.99 21.505 28.99 21.505 30 21 C31.99960012 20.960008 34.00047242 20.95653201 36 21 C33.98405311 23.13812549 32.01104183 24.74707633 29.49609375 26.26171875 C28.83802734 26.65810547 28.17996094 27.05449219 27.50195312 27.46289062 C26.82068359 27.86701172 26.13941406 28.27113281 25.4375 28.6875 C24.40979492 29.31108398 24.40979492 29.31108398 23.36132812 29.94726562 C18.2533867 33 18.2533867 33 16 33 C16 32.34 16 31.68 16 31 C16.639375 30.525625 17.27875 30.05125 17.9375 29.5625 C20.28372963 28.0908635 20.28372963 28.0908635 21 25 C20.2776416 24.72744385 19.5552832 24.4548877 18.81103516 24.17407227 C16.06539636 23.0273138 13.59305101 21.71101474 11.0234375 20.21484375 C9.64671875 19.41916992 9.64671875 19.41916992 8.2421875 18.60742188 C7.29601562 18.05634766 6.34984375 17.50527344 5.375 16.9375 C3.48841919 15.83996887 1.60045807 14.74480599 -0.2890625 13.65234375 C-1.12131348 13.16757568 -1.95356445 12.68280762 -2.81103516 12.18334961 C-5.07019233 10.8805075 -5.07019233 10.8805075 -8 10 C-8 27.82 -8 45.64 -8 64 C-9.98 64.66 -11.96 65.32 -14 66 C-14 65.34 -14 64.68 -14 64 C-14.99 64 -15.98 64 -17 64 C-16.67 64.66 -16.34 65.32 -16 66 C-14.02 66.495 -14.02 66.495 -12 67 C-12 70.3 -12 73.6 -12 77 C-13.65 76.34 -15.3 75.68 -17 75 C-16.67 75.66 -16.34 76.32 -16 77 C-14.02 77 -12.04 77 -10 77 C-10 79.31 -10 81.62 -10 84 C-11.98 84.99 -11.98 84.99 -14 86 C-14 85.34 -14 84.68 -14 84 C-14.99 84 -15.98 84 -17 84 C-16.505 87.465 -16.505 87.465 -16 91 C-15.34 91 -14.68 91 -14 91 C-14 91.66 -14 92.32 -14 93 C-14.99 93 -15.98 93 -17 93 C-17 93.99 -17 94.98 -17 96 C-15.35 96 -13.7 96 -12 96 C-12 99.3 -12 102.6 -12 106 C-13.98 105.505 -13.98 105.505 -16 105 C-14.02 105.99 -14.02 105.99 -12 107 C-12 109.64 -12 112.28 -12 115 C-12.99 115.495 -12.99 115.495 -14 116 C-13.34 116.33 -12.68 116.66 -12 117 C-12 117.66 -12 118.32 -12 119 C-13.98 118.505 -13.98 118.505 -16 118 C-16 118.66 -16 119.32 -16 120 C-14.02 120.495 -14.02 120.495 -12 121 C-11.67 132.55 -11.34 144.1 -11 156 C-17.93023256 159.46511628 -17.93023256 159.46511628 -22 159 C-24.05088424 156.94911576 -23.23335305 152.6699541 -23.28125 149.84375 C-23.30886414 148.61754944 -23.30886414 148.61754944 -23.33703613 147.36657715 C-23.41598605 143.85406016 -23.48354529 140.34134325 -23.55224609 136.82861328 C-23.60386124 134.27105892 -23.66115657 131.71367556 -23.71875 129.15625 C-23.73232544 128.35521851 -23.74590088 127.55418701 -23.7598877 126.72888184 C-23.50168515 123.06171177 -23.50168515 123.06171177 -25 120 C-25 117.79166667 -25 115.58333333 -25 113.375 C-25.26535893 107.20242326 -26.67287007 102.41873194 -29.75 97.0625 C-30.06582031 96.4732373 -30.38164063 95.88397461 -30.70703125 95.27685547 C-34.73268441 88.84338557 -41.57353684 85.62614761 -48 82 C-49.20448844 81.31101991 -50.40875255 80.6216475 -51.61279297 79.93188477 C-55.87928568 77.49862994 -60.15929441 75.08950184 -64.44946289 72.69824219 C-66.28346152 71.67446001 -68.11268191 70.64254121 -69.94140625 69.609375 C-71.54544312 68.7117041 -71.54544312 68.7117041 -73.18188477 67.79589844 C-75.85749778 66.0908123 -77.86731114 64.33404346 -80 62 C-79 59 -79 59 -76.984375 57.88671875 C-74.19672171 55.23625313 -74.44284696 53.06985795 -74.29296875 49.33789062 C-74.27878906 48.50451172 -74.26460937 47.67113281 -74.25 46.8125 C-74.22035156 45.96751953 -74.19070312 45.12253906 -74.16015625 44.25195312 C-74.0895301 42.16848178 -74.04249205 40.08423494 -74 38 C-75.65 37.34 -77.3 36.68 -79 36 C-79 34.68 -79 33.36 -79 32 C-76.55078125 30.04296875 -76.55078125 30.04296875 -73.3125 28.1875 C-72.25675781 27.56230469 -71.20101562 26.93710937 -70.11328125 26.29296875 C-66.53520934 24.806969 -65.63102692 24.93176133 -62 26 C-59.85339284 27.07147601 -57.74528786 28.22157152 -55.66796875 29.421875 C-55.07252762 29.7637384 -54.47708649 30.10560181 -53.86360168 30.45782471 C-51.96772073 31.54869942 -50.07770737 32.64933015 -48.1875 33.75 C-46.92938789 34.47456888 -45.67092726 35.19853297 -44.41210938 35.921875 C-38.20153814 39.50052639 -32.04534811 43.14675428 -26 47 C-23.63401009 45.09338389 -23.63401009 45.09338389 -23.91918945 41.79467773 C-23.97793298 40.42404828 -24.04308318 39.05368431 -24.11328125 37.68359375 C-24.8183284 14.04957047 -24.8183284 14.04957047 -21.53759766 8.54736328 C-17.62346129 4.84621273 -13.11287679 3.39955126 -8 2 C-5 0 -5 0 0 0 Z " fill="#4D453F" transform="translate(84,5)"/>
<path d="M0 0 C0.144375 0.639375 0.28875 1.27875 0.4375 1.9375 C0.623125 2.618125 0.80875 3.29875 1 4 C1.58394531 4.22816406 2.16789062 4.45632812 2.76953125 4.69140625 C6.09458872 6.64218427 7.46498673 9.70764219 9.25 13 C9.61351562 13.64195313 9.97703125 14.28390625 10.3515625 14.9453125 C13 19.70453477 13 19.70453477 13 22 C13.8647998 22.25885986 14.72959961 22.51771973 15.62060547 22.78442383 C19.07498549 24.02697246 21.92729723 25.55949999 25.0703125 27.44921875 C25.63265594 27.78492386 26.19499939 28.12062897 26.77438354 28.46650696 C28.56124234 29.53474414 30.34321609 30.61082389 32.125 31.6875 C33.29654494 32.39052427 34.46841781 33.09300238 35.640625 33.79492188 C37.38043413 34.8367875 39.12000492 35.87902238 40.85821533 36.92355347 C46.54111511 40.33610135 52.26527824 43.67538121 58 47 C56.75023244 50.65316671 56.32901247 51.78065836 53 54 C52.3273062 56.93443117 52.49065378 59.93502602 52.5 62.9375 C52.47164063 63.76185547 52.44328125 64.58621094 52.4140625 65.43554688 C52.40657642 67.73938934 52.45734054 69.75980517 53 72 C55.36262138 74.15195812 55.36262138 74.15195812 58 75 C57.85546875 76.7578125 57.85546875 76.7578125 57 79 C54.48828125 80.9921875 54.48828125 80.9921875 51.3125 82.875 C50.27738281 83.51179688 49.24226563 84.14859375 48.17578125 84.8046875 C45 86 45 86 42.09375 85.4765625 C38.32268779 83.67673735 34.7581556 81.66653511 31.1875 79.5 C29.69154348 78.60523928 28.19544525 77.71071543 26.69921875 76.81640625 C25.9314209 76.35508301 25.16362305 75.89375977 24.37255859 75.41845703 C21.9710399 73.98268592 19.55993669 72.56461404 17.14453125 71.15234375 C16.36634033 70.69730469 15.58814941 70.24226563 14.78637695 69.7734375 C13.28130501 68.89401906 11.77594146 68.01509949 10.27026367 67.13671875 C5.11107576 64.11107576 5.11107576 64.11107576 4 63 C1.55941461 66.66087808 1.75394582 69.36444143 1.796875 73.58984375 C1.78632811 75.1113367 1.77457197 76.63282166 1.76171875 78.15429688 C1.75139651 80.54881016 1.75003927 82.94220673 1.77001953 85.33666992 C1.78478748 87.6511889 1.76233532 89.96299916 1.734375 92.27734375 C1.74974304 92.99099594 1.76511108 93.70464813 1.78094482 94.43992615 C1.74121094 96.47241211 1.74121094 96.47241211 1 100 C-1.86547852 102.37841797 -1.86547852 102.37841797 -5 104 C-6.42892578 104.82564453 -6.42892578 104.82564453 -7.88671875 105.66796875 C-8.81097656 106.16941406 -9.73523438 106.67085938 -10.6875 107.1875 C-11.61949219 107.69667969 -12.55148438 108.20585937 -13.51171875 108.73046875 C-16 110 -16 110 -19 111 C-19.07403712 105.76728431 -19.12854783 100.53487199 -19.16479492 95.30175781 C-19.17990173 93.52077933 -19.20038835 91.73983816 -19.22631836 89.95898438 C-19.26261943 87.40225022 -19.27970688 84.8460069 -19.29296875 82.2890625 C-19.30845261 81.49005524 -19.32393646 80.69104797 -19.33988953 79.86782837 C-19.34057617 77.62353516 -19.34057617 77.62353516 -19 74 C-17.515 73.01 -17.515 73.01 -16 72 C-15.64080332 70.33871537 -15.31088368 68.67099977 -15 67 C-13.53129686 64.2541637 -12.20271564 62.20271564 -10 60 C-9.83318891 56.91652174 -9.83318891 56.91652174 -10 54 C-11.2236068 56.0745356 -11.2236068 56.0745356 -11 59 C-12.65 59 -14.3 59 -16 59 C-15 54 -15 54 -14.375 51.5625 C-13.92743004 48.50410524 -14.37012756 46.00939057 -15 43 C-14.01 43 -13.02 43 -12 43 C-12 43.99 -12 44.98 -12 46 C-11.01 46 -10.02 46 -9 46 C-9 45.34 -9 44.68 -9 44 C-5.3883158 45.36606692 -2.07572837 46.97971632 1.2890625 48.87109375 C2.30419922 49.44029541 3.31933594 50.00949707 4.36523438 50.59594727 C5.44095703 51.20365967 6.51667969 51.81137207 7.625 52.4375 C9.28885742 53.37323853 9.28885742 53.37323853 10.98632812 54.32788086 C18.59635736 58.61700099 26.17702292 62.95518726 33.72119141 67.35913086 C38.77985427 70.31089032 43.87680304 73.15377947 49 76 C49.33 69.07 49.66 62.14 50 55 C47.69 55 45.38 55 43 55 C40.30371094 53.8894043 40.30371094 53.8894043 37.734375 52.32421875 C36.77120361 51.74994141 35.80803223 51.17566406 34.81567383 50.58398438 C33.29816528 49.64522461 33.29816528 49.64522461 31.75 48.6875 C29.60421765 47.37668872 27.45706474 46.06811858 25.30859375 44.76171875 C24.24495605 44.11380371 23.18131836 43.46588867 22.08544922 42.79833984 C19.32088859 41.18702843 16.55189106 39.75963159 13.66015625 38.39453125 C0.44579735 31.99413192 -5.59979679 23.18621178 -12.33520508 10.29907227 C-13 8 -13 8 -12.23876953 5.79394531 C-10.75267186 3.64182752 -9.28450967 2.55711862 -7.0625 1.1875 C-6.02802734 0.52814453 -6.02802734 0.52814453 -4.97265625 -0.14453125 C-3 -1 -3 -1 0 0 Z " fill="#4F4C49" transform="translate(120,74)"/>
<path d="M0 0 C0.144375 0.639375 0.28875 1.27875 0.4375 1.9375 C0.623125 2.618125 0.80875 3.29875 1 4 C1.58394531 4.22816406 2.16789062 4.45632812 2.76953125 4.69140625 C6.09458872 6.64218427 7.46498673 9.70764219 9.25 13 C9.61351562 13.64195313 9.97703125 14.28390625 10.3515625 14.9453125 C13 19.70453477 13 19.70453477 13 22 C13.86262451 22.25740967 14.72524902 22.51481934 15.61401367 22.7800293 C19.10924888 24.03936237 21.99625812 25.60405225 25.17578125 27.51953125 C25.74523972 27.85997971 26.31469818 28.20042816 26.90141296 28.55119324 C28.70844579 29.63284746 30.51062492 30.7222797 32.3125 31.8125 C34.68223947 33.23793857 37.05384852 34.660246 39.42578125 36.08203125 C40.54678223 36.75443848 41.6677832 37.4268457 42.82275391 38.11962891 C46.83764018 40.49573572 50.89821743 42.77778036 55 45 C54.20458984 48.81005859 54.20458984 48.81005859 52.36328125 50.51953125 C51.34814453 51.15955078 51.34814453 51.15955078 50.3125 51.8125 C49.64863281 52.25207031 48.98476562 52.69164062 48.30078125 53.14453125 C44.37285433 54.60499983 40.9978568 53.45453944 37.27783203 51.76000977 C35.90667236 50.98355103 35.90667236 50.98355103 34.5078125 50.19140625 C33.48067139 49.61511475 32.45353027 49.03882324 31.39526367 48.44506836 C26.94641797 45.88403445 22.49928533 43.32030142 18.06201172 40.73925781 C15.47879076 39.27195865 12.88293733 37.90536278 10.22265625 36.5859375 C-1.3065045 30.61480424 -6.51256015 21.56385259 -12.37939453 10.22314453 C-13 8 -13 8 -12.23168945 5.80541992 C-10.75298418 3.6379223 -9.29134889 2.56133423 -7.0625 1.1875 C-6.37285156 0.74792969 -5.68320313 0.30835937 -4.97265625 -0.14453125 C-3 -1 -3 -1 0 0 Z " fill="#F8F8F8" transform="translate(120,74)"/>
<path d="M0 0 C0 3.63 0 7.26 0 11 C1.65 11.66 3.3 12.32 5 13 C6.43276721 13.77700822 7.84987897 14.58356792 9.25 15.41796875 C10.41015625 16.09182617 10.41015625 16.09182617 11.59375 16.77929688 C13.20304885 17.72110245 14.80722949 18.67170665 16.40625 19.63085938 C17.1796875 20.07623047 17.953125 20.52160156 18.75 20.98046875 C19.44609375 21.39192139 20.1421875 21.80337402 20.859375 22.22729492 C23.61067887 23.2204378 25.22575434 22.80982481 28 22 C28.66 21.67 29.32 21.34 30 21 C31.99960012 20.960008 34.00047242 20.95653201 36 21 C33.98405311 23.13812549 32.01104183 24.74707633 29.49609375 26.26171875 C28.83802734 26.65810547 28.17996094 27.05449219 27.50195312 27.46289062 C26.82068359 27.86701172 26.13941406 28.27113281 25.4375 28.6875 C24.40979492 29.31108398 24.40979492 29.31108398 23.36132812 29.94726562 C18.2533867 33 18.2533867 33 16 33 C16 32.34 16 31.68 16 31 C16.639375 30.525625 17.27875 30.05125 17.9375 29.5625 C20.28372963 28.0908635 20.28372963 28.0908635 21 25 C20.2776416 24.72744385 19.5552832 24.4548877 18.81103516 24.17407227 C16.06539636 23.0273138 13.59305101 21.71101474 11.0234375 20.21484375 C10.105625 19.68439453 9.1878125 19.15394531 8.2421875 18.60742188 C7.29601562 18.05634766 6.34984375 17.50527344 5.375 16.9375 C3.48841919 15.83996887 1.60045807 14.74480599 -0.2890625 13.65234375 C-1.12131348 13.16757568 -1.95356445 12.68280762 -2.81103516 12.18334961 C-5.07019233 10.8805075 -5.07019233 10.8805075 -8 10 C-8 27.82 -8 45.64 -8 64 C-10.97 64.99 -10.97 64.99 -14 66 C-14 65.34 -14 64.68 -14 64 C-15.65 64 -17.3 64 -19 64 C-19.01030746 63.43259094 -19.02061493 62.86518188 -19.03123474 62.28057861 C-19.13940321 56.37573972 -19.25399285 50.47105024 -19.37231445 44.56640625 C-19.4156301 42.362662 -19.45730759 40.15888492 -19.49731445 37.95507812 C-19.55509844 34.78765976 -19.61876976 31.62040614 -19.68359375 28.453125 C-19.70030624 27.46757629 -19.71701874 26.48202759 -19.73423767 25.46661377 C-19.75418289 24.5459613 -19.77412811 23.62530884 -19.79467773 22.67675781 C-19.81799416 21.46430389 -19.81799416 21.46430389 -19.84178162 20.22735596 C-19.99924988 18.01056003 -20.27330481 16.10138245 -21 14 C-21.66 13.67 -22.32 13.34 -23 13 C-21.46372298 8.39116895 -17.8197657 7.17027335 -13.75 4.8125 C-12.60337891 4.11737305 -12.60337891 4.11737305 -11.43359375 3.40820312 C-10.68722656 2.97056641 -9.94085938 2.53292969 -9.171875 2.08203125 C-8.4922168 1.68218018 -7.81255859 1.2823291 -7.11230469 0.87036133 C-5 0 -5 0 0 0 Z " fill="#615852" transform="translate(84,5)"/>
<path d="M0 0 C7.74510739 3.06303682 14.8615406 7.25686736 22.06420898 11.41186523 C27.2514985 14.39388644 32.3734121 17.24057292 37.86328125 19.62890625 C48.04444065 24.26260932 48.04444065 24.26260932 51 28 C53.13946716 34.82566716 52.19314691 42.06235793 51 49 C50.01 49.33 49.02 49.66 48 50 C47.50113281 49.01 47.00226562 48.02 46.48828125 47 C45.76476338 45.66572029 45.03940037 44.33243998 44.3125 43 C43.99216797 42.35160156 43.67183594 41.70320313 43.34179688 41.03515625 C39.4016261 33.99166512 32.85518915 30.8133275 26 27 C24.79496043 26.31335012 23.59077797 25.62519391 22.38745117 24.93554688 C18.12190418 22.4992163 13.84131915 20.08984382 9.55053711 17.69824219 C7.71653848 16.67446001 5.88731809 15.64254121 4.05859375 14.609375 C2.98923584 14.01092773 1.91987793 13.41248047 0.81811523 12.79589844 C-1.85749778 11.0908123 -3.86731114 9.33404346 -6 7 C-4.77065985 3.31197956 -3.06140622 2.27643027 0 0 Z " fill="#9C938A" transform="translate(10,60)"/>
<path d="M0 0 C0 12.21 0 24.42 0 37 C-6.66666667 40.33333333 -13.33333333 43.66666667 -20 47 C-20.22324847 41.98320609 -20.38612008 36.96932469 -20.49438477 31.94873047 C-20.53952418 30.24313996 -20.60085724 28.53789548 -20.67895508 26.83349609 C-21.31132195 12.67343788 -21.31132195 12.67343788 -18.13012695 8.61376953 C-15.80247887 7.05075131 -13.61514842 5.9937842 -11 5 C-10.08347656 4.44570313 -9.16695312 3.89140625 -8.22265625 3.3203125 C-7.50980469 2.92585938 -6.79695313 2.53140625 -6.0625 2.125 C-5.33160156 1.71507813 -4.60070312 1.30515625 -3.84765625 0.8828125 C-2 0 -2 0 0 0 Z " fill="#67635F" transform="translate(121,27)"/>
<path d="M0 0 C0.33 0 0.66 0 1 0 C1 15.18 1 30.36 1 46 C1.66 46 2.32 46 3 46 C3.33 46.66 3.66 47.32 4 48 C5.32 48.33 6.64 48.66 8 49 C8 52.3 8 55.6 8 59 C6.35 58.34 4.7 57.68 3 57 C3.33 57.66 3.66 58.32 4 59 C5.98 59 7.96 59 10 59 C10 61.31 10 63.62 10 66 C8.02 66.99 8.02 66.99 6 68 C6 67.34 6 66.68 6 66 C5.01 66 4.02 66 3 66 C3.33 68.31 3.66 70.62 4 73 C4.66 73 5.32 73 6 73 C6 73.66 6 74.32 6 75 C5.01 75 4.02 75 3 75 C3 75.99 3 76.98 3 78 C4.65 78 6.3 78 8 78 C8 81.3 8 84.6 8 88 C6.68 87.67 5.36 87.34 4 87 C5.32 87.66 6.64 88.32 8 89 C8 91.64 8 94.28 8 97 C7.01 97.495 7.01 97.495 6 98 C6.66 98.33 7.32 98.66 8 99 C8 99.66 8 100.32 8 101 C6.68 100.67 5.36 100.34 4 100 C4 100.66 4 101.32 4 102 C5.32 102.33 6.64 102.66 8 103 C8.33 114.55 8.66 126.1 9 138 C3 141 3 141 -1 141 C-0.67 94.47 -0.34 47.94 0 0 Z " fill="#6D6259" transform="translate(64,23)"/>
<path d="M0 0 C2.12318136 1.0597638 4.20789079 2.19811069 6.26171875 3.38671875 C6.85241653 3.72621048 7.44311432 4.06570221 8.05171204 4.41548157 C9.93416741 5.49962491 11.81078591 6.59345468 13.6875 7.6875 C14.92867631 8.40361935 16.17020994 9.11911979 17.41210938 9.83398438 C19.82542124 11.22496747 22.23220574 12.6263232 24.63427734 14.03662109 C26.77351616 15.28453627 28.9238777 16.51371982 31.08837891 17.71728516 C31.99378418 18.22952637 32.89918945 18.74176758 33.83203125 19.26953125 C34.61940674 19.70499268 35.40678223 20.1404541 36.21801758 20.58911133 C38.3483964 22.27584365 38.65326515 23.35159611 39 26 C37.61765122 27.03902033 36.21844209 28.05563446 34.8125 29.0625 C33.64654297 29.91521484 33.64654297 29.91521484 32.45703125 30.78515625 C29.35095304 32.32091193 28.29542076 31.92666873 25 31 C23.14502266 30.10655784 21.3246586 29.13935755 19.53515625 28.12109375 C18.49367432 27.53287842 17.45219238 26.94466309 16.37915039 26.33862305 C15.28465576 25.71125244 14.19016113 25.08388184 13.0625 24.4375 C11.38692017 23.48774292 11.38692017 23.48774292 9.67749023 22.51879883 C6.44767931 20.6860809 3.22311863 18.84445563 0 17 C-1.56236366 16.10913585 -3.12484368 15.2184757 -4.6875 14.328125 C-7.00148292 13.00859525 -9.31229365 11.68409114 -11.62109375 10.35546875 C-13.06114559 9.5349466 -14.51756797 8.74121601 -16 8 C-16.33 8.66 -16.66 9.32 -17 10 C-17 8.68 -17 7.36 -17 6 C-14.55078125 4.04296875 -14.55078125 4.04296875 -11.3125 2.1875 C-10.25675781 1.56230469 -9.20101563 0.93710937 -8.11328125 0.29296875 C-4.53715284 -1.19222385 -3.62891323 -1.06639981 0 0 Z " fill="#F8F8F8" transform="translate(22,31)"/>
<path d="M0 0 C0.33 0 0.66 0 1 0 C1 31.02 1 62.04 1 94 C0.01 94.495 0.01 94.495 -1 95 C-2.32 94.34 -3.64 93.68 -5 93 C-5 81.78 -5 70.56 -5 59 C-6.65 58.67 -8.3 58.34 -10 58 C-9.67 57.01 -9.34 56.02 -9 55 C-7.68 55.66 -6.36 56.32 -5 57 C-5 56.34 -5 55.68 -5 55 C-5.99 54.67 -6.98 54.34 -8 54 C-7.67 53.34 -7.34 52.68 -7 52 C-6.34 52.33 -5.68 52.66 -5 53 C-5 50.36 -5 47.72 -5 45 C-6.65 44.67 -8.3 44.34 -10 44 C-9.67 43.34 -9.34 42.68 -9 42 C-7.68 42.66 -6.36 43.32 -5 44 C-5 43.01 -5 42.02 -5 41 C-5.66 40.67 -6.32 40.34 -7 40 C-6.34 40 -5.68 40 -5 40 C-5 38.02 -5 36.04 -5 34 C-6.65 34 -8.3 34 -10 34 C-10 33.01 -10 32.02 -10 31 C-9.01 31 -8.02 31 -7 31 C-7 30.34 -7 29.68 -7 29 C-7.66 29 -8.32 29 -9 29 C-9.33 26.69 -9.66 24.38 -10 22 C-9.01 22 -8.02 22 -7 22 C-7 22.66 -7 23.32 -7 24 C-6.01 23.34 -5.02 22.68 -4 22 C-3.7497843 18.91634129 -3.7497843 18.91634129 -4 16 C-5.65 16 -7.3 16 -9 16 C-9.33 15.01 -9.66 14.02 -10 13 C-7.525 13.99 -7.525 13.99 -5 15 C-5 14.01 -5 13.02 -5 12 C-5.66 11.67 -6.32 11.34 -7 11 C-6.34 11 -5.68 11 -5 11 C-5 9.02 -5 7.04 -5 5 C-6.65 4.67 -8.3 4.34 -10 4 C-10 3.34 -10 2.68 -10 2 C-9.01 2 -8.02 2 -7 2 C-7 2.66 -7 3.32 -7 4 C-3.25332798 2.3672149 -3.25332798 2.3672149 0 0 Z " fill="#423B36" transform="translate(77,67)"/>
<path d="M0 0 C0.66 0.33 1.32 0.66 2 1 C2 5.62 2 10.24 2 15 C1.34 15 0.68 15 0 15 C-0.66 13.68 -1.32 12.36 -2 11 C-2.9075 11.309375 -3.815 11.61875 -4.75 11.9375 C-7.16563338 12.7272263 -9.52780285 13.42949297 -12 14 C-12.33 13.01 -12.66 12.02 -13 11 C-14.32 11 -15.64 11 -17 11 C-17 12.65 -17 14.3 -17 16 C-16.34 16 -15.68 16 -15 16 C-14.0234375 22.0546875 -14.0234375 22.0546875 -14 24 C-14.66 24.66 -15.32 25.32 -16 26 C-15.94431866 28.28235217 -15.94431866 28.28235217 -15.5 30.8125 C-14.99737434 34.80461871 -14.95515617 37.39145207 -17 41 C-15.35 41 -13.7 41 -12 41 C-12.33 39.35 -12.66 37.7 -13 36 C-12.01 36.33 -11.02 36.66 -10 37 C-10 43.6 -10 50.2 -10 57 C-10.99 57 -11.98 57 -13 57 C-13 56.01 -13 55.02 -13 54 C-13.99 54 -14.98 54 -16 54 C-15.34 54.99 -14.68 55.98 -14 57 C-14.375 60.1875 -14.375 60.1875 -15 63 C-14.34 63.33 -13.68 63.66 -13 64 C-14.485 64.99 -14.485 64.99 -16 66 C-16.72382467 68.05925139 -16.72382467 68.05925139 -17 70 C-15.35 70 -13.7 70 -12 70 C-12.495 67.525 -12.495 67.525 -13 65 C-12.01 65 -11.02 65 -10 65 C-9.75 67.75 -9.75 67.75 -10 71 C-11.875 73.125 -11.875 73.125 -14 75 C-15.98634358 78.07883255 -16.20193076 80.36524624 -16 84 C-17.32 84 -18.64 84 -20 84 C-20.39529983 74.65590707 -20.69659402 65.31471906 -20.88080692 55.96406746 C-20.9692678 51.62081296 -21.08898042 47.28330432 -21.2824707 42.94335938 C-22.50427145 14.83620261 -22.50427145 14.83620261 -18.32489014 8.43395996 C-13.88601908 4.26988795 -8.84279291 2.37166314 -3 1 C-2.01 0.67 -1.02 0.34 0 0 Z " fill="#0C0A65" transform="translate(121,63)"/>
<path d="M0 0 C0.99 0 1.98 0 3 0 C3 0.99 3 1.98 3 3 C3.99 3 4.98 3 6 3 C6 2.34 6 1.68 6 1 C9.6116842 2.36606692 12.92427163 3.97971632 16.2890625 5.87109375 C17.30419922 6.44029541 18.31933594 7.00949707 19.36523438 7.59594727 C20.97881836 8.50751587 20.97881836 8.50751587 22.625 9.4375 C23.73423828 10.06132568 24.84347656 10.68515137 25.98632812 11.32788086 C33.59635736 15.61700099 41.17702292 19.95518726 48.72119141 24.35913086 C53.77653249 27.30895204 58.87370723 30.17529277 64 33 C64 36 64 36 62.375 37.75 C59.09900959 39.47420548 57.57251785 38.90159514 54 38 C51.53152368 36.7192964 49.22689807 35.40412817 46.875 33.9375 C45.38548659 33.03419207 43.89448307 32.13333865 42.40234375 31.234375 C41.56429199 30.72841797 40.72624023 30.22246094 39.86279297 29.70117188 C33.49890302 25.91952552 27.04008933 22.29813273 20.60125732 18.64596558 C16.72507736 16.44621803 12.85962349 14.22873047 9 12 C8.14809082 11.51909912 7.29618164 11.03819824 6.41845703 10.54272461 C1.11527092 7.43947038 1.11527092 7.43947038 0 3.1875 C0 2.135625 0 1.08375 0 0 Z " fill="#9A9289" transform="translate(105,117)"/>
<path d="M0 0 C0.99 0.33 1.98 0.66 3 1 C3.04667103 19.6103318 3.08196477 38.22065176 3.10362434 56.83102989 C3.11394749 65.47168303 3.12802758 74.11229985 3.15087891 82.75292969 C3.17078108 90.28199017 3.18370888 97.81102437 3.18817699 105.34011042 C3.19078977 109.32861435 3.19695233 113.31704305 3.21146011 117.30552292 C3.22499399 121.05650282 3.2292312 124.80737622 3.22621536 128.55837822 C3.22676741 129.93789307 3.23076981 131.31741134 3.23841095 132.69690514 C3.24830605 134.5747968 3.24479022 136.4527451 3.24050903 138.33065796 C3.24327441 139.90968934 3.24327441 139.90968934 3.24609566 141.52062035 C3 144 3 144 1 146 C-1.05088424 143.94911576 -0.23335305 139.6699541 -0.28125 136.84375 C-0.29965942 136.02628296 -0.31806885 135.20881592 -0.33703613 134.36657715 C-0.41598605 130.85406016 -0.48354529 127.34134325 -0.55224609 123.82861328 C-0.60386124 121.27105892 -0.66115657 118.71367556 -0.71875 116.15625 C-0.73232544 115.35521851 -0.74590088 114.55418701 -0.7598877 113.72888184 C-0.50168515 110.06171177 -0.50168515 110.06171177 -2 107 C-2.10068462 104.57172387 -2.1387176 102.17801589 -2.125 99.75 C-2.12886719 99.08097656 -2.13273437 98.41195312 -2.13671875 97.72265625 C-2.13125017 94.93914686 -2.06120715 92.29986348 -1.50354004 89.56776428 C-1.00907051 87.04625436 -0.85014238 84.74706713 -0.81054688 82.18139648 C-0.79382935 81.25370956 -0.77711182 80.32602264 -0.7598877 79.370224 C-0.74631226 78.38051102 -0.73273682 77.39079803 -0.71875 76.37109375 C-0.70034058 75.34444107 -0.68193115 74.31778839 -0.66296387 73.26002502 C-0.58446992 68.87600875 -0.51654297 64.4918436 -0.44775391 60.10766602 C-0.39597413 56.90373285 -0.33875315 53.69992847 -0.28125 50.49609375 C-0.26767456 49.50435654 -0.25409912 48.51261932 -0.2401123 47.49082947 C-0.21503601 46.10402733 -0.21503601 46.10402733 -0.18945312 44.68920898 C-0.17692505 43.8782225 -0.16439697 43.06723602 -0.15148926 42.23167419 C-0.00283988 40.04183583 0.3976641 38.10616107 1 36 C0.01 35.67 -0.98 35.34 -2 35 C-1.67 34.01 -1.34 33.02 -1 32 C-0.84730819 29.56219623 -0.74317303 27.14716099 -0.68359375 24.70703125 C-0.66281265 24.00100266 -0.64203156 23.29497406 -0.62062073 22.56755066 C-0.55532509 20.31596449 -0.49633353 18.06426338 -0.4375 15.8125 C-0.39429575 14.2844934 -0.35068084 12.75649836 -0.30664062 11.22851562 C-0.19966426 7.48579438 -0.09834078 3.7429577 0 0 Z " fill="#23211D" transform="translate(61,18)"/>
<path d="M0 0 C0.66 0 1.32 0 2 0 C2.15595264 13.70312013 2.30406303 27.40630259 2.4429636 41.10960674 C2.50773469 47.4770074 2.57491165 53.84436108 2.64819336 60.21166992 C2.97963984 89.16577647 3.14891158 118.0620226 2 147 C1.01 146.67 0.02 146.34 -1 146 C-0.99476318 144.77369873 -0.98952637 143.54739746 -0.98413086 142.28393555 C-0.96604439 137.7385328 -0.9545546 133.19313324 -0.94506836 128.64770508 C-0.9400365 126.67960068 -0.93321042 124.71150003 -0.92456055 122.7434082 C-0.91244483 119.91616899 -0.90676024 117.08897916 -0.90234375 114.26171875 C-0.89718246 113.38037766 -0.89202118 112.49903656 -0.88670349 111.59098816 C-0.88662796 110.77036392 -0.88655243 109.94973969 -0.88647461 109.10424805 C-0.884254 108.38254929 -0.88203339 107.66085052 -0.87974548 106.9172821 C-0.93174401 104.77773199 -0.93174401 104.77773199 -2 102 C-1.34 102 -0.68 102 0 102 C-0.14133499 100.22880197 -0.28823208 98.45804713 -0.4375 96.6875 C-0.51871094 95.70136719 -0.59992188 94.71523437 -0.68359375 93.69921875 C-0.91812559 90.90624401 -0.91812559 90.90624401 -2 88 C-1.34 88 -0.68 88 0 88 C-0.33 84.7 -0.66 81.4 -1 78 C-0.34 78 0.32 78 1 78 C0.34 75.03 -0.32 72.06 -1 69 C-0.34 69 0.32 69 1 69 C0.34 66.03 -0.32 63.06 -1 60 C-0.34 60 0.32 60 1 60 C0.76603516 59.07767578 0.76603516 59.07767578 0.52734375 58.13671875 C0.33269531 57.32847656 0.13804688 56.52023438 -0.0625 55.6875 C-0.25972656 54.88699219 -0.45695312 54.08648437 -0.66015625 53.26171875 C-1 51 -1 51 0 48 C-0.05849813 45.5788557 -0.05849813 45.5788557 -0.375 43 C-0.46523437 42.13375 -0.55546875 41.2675 -0.6484375 40.375 C-0.95063832 37.85824714 -0.95063832 37.85824714 -2 35 C-1.34 35 -0.68 35 0 35 C0 23.45 0 11.9 0 0 Z " fill="#2A2527" transform="translate(99,38)"/>
<path d="M0 0 C0.33 0 0.66 0 1 0 C1 23.43 1 46.86 1 71 C0.01 71 -0.98 71 -2 71 C-2 59.78 -2 48.56 -2 37 C-3.65 36.67 -5.3 36.34 -7 36 C-6.67 35.01 -6.34 34.02 -6 33 C-4.68 33.66 -3.36 34.32 -2 35 C-2 34.34 -2 33.68 -2 33 C-2.99 32.67 -3.98 32.34 -5 32 C-4.67 31.34 -4.34 30.68 -4 30 C-3.34 30.33 -2.68 30.66 -2 31 C-2 28.36 -2 25.72 -2 23 C-3.65 22.67 -5.3 22.34 -7 22 C-6.67 21.34 -6.34 20.68 -6 20 C-4.68 20.66 -3.36 21.32 -2 22 C-2 21.01 -2 20.02 -2 19 C-2.66 18.67 -3.32 18.34 -4 18 C-3.34 18 -2.68 18 -2 18 C-2 16.02 -2 14.04 -2 12 C-3.65 12 -5.3 12 -7 12 C-7 11.01 -7 10.02 -7 9 C-6.01 9 -5.02 9 -4 9 C-4 8.34 -4 7.68 -4 7 C-4.66 7 -5.32 7 -6 7 C-6.33 5.35 -6.66 3.7 -7 2 C-5.02 2 -3.04 2 -1 2 C-0.67 1.34 -0.34 0.68 0 0 Z " fill="#574E47" transform="translate(74,89)"/>
<path d="M0 0 C0.99 0.33 1.98 0.66 3 1 C1.75023244 4.65316671 1.32901247 5.78065836 -2 8 C-2.6726938 10.93443117 -2.50934622 13.93502602 -2.5 16.9375 C-2.54253906 18.1740332 -2.54253906 18.1740332 -2.5859375 19.43554688 C-2.59342358 21.73938934 -2.54265946 23.75980517 -2 26 C0.36262138 28.15195812 0.36262138 28.15195812 3 29 C2.85546875 30.7578125 2.85546875 30.7578125 2 33 C-0.51171875 34.9921875 -0.51171875 34.9921875 -3.6875 36.875 C-4.72261719 37.51179688 -5.75773437 38.14859375 -6.82421875 38.8046875 C-10 40 -10 40 -12.89453125 39.484375 C-16.73581571 37.64828934 -20.36343255 35.58494923 -24 33.375 C-25.49823382 32.4783907 -26.99693994 31.5825702 -28.49609375 30.6875 C-29.24487793 30.23890625 -29.99366211 29.7903125 -30.76513672 29.328125 C-34.17404701 27.30229236 -37.61537884 25.33489866 -41.0625 23.375 C-42.20847656 22.72273438 -43.35445312 22.07046875 -44.53515625 21.3984375 C-45.34855469 20.93695313 -46.16195312 20.47546875 -47 20 C-45.34155273 18.82739258 -45.34155273 18.82739258 -43 18 C-40.42211914 19.01049805 -40.42211914 19.01049805 -37.53515625 20.76171875 C-35.96411133 21.69854492 -35.96411133 21.69854492 -34.36132812 22.65429688 C-33.27271484 23.32525391 -32.18410156 23.99621094 -31.0625 24.6875 C-29.97775391 25.33912109 -28.89300781 25.99074219 -27.77539062 26.66210938 C-23.92848224 28.97687477 -20.08888043 31.29872576 -16.31420898 33.72973633 C-14.05274507 35.25318193 -14.05274507 35.25318193 -11.375 34.75 C-9.57822473 34.18259728 -7.78754371 33.5958479 -6 33 C-5.67 25.08 -5.34 17.16 -5 9 C-7.31 9 -9.62 9 -12 9 C-9.5513959 7.04111672 -7.05317043 5.44317697 -4.3125 3.9375 C-0.96434085 2.38390486 -0.96434085 2.38390486 0 0 Z " fill="#72706B" transform="translate(175,120)"/>
<path d="M0 0 C0 3.63 0 7.26 0 11 C1.65 11.66 3.3 12.32 5 13 C6.43276721 13.77700822 7.84987897 14.58356792 9.25 15.41796875 C10.41015625 16.09182617 10.41015625 16.09182617 11.59375 16.77929688 C13.20304885 17.72110245 14.80722949 18.67170665 16.40625 19.63085938 C17.1796875 20.07623047 17.953125 20.52160156 18.75 20.98046875 C19.44609375 21.39192139 20.1421875 21.80337402 20.859375 22.22729492 C23.61067887 23.2204378 25.22575434 22.80982481 28 22 C28.66 21.67 29.32 21.34 30 21 C31.99960012 20.960008 34.00047242 20.95653201 36 21 C33.98405311 23.13812549 32.01104183 24.74707633 29.49609375 26.26171875 C28.83802734 26.65810547 28.17996094 27.05449219 27.50195312 27.46289062 C26.82068359 27.86701172 26.13941406 28.27113281 25.4375 28.6875 C24.40979492 29.31108398 24.40979492 29.31108398 23.36132812 29.94726562 C18.2533867 33 18.2533867 33 16 33 C16 32.34 16 31.68 16 31 C16.639375 30.525625 17.27875 30.05125 17.9375 29.5625 C20.28372963 28.0908635 20.28372963 28.0908635 21 25 C20.28231445 24.73340576 19.56462891 24.46681152 18.82519531 24.19213867 C15.95675724 22.98175299 13.44824582 21.5541268 10.796875 19.92578125 C9.81589844 19.34119141 8.83492187 18.75660156 7.82421875 18.15429688 C5.78101226 16.93019032 3.74698274 15.6906293 1.72265625 14.43554688 C-3.7923454 11.18782368 -7.63209555 9.1623459 -14.05371094 10.46166992 C-15.4197507 10.83950706 -16.77690858 11.25025592 -18.12597656 11.68481445 C-19.05361816 11.8408313 -19.05361816 11.8408313 -20 12 C-20.66 11.34 -21.32 10.68 -22 10 C-19.28159655 8.31527988 -16.54871807 6.6556021 -13.8125 5 C-12.65911133 4.28457031 -12.65911133 4.28457031 -11.48242188 3.5546875 C-10.73154297 3.10351562 -9.98066406 2.65234375 -9.20703125 2.1875 C-8.5210083 1.76855469 -7.83498535 1.34960938 -7.12817383 0.91796875 C-5 0 -5 0 0 0 Z " fill="#DEDEDE" transform="translate(84,5)"/>
<path d="M0 0 C2.4961363 3.9224999 2.67360428 8.11011595 3.125 12.625 C3.20991699 13.42663574 3.29483398 14.22827148 3.38232422 15.05419922 C3.95267321 20.7289995 4.18404856 26.29449461 4 32 C1.03 33.32 -1.94 34.64 -5 36 C-5 24.45 -5 12.9 -5 1 C-3.35 0.67 -1.7 0.34 0 0 Z " fill="#75706A" transform="translate(106,149)"/>
<path d="M0 0 C0.99 0.33 1.98 0.66 3 1 C3 7.6 3 14.2 3 21 C2.01 21 1.02 21 0 21 C0 20.01 0 19.02 0 18 C-0.99 18 -1.98 18 -3 18 C-2.34 18.99 -1.68 19.98 -1 21 C-1.375 24.1875 -1.375 24.1875 -2 27 C-1.34 27.33 -0.68 27.66 0 28 C-0.99 28.66 -1.98 29.32 -3 30 C-3.72382467 32.05925139 -3.72382467 32.05925139 -4 34 C-2.35 34 -0.7 34 1 34 C0.67 32.35 0.34 30.7 0 29 C0.99 29 1.98 29 3 29 C3.25 31.75 3.25 31.75 3 35 C1.125 37.125 1.125 37.125 -1 39 C-2.98634358 42.07883255 -3.20193076 44.36524624 -3 48 C-4.32 48 -5.64 48 -7 48 C-7.41277905 24.41761516 -7.41277905 24.41761516 -5 13 C-2.03 13.495 -2.03 13.495 1 14 C0.67 12.68 0.34 11.36 0 10 C-1.65 10.33 -3.3 10.66 -5 11 C-5 8.69 -5 6.38 -5 4 C-2.03 4.495 -2.03 4.495 1 5 C0.67 3.35 0.34 1.7 0 0 Z " fill="#0A096F" transform="translate(108,99)"/>
<path d="M0 0 C0.98742188 0.56589844 1.97484375 1.13179687 2.9921875 1.71484375 C4.28644206 2.45575759 5.58071379 3.19664145 6.875 3.9375 C7.52597656 4.31068359 8.17695312 4.68386719 8.84765625 5.06835938 C12.38746834 7.10133078 12.38746834 7.10133078 16 9 C16.625 11.0625 16.625 11.0625 17 13 C15.61765122 14.03902033 14.21844209 15.05563446 12.8125 16.0625 C11.64654297 16.91521484 11.64654297 16.91521484 10.45703125 17.78515625 C7.44520808 19.27430888 6.14341959 19.03019633 3 18 C-0.45417461 15.84114087 -3.31815863 13.05431933 -6 10 C-6 8.68 -6 7.36 -6 6 C-4.36368108 4.95107762 -2.69514137 3.95093297 -1 3 C-0.67 2.01 -0.34 1.02 0 0 Z " fill="#EEE3D5" transform="translate(44,44)"/>
<path d="M0 0 C0.09881786 5.49921406 0.17144379 10.99791235 0.21972656 16.49780273 C0.23985207 18.36898804 0.26715549 20.24011039 0.30175781 22.11108398 C0.35023581 24.79947432 0.37295872 27.48703388 0.390625 30.17578125 C0.41127014 31.01337479 0.43191528 31.85096832 0.45318604 32.71394348 C0.45544041 38.53846288 0.45544041 38.53846288 -2.02441406 41.05151367 C-2.67635742 41.36451416 -3.32830078 41.67751465 -4 42 C-4.66 41.67 -5.32 41.34 -6 41 C-6 28.13 -6 15.26 -6 2 C-1 0 -1 0 0 0 Z " fill="#867468" transform="translate(72,14)"/>
<path d="M0 0 C17.2173913 8.33395005 17.2173913 8.33395005 24 13 C24 13.66 24 14.32 24 15 C19.125 14.125 19.125 14.125 18 13 C17.01 14.485 17.01 14.485 16 16 C14.0214127 16.55140957 12.03757974 17.09394801 10.02734375 17.515625 C7.81956601 17.96838082 7.81956601 17.96838082 5.25 19.3125 C4.13625 19.6528125 4.13625 19.6528125 3 20 C0.6875 18.625 0.6875 18.625 -1 17 C0.52206009 14.37098712 1.84365964 12.15634036 4 10 C4.16681109 6.91652174 4.16681109 6.91652174 4 4 C2.7763932 6.0745356 2.7763932 6.0745356 3 9 C1.35 9 -0.3 9 -2 9 C-1.4118332 5.97514219 -0.75929472 2.98613386 0 0 Z " fill="#333037" transform="translate(106,124)"/>
<path d="M0 0 C0.66 0 1.32 0 2 0 C2.21680147 4.94732604 2.41370799 9.89488769 2.59204102 14.84375 C2.65555346 16.5278856 2.72454266 18.21182379 2.79907227 19.89550781 C2.90513324 22.31284376 2.99161189 24.73020078 3.07421875 27.1484375 C3.11157639 27.9036972 3.14893402 28.65895691 3.18742371 29.43710327 C3.2487793 31.56005859 3.2487793 31.56005859 3 35 C0 37 0 37 -3 37 C-4.38642085 34.22715829 -4.12972076 31.95493489 -4.1328125 28.85546875 C-4.13410156 27.62119141 -4.13539062 26.38691406 -4.13671875 25.11523438 C-4.13285156 23.81908203 -4.12898438 22.52292969 -4.125 21.1875 C-4.12886719 19.90294922 -4.13273437 18.61839844 -4.13671875 17.29492188 C-4.13542969 16.05677734 -4.13414063 14.81863281 -4.1328125 13.54296875 C-4.13168457 12.40883545 -4.13055664 11.27470215 -4.12939453 10.10620117 C-4.01183416 7.28408687 -3.64517322 4.74374809 -3 2 C-2.01 2.33 -1.02 2.66 0 3 C0 2.01 0 1.02 0 0 Z " fill="#887668" transform="translate(70,126)"/>
<path d="M0 0 C0.66 0 1.32 0 2 0 C2 24.42 2 48.84 2 74 C0.68 74 -0.64 74 -2 74 C-2.02712351 71.60408962 -2.0468982 69.20849043 -2.0625 66.8125 C-2.07087891 66.13896484 -2.07925781 65.46542969 -2.08789062 64.77148438 C-2.10156396 61.96845156 -2.06462816 59.31831845 -1.5057373 56.56556702 C-1.00872472 54.04425983 -0.8501463 51.74732144 -0.81054688 49.18139648 C-0.78547058 47.7898661 -0.78547058 47.7898661 -0.7598877 46.370224 C-0.74631226 45.38051102 -0.73273682 44.39079803 -0.71875 43.37109375 C-0.70034058 42.34444107 -0.68193115 41.31778839 -0.66296387 40.26002502 C-0.58446992 35.87600875 -0.51654297 31.4918436 -0.44775391 27.10766602 C-0.39597413 23.90373285 -0.33875315 20.69992847 -0.28125 17.49609375 C-0.26767456 16.50435654 -0.25409912 15.51261932 -0.2401123 14.49082947 C-0.21503601 13.10402733 -0.21503601 13.10402733 -0.18945312 11.68920898 C-0.17692505 10.8782225 -0.16439697 10.06723602 -0.15148926 9.23167419 C-0.00283988 7.04183583 0.3976641 5.10616107 1 3 C0.01 2.67 -0.98 2.34 -2 2 C-1.34 1.34 -0.68 0.68 0 0 Z " fill="#0E0C56" transform="translate(61,51)"/>
<path d="M0 0 C0.66 0 1.32 0 2 0 C2 18.15 2 36.3 2 55 C-0.475 55.495 -0.475 55.495 -3 56 C-3 55.34 -3 54.68 -3 54 C-4.32 53.67 -5.64 53.34 -7 53 C-7 49.7 -7 46.4 -7 43 C-6.34 44.32 -5.68 45.64 -5 47 C-4.34 47 -3.68 47 -3 47 C-3 46.01 -3 45.02 -3 44 C-2.01 44 -1.02 44 0 44 C0 29.48 0 14.96 0 0 Z " fill="#82756C" transform="translate(73,15)"/>
<path d="M0 0 C11.60771506 4.433938 22.26183248 11.44823956 32.9465332 17.71240234 C41.24365449 22.5738694 49.59506094 27.3278427 58 32 C57.505 32.99 57.505 32.99 57 34 C51.01371937 32.36918601 45.96095362 29.32239353 40.625 26.25 C39.63000488 25.681604 38.63500977 25.11320801 37.60986328 24.52758789 C34.40278712 22.69157311 31.20114348 20.84633633 28 19 C26.89849609 18.36755371 25.79699219 17.73510742 24.66210938 17.08349609 C21.39640908 15.20720109 18.13488394 13.3238795 14.875 11.4375 C13.86260254 10.85452148 12.85020508 10.27154297 11.80712891 9.67089844 C7.28133474 7.0366758 2.95329234 4.46973512 -1 1 C-0.67 0.67 -0.34 0.34 0 0 Z " fill="#F3F0EC" transform="translate(109,121)"/>
<path d="M0 0 C0.99 0 1.98 0 3 0 C3 0.66 3 1.32 3 2 C4.98 1.34 6.96 0.68 9 0 C9 29.7 9 59.4 9 90 C8.67 90 8.34 90 8 90 C7.98969254 89.13635834 7.97938507 88.27271667 7.96876526 87.38290405 C7.87066568 79.2319643 7.76813384 71.08109482 7.66066074 62.93027306 C7.60556716 58.74016228 7.55216943 54.55004436 7.50268555 50.35986328 C7.45484118 46.31385088 7.4024922 42.26791924 7.34705925 38.22200394 C7.32672631 36.68072148 7.30799879 35.13941696 7.29092598 33.59809494 C7.26668012 31.43429369 7.23665496 29.27064227 7.20532227 27.10693359 C7.18977798 25.87671478 7.1742337 24.64649597 7.15821838 23.3789978 C7.00814658 20.17398288 6.60018782 17.14875369 6 14 C4.35 14 2.7 14 1 14 C0.67 13.01 0.34 12.02 0 11 C2.475 11.99 2.475 11.99 5 13 C5 12.01 5 11.02 5 10 C4.34 9.67 3.68 9.34 3 9 C3.66 9 4.32 9 5 9 C5 7.02 5 5.04 5 3 C3.35 2.67 1.7 2.34 0 2 C0 1.34 0 0.68 0 0 Z M0 20 C0.99 20 1.98 20 3 20 C3 20.66 3 21.32 3 22 C4.32 21.34 5.64 20.68 7 20 C6.67 20.99 6.34 21.98 6 23 C4.35 23 2.7 23 1 23 C0.67 22.01 0.34 21.02 0 20 Z " fill="#4C4641" transform="translate(67,69)"/>
<path d="M0 0 C3.89066683 0.59131856 6.73737097 1.75915008 10.1484375 3.703125 C11.64129272 4.54689697 11.64129272 4.54689697 13.16430664 5.40771484 C14.22383545 6.01566895 15.28336426 6.62362305 16.375 7.25 C17.4673999 7.86955566 18.5597998 8.48911133 19.68530273 9.12744141 C21.97098366 10.42429796 24.25505618 11.72399295 26.53759766 13.02636719 C31.00858769 15.57491348 35.49076898 18.1033863 39.97314453 20.63183594 C44.31797374 23.08339912 48.65922038 25.54127562 53 28 C52.67 29.32 52.34 30.64 52 32 C50.93007813 31.37996094 49.86015625 30.75992188 48.7578125 30.12109375 C47.21354537 29.2265561 45.66927417 28.33202549 44.125 27.4375 C43.29524658 26.95659912 42.46549316 26.47569824 41.6105957 25.98022461 C37.04866895 23.33792668 32.48365112 20.70120059 27.9118042 18.07609558 C25.57891244 16.73656667 23.24683931 15.39561534 20.91473389 14.05471802 C19.21433382 13.07791482 17.51269394 12.10327088 15.81103516 11.12866211 C1.42873521 2.85747042 1.42873521 2.85747042 0 0 Z " fill="#F2EFEA" transform="translate(7,63)"/>
<path d="M0 0 C0.66 0.33 1.32 0.66 2 1 C2 5.62 2 10.24 2 15 C1.34 15 0.68 15 0 15 C-0.66 13.68 -1.32 12.36 -2 11 C-2.9075 11.309375 -3.815 11.61875 -4.75 11.9375 C-7.16563338 12.7272263 -9.52780285 13.42949297 -12 14 C-12.33 13.01 -12.66 12.02 -13 11 C-14.98 11.33 -16.96 11.66 -19 12 C-19 11.34 -19 10.68 -19 10 C-16.39761208 8.51762714 -13.79321772 7.03899869 -11.1875 5.5625 C-10.44951172 5.14162109 -9.71152344 4.72074219 -8.95117188 4.28710938 C-8.23896484 3.88427734 -7.52675781 3.48144531 -6.79296875 3.06640625 C-6.1383667 2.69459229 -5.48376465 2.32277832 -4.80932617 1.93969727 C-3 1 -3 1 0 0 Z " fill="#3635BA" transform="translate(121,63)"/>
<path d="M0 0 C1.32 0 2.64 0 4 0 C5.125 1.75 5.125 1.75 6 4 C5.443125 4.8971875 5.443125 4.8971875 4.875 5.8125 C4.441875 6.8953125 4.441875 6.8953125 4 8 C4.88703401 9.88439563 5.98107266 11.56889192 7.09375 13.328125 C8 15 8 15 7.9375 17.25 C6.88051408 19.22304038 5.68419571 20.53548199 4 22 C5.65 22.99 7.3 23.98 9 25 C8.67 31.27 8.34 37.54 8 44 C7.67 44 7.34 44 7 44 C6.67 38.06 6.34 32.12 6 26 C5.67 27.32 5.34 28.64 5 30 C3.35 30 1.7 30 0 30 C0.08378906 29.33613281 0.16757813 28.67226562 0.25390625 27.98828125 C0.78983244 23.34132632 1.00526553 19.59549958 0 15 C0.66 14.34 1.32 13.68 2 13 C2.24212873 11.01871492 2.24212873 11.01871492 2.125 8.875 C2.063125 6.956875 2.063125 6.956875 2 5 C1.34 5 0.68 5 0 5 C0 3.35 0 1.7 0 0 Z " fill="#2B2952" transform="translate(104,74)"/>
<path d="M0 0 C3.9714117 0.59517435 6.87478558 1.83290658 10.359375 3.80859375 C11.38458252 4.38601318 12.40979004 4.96343262 13.46606445 5.55834961 C15.09161255 6.48852905 15.09161255 6.48852905 16.75 7.4375 C17.86656982 8.06986572 18.98313965 8.70223145 20.13354492 9.35375977 C28.52820202 14.12146121 36.86898451 18.97729467 45.16601562 23.91259766 C49.76062059 26.63682163 54.3832425 29.31356307 59 32 C56.3184134 33.06482798 55.27452116 33.11592488 52.57177734 31.97460938 C51.6689502 31.43642578 50.76612305 30.89824219 49.8359375 30.34375 C48.80799072 29.74014648 47.78004395 29.13654297 46.72094727 28.51464844 C45.06470337 27.51739746 45.06470337 27.51739746 43.375 26.5 C42.22591334 25.81939675 41.07608056 25.14005175 39.92553711 24.46191406 C38.12999938 23.40295356 36.33529117 22.34273805 34.54338074 21.27764893 C30.25533056 18.72951971 25.94022088 16.23337288 21.60546875 13.765625 C21.01078796 13.42635986 20.41610718 13.08709473 19.80340576 12.73754883 C16.93451366 11.10088686 14.06395737 9.46726388 11.19091797 7.83789062 C10.1598291 7.24685547 9.12874023 6.65582031 8.06640625 6.046875 C7.15834229 5.52963867 6.25027832 5.01240234 5.31469727 4.47949219 C3.22649204 3.14476761 1.65421796 1.83066332 0 0 Z " fill="#B6AFA8" transform="translate(106,123)"/>
<path d="M0 0 C4.30919542 1.30662831 7.99559728 2.97183475 11.88671875 5.23046875 C13.5428418 6.18856445 13.5428418 6.18856445 15.23242188 7.16601562 C15.8014624 7.49899658 16.37050293 7.83197754 16.95678711 8.17504883 C18.66237344 9.17280119 20.37314826 10.16166705 22.08398438 11.15039062 C29.16781259 15.2658358 36.12587468 19.54337788 43 24 C42.01 24.66 41.02 25.32 40 26 C39.03964844 25.42894531 38.07929687 24.85789062 37.08984375 24.26953125 C24.82544344 17.00365342 12.42755845 9.98236679 0 3 C0 2.01 0 1.02 0 0 Z " fill="#574643" transform="translate(6,67)"/>
<path d="M0 0 C0.99 0 1.98 0 3 0 C3 0.99 3 1.98 3 3 C3.99 3 4.98 3 6 3 C6 2.34 6 1.68 6 1 C9.70897259 2.39417368 13.07838312 4.07818479 16.51953125 6.0390625 C17.54111328 6.61914062 18.56269531 7.19921875 19.61523438 7.796875 C20.67033203 8.40015625 21.72542969 9.0034375 22.8125 9.625 C23.88693359 10.23601562 24.96136719 10.84703125 26.06835938 11.4765625 C28.71386076 12.98155885 31.3576625 14.48945791 34 16 C34 16.66 34 17.32 34 18 C28.01311404 17.54668487 23.99097661 15.68104652 18.875 12.625 C18.18535156 12.22539062 17.49570313 11.82578125 16.78515625 11.4140625 C13.87296592 9.72131707 10.99611962 7.9975355 8.15234375 6.19140625 C6.06605337 4.75674006 6.06605337 4.75674006 3.6875 5.3125 C3.130625 5.539375 2.57375 5.76625 2 6 C1.34 4.02 0.68 2.04 0 0 Z " fill="#A29990" transform="translate(105,117)"/>
<path d="M0 0 C4.37180549 0.50834948 7.52620878 1.23035565 11 4 C11.48828125 6.91796875 11.48828125 6.91796875 11.3125 10.1875 C11.26738281 11.27417969 11.22226562 12.36085938 11.17578125 13.48046875 C11.11777344 14.31191406 11.05976562 15.14335938 11 16 C10.01 16.33 9.02 16.66 8 17 C6.65869239 14.73354942 5.32683766 12.46239903 4 10.1875 C3.42765625 9.22360352 3.42765625 9.22360352 2.84375 8.24023438 C0 3.33984375 0 3.33984375 0 0 Z " fill="#4B453D" transform="translate(50,93)"/>
<path d="M0 0 C0.33 0 0.66 0 1 0 C1.02918634 4.35415244 1.04686145 8.70827948 1.0625 13.0625 C1.07087891 14.29162109 1.07925781 15.52074219 1.08789062 16.78710938 C1.10363389 22.62786137 1.08469508 28.25197017 0 34 C-0.33 34 -0.66 34 -1 34 C-1 26.74 -1 19.48 -1 12 C-2.98 12 -4.96 12 -7 12 C-7 11.01 -7 10.02 -7 9 C-6.01 9 -5.02 9 -4 9 C-4 8.34 -4 7.68 -4 7 C-4.66 7 -5.32 7 -6 7 C-6.33 5.35 -6.66 3.7 -7 2 C-5.02 2 -3.04 2 -1 2 C-0.67 1.34 -0.34 0.68 0 0 Z " fill="#5E554E" transform="translate(74,89)"/>
<path d="M0 0 C3.62387102 1.36859176 6.93833684 2.99181604 10.30859375 4.8984375 C11.30310547 5.46046875 12.29761719 6.0225 13.32226562 6.6015625 C14.35029297 7.18679687 15.37832031 7.77203125 16.4375 8.375 C17.46166016 8.9525 18.48582031 9.53 19.54101562 10.125 C29.68448824 15.87625049 29.68448824 15.87625049 34 19 C34 19.33 34 19.66 34 20 C28.70636736 20.74296598 25.36895435 18.18746095 21.0625 15.5 C19.55520463 14.585085 18.04738304 13.67103643 16.5390625 12.7578125 C15.40645996 12.06606934 15.40645996 12.06606934 14.25097656 11.36035156 C10.84791625 9.30375155 7.39638772 7.33577362 3.9375 5.375 C2.21853516 4.39660156 2.21853516 4.39660156 0.46484375 3.3984375 C-0.75525391 2.70621094 -0.75525391 2.70621094 -2 2 C-1.34 1.34 -0.68 0.68 0 0 Z " fill="#57524E" transform="translate(130,138)"/>
<path d="M0 0 C3.49327482 0.66623266 6.09933625 2.0728748 9.1484375 3.87890625 C10.14810547 4.46720215 11.14777344 5.05549805 12.17773438 5.66162109 C13.76038086 6.60255615 13.76038086 6.60255615 15.375 7.5625 C17.53878804 8.83770541 19.70284957 10.11244686 21.8671875 11.38671875 C22.91616211 12.00595215 23.96513672 12.62518555 25.04589844 13.26318359 C28.84667289 15.49778768 32.66736394 17.69560735 36.5 19.875 C37.5828125 20.49117187 38.665625 21.10734375 39.78125 21.7421875 C40.5134375 22.15726563 41.245625 22.57234375 42 23 C42 23.66 42 24.32 42 25 C37.83750381 23.73287089 34.28690436 22.17595343 30.55078125 19.953125 C29.53693359 19.355 28.52308594 18.756875 27.47851562 18.140625 C26.43373047 17.51671875 25.38894531 16.8928125 24.3125 16.25 C16.61671211 11.68380027 8.8879085 7.22744273 1 3 C0.67 3.66 0.34 4.32 0 5 C-0.33 4.01 -0.66 3.02 -1 2 C-0.67 1.34 -0.34 0.68 0 0 Z " fill="#BBB4AD" transform="translate(5,64)"/>
<path d="M0 0 C6.32634578 -0.44645383 10.21486377 1.63608459 15.5390625 4.84375 C18 7 18 7 18.7734375 9.46875 C18.75168812 11.75968485 18.54422501 13.77774789 18 16 C17.29875 15.71125 16.5975 15.4225 15.875 15.125 C12.94547497 13.97866412 9.99078347 12.97374346 7 12 C6.67 12.66 6.34 13.32 6 14 C5.34 13.01 4.68 12.02 4 11 C4.33 10.67 4.66 10.34 5 10 C4.34 9.34 3.68 8.68 3 8 C7.14676132 8 8.31208065 8.4776945 11.75 10.5 C12.54921875 10.9640625 13.3484375 11.428125 14.171875 11.90625 C15.07679687 12.44765625 15.07679687 12.44765625 16 13 C16.33 12.01 16.66 11.02 17 10 C15.69675781 9.61521484 15.69675781 9.61521484 14.3671875 9.22265625 C10.92417574 7.97246753 8.19174934 6.42797823 5.125 4.4375 C4.15820312 3.81746094 3.19140625 3.19742188 2.1953125 2.55859375 C1.47085938 2.04425781 0.74640625 1.52992187 0 1 C0 0.67 0 0.34 0 0 Z " fill="#9B9289" transform="translate(43,81)"/>
<path d="M0 0 C0 0.66 0 1.32 0 2 C-2 3.33333333 -4 4.66666667 -6 6 C-6.22609337 8.12364481 -6.22609337 8.12364481 -4.5 9.625 C-4.005 10.07875 -3.51 10.5325 -3 11 C-3.64066406 10.90460937 -4.28132813 10.80921875 -4.94140625 10.7109375 C-10.59859035 9.98587367 -14.64097591 10.0194911 -20 12 C-20.66 11.34 -21.32 10.68 -22 10 C-19.28159655 8.31527988 -16.54871807 6.6556021 -13.8125 5 C-12.65911133 4.28457031 -12.65911133 4.28457031 -11.48242188 3.5546875 C-10.73154297 3.10351562 -9.98066406 2.65234375 -9.20703125 2.1875 C-8.5210083 1.76855469 -7.83498535 1.34960938 -7.12817383 0.91796875 C-4.61626594 -0.16552026 -2.70805154 -0.16550353 0 0 Z " fill="#F0EFEF" transform="translate(84,5)"/>
<path d="M0 0 C0.33 1.32 0.66 2.64 1 4 C1.66 4 2.32 4 3 4 C3.9765625 10.0546875 3.9765625 10.0546875 4 12 C3.34 12.66 2.68 13.32 2 14 C2.18554554 16.57554878 2.64508362 19.04927687 3.1015625 21.58984375 C3.06804687 22.38519531 3.03453125 23.18054688 3 24 C0.99365234 25.65063477 0.99365234 25.65063477 -1 27 C-1.02886537 22.68751391 -1.04675255 18.37505238 -1.0625 14.0625 C-1.07087891 12.83080078 -1.07925781 11.59910156 -1.08789062 10.33007812 C-1.09111328 9.16025391 -1.09433594 7.99042969 -1.09765625 6.78515625 C-1.10289307 5.70113525 -1.10812988 4.61711426 -1.11352539 3.50024414 C-1 1 -1 1 0 0 Z " fill="#07066A" transform="translate(103,75)"/>
<path d="M0 0 C2.03144641 0.93446535 4.03533587 1.93224776 6 3 C5.86328125 4.7578125 5.86328125 4.7578125 5 7 C2.41796875 8.9921875 2.41796875 8.9921875 -0.8125 10.875 C-1.87082031 11.51179687 -2.92914063 12.14859375 -4.01953125 12.8046875 C-7 14 -7 14 -9.38671875 13.1953125 C-9.91910156 12.80085937 -10.45148438 12.40640625 -11 12 C-5.25 7 -5.25 7 -3 7 C-2.87625 6.030625 -2.7525 5.06125 -2.625 4.0625 C-2.41875 3.051875 -2.2125 2.04125 -2 1 C-1.34 0.67 -0.68 0.34 0 0 Z " fill="#787370" transform="translate(172,146)"/>
<path d="M0 0 C0.66 1.32 1.32 2.64 2 4 C2.66 4 3.32 4 4 4 C4 3.01 4 2.02 4 1 C4.99 1 5.98 1 7 1 C7 4.63 7 8.26 7 12 C6.01 12.33 5.02 12.66 4 13 C4 12.34 4 11.68 4 11 C2.68 10.67 1.36 10.34 0 10 C0 6.7 0 3.4 0 0 Z " fill="#837266" transform="translate(66,58)"/>
<path d="M0 0 C3.96 1.98 7.92 3.96 12 6 C10.68 7.65 9.36 9.3 8 11 C7.34 11 6.68 11 6 11 C5.34 8.69 4.68 6.38 4 4 C2.7763932 6.0745356 2.7763932 6.0745356 3 9 C1.35 9 -0.3 9 -2 9 C-1.41070989 5.96936513 -0.74955438 2.9982175 0 0 Z " fill="#2A2741" transform="translate(106,124)"/>
<path d="M0 0 C14.78132118 7.29840547 14.78132118 7.29840547 21 11 C20.67 12.32 20.34 13.64 20 15 C17.22471741 13.40343998 14.45561382 11.79645217 11.6875 10.1875 C10.90181641 9.73568359 10.11613281 9.28386719 9.30664062 8.81835938 C8.54931641 8.37685547 7.79199219 7.93535156 7.01171875 7.48046875 C6.31522217 7.07723389 5.61872559 6.67399902 4.90112305 6.25854492 C2.98531235 4.99027677 1.48748505 3.75027311 0 2 C0 1.34 0 0.68 0 0 Z " fill="#DBD1C3" transform="translate(39,80)"/>
<path d="M0 0 C-2.01594689 2.13812549 -3.98895817 3.74707633 -6.50390625 5.26171875 C-7.16197266 5.65810547 -7.82003906 6.05449219 -8.49804688 6.46289062 C-9.17931641 6.86701172 -9.86058594 7.27113281 -10.5625 7.6875 C-11.24763672 8.10322266 -11.93277344 8.51894531 -12.63867188 8.94726562 C-17.7466133 12 -17.7466133 12 -20 12 C-20 11.34 -20 10.68 -20 10 C-16.53846154 7 -16.53846154 7 -14 7 C-14 5.68 -14 4.36 -14 3 C-9.07015675 0.96006486 -5.42039575 -0.40652968 0 0 Z " fill="#ECECEC" transform="translate(120,26)"/>
<path d="M0 0 C2.475 0.99 2.475 0.99 5 2 C5 2.99 5 3.98 5 5 C4.34 5 3.68 5 3 5 C1.84207525 8.6701006 1.88611337 12.12275604 1.90234375 15.953125 C1.9037587 16.61334656 1.90517365 17.27356812 1.90663147 17.95379639 C1.91220755 20.05257794 1.92475553 22.15125095 1.9375 24.25 C1.9425181 25.67708179 1.94708046 27.10416525 1.95117188 28.53125 C1.96216912 32.02086832 1.9794172 35.51042356 2 39 C1.34 38.67 0.68 38.34 0 38 C0 25.46 0 12.92 0 0 Z " fill="#685C53" transform="translate(65,124)"/>
<path d="M0 0 C4.37544904 0.59259328 7.52240004 2.21156828 11.3125 4.4375 C12.38113281 5.05496094 13.44976562 5.67242187 14.55078125 6.30859375 C15.35902344 6.86675781 16.16726562 7.42492187 17 8 C17 8.66 17 9.32 17 10 C10.51813243 9.72417585 5.90890586 7.23472137 1 3 C0.67 2.01 0.34 1.02 0 0 Z " fill="#9E958C" transform="translate(122,125)"/>
<path d="M0 0 C0.66 0.33 1.32 0.66 2 1 C1.8125 3.8125 1.8125 3.8125 1 7 C-1.3125 8.9375 -1.3125 8.9375 -4 10 C-6.3125 9.6875 -6.3125 9.6875 -8 9 C-8 8.34 -8 7.68 -8 7 C-8.66 6.67 -9.32 6.34 -10 6 C-8.3811004 4.96951963 -6.75467511 3.95085322 -5.125 2.9375 C-4.22007813 2.36902344 -3.31515625 1.80054687 -2.3828125 1.21484375 C-1.20332031 0.61349609 -1.20332031 0.61349609 0 0 Z " fill="#0D0D95" transform="translate(116,67)"/>
<path d="M0 0 C0.66 0.33 1.32 0.66 2 1 C2.25 3.75 2.25 3.75 2 7 C0.1875 9.0625 0.1875 9.0625 -2 11 C-3.01656081 12.65661761 -4.02065076 14.32111559 -5 16 C-5.33 16 -5.66 16 -6 16 C-6 12.37 -6 8.74 -6 5 C-3.03 5.495 -3.03 5.495 0 6 C-0.2784375 4.7934375 -0.2784375 4.7934375 -0.5625 3.5625 C-0.706875 2.716875 -0.85125 1.87125 -1 1 C-0.67 0.67 -0.34 0.34 0 0 Z " fill="#060798" transform="translate(109,127)"/>
<path d="M0 0 C3.465 1.98 3.465 1.98 7 4 C6.67 10.27 6.34 16.54 6 23 C5.67 23 5.34 23 5 23 C4.67 17.06 4.34 11.12 4 5 C3.67 6.32 3.34 7.64 3 9 C1.35 9 -0.3 9 -2 9 C-1.41196203 5.97580475 -0.77321882 2.98241547 0 0 Z " fill="#322F44" transform="translate(106,95)"/>
<path d="M0 0 C5.85272256 0.45020943 10.08220119 3.03839227 15 6 C15 6.99 15 7.98 15 9 C10.85701333 8.40165275 7.81805623 6.99335715 4.1875 4.9375 C3.21167969 4.38964844 2.23585937 3.84179688 1.23046875 3.27734375 C0.49441406 2.85582031 -0.24164063 2.43429688 -1 2 C-0.67 1.34 -0.34 0.68 0 0 Z " fill="#C4BCB4" transform="translate(154,144)"/>
<path d="M0 0 C0.99 0.33 1.98 0.66 3 1 C2.34 1 1.68 1 1 1 C1.00523682 2.20124512 1.01047363 3.40249023 1.01586914 4.64013672 C1.03393653 9.08674376 1.0454384 13.53334753 1.05493164 17.97998047 C1.05996787 19.90641831 1.06679712 21.83285231 1.07543945 23.75927734 C1.08753608 26.52442368 1.09323533 29.28951958 1.09765625 32.0546875 C1.10281754 32.9193161 1.10797882 33.7839447 1.11329651 34.67477417 C1.11387171 40.77225659 1.11387171 40.77225659 0 43 C-0.66 43 -1.32 43 -2 43 C-2 42.01 -2 41.02 -2 40 C-2.66 39.67 -3.32 39.34 -4 39 C-2.68 39 -1.36 39 0 39 C0 26.13 0 13.26 0 0 Z " fill="#6F6259" transform="translate(72,14)"/>
<path d="M0 0 C0.66 0 1.32 0 2 0 C2 2.64 2 5.28 2 8 C1.01 8.495 1.01 8.495 0 9 C0.66 9.33 1.32 9.66 2 10 C2 10.66 2 11.32 2 12 C0.02 11.34 -1.96 10.68 -4 10 C-4 7.36 -4 4.72 -4 2 C-2.68 2.33 -1.36 2.66 0 3 C0 2.01 0 1.02 0 0 Z " fill="#847469" transform="translate(70,112)"/>
<path d="M0 0 C0.375 2.25 0.375 2.25 0 5 C-2.8125 7.375 -2.8125 7.375 -6 9 C-6.99 8.67 -7.98 8.34 -9 8 C-9.33 7.01 -9.66 6.02 -10 5 C-8.71186658 4.16121545 -7.41936744 3.32913217 -6.125 2.5 C-5.40570313 2.0359375 -4.68640625 1.571875 -3.9453125 1.09375 C-2 0 -2 0 0 0 Z " fill="#060768" transform="translate(117,135)"/>
<path d="M0 0 C5.85014103 1.59200559 10.70518486 4.55736873 15.875 7.625 C16.75414063 8.140625 17.63328125 8.65625 18.5390625 9.1875 C20.6957056 10.45335573 22.84917988 11.72428407 25 13 C24.34 13.66 23.68 14.32 23 15 C22.40574219 14.63648438 21.81148437 14.27296875 21.19921875 13.8984375 C14.26866157 9.69483361 7.25312669 5.62656334 0 2 C0 1.34 0 0.68 0 0 Z " fill="#3B3733" transform="translate(15,44)"/>
<path d="M0 0 C4.90309806 0.52270265 8.18388507 2.0012631 12.375 4.5625 C13.43460938 5.20316406 14.49421875 5.84382812 15.5859375 6.50390625 C16.38257813 6.99761719 17.17921875 7.49132812 18 8 C17.67 8.66 17.34 9.32 17 10 C11.10873008 8.44966581 5.97939999 5.45088361 1 2 C0.67 1.34 0.34 0.68 0 0 Z " fill="#F7F7F7" transform="translate(149,145)"/>
<path d="M0 0 C4.30764815 1.56641751 8.06171464 3.68336156 12 6 C12.33 4.02 12.66 2.04 13 0 C13.33 0 13.66 0 14 0 C14 2.97 14 5.94 14 9 C12.948125 8.566875 12.948125 8.566875 11.875 8.125 C8.94547497 6.97866412 5.99078347 5.97374346 3 5 C2.67 5.66 2.34 6.32 2 7 C1.34 6.01 0.68 5.02 0 4 C0.33 3.67 0.66 3.34 1 3 C0.34 2.34 -0.32 1.68 -1 1 C-0.67 0.67 -0.34 0.34 0 0 Z " fill="#867F7A" transform="translate(47,88)"/>
<path d="M0 0 C1.67542976 0.28604898 3.34385343 0.61781233 5 1 C5 4.3 5 7.6 5 11 C4.34 11 3.68 11 3 11 C2.71125 10.360625 2.4225 9.72125 2.125 9.0625 C1.17176549 6.84793921 1.17176549 6.84793921 -1 6 C-1.042721 4.33388095 -1.04063832 2.66617115 -1 1 C-0.67 0.67 -0.34 0.34 0 0 Z " fill="#494646" transform="translate(118,67)"/>
<path d="M0 0 C0.99 0 1.98 0 3 0 C3 4.95 3 9.9 3 15 C2.01 14.67 1.02 14.34 0 14 C0 9.38 0 4.76 0 0 Z " fill="#07066D" transform="translate(59,111)"/>
<path d="M0 0 C0.33 0 0.66 0 1 0 C1.13277344 1.25296875 1.26554687 2.5059375 1.40234375 3.796875 C1.58058291 5.44793246 1.7589764 7.09897327 1.9375 8.75 C2.02451172 9.575 2.11152344 10.4 2.20117188 11.25 C2.28818359 12.04921875 2.37519531 12.8484375 2.46484375 13.671875 C2.543396 14.4050293 2.62194824 15.13818359 2.70288086 15.89355469 C2.9973877 17.98147994 3.45117496 19.96552768 4 22 C2.68 22 1.36 22 0 22 C0 14.74 0 7.48 0 0 Z " fill="#0A0966" transform="translate(101,125)"/>
<path d="M0 0 C0 2.97 0 5.94 0 9 C-4 8 -4 8 -7 6 C-5.52522876 2.59668175 -4.14385429 0 0 0 Z " fill="#84807C" transform="translate(84,7)"/>
<path d="M0 0 C3.96 1.98 3.96 1.98 8 4 C8 6.97 8 9.94 8 13 C5.61318325 10.61318325 4.05776184 8.7414492 2.3125 5.9375 C1.87550781 5.24527344 1.43851563 4.55304688 0.98828125 3.83984375 C0 2 0 2 0 0 Z " fill="#908781" transform="translate(53,95)"/>
<path d="M0 0 C5.80342274 1.48805711 10.17590879 4.59097555 15 8 C14.01 8.66 13.02 9.32 12 10 C10.36765063 9.09648559 8.74433176 8.1766431 7.125 7.25 C6.22007813 6.73953125 5.31515625 6.2290625 4.3828125 5.703125 C1.92029011 3.94302703 1.05532477 2.78993906 0 0 Z " fill="#4D4946" transform="translate(34,83)"/>
<path d="M0 0 C0.66 0 1.32 0 2 0 C2 3.3 2 6.6 2 10 C0 9 -2 8 -4 7 C-4 5.35 -4 3.7 -4 2 C-2.68 2.33 -1.36 2.66 0 3 C0 2.01 0 1.02 0 0 Z " fill="#7E7066" transform="translate(70,72)"/>
<path d="M0 0 C0.66 0 1.32 0 2 0 C2 3.3 2 6.6 2 10 C0.68 9.67 -0.64 9.34 -2 9 C-2 8.34 -2 7.68 -2 7 C-2.66 7 -3.32 7 -4 7 C-4 5.35 -4 3.7 -4 2 C-3.34 2 -2.68 2 -2 2 C-2 2.66 -2 3.32 -2 4 C-1.34 4 -0.68 4 0 4 C0 2.68 0 1.36 0 0 Z " fill="#7D7066" transform="translate(70,101)"/>
<path d="M0 0 C0.66 0 1.32 0 2 0 C2 8.58 2 17.16 2 26 C1.34 26.33 0.68 26.66 0 27 C-0.33 26.01 -0.66 25.02 -1 24 C-0.34 24 0.32 24 1 24 C0.85866501 22.22880197 0.71176792 20.45804713 0.5625 18.6875 C0.48128906 17.70136719 0.40007812 16.71523437 0.31640625 15.69921875 C0.08187441 12.90624401 0.08187441 12.90624401 -1 10 C-0.34 10 0.32 10 1 10 C0.67 6.7 0.34 3.4 0 0 Z " fill="#35302B" transform="translate(98,116)"/>
<path d="M0 0 C1.32 2.64 2.64 5.28 4 8 C-0.43090471 6.79157144 -2.98112756 5.48331435 -6 2 C-3 0 -3 0 0 0 Z " fill="#D9CFC2" transform="translate(113,93)"/>
<path d="M0 0 C2.475 0.495 2.475 0.495 5 1 C5 8.59 5 16.18 5 24 C4.67 24 4.34 24 4 24 C3.93941406 22.81921875 3.87882812 21.6384375 3.81640625 20.421875 C3.73197418 18.8645723 3.64732751 17.30728121 3.5625 15.75 C3.52318359 14.97269531 3.48386719 14.19539063 3.44335938 13.39453125 C3.40146484 12.64042969 3.35957031 11.88632812 3.31640625 11.109375 C3.27974854 10.41811523 3.24309082 9.72685547 3.20532227 9.01464844 C2.99017764 6.90362174 2.67501163 5.01387093 2 3 C1.34 2.67 0.68 2.34 0 2 C0 1.34 0 0.68 0 0 Z " fill="#645B54" transform="translate(61,16)"/>
<path d="M0 0 C0.66 0 1.32 0 2 0 C1.67 2.97 1.34 5.94 1 9 C-1.64 9.33 -4.28 9.66 -7 10 C-5.8783151 7.04283071 -5.15598859 6.09285035 -2.375 4.4375 C-1.59125 3.963125 -0.8075 3.48875 0 3 C0 2.01 0 1.02 0 0 Z " fill="#3A353C" transform="translate(60,54)"/>
<path d="M0 0 C5.75 1.875 5.75 1.875 8 3 C8 3.66 8 4.32 8 5 C7.01 5 6.02 5 5 5 C5 8.63 5 12.26 5 16 C4.67 16 4.34 16 4 16 C4 12.04 4 8.08 4 4 C2.68 3.67 1.36 3.34 0 3 C0 2.01 0 1.02 0 0 Z " fill="#332D2B" transform="translate(6,39)"/>
<path d="M0 0 C4.38879023 2.08990011 6.57166875 3.85388112 8.625 8.25 C6.83101733 7.29600922 5.03988345 6.33665974 3.25 5.375 C2.25226563 4.84132812 1.25453125 4.30765625 0.2265625 3.7578125 C-2.375 2.25 -2.375 2.25 -4.375 0.25 C-2.375 -0.75 -2.375 -0.75 0 0 Z " fill="#715960" transform="translate(132.375,138.75)"/>
<path d="M0 0 C0.99 0 1.98 0 3 0 C3 0.99 3 1.98 3 3 C3.99 3 4.98 3 6 3 C6 2.34 6 1.68 6 1 C8.475 1.99 8.475 1.99 11 3 C9.75 4.5625 9.75 4.5625 8 6 C5.9375 5.625 5.9375 5.625 4 5 C3.01 5.495 3.01 5.495 2 6 C1.34 4.02 0.68 2.04 0 0 Z " fill="#847D78" transform="translate(105,117)"/>
<path d="M0 0 C0 1.98 0 3.96 0 6 C-2.9375 5.1875 -2.9375 5.1875 -6 4 C-6.33 3.01 -6.66 2.02 -7 1 C-4.53721199 -0.231394 -2.7204945 -0.07159196 0 0 Z " fill="#D0C6BA" transform="translate(61,63)"/>
<path d="M0 0 C4.19360449 0.67097672 7.40334352 2.8558394 11 5 C10.67 5.99 10.34 6.98 10 8 C7.03 6.35 4.06 4.7 1 3 C0.67 3.66 0.34 4.32 0 5 C-0.33 4.01 -0.66 3.02 -1 2 C-0.67 1.34 -0.34 0.68 0 0 Z " fill="#A7A09A" transform="translate(5,64)"/>
<path d="M0 0 C2.49770493 1.1893833 4.48680657 2.50776832 6.625 4.25 C5.965 5.57 5.305 6.89 4.625 8.25 C4.625 7.26 4.625 6.27 4.625 5.25 C3.8825 4.981875 3.14 4.71375 2.375 4.4375 C-0.24136554 3.30770579 -2.17687111 2.04106798 -4.375 0.25 C-2.375 -0.75 -2.375 -0.75 0 0 Z " fill="#D3D3D3" transform="translate(100.375,24.75)"/>
<path d="M0 0 C4.30764815 1.56641751 8.06171464 3.68336156 12 6 C12 6.66 12 7.32 12 8 C7.1725201 6.58707905 3.2837641 4.57025846 -1 2 C-0.67 1.34 -0.34 0.68 0 0 Z " fill="#B4ABA4" transform="translate(35,81)"/>
<path d="M0 0 C0.66 0.33 1.32 0.66 2 1 C2.25 3.8125 2.25 3.8125 2 7 C0 8.875 0 8.875 -2 10 C-2 9.34 -2 8.68 -2 8 C-2.66 8 -3.32 8 -4 8 C-4 7.34 -4 6.68 -4 6 C-2.68 6 -1.36 6 0 6 C-0.2784375 4.7934375 -0.2784375 4.7934375 -0.5625 3.5625 C-0.706875 2.716875 -0.85125 1.87125 -1 1 C-0.67 0.67 -0.34 0.34 0 0 Z " fill="#040569" transform="translate(109,127)"/>
<path d="M0 0 C0.33 0.99 0.66 1.98 1 3 C1.66 3 2.32 3 3 3 C2.6875 5.375 2.6875 5.375 2 8 C1.01 8.66 0.02 9.32 -1 10 C-1.02689216 8.52093108 -1.04634621 7.04172517 -1.0625 5.5625 C-1.07410156 4.73878906 -1.08570312 3.91507812 -1.09765625 3.06640625 C-1 1 -1 1 0 0 Z " fill="#040496" transform="translate(104,80)"/>
<path d="M0 0 C1.32 0 2.64 0 4 0 C4.66 1.32 5.32 2.64 6 4 C4.68 4.99 3.36 5.98 2 7 C2 6.34 2 5.68 2 5 C1.34 5 0.68 5 0 5 C0 3.35 0 1.7 0 0 Z " fill="#4C4856" transform="translate(104,74)"/>
<path d="M0 0 C3.77001757 0.40978452 5.80106814 0.86737876 9 3 C9 3.66 9 4.32 9 5 C5.39703406 5.41176754 4.21597933 5.1535853 1.1875 3 C0.465625 2.34 -0.25625 1.68 -1 1 C-0.67 0.67 -0.34 0.34 0 0 Z " fill="#CFC5BD" transform="translate(154,144)"/>
<path d="M0 0 C4.8051553 -0.56531239 7.24303897 1.11675084 11 4 C11 4.33 11 4.66 11 5 C6.1948447 5.56531239 3.75696103 3.88324916 0 1 C0 0.67 0 0.34 0 0 Z " fill="#615B57" transform="translate(153,153)"/>
<path d="M0 0 C0.33 0.66 0.66 1.32 1 2 C1.66 2 2.32 2 3 2 C3.33 1.34 3.66 0.68 4 0 C4 1.32 4 2.64 4 4 C3.01 4 2.02 4 1 4 C1 4.99 1 5.98 1 7 C0.34 7 -0.32 7 -1 7 C-1.33 5.02 -1.66 3.04 -2 1 C-1.34 0.67 -0.68 0.34 0 0 Z " fill="#534B43" transform="translate(69,55)"/>
<path d="M0 0 C0.99 0.33 1.98 0.66 3 1 C3 2.32 3 3.64 3 5 C3.66 5.33 4.32 5.66 5 6 C2.525 7.485 2.525 7.485 0 9 C0 6.03 0 3.06 0 0 Z " fill="#06068F" transform="translate(103,121)"/>
<path d="M0 0 C5.66153846 2.46153846 5.66153846 2.46153846 7.375 5.1875 C7.58125 5.785625 7.7875 6.38375 8 7 C4.40608886 5.66511872 1.24509304 4.03977277 -2 2 C-1.34 1.34 -0.68 0.68 0 0 Z " fill="#68635E" transform="translate(28,79)"/>
<path d="M0 0 C1.98 0.495 1.98 0.495 4 1 C4 2.32 4 3.64 4 5 C2.35 5 0.7 5 -1 5 C-0.67 3.35 -0.34 1.7 0 0 Z " fill="#44414A" transform="translate(105,108)"/>
<path d="M0 0 C5.75 1.75 5.75 1.75 8 4 C8 4.66 8 5.32 8 6 C2.25 4.125 2.25 4.125 0 3 C0 2.01 0 1.02 0 0 Z " fill="#585752" transform="translate(6,67)"/>
<path d="M0 0 C0.33 0 0.66 0 1 0 C1 3.63 1 7.26 1 11 C0.01 11.33 -0.98 11.66 -2 12 C-2 10.68 -2 9.36 -2 8 C-2.66 7.67 -3.32 7.34 -4 7 C-2.68 7 -1.36 7 0 7 C0 4.69 0 2.38 0 0 Z " fill="#6E635A" transform="translate(72,59)"/>
<path d="M0 0 C2.97 0.495 2.97 0.495 6 1 C4.71937515 2.7074998 3.38232443 4.37373596 2 6 C1.34 6 0.68 6 0 6 C0 4.02 0 2.04 0 0 Z " fill="#46423E" transform="translate(112,129)"/>
<path d="M0 0 C3.37462715 0.54723683 5.08235 1.0549 8 3 C7.67 3.99 7.34 4.98 7 6 C1.125 2.25 1.125 2.25 0 0 Z " fill="#EDEAE7" transform="translate(7,63)"/>
<path d="M0 0 C3.96 1.98 3.96 1.98 8 4 C8 4.66 8 5.32 8 6 C4.62537285 5.45276317 2.91765 4.9451 0 3 C0 2.01 0 1.02 0 0 Z " fill="#4D4844" transform="translate(122,133)"/>
<path d="M0 0 C1.32 0.66 2.64 1.32 4 2 C4 2.99 4 3.98 4 5 C2.35 5 0.7 5 -1 5 C-0.67 3.35 -0.34 1.7 0 0 Z " fill="#46424A" transform="translate(105,128)"/>
<path d="M0 0 C1.485 0.99 1.485 0.99 3 2 C3.375 4.5 3.375 4.5 3 7 C2.01 7.66 1.02 8.32 0 9 C0 6.03 0 3.06 0 0 Z " fill="#050591" transform="translate(103,92)"/>
<path d="M0 0 C1.98 0.99 3.96 1.98 6 3 C5.67 3.66 5.34 4.32 5 5 C2.03 4.505 2.03 4.505 -1 4 C-0.67 2.68 -0.34 1.36 0 0 Z " fill="#B2B6B0" transform="translate(172,146)"/>
<path d="M0 0 C4.3890815 0.51035831 7.33708062 1.52214277 11 4 C10.67 4.66 10.34 5.32 10 6 C9.0925 5.525625 8.185 5.05125 7.25 4.5625 C4.73572051 3.35371179 2.70431791 2.52006114 0 2 C0 1.34 0 0.68 0 0 Z " fill="#443F3B" transform="translate(50,93)"/>
<path d="M0 0 C0.33 0 0.66 0 1 0 C1 2.64 1 5.28 1 8 C0.01 8 -0.98 8 -2 8 C-1.125 1.125 -1.125 1.125 0 0 Z " fill="#0B0B67" transform="translate(110,112)"/>
<path d="M0 0 C0.94875 0.350625 1.8975 0.70125 2.875 1.0625 C2.215 1.7225 1.555 2.3825 0.875 3.0625 C-1.6875 2.8125 -1.6875 2.8125 -4.125 2.0625 C-4.455 1.4025 -4.785 0.7425 -5.125 0.0625 C-3.125 -0.9375 -3.125 -0.9375 0 0 Z " fill="#978F86" transform="translate(39.125,75.9375)"/>
<path d="M0 0 C0.33 0 0.66 0 1 0 C1.06058594 0.69867188 1.12117188 1.39734375 1.18359375 2.1171875 C1.26738281 3.02726563 1.35117188 3.93734375 1.4375 4.875 C1.55931641 6.23238281 1.55931641 6.23238281 1.68359375 7.6171875 C1.86989285 10.01110861 1.86989285 10.01110861 3 12 C1.68 12 0.36 12 -1 12 C-0.67 8.04 -0.34 4.08 0 0 Z " fill="#756E55" transform="translate(64,152)"/>
<path d="M0 0 C1.32 0.33 2.64 0.66 4 1 C4 1.99 4 2.98 4 4 C3.34 4 2.68 4 2 4 C1.34 5.32 0.68 6.64 0 8 C0 5.36 0 2.72 0 0 Z " fill="#716257" transform="translate(66,125)"/>
<path d="M0 0 C0.99 0.495 0.99 0.495 2 1 C2 1.66 2 2.32 2 3 C2.99 2.67 3.98 2.34 5 2 C5 2.66 5 3.32 5 4 C2.5 5.625 2.5 5.625 0 7 C0 4.69 0 2.38 0 0 Z " fill="#040597" transform="translate(103,112)"/>
<path d="M0 0 C2.62386487 3.06117568 3 3.73173127 3 8 C2.34 8 1.68 8 1 8 C0.01 5.69 -0.98 3.38 -2 1 C-1.34 0.67 -0.68 0.34 0 0 Z " fill="#5C524E" transform="translate(52,94)"/>
<path d="M0 0 C1.32 0.33 2.64 0.66 4 1 C4 2.65 4 4.3 4 6 C3.34 6 2.68 6 2 6 C1.34 4.02 0.68 2.04 0 0 Z " fill="#1A1C7B" transform="translate(119,72)"/>
</svg>
