<?xml version="1.0" encoding="UTF-8"?>
<svg version="1.1" xmlns="http://www.w3.org/2000/svg" width="512" height="512">
<path d="M0 0 C0.79923803 0.0471294 1.59847605 0.0942588 2.42193341 0.14281636 C44.51559406 2.6317577 86.15662263 7.27617329 127.75 14.25 C132.64314962 66.05430798 132.64314962 66.05430798 120.18247795 81.43079472 C115.12294505 87.09051744 109.5951748 92.16793889 103.85650396 97.1247952 C100.43932433 100.13794703 97.18866898 103.32240888 93.91604614 106.4907074 C87.73764565 112.42726061 81.4421305 118.21855218 75.08177006 123.95913023 C63.65493231 134.28329394 52.47469363 144.87348331 41.30771172 155.47715896 C37.39541491 159.18234058 33.43873813 162.83007706 29.43408561 166.43517601 C26.96120231 168.67154413 24.51762184 170.93828711 22.07915497 173.21207237 C20.94644681 174.25466274 19.80089014 175.28349614 18.64188766 176.29677582 C12.10313758 181.82872012 12.10313758 181.82872012 9.48379898 189.66013908 C9.95657463 193.03013307 10.67228435 196.02566871 11.75 199.25 C12.23638097 200.71044157 12.23638097 200.71044157 12.73258781 202.200387 C14.45518079 207.00117687 16.68096838 211.15795784 19.75 215.25 C20.45125 216.219375 21.1525 217.18875 21.875 218.1875 C29.21775743 226.71673957 39.81027246 231.4356261 50.75 233.25 C53.3033134 233.36462114 55.8321731 233.43438532 58.38598633 233.45532227 C59.13774139 233.46522186 59.88949646 233.47512146 60.66403198 233.48532104 C63.13666691 233.51678432 65.60932101 233.54163314 68.08203125 233.56640625 C69.80124904 233.5869889 71.52046191 233.60798571 73.2396698 233.62937927 C77.75560518 233.6844646 82.27158521 233.73393337 86.78759766 233.78222656 C91.39945428 233.83254068 96.01124641 233.88817493 100.62304688 233.94335938 C109.66530943 234.05077526 118.70762808 234.15225676 127.75 234.25 C131.9590872 251.8085429 136.13257001 274.82995889 126.53972626 291.33196259 C113.43570899 310.9709647 93.65862595 326.96526433 75.83955097 342.18080616 C70.91959047 346.38198737 66.22533456 350.56852555 62.1162262 355.59437561 C59.70571277 358.51549133 56.95613023 361.10589205 54.25 363.75 C50.79867473 367.15842744 47.38856398 370.5464945 44.25 374.25 C40.5854347 378.57418706 36.53479134 382.49082291 32.5078125 386.47265625 C29.64425883 389.31641577 26.8612281 392.16875084 24.25 395.25 C20.5854347 399.57418706 16.53479134 403.49082291 12.5078125 407.47265625 C9.64425883 410.31641577 6.8612281 413.16875084 4.25 416.25 C0.5854347 420.57418706 -3.46520866 424.49082291 -7.4921875 428.47265625 C-10.35574117 431.31641577 -13.1387719 434.16875084 -15.75 437.25 C-19.4145653 441.57418706 -23.46520866 445.49082291 -27.4921875 449.47265625 C-30.35574117 452.31641577 -33.1387719 455.16875084 -35.75 458.25 C-39.4145653 462.57418706 -43.46520866 466.49082291 -47.4921875 470.47265625 C-50.35574117 473.31641577 -53.1387719 476.16875084 -55.75 479.25 C-59.4145653 483.57418706 -63.46520866 487.49082291 -67.4921875 491.47265625 C-70.35574117 494.31641577 -73.1387719 497.16875084 -75.75 500.25 C-79.40655007 504.56472908 -83.44729843 508.47351017 -87.46582031 512.44628906 C-91.59868476 516.55023551 -95.49603086 520.79528996 -99.25 525.25 C-100.25 526.25 -100.25 526.25 -102.19521481 526.3741985 C-103.05755968 526.37381878 -103.91990455 526.37343906 -104.80838108 526.37304783 C-105.79965647 526.37503888 -106.79093186 526.37702993 -107.81224591 526.37908131 C-109.46542062 526.37471205 -109.46542062 526.37471205 -111.1519928 526.37025452 C-112.31257609 526.37110894 -113.47315939 526.37196337 -114.66891187 526.37284368 C-117.90471422 526.37421184 -121.14047704 526.37106447 -124.3762747 526.36606562 C-127.86027061 526.36176434 -131.34426452 526.36320731 -134.82826233 526.3639679 C-140.86930343 526.36449334 -146.91033376 526.36134444 -152.95137215 526.35573006 C-161.68579829 526.34761777 -170.42021921 526.34500012 -179.15464871 526.34374207 C-193.32421212 526.34155112 -207.49376979 526.33488988 -221.66333008 526.32543945 C-235.43123343 526.31626644 -249.19913523 526.30918507 -262.96704102 526.30493164 C-263.81508504 526.30466892 -264.66312906 526.30440619 -265.53687138 526.30413551 C-269.79107697 526.30283051 -274.04528258 526.30156679 -278.29948819 526.30032361 C-313.61632955 526.28994966 -348.93316425 526.27233019 -384.25 526.25 C-388.92315878 474.18490859 -388.92315878 474.18490859 -377.02455902 459.47840023 C-372.20576649 454.10422322 -366.92534537 449.31700939 -361.43201256 444.64830279 C-358.15920513 441.80346454 -355.05608655 438.78283139 -351.93078613 435.77809143 C-346.02590102 430.14549475 -340.00712701 424.6566353 -333.92176676 419.22011763 C-323.00620472 409.46197921 -312.2917451 399.48651672 -301.65072393 389.43038422 C-297.92585585 385.92085524 -294.14695998 382.4865528 -290.31104803 379.09894639 C-275.82238679 367.1679024 -275.82238679 367.1679024 -269.50244904 350.40618229 C-269.65575178 346.21754535 -270.25128898 342.31506279 -271.25 338.25 C-271.39468719 337.56600065 -271.53937439 336.8820013 -271.68844604 336.1772747 C-274.22826742 324.2102168 -280.56125263 313.66533038 -290.6015625 306.59375 C-300.07518457 300.61040975 -309.26172455 298.18401767 -320.44873047 298.04467773 C-321.14211014 298.03477814 -321.83548981 298.02487854 -322.54988098 298.01467896 C-324.82228277 297.98330674 -327.09470541 297.95840353 -329.3671875 297.93359375 C-330.95045488 297.9130032 -332.53371703 297.8920062 -334.11697388 297.87062073 C-338.26956929 297.81561691 -342.42221251 297.76611265 -346.57489014 297.71777344 C-351.56519766 297.65853138 -356.55541843 297.59242358 -361.5456543 297.52747345 C-369.11370632 297.42973723 -376.68185297 297.34001394 -384.25 297.25 C-388.64166047 269.17104024 -388.86892222 243.84186349 -371.63655439 220.11205745 C-363.56841706 209.26326968 -354.8614008 198.98925791 -345.95178318 188.82870606 C-343.80533059 186.36900614 -341.68170696 183.89013764 -339.55854872 181.41033054 C-324.72037735 164.08293154 -309.36601633 147.28615678 -293.64454332 130.75822233 C-289.87874232 126.79877396 -286.13068507 122.82363126 -282.39771552 118.83321836 C-218.27803395 50.31546898 -159.75947051 2.20438143 0 0 Z " fill="#C4CBD3" transform="translate(384.25,-14.25)"/>
<path d="M0 0 C1.61274938 0.09495199 3.22550533 0.18979234 4.8382678 0.28452158 C46.06048217 2.73421365 86.86326623 7.22246553 127.625 13.875 C126.78443149 14.8388112 125.94386297 15.80262239 125.07782269 16.79563999 C121.36268414 21.13178071 117.8755726 25.63133394 114.37983704 30.14476013 C87.46056467 64.66465832 59.21518737 97.93637773 29.75489914 130.31446111 C27.94210033 132.30744242 26.13196344 134.30281874 24.32189083 136.29827595 C-36.27103409 202.99360936 -92.27731016 253.44012061 -185.47392611 257.97755661 C-208.94555741 259.01684126 -232.31484886 258.1667549 -255.75 256.75 C-257.36274938 256.65504801 -258.97550533 256.56020766 -260.5882678 256.46547842 C-301.81048217 254.01578635 -342.61326623 249.52753447 -383.375 242.875 C-382.53443149 241.9111888 -381.69386297 240.94737761 -380.82782269 239.95436001 C-377.11268414 235.61821929 -373.6255726 231.11866606 -370.12983704 226.60523987 C-343.21056467 192.08534168 -314.96518737 158.81362227 -285.50489914 126.43553889 C-283.69210033 124.44255758 -281.88196344 122.44718126 -280.07189083 120.45172405 C-217.78992172 51.89724016 -161.05659338 2.33008236 0 0 Z " fill="#ECF0F1" transform="translate(383.375,-13.875)"/>
<path d="M0 0 C0.99 0.33 1.98 0.66 3 1 C3.09796875 1.67804688 3.1959375 2.35609375 3.296875 3.0546875 C4.78182465 12.29721892 7.32599756 20.43466341 13 28 C13.70125 28.969375 14.4025 29.93875 15.125 30.9375 C22.46775743 39.46673957 33.06027246 44.1856261 44 46 C46.5533134 46.11462114 49.0821731 46.18438532 51.63598633 46.20532227 C52.38774139 46.21522186 53.13949646 46.22512146 53.91403198 46.23532104 C56.38666691 46.26678432 58.85932101 46.29163314 61.33203125 46.31640625 C63.05124904 46.3369889 64.77046191 46.35798571 66.4896698 46.37937927 C71.00560518 46.4344646 75.52158521 46.48393337 80.03759766 46.53222656 C84.64945428 46.58254068 89.26124641 46.63817493 93.87304688 46.69335938 C102.91530943 46.80077526 111.95762808 46.90225676 121 47 C115.90961106 53.21751876 110.27481319 58.84247803 104.57899666 64.49616814 C102.81409971 66.24815483 101.05247393 68.00337439 99.29161072 69.75941467 C94.91907972 74.11866454 90.54110617 78.47243508 86.16326904 82.82635498 C82.45596817 86.51381858 78.75079519 90.20339626 75.04833794 93.89572334 C73.32506727 95.61258125 71.59877912 97.32636335 69.87232971 99.0400238 C64.87126982 104.01802079 59.94089775 109.01069651 55.37705994 114.40028381 C53.21672276 116.90992502 50.86919333 119.18655239 48.5 121.5 C45.42374941 124.53047615 42.41983949 127.57959225 39.625 130.875 C36.43870567 134.61543247 32.99119746 138.04803498 29.5 141.5 C26.07154618 144.89005591 22.67739237 148.25194033 19.5625 151.9375 C15.686001 156.51351762 11.3747532 160.64986201 7.11572266 164.86474609 C3.54318081 168.41441758 0.15403123 172.03148977 -3.09765625 175.87890625 C-6.32501185 179.47737461 -9.80624973 182.8252353 -13.24243164 186.22290039 C-16.10590456 189.06657686 -18.88884684 191.91883927 -21.5 195 C-25.1645653 199.32418706 -29.21520866 203.24082291 -33.2421875 207.22265625 C-36.10574117 210.06641577 -38.8887719 212.91875084 -41.5 216 C-45.1645653 220.32418706 -49.21520866 224.24082291 -53.2421875 228.22265625 C-56.10574117 231.06641577 -58.8887719 233.91875084 -61.5 237 C-65.1645653 241.32418706 -69.21520866 245.24082291 -73.2421875 249.22265625 C-76.10574117 252.06641577 -78.8887719 254.91875084 -81.5 258 C-85.15788602 262.3163055 -89.20028406 266.22639494 -93.22021484 270.20068359 C-96.854237 273.80932997 -100.33032909 277.49557183 -103.6328125 281.4140625 C-104.08398438 281.93742187 -104.53515625 282.46078125 -105 283 C-105.38312851 283.52003098 -105.76625702 284.04006195 -106.16099548 284.57585144 C-108.95411552 286.73887923 -111.2973306 286.37408476 -114.79125977 286.37231445 C-115.477892 286.37596512 -116.16452423 286.37961578 -116.8719635 286.38337708 C-119.14536182 286.39149092 -121.41804858 286.37785648 -123.69140625 286.36328125 C-125.27742004 286.36276232 -126.86343448 286.36328128 -128.44944763 286.36479187 C-131.77930263 286.36470208 -135.10891589 286.3542673 -138.4387207 286.33618164 C-142.68299173 286.31362349 -146.92690553 286.31292622 -151.17121983 286.31969929 C-154.45115769 286.32306275 -157.73101595 286.31636263 -161.01093864 286.30657005 C-162.5740511 286.30274882 -164.13717247 286.30155692 -165.70028877 286.3031559 C-183.07475839 286.30612447 -196.74381986 283.8238098 -209.80859375 271.3671875 C-218.8285115 261.62374694 -223.32166598 250.80499852 -223.25878906 237.64331055 C-223.2622937 236.73176208 -223.26579834 235.82021362 -223.26940918 234.88104248 C-223.27817465 231.88285591 -223.27239416 228.88490752 -223.265625 225.88671875 C-223.26697349 223.79075577 -223.26891555 221.69479309 -223.27142334 219.59883118 C-223.27436789 215.21014421 -223.27009975 210.82153879 -223.26074219 206.43286133 C-223.24936928 200.82784596 -223.25589773 195.22302261 -223.26788712 189.61801434 C-223.27514184 185.2898262 -223.27280087 180.96168297 -223.26763153 176.63349342 C-223.26630392 174.56798085 -223.26791139 172.50246411 -223.27259064 170.43695641 C-223.27771306 167.53948681 -223.26986503 164.64232029 -223.25878906 161.74487305 C-223.26283752 160.90350296 -223.26688599 160.06213287 -223.27105713 159.19526672 C-223.17755861 145.88291489 -219.26879393 133.6359393 -209.97265625 123.80859375 C-200.84968845 115.44436783 -190.0666448 109.82323177 -177.59106445 109.88647461 C-176.83960144 109.88632858 -176.08813843 109.88618256 -175.31390381 109.8860321 C-172.83033358 109.88672871 -170.34683837 109.89450933 -167.86328125 109.90234375 C-166.14121034 109.90420882 -164.41913889 109.90563231 -162.69706726 109.90663147 C-158.16460709 109.9104496 -153.63217896 109.92027389 -149.09973145 109.93133545 C-144.47469516 109.94156469 -139.84965371 109.94613234 -135.22460938 109.95117188 C-126.1497255 109.96189677 -117.07486542 109.97896477 -108 110 C-107.757959 109.4329195 -107.51591801 108.865839 -107.26654243 108.28157425 C-105.75063674 105.55079216 -103.94770822 103.70196895 -101.73532104 101.49481201 C-100.84067139 100.59741302 -99.94602173 99.70001404 -99.02426147 98.77542114 C-98.03042687 97.78866426 -97.03649666 96.80200366 -96.04248047 95.81542969 C-94.99743417 94.77094764 -93.95282829 93.72602478 -92.90863037 92.68069458 C-90.07445727 89.84594754 -87.23415901 87.01741025 -84.39272833 84.18994045 C-81.42362069 81.23333334 -78.46017396 78.27106341 -75.49612427 75.30938721 C-69.88321723 69.70269692 -64.2652313 64.10112448 -58.64540684 58.50136876 C-52.24734431 52.12565912 -45.85495829 45.74427112 -39.46304488 39.36239767 C-26.31500686 26.23526608 -13.15985029 13.11528931 0 0 Z " fill="#7F8C8D" transform="translate(391,173)"/>
<path d="M0 0 C0.33 0 0.66 0 1 0 C5.40783054 18.09568048 8.88776212 41.06447184 -1.18231201 57.90474701 C-14.37062292 77.99251624 -33.95101891 94.39547907 -51.54813766 110.49411643 C-58.77607975 117.11742649 -65.84215862 123.90390888 -72.90234756 130.70504844 C-83.89443848 141.28716182 -94.96575019 151.77893368 -106.16796875 162.13842773 C-106.71930418 162.64867556 -107.27063961 163.15892338 -107.83868217 163.68463326 C-112.54188288 168.03327914 -117.24529322 172.37460753 -122.10426331 176.54971313 C-127.02098366 180.82045938 -131.57380523 185.45020685 -136.16381836 190.06616211 C-137.15821272 191.06247985 -138.15283811 192.05856705 -139.14767456 193.05444336 C-141.27325057 195.18315807 -143.39726887 197.31341018 -145.5200634 199.44489861 C-148.8744941 202.81293057 -152.23280678 206.177074 -155.59169006 209.54066467 C-162.70994103 216.66997111 -169.823922 223.80353138 -176.9375 230.9375 C-184.64253477 238.66456632 -192.34831321 246.39088275 -200.05894572 254.11236387 C-203.40105945 257.4594702 -206.74071817 260.8090015 -210.07853973 264.16038787 C-212.14637147 266.2356469 -214.21624416 268.30886076 -216.28669357 270.38150787 C-217.71110886 271.8087049 -219.1330107 273.23840907 -220.55485535 274.66816711 C-221.39449829 275.50788055 -222.23414124 276.34759399 -223.09922791 277.2127533 C-223.83272429 277.9484703 -224.56622068 278.6841873 -225.32194424 279.44219875 C-227 281 -227 281 -228 281 C-228 264.17 -228 247.34 -228 230 C-321.39 230 -414.78 230 -511 230 C-511 229.67 -511 229.34 -511 229 C-509.75166256 229.20501507 -508.50332512 229.41003014 -507.21715927 229.62125778 C-467.03276554 236.13882244 -426.79712065 240.3026403 -386.16295898 242.61238259 C-383.75798703 242.74954448 -381.35327325 242.89074922 -378.94854069 243.03203821 C-297.42152887 247.74014555 -229.76155303 240.26241924 -166.734375 184.62242508 C-141.84758906 162.42754219 -118.79350376 138.59749243 -96.375 113.9375 C-95.12155637 112.56209377 -93.86803591 111.18675755 -92.61443901 109.81149101 C-64.48427337 78.9186633 -37.3256595 47.26403745 -11.44797897 14.45827866 C-10.66966701 13.47161077 -9.89135504 12.48494289 -9.08945787 11.46837598 C-7.64821692 9.63620809 -6.21061922 7.80116633 -4.77729952 5.96279496 C-4.15558001 5.16920179 -3.5338605 4.37560863 -2.89330101 3.55796719 C-2.35447741 2.86589938 -1.81565381 2.17383157 -1.26050222 1.46079201 C-0.84453649 0.97873064 -0.42857075 0.49666928 0 0 Z " fill="#D1D4D1" transform="translate(511,0)"/>
<path d="M0 0 C4.23549267 17.27043745 8.29219512 39.84441433 -1.21027374 56.0660553 C-14.37121296 75.67035826 -34.10862642 91.66250292 -51.91044903 106.91014671 C-56.82657438 111.12123099 -61.52139529 115.31844047 -65.6337738 120.34561157 C-68.04512716 123.26556369 -70.79411072 125.85612748 -73.5 128.5 C-76.95132527 131.90842744 -80.36143602 135.2964945 -83.5 139 C-87.1645653 143.32418706 -91.21520866 147.24082291 -95.2421875 151.22265625 C-98.10574117 154.06641577 -100.8887719 156.91875084 -103.5 160 C-107.1645653 164.32418706 -111.21520866 168.24082291 -115.2421875 172.22265625 C-118.10574117 175.06641577 -120.8887719 177.91875084 -123.5 181 C-127.1645653 185.32418706 -131.21520866 189.24082291 -135.2421875 193.22265625 C-138.10574117 196.06641577 -140.8887719 198.91875084 -143.5 202 C-147.1645653 206.32418706 -151.21520866 210.24082291 -155.2421875 214.22265625 C-158.10574117 217.06641577 -160.8887719 219.91875084 -163.5 223 C-167.1645653 227.32418706 -171.21520866 231.24082291 -175.2421875 235.22265625 C-178.10574117 238.06641577 -180.8887719 240.91875084 -183.5 244 C-187.1645653 248.32418706 -191.21520866 252.24082291 -195.2421875 256.22265625 C-198.10574117 259.06641577 -200.8887719 261.91875084 -203.5 265 C-207.15677973 269.31500009 -211.19665304 273.22578447 -215.21801758 277.19628906 C-218.90739078 280.8561129 -222.40950153 284.60739931 -225.73046875 288.609375 C-227 290 -227 290 -229 291 C-229.20342887 283.45652529 -229.3431837 275.91376162 -229.43945312 268.36816406 C-229.47959773 265.80344206 -229.53412723 263.23890215 -229.60351562 260.67480469 C-229.70095615 256.98066236 -229.74601945 253.28894625 -229.78125 249.59375 C-229.82254028 248.4538562 -229.86383057 247.3139624 -229.90637207 246.13952637 C-229.91076453 238.28493459 -229.91076453 238.28493459 -227.27783203 234.5703125 C-225.27367994 232.5666204 -223.18969174 230.79515032 -221 229 C-219.91129232 227.79398485 -218.84427229 226.56757087 -217.8125 225.3125 C-214.55569937 221.51664272 -211.0538727 218.01377824 -207.5 214.5 C-204.05060998 211.08930738 -200.63880013 207.70378415 -197.5 204 C-193.8354347 199.67581294 -189.78479134 195.75917709 -185.7578125 191.77734375 C-182.89425883 188.93358423 -180.1112281 186.08124916 -177.5 183 C-173.8354347 178.67581294 -169.78479134 174.75917709 -165.7578125 170.77734375 C-162.89425883 167.93358423 -160.1112281 165.08124916 -157.5 162 C-153.8354347 157.67581294 -149.78479134 153.75917709 -145.7578125 149.77734375 C-142.89425883 146.93358423 -140.1112281 144.08124916 -137.5 141 C-134.36119859 137.29621434 -130.94937324 133.91070855 -127.5 130.5 C-124.07155172 127.10993882 -120.6773928 123.74806018 -117.5625 120.0625 C-113.686001 115.48648238 -109.3747532 111.35013799 -105.11572266 107.13525391 C-101.54318081 103.58558242 -98.15403123 99.96851023 -94.90234375 96.12109375 C-91.67636763 92.5241635 -88.19672515 89.17765814 -84.76196289 85.78149414 C-81.27580858 82.31948984 -77.98345016 78.77153079 -74.8046875 75.0234375 C-71.6518251 71.48840996 -68.23138877 68.21417963 -64.84375 64.90625 C-62.81873092 62.88645876 -60.94962317 60.78720766 -59.10107422 58.60546875 C-53.86432437 52.59969764 -48.17592135 47.03189568 -42.5390625 41.40625 C-41.34062355 40.20713636 -40.14233299 39.0078744 -38.94418335 37.80847168 C-36.44959706 35.31242015 -33.95323342 32.818164 -31.45556641 30.32519531 C-28.24744607 27.12281511 -25.04389458 23.91590754 -21.84162331 20.70767975 C-19.37628081 18.23873671 -16.90857783 15.77216414 -14.44013596 13.30632019 C-13.25679415 12.12364683 -12.07419848 10.94022643 -10.89235306 9.75605774 C-9.25045873 8.11164059 -7.60542279 6.47043427 -5.95947266 4.83007812 C-5.22395172 4.09152084 -5.22395172 4.09152084 -4.47357178 3.33804321 C-1.11427149 0 -1.11427149 0 0 0 Z " fill="#D0D3D0" transform="translate(512,221)"/>
<path d="M0 0 C0.04645583 9.24945151 0.08193631 18.49886249 0.10362434 27.74840546 C0.11403646 32.04390094 0.12814841 36.33931626 0.15087891 40.63476562 C0.17269936 44.78447756 0.18458795 48.93411266 0.18975449 53.08387756 C0.19343378 54.66261503 0.20061833 56.24134857 0.21146011 57.8200531 C0.22609768 60.04093327 0.22797288 62.2615008 0.22705078 64.48242188 C0.231492 65.74372925 0.23593323 67.00503662 0.24050903 68.30456543 C-0.64555285 81.91895517 -6.90565227 94.70722846 -17.01171875 103.8125 C-29.75306461 113.82534547 -43.30946997 115.45440309 -59.04296875 115.29296875 C-60.66392114 115.28736124 -62.28487868 115.28309661 -63.90583801 115.28010559 C-68.13581822 115.26874757 -72.36548071 115.23936036 -76.59533691 115.20599365 C-80.92614446 115.17509573 -85.25700422 115.16155846 -89.58789062 115.14648438 C-98.05873822 115.11448024 -106.52932939 115.06339598 -115 115 C-109.82580968 108.7375334 -104.16720089 103.0254551 -98.4206543 97.29125977 C-97.35715934 96.22640766 -96.29387677 95.1613434 -95.23078918 94.09608459 C-92.36159514 91.22235691 -89.48927775 88.35177067 -86.61622596 85.48190045 C-83.60697294 82.47518817 -80.60017057 79.46602673 -77.5929718 76.45726013 C-72.55034966 71.41282298 -67.50563176 66.37048892 -62.4597168 61.3293457 C-56.619424 55.49451196 -50.78276627 49.65606058 -44.94794911 43.81575161 C-39.93567818 38.7989516 -34.92147241 33.78409168 -29.90562564 28.77086681 C-26.91054479 25.77734759 -23.91615004 22.78315049 -20.92349815 19.78720284 C-18.11614956 16.97697791 -15.30638969 14.1691869 -12.49470329 11.36330223 C-11.4605947 10.33052176 -10.42734699 9.29687853 -9.39500046 8.26233673 C-7.99229428 6.85692158 -6.58623651 5.45485387 -5.17997742 4.05299377 C-3.99840577 2.87198766 -3.99840577 2.87198766 -2.79296398 1.66712284 C-1 0 -1 0 0 0 Z " fill="#7F8C8D" transform="translate(115,344)"/>
<path d="M0 0 C3.57632467 2.51103647 4.78325846 4.04272488 5.75 8.3125 C4.66870257 13.62887902 1.74351651 16.24129681 -2 20 C-2.50144531 20.60714844 -3.00289063 21.21429688 -3.51953125 21.83984375 C-5.40528188 24.04767851 -7.13013972 25.76104629 -9.9765625 26.54296875 C-13.83116258 26.81004778 -15.87224346 26.09049422 -19 23.875 C-21 21 -21 21 -21.5625 18.0625 C-20.2262249 10.78722445 -14.28507112 5.79317056 -9 1 C-5.86128812 -0.56935594 -3.46144178 -0.35201103 0 0 Z " fill="#94A4A4" transform="translate(286,332)"/>
<path d="M0 0 C3.9375 0.6875 3.9375 0.6875 6.9375 2.75 C8.9375 5.6875 8.9375 5.6875 9.8125 8.875 C8.08212634 16.41448522 1.12112733 22.32548263 -5.0625 26.6875 C-8.04961377 27.44401298 -9.89576231 27.08962542 -13.0625 26.6875 C-15.5625 25.1875 -15.5625 25.1875 -17.0625 22.6875 C-17.83530199 18.47221644 -18.06164639 16.21627986 -15.69921875 12.6015625 C-13.906408 10.52651325 -12.01486063 8.61213948 -10.0625 6.6875 C-9.31033203 5.77871094 -9.31033203 5.77871094 -8.54296875 4.8515625 C-5.95913117 1.8192903 -3.93811746 0.27286582 0 0 Z " fill="#94A4A4" transform="translate(353.0625,257.3125)"/>
<path d="M0 0 C3.07010998 1.50239424 4.51657566 2.61303253 5.65625 5.8828125 C6.21308207 10.19826108 5.42550056 12.41144265 2.859375 15.9609375 C-5.97932042 25.80755433 -5.97932042 25.80755433 -11.9375 26.375 C-14.88369422 26.28293143 -15.87970024 26.07711523 -18.4375 24.4375 C-20.52102697 21.18719792 -20.84957919 18.85402496 -21 15 C-19.3046875 12.05078125 -19.3046875 12.05078125 -16.875 9.3125 C-16.08867187 8.40113281 -15.30234375 7.48976563 -14.4921875 6.55078125 C-9.76184866 1.70922755 -7.03359095 -1.00479871 0 0 Z " fill="#94A4A4" transform="translate(321,295)"/>
<path d="M0 0 C3.24541268 2.13513992 3.89478226 3.64489014 5 7.375 C5 13.73745292 1.10112225 16.98630564 -3.125 21.3125 C-6.56023418 24.71532631 -7.90986544 25.91208592 -12.875 26.3125 C-15.82968653 26.25340627 -16.89058393 26.06564964 -19.5 24.5 C-21.18659008 21.68901654 -21.74933798 19.43817255 -21.578125 16.1484375 C-20.40832933 11.80122386 -17.17903677 9.02350659 -14 6 C-13.41347656 5.39414062 -12.82695312 4.78828125 -12.22265625 4.1640625 C-8.30949162 0.3839987 -5.63609439 -1.06341404 0 0 Z " fill="#94A4A4" transform="translate(251,369)"/>
<path d="M0 0 C3.5 0.625 3.5 0.625 6.4375 2.625 C9.29117716 6.77580314 9.2099846 8.6551078 8.5 13.625 C7 16.125 7 16.125 4.5 17.625 C-0.4698922 18.3349846 -2.34919686 18.41617716 -6.5 15.5625 C-9.02975133 11.84692774 -9.2878128 10.0367517 -8.5 5.625 C-5.90783917 1.93313458 -4.45850936 0.79616239 0 0 Z " fill="#94A4A4" transform="translate(379.5,229.375)"/>
<path d="M0 0 C2.5 1.4375 2.5 1.4375 4 4 C4.60318106 7.13079693 4.65375511 9.87459178 4 13 C1.30081929 16.35352755 -0.31436636 16.90377072 -4.5625 17.5 C-8 17 -8 17 -10.375 15.375 C-12.37108249 12.45764866 -12.8560483 10.52681669 -13 7 C-11.13255116 0.15268759 -6.64370691 -1.0293067 0 0 Z " fill="#94A4A4" transform="translate(216,406)"/>
</svg>
