<?xml version="1.0" encoding="UTF-8"?>
<svg version="1.1" xmlns="http://www.w3.org/2000/svg" width="904" height="103">
<path d="M0 0 C8.15204863 6.67582252 12.88751992 14.83761457 14.6875 25.1875 C14.6875 29.4775 14.6875 33.7675 14.6875 38.1875 C-2.4725 38.1875 -19.6325 38.1875 -37.3125 38.1875 C-34.88602593 47.881058 -34.88602593 47.881058 -28.3125 53.1875 C-22.87632947 54.99955684 -17.33034814 54.8974836 -11.9375 53 C-9.17109353 51.35714604 -9.17109353 51.35714604 -7.7578125 48.59375 C-4.99521103 45.87527955 -4.45795055 45.82416369 -0.765625 45.69921875 C0.96942356 45.73233036 2.70413171 45.79178808 4.4375 45.875 C5.76974609 45.90883789 5.76974609 45.90883789 7.12890625 45.94335938 C9.31682812 46.00217448 11.50129671 46.08428732 13.6875 46.1875 C10.88091416 55.27688623 7.5477455 62.32929419 -1.0625 67.15625 C-12.84882006 72.55831336 -25.11074771 72.7240988 -37.30078125 68.50390625 C-45.98889492 64.70637797 -51.4742262 58.81131389 -55.3125 50.1875 C-59.65706493 37.7297892 -59.60308503 25.55728226 -54.05859375 13.44921875 C-49.02687808 4.41406718 -42.14498707 -1.52912012 -32.3125 -4.8125 C-21.31748858 -7.51619133 -9.35645856 -6.65076625 0 0 Z M-33.3125 14.1875 C-35.45027645 17.22602496 -37.3125 20.40750226 -37.3125 24.1875 C-27.0825 24.1875 -16.8525 24.1875 -6.3125 24.1875 C-8.60233944 15.70521725 -8.60233944 15.70521725 -14.3125 11.1875 C-21.12360175 8.91713275 -27.66306292 9.66295083 -33.3125 14.1875 Z " fill="#075FAA" transform="translate(773.3125,30.8125)"/>
<path d="M0 0 C8.8744381 6.34561591 12.95766001 15.54013278 15 25.9375 C15.37066552 30.08895383 15.3125 34.26953145 15.3125 38.4375 C-1.8475 38.4375 -19.0075 38.4375 -36.6875 38.4375 C-35.25673998 46.7417992 -35.25673998 46.7417992 -30.6875 52.4375 C-26.18006063 55.22150667 -20.81291055 55.07622897 -15.6875 54.4375 C-11.87347241 53.19184116 -8.5013047 51.9433155 -6.5390625 48.3125 C-4.28704035 46.03197125 -3.57553205 46.14050585 -0.45703125 46.046875 C1.19576401 46.07342593 2.84832663 46.12107539 4.5 46.1875 C5.34498047 46.20554688 6.18996094 46.22359375 7.06054688 46.2421875 C9.14501573 46.28929414 11.22890144 46.36103767 13.3125 46.4375 C12.05071805 54.07530774 8.36938522 60.36467537 2.2734375 65.15625 C-7.9016318 71.80450245 -19.59222885 72.96056117 -31.4375 70.75 C-40.65032586 68.29100077 -47.16628402 63.14471779 -52.6875 55.4375 C-58.47400886 44.98499122 -59.49786151 32.64509752 -56.93359375 21.01953125 C-53.5618764 11.43327603 -47.8618476 4.42732367 -39.6875 -1.5625 C-26.35413286 -7.36117242 -12.60046505 -7.51345298 0 0 Z M-34 15.75 C-36.13965326 18.77437205 -36.13965326 18.77437205 -36.6875 24.4375 C-26.7875 24.4375 -16.8875 24.4375 -6.6875 24.4375 C-7.48420019 18.65464418 -7.48420019 18.65464418 -10.5625 14.625 C-11.07554687 14.04105469 -11.58859375 13.45710938 -12.1171875 12.85546875 C-15.3918743 9.89847544 -19.24085351 10.16179818 -23.40625 10.22265625 C-27.9995016 10.65523988 -30.80347565 12.55347565 -34 15.75 Z " fill="#075FAA" transform="translate(854.6875,30.5625)"/>
<path d="M0 0 C5.61914807 5.52436726 5.69412414 8.25102354 6.62109375 16.59375 C0.02109375 16.59375 -6.57890625 16.59375 -13.37890625 16.59375 C-14.36890625 14.28375 -15.35890625 11.97375 -16.37890625 9.59375 C-21.77541568 6.95056171 -27.60381513 7.28458858 -33.37890625 8.59375 C-35.66619359 10.43258881 -35.66619359 10.43258881 -35.50390625 13.21875 C-35.46265625 14.0025 -35.42140625 14.78625 -35.37890625 15.59375 C-28.48575134 20.14029898 -21.25906122 21.48935419 -13.27148438 23.21679688 C-4.63190117 25.20971142 2.57142755 27.91825738 7.62109375 35.59375 C9.71568582 41.8775262 9.81697855 49.90315943 7.12109375 56.03125 C3.09414969 62.75227635 -3.96852199 66.63549256 -11.37890625 68.59375 C-22.74061959 70.83475001 -36.4521704 70.99327803 -46.828125 65.234375 C-51.73540857 61.71491839 -56.24131547 57.3488021 -58.37890625 51.59375 C-58.70890625 48.95375 -59.03890625 46.31375 -59.37890625 43.59375 C-52.77890625 43.59375 -46.17890625 43.59375 -39.37890625 43.59375 C-38.05890625 46.23375 -36.73890625 48.87375 -35.37890625 51.59375 C-29.51386834 54.93075433 -23.92344911 55.35231764 -17.37890625 53.59375 C-15.06641541 52.37557982 -15.06641541 52.37557982 -13.37890625 50.59375 C-13.04509811 46.96811186 -13.04509811 46.96811186 -13.37890625 43.59375 C-20.80495387 39.96622156 -28.28402602 37.89529207 -36.29492188 35.97070312 C-44.52615895 33.86850131 -51.55736518 30.92249243 -56.37890625 23.59375 C-58.65211096 16.77413586 -57.63155646 10.40254108 -54.77734375 3.89453125 C-51.81620875 -0.97728024 -47.45129104 -3.51808509 -42.31640625 -5.71875 C-28.48005772 -8.95704434 -11.42198354 -9.68850163 0 0 Z " fill="#075FAA" transform="translate(647.37890625,32.40625)"/>
<path d="M0 0 C7.505051 6.88966357 10.92150884 15.41270887 11.5078125 25.44921875 C11.95738016 38.14918671 10.60925918 49.06773092 2.1171875 59.10546875 C-5.96358495 67.1042861 -15.76608628 68.87113127 -26.80859375 69.01171875 C-36.77173513 68.41552013 -44.75465018 64.50378369 -51.68359375 57.32421875 C-59.50190824 47.71728042 -60.61886247 35.20361964 -59.5703125 23.30859375 C-58.16696581 13.38594036 -53.92532763 4.76086248 -46.01953125 -1.5546875 C-31.80418112 -10.77206117 -13.46524962 -10.30966945 0 0 Z M-40.12109375 11.19921875 C-46.29458073 19.17260521 -46.76754005 28.21039551 -45.80859375 38.01171875 C-44.11473797 46.22127312 -39.5682099 51.24388636 -32.80859375 56.01171875 C-26.87506188 57.98956271 -20.17006256 58.0200311 -14.43359375 55.38671875 C-7.54749788 51.37334999 -4.2854017 45.11341893 -2.12109375 37.63671875 C-1.03856453 28.54347326 -2.249447 20.85581795 -6.55859375 12.69921875 C-10.37458472 8.14122954 -14.92639179 4.43234809 -21.0078125 3.7734375 C-29.02336279 3.53435515 -34.54379584 5.30674184 -40.12109375 11.19921875 Z " fill="#075FAA" transform="translate(135.80859375,32.98828125)"/>
<path d="M0 0 C6.6 0 13.2 0 20 0 C20 7.26 20 14.52 20 22 C24.95 22 29.9 22 35 22 C35 26.62 35 31.24 35 36 C30.05 36 25.1 36 20 36 C20.09362397 41.33884963 20.199738 46.67725056 20.31738281 52.015625 C20.35564191 53.83131121 20.39050017 55.64707241 20.421875 57.46289062 C20.4675923 60.07449123 20.52557536 62.68557688 20.5859375 65.296875 C20.59748871 66.10743347 20.60903992 66.91799194 20.62094116 67.75311279 C20.66944279 73.2238245 20.66944279 73.2238245 23 78 C25.8786935 78.70535611 25.8786935 78.70535611 29.125 78.75 C31.06375 78.8325 33.0025 78.915 35 79 C35 84.28 35 89.56 35 95 C26.76833285 97.05791679 15.9857539 97.36824867 8 94 C4.19949878 91.492675 1.45902018 89.37706053 0 85 C-0.08722452 83.38904142 -0.11767272 81.77468984 -0.11352539 80.16137695 C-0.11344986 79.1805867 -0.11337433 78.19979645 -0.11329651 77.18928528 C-0.10813522 76.13295395 -0.10297394 75.07662262 -0.09765625 73.98828125 C-0.0962413 72.90491989 -0.09482635 71.82155853 -0.09336853 70.70536804 C-0.08776559 67.24105075 -0.07521258 63.7767978 -0.0625 60.3125 C-0.05748538 57.96549572 -0.05292241 55.61849044 -0.04882812 53.27148438 C-0.0377952 47.51429808 -0.02052858 41.75715995 0 36 C-3.96 36 -7.92 36 -12 36 C-12 31.38 -12 26.76 -12 22 C-8.04 22 -4.08 22 0 22 C0 14.74 0 7.48 0 0 Z " fill="#0860AA" transform="translate(674,5)"/>
<path d="M0 0 C3.77185445 3.39054676 5.47163867 8.12484558 6.75 12.9375 C6.75 14.5875 6.75 16.2375 6.75 17.9375 C2.46 17.9375 -1.83 17.9375 -6.25 17.9375 C-6.6625 16.844375 -7.075 15.75125 -7.5 14.625 C-8.87450551 11.4156593 -10.13600289 9.68912337 -13.25 7.9375 C-19.49056851 5.8573105 -26.72551382 6.22222892 -33 8 C-35.54772689 9.86526977 -35.54772689 9.86526977 -36.4375 13.375 C-36.64876718 17.02103127 -36.64876718 17.02103127 -34.10546875 19.03515625 C-31.16874694 20.99163165 -28.75743005 21.97355047 -25.375 22.9375 C-24.23933594 23.26878906 -23.10367187 23.60007812 -21.93359375 23.94140625 C-19.40791582 24.62438385 -16.88792404 25.28068815 -14.34765625 25.90234375 C-4.90157175 28.2330126 3.16115594 30.44245703 8.75 38.9375 C10.71006086 44.81768258 10.57815527 51.54020843 8.5625 57.375 C3.31644989 64.79182946 -2.47834957 68.63988753 -11.3125 70.25 C-22.32945678 71.66990697 -35.30141091 71.67353247 -44.5625 64.6875 C-50.7307255 58.37582739 -51.77872529 53.53826353 -52.25 44.9375 C-47.96 44.9375 -43.67 44.9375 -39.25 44.9375 C-39.04375 45.989375 -38.8375 47.04125 -38.625 48.125 C-37.34412512 52.63550939 -35.08147736 54.33209539 -31.25 56.9375 C-24.76684628 59.19873242 -15.47086289 59.10491681 -9 56.875 C-5.98286648 55.08308883 -5.98286648 55.08308883 -4.625 51.5625 C-4.02607694 48.05344624 -4.02607694 48.05344624 -5.0625 45.25 C-11.00364148 38.96936472 -20.75967252 37.66394324 -28.87695312 35.87109375 C-36.63567499 34.06451395 -44.34934526 31.5677976 -49.25 24.9375 C-51.61433267 18.48931998 -51.81704632 12.33669202 -49.25 5.9375 C-44.96090679 -0.74843941 -39.18660353 -3.49399563 -31.6875 -5.375 C-20.64052804 -7.28730427 -9.4780011 -6.01488532 0 0 Z " fill="#075FAA" transform="translate(285.25,31.0625)"/>
<path d="M0 0 C5.05781814 4.79600167 6.87125374 11.03348224 7.18275452 17.90132141 C7.18053391 18.84952255 7.17831329 19.79772369 7.17602539 20.7746582 C7.17594986 21.85540115 7.17587433 22.9361441 7.17579651 24.04963684 C7.17063522 25.2050145 7.16547394 26.36039215 7.16015625 27.55078125 C7.1587413 28.74229294 7.15732635 29.93380463 7.15586853 31.16142273 C7.15027728 34.96180751 7.13772632 38.76213307 7.125 42.5625 C7.11998387 45.14127519 7.11542116 47.7200513 7.11132812 50.29882812 C7.1003107 56.61590818 7.08305201 62.93294406 7.0625 69.25 C2.7725 69.25 -1.5175 69.25 -5.9375 69.25 C-5.95208252 67.67589355 -5.96666504 66.10178711 -5.98168945 64.47998047 C-6.03972597 58.63160657 -6.11695953 52.78361551 -6.19995117 46.93554688 C-6.23317514 44.40598775 -6.26121489 41.87635495 -6.28393555 39.34667969 C-6.31752704 35.70736333 -6.36984754 32.06872066 -6.42578125 28.4296875 C-6.43217117 27.30134491 -6.4385611 26.17300232 -6.44514465 25.01046753 C-6.55017419 19.38258387 -6.68034476 15.06709548 -9.9375 10.25 C-13.79828928 6.63051005 -18.0989301 6.74872165 -23.1484375 6.8984375 C-28.62527935 7.58879572 -32.39685559 9.74989886 -36.3125 13.5625 C-40.23236172 20.04534823 -40.26370938 26.61823149 -40.3515625 33.99609375 C-40.37092865 35.00720718 -40.3902948 36.01832062 -40.4102478 37.06007385 C-40.4697199 40.26913182 -40.51629916 43.47822628 -40.5625 46.6875 C-40.60070957 48.87175988 -40.63976302 51.05600517 -40.6796875 53.24023438 C-40.77539478 58.57670354 -40.85954488 63.91324319 -40.9375 69.25 C-45.2275 69.25 -49.5175 69.25 -53.9375 69.25 C-53.9375 45.16 -53.9375 21.07 -53.9375 -3.75 C-49.9775 -3.75 -46.0175 -3.75 -41.9375 -3.75 C-41.6075 -1.11 -41.2775 1.53 -40.9375 4.25 C-40.41800781 3.76789062 -39.89851562 3.28578125 -39.36328125 2.7890625 C-28.49468154 -7.05495572 -12.22982075 -9.64968979 0 0 Z " fill="#0760A9" transform="translate(213.9375,30.75)"/>
<path d="M0 0 C4.29 0 8.58 0 13 0 C13.01458252 1.57410645 13.02916504 3.14821289 13.04418945 4.77001953 C13.10222597 10.61839343 13.17945953 16.46638449 13.26245117 22.31445312 C13.29567514 24.84401225 13.32371489 27.37364505 13.34643555 29.90332031 C13.38002704 33.54263667 13.43234754 37.18127934 13.48828125 40.8203125 C13.49467117 41.94865509 13.5010611 43.07699768 13.50764465 44.23953247 C13.61241603 49.8535834 13.71915454 54.21034308 17 59 C22.17447406 63.13608888 27.67839599 62.61841778 34 62 C39.2152482 60.2931915 41.85813081 57.45098136 45 53 C47.44450479 47.47389871 47.34530225 42.06819496 47.4140625 36.1328125 C47.43342865 35.09808807 47.4527948 34.06336365 47.4727478 32.99728394 C47.53231842 29.70660533 47.57883905 26.41589132 47.625 23.125 C47.66320048 20.88800595 47.70225341 18.65102628 47.7421875 16.4140625 C47.83800156 10.94282575 47.92211585 5.47152017 48 0 C52.29 0 56.58 0 61 0 C61 24.09 61 48.18 61 73 C57.04 73 53.08 73 49 73 C48.505 69.04 48.505 69.04 48 65 C47.48050781 65.48210937 46.96101563 65.96421875 46.42578125 66.4609375 C45.37970703 67.40839844 45.37970703 67.40839844 44.3125 68.375 C43.62800781 69.00148438 42.94351563 69.62796875 42.23828125 70.2734375 C35.81859257 75.22544867 27.19940492 75.48527779 19.36328125 74.75390625 C12.20508457 73.38060196 7.14308378 70.06665839 3 64 C0.42398157 58.71238323 -0.12746368 53.27981866 -0.11352539 47.45361328 C-0.11344986 46.39296661 -0.11337433 45.33231995 -0.11329651 44.23953247 C-0.10813522 43.11118988 -0.10297394 41.98284729 -0.09765625 40.8203125 C-0.09553383 39.06846146 -0.09553383 39.06846146 -0.09336853 37.28121948 C-0.08778498 33.56245326 -0.07523544 29.84374793 -0.0625 26.125 C-0.05748288 23.5989592 -0.05292034 21.07291746 -0.04882812 18.546875 C-0.03782093 12.36455998 -0.02056755 6.18229031 0 0 Z " fill="#085FAA" transform="translate(397,27)"/>
<path d="M0 0 C5.91255203 5.06790174 9.40817442 9.73742444 11.625 17.25 C11.625 18.57 11.625 19.89 11.625 21.25 C7.335 21.25 3.045 21.25 -1.375 21.25 C-2.055625 19.8475 -2.73625 18.445 -3.4375 17 C-5.48825791 13.3826909 -7.3293048 10.69536525 -11.21875 8.8359375 C-17.03650352 7.25502622 -23.03764558 7.5141662 -28.75 9.3125 C-35.27664121 14.1297828 -38.58570287 19.23414403 -39.859375 27.328125 C-40.66325051 36.92734433 -40.53055611 45.42422047 -34.8359375 53.5546875 C-31.45404573 57.47912875 -28.48752553 59.0029708 -23.46875 59.58984375 C-16.3937334 59.80874897 -11.91677127 58.88103008 -6.1875 54.625 C-3.50952788 51.11593308 -2.61797001 47.47609802 -1.375 43.25 C2.915 43.25 7.205 43.25 11.625 43.25 C11.14253966 51.93428609 8.2572482 59.17409321 1.8125 65.1875 C-6.35359765 71.63841357 -15.88872388 72.92387014 -26.15234375 72 C-34.2774631 70.59782224 -42.43847932 67.19709017 -47.68359375 60.60546875 C-55.51263173 49.19876949 -56.05429156 34.79597286 -53.71875 21.51953125 C-51.14893374 12.07102579 -46.77550587 5.15816839 -38.5 -0.1875 C-26.4016047 -6.79494433 -12.19946343 -6.3256477 0 0 Z " fill="#075FAA" transform="translate(525.375,29.75)"/>
<path d="M0 0 C6.0660777 5.65341936 9.170561 11.70560998 10 20 C5.38 20 0.76 20 -4 20 C-5.051875 17.6178125 -5.051875 17.6178125 -6.125 15.1875 C-7.74945904 12.00608022 -8.78957384 10.17449975 -11.5625 7.875 C-18.86267015 6.01677487 -26.65623049 5.67696353 -33.31640625 9.609375 C-38.56079941 13.94117074 -41.17248057 20.35685791 -42 27 C-42.72780812 36.38352614 -42.19428597 45.41339254 -36.125 53 C-33.02274058 56.52606535 -29.74412674 57.81924931 -25.09765625 58.30078125 C-17.09218349 58.40033134 -17.09218349 58.40033134 -10 55 C-6.15433633 51.15433633 -4.71388162 47.05595079 -3 42 C1.29 42 5.58 42 10 42 C9.51753966 50.68428609 6.6322482 57.92409321 0.1875 63.9375 C-8.11761314 70.49823064 -17.52719223 71.45833221 -27.9296875 70.8203125 C-36.45786757 69.63651413 -43.86156063 66.04193602 -49.375 59.3125 C-54.86960661 50.94571267 -56.3559444 43.33088822 -56.4375 33.4375 C-56.44765137 32.56327393 -56.45780273 31.68904785 -56.46826172 30.78833008 C-56.32014448 19.65971834 -52.9486079 10.39545168 -45.3359375 2.2109375 C-33.64076947 -8.62978903 -12.96661326 -9.00691631 0 0 Z " fill="#075FAA" transform="translate(58,31)"/>
<path d="M0 0 C6.93 0 13.86 0 21 0 C21 33 21 66 21 100 C14.07 100 7.14 100 0 100 C0 67 0 34 0 0 Z " fill="#0760AA" transform="translate(882,0)"/>
<path d="M0 0 C4.29 0 8.58 0 13 0 C13 7.26 13 14.52 13 22 C17.62 22 22.24 22 27 22 C27 25.63 27 29.26 27 33 C22.38 33 17.76 33 13 33 C13.33 49.17 13.66 65.34 14 82 C18.29 82.66 22.58 83.32 27 84 C27 87.63 27 91.26 27 95 C24.3118751 95.08164159 21.626277 95.14079668 18.9375 95.1875 C18.18533203 95.21263672 17.43316406 95.23777344 16.65820312 95.26367188 C11.33885834 95.33275427 7.61448182 94.74794985 3 92 C-0.99507464 86.39003128 -0.38345776 80.41444533 -0.29296875 73.8203125 C-0.28872391 72.6524118 -0.28447906 71.48451111 -0.28010559 70.28121948 C-0.263354 66.56224214 -0.22570698 62.84381273 -0.1875 59.125 C-0.17244867 56.59896618 -0.15876105 54.07292383 -0.14648438 51.546875 C-0.11346179 45.3643732 -0.06170255 39.18227941 0 33 C-3.96 33 -7.92 33 -12 33 C-12 29.37 -12 25.74 -12 22 C-8.04 22 -4.08 22 0 22 C0 14.74 0 7.48 0 0 Z " fill="#075FAA" transform="translate(312,5)"/>
<path d="M0 0 C4.29 0 8.58 0 13 0 C13 7.26 13 14.52 13 22 C17.62 22 22.24 22 27 22 C27 25.63 27 29.26 27 33 C22.38 33 17.76 33 13 33 C13.33 48.84 13.66 64.68 14 81 C18.66469203 83.33234601 21.85310977 83.54586263 27 84 C27 87.63 27 91.26 27 95 C24.3118751 95.08164159 21.626277 95.14079668 18.9375 95.1875 C18.18533203 95.21263672 17.43316406 95.23777344 16.65820312 95.26367188 C11.34139834 95.33272129 7.57854609 94.81800652 3 92 C-0.61928046 85.81403332 -0.39178487 79.96981917 -0.29296875 72.94140625 C-0.28872391 71.79711655 -0.28447906 70.65282684 -0.28010559 69.47386169 C-0.26337804 65.83649689 -0.22573565 62.19969598 -0.1875 58.5625 C-0.17244556 56.08920074 -0.15875848 53.61589275 -0.14648438 51.14257812 C-0.11349373 45.09483642 -0.06175133 39.04751366 0 33 C-3.96 33 -7.92 33 -12 33 C-12 29.37 -12 25.74 -12 22 C-8.04 22 -4.08 22 0 22 C0 14.74 0 7.48 0 0 Z " fill="#075FAA" transform="translate(554,5)"/>
<path d="M0 0 C0 4.62 0 9.24 0 14 C-1.815 14.226875 -3.63 14.45375 -5.5 14.6875 C-12.95460547 15.9533764 -17.7628146 18.056335 -22.375 24.125 C-27.29053455 34.27402262 -26.41673184 46.68291413 -26.625 57.6875 C-26.66326765 59.37176304 -26.70232416 61.05600835 -26.7421875 62.74023438 C-26.83721445 66.82667552 -26.92158561 70.91320771 -27 75 C-30.96 75 -34.92 75 -39 75 C-39 50.91 -39 26.82 -39 2 C-35.04 2 -31.08 2 -27 2 C-26.67 5.63 -26.34 9.26 -26 13 C-25.01 11.7625 -24.02 10.525 -23 9.25 C-16.51221829 1.82976384 -9.65440988 0 0 0 Z " fill="#075FAA" transform="translate(390,25)"/>
</svg>
