<svg width="377" height="45" viewBox="0 0 377 45" fill="none" xmlns="http://www.w3.org/2000/svg">
<rect width="377" height="45" fill="#075FAA"/>
<g clip-path="url(#clip0_298_463)">
<path d="M321.077 14.5643C324.441 17.2865 326.394 20.6146 327.137 24.8349C327.137 26.5842 327.137 28.3335 327.137 30.1359C320.057 30.1359 312.976 30.1359 305.681 30.1359C306.683 34.0886 306.683 34.0886 309.395 36.2524C311.638 36.9913 313.926 36.9497 316.151 36.1759C317.293 35.506 317.293 35.506 317.876 34.3792C319.016 33.2707 319.238 33.2499 320.761 33.1989C321.477 33.2124 322.193 33.2367 322.908 33.2706C323.458 33.2844 323.458 33.2844 324.018 33.2985C324.921 33.3224 325.822 33.3559 326.725 33.398C325.567 37.1044 324.191 39.9801 320.639 41.9484C315.775 44.1512 310.716 44.2188 305.686 42.4979C302.101 40.9494 299.838 38.5456 298.254 35.0291C296.462 29.9492 296.484 24.9857 298.772 20.0484C300.848 16.3642 303.687 13.9407 307.744 12.6019C312.281 11.4994 317.216 11.8523 321.077 14.5643ZM307.332 20.3495C306.45 21.5885 305.681 22.8858 305.681 24.4271C309.902 24.4271 314.123 24.4271 318.472 24.4271C317.528 20.9683 317.528 20.9683 315.171 19.1262C312.361 18.2004 309.663 18.5045 307.332 20.3495Z" fill="white"/>
<path d="M354.653 14.4624C358.315 17.05 360 20.7992 360.842 25.0389C360.995 26.7317 360.971 28.4364 360.971 30.136C353.891 30.136 346.81 30.136 339.516 30.136C340.106 33.5222 340.106 33.5222 341.991 35.8447C343.851 36.9799 346.066 36.9207 348.18 36.6602C349.754 36.1523 351.145 35.6432 351.955 34.1627C352.884 33.2327 353.178 33.277 354.465 33.2388C355.147 33.2496 355.828 33.2691 356.51 33.2962C356.859 33.3035 357.207 33.3109 357.566 33.3185C358.426 33.3377 359.286 33.3669 360.146 33.3981C359.625 36.5125 358.106 39.0771 355.591 41.031C351.393 43.7419 346.569 44.2133 341.682 43.3119C337.88 42.3092 335.192 40.2108 332.914 37.068C330.526 32.8058 330.104 27.774 331.162 23.0335C332.553 19.1245 334.905 16.2677 338.278 13.8253C343.779 11.4608 349.454 11.3987 354.653 14.4624ZM340.624 20.8848C339.742 22.118 339.742 22.118 339.516 24.4272C343.6 24.4272 347.685 24.4272 351.894 24.4272C351.565 22.0692 351.565 22.0692 350.295 20.426C350.083 20.1879 349.872 19.9498 349.653 19.7045C348.302 18.4987 346.714 18.6061 344.995 18.6309C343.1 18.8073 341.943 19.5813 340.624 20.8848Z" fill="white"/>
<path d="M269.115 15.214C271.434 17.4667 271.465 18.5785 271.847 21.9804C269.124 21.9804 266.401 21.9804 263.595 21.9804C263.187 21.0384 262.778 20.0965 262.357 19.126C260.131 18.0482 257.726 18.1844 255.343 18.7182C254.399 19.4681 254.399 19.4681 254.466 20.6042C254.483 20.9238 254.5 21.2433 254.518 21.5726C257.362 23.4265 260.344 23.9767 263.639 24.681C267.204 25.4937 270.176 26.5981 272.26 29.728C273.124 32.2903 273.166 35.5629 272.054 38.0617C270.392 40.8023 267.478 42.3858 264.42 43.1843C259.732 44.0981 254.075 44.1627 249.794 41.8144C247.769 40.3793 245.91 38.5989 245.028 36.2522C244.892 35.1757 244.755 34.0992 244.615 32.9901C247.338 32.9901 250.062 32.9901 252.867 32.9901C253.412 34.0666 253.957 35.1431 254.518 36.2522C256.938 37.6129 259.244 37.7848 261.945 37.0678C262.899 36.571 262.899 36.571 263.595 35.8445C263.733 34.366 263.733 34.366 263.595 32.9901C260.531 31.5109 257.445 30.6664 254.14 29.8817C250.743 29.0245 247.842 27.8232 245.853 24.8348C244.915 22.0539 245.336 19.4558 246.514 16.8021C247.736 14.8155 249.537 13.7794 251.655 12.8821C257.364 11.5616 264.403 11.2634 269.115 15.214Z" fill="white"/>
<path d="M58.0361 15.4515C61.1327 18.2609 62.5424 21.7363 62.7843 25.8288C62.9698 31.0075 62.4136 35.4597 58.9096 39.5528C55.5754 42.8144 51.5308 43.5349 46.9746 43.5922C42.8637 43.3491 39.5698 41.754 36.7109 38.8264C33.485 34.909 33.0241 29.8064 33.4567 24.956C34.0358 20.9098 35.7859 17.3928 39.0479 14.8175C44.9133 11.059 52.4802 11.2476 58.0361 15.4515ZM41.4817 20.0182C38.9344 23.2695 38.7393 26.9548 39.135 30.9514C39.8339 34.299 41.7098 36.3471 44.4989 38.2912C46.9471 39.0977 49.7137 39.1102 52.0806 38.0364C54.9219 36.3999 56.2679 33.8473 57.1609 30.7985C57.6075 27.0906 57.1079 23.9558 55.3299 20.6298C53.7554 18.7712 51.8773 17.2589 49.368 16.9902C46.0607 16.8927 43.7829 17.6154 41.4817 20.0182Z" fill="white"/>
<path d="M280.1 4.03906C282.823 4.03906 285.546 4.03906 288.352 4.03906C288.352 6.99945 288.352 9.95984 288.352 13.0099C290.394 13.0099 292.437 13.0099 294.541 13.0099C294.541 14.8938 294.541 16.7777 294.541 18.7187C292.499 18.7187 290.456 18.7187 288.352 18.7187C288.39 20.8957 288.434 23.0725 288.483 25.2493C288.499 25.9897 288.513 26.7301 288.526 27.4705C288.545 28.5355 288.569 29.6002 288.594 30.665C288.598 30.9955 288.603 31.326 288.608 31.6665C288.628 33.8973 288.628 33.8973 289.59 35.8449C290.777 36.1325 290.777 36.1325 292.117 36.1507C292.917 36.1844 293.717 36.218 294.541 36.2527C294.541 38.4057 294.541 40.5587 294.541 42.7769C291.144 43.6161 286.695 43.7426 283.4 42.3692C281.832 41.3468 280.702 40.4841 280.1 38.6993C280.064 38.0424 280.051 37.3841 280.053 36.7262C280.053 36.3263 280.053 35.9264 280.053 35.5143C280.055 35.0836 280.057 34.6528 280.059 34.209C280.06 33.7673 280.06 33.3255 280.061 32.8704C280.063 31.4577 280.069 30.0451 280.074 28.6325C280.076 27.6755 280.078 26.7184 280.079 25.7614C280.084 23.4138 280.091 21.0663 280.1 18.7187C278.466 18.7187 276.832 18.7187 275.148 18.7187C275.148 16.8348 275.148 14.9509 275.148 13.0099C276.782 13.0099 278.416 13.0099 280.1 13.0099C280.1 10.0495 280.1 7.08916 280.1 4.03906Z" fill="white"/>
<path d="M119.697 14.6661C121.253 16.0486 121.955 17.9791 122.482 19.9415C122.482 20.6144 122.482 21.2872 122.482 21.9804C120.712 21.9804 118.942 21.9804 117.118 21.9804C116.948 21.5346 116.778 21.0889 116.603 20.6296C116.035 19.321 115.515 18.617 114.23 17.9027C111.655 17.0545 108.67 17.2033 106.081 17.9282C105.03 18.6888 105.03 18.6888 104.663 20.1199C104.576 21.6067 104.576 21.6067 105.625 22.428C106.837 23.2257 107.832 23.6261 109.227 24.0192C109.696 24.1543 110.164 24.2894 110.647 24.4286C111.689 24.7071 112.729 24.9747 113.777 25.2282C117.675 26.1785 121.002 27.0795 123.308 30.5435C124.116 32.9412 124.062 35.6824 123.23 38.0617C121.066 41.086 118.675 42.6551 115.03 43.3117C110.484 43.8907 105.131 43.8922 101.31 41.0435C98.7651 38.4698 98.3327 36.4972 98.1383 32.9901C99.9084 32.9901 101.678 32.9901 103.502 32.9901C103.587 33.419 103.672 33.8479 103.76 34.2898C104.289 36.1291 105.222 36.8209 106.803 37.8833C109.478 38.8053 113.314 38.7671 115.984 37.8578C117.229 37.1271 117.229 37.1271 117.789 35.6915C118.036 34.2607 118.036 34.2607 117.608 33.1175C115.157 30.5565 111.132 30.0242 107.782 29.2931C104.581 28.5564 101.398 27.5384 99.3761 24.8347C98.4006 22.2054 98.3169 19.6965 99.3761 17.0872C101.146 14.3609 103.528 13.2413 106.623 12.4743C111.181 11.6945 115.786 12.2134 119.697 14.6661Z" fill="white"/>
<path d="M90.2729 14.5387C92.3598 16.4943 93.108 19.0378 93.2366 21.8383C93.2357 22.2249 93.2347 22.6115 93.2338 23.0099C93.2338 23.4506 93.2337 23.8913 93.2337 24.3453C93.2316 24.8165 93.2294 25.2876 93.2272 25.773C93.2267 26.2589 93.2261 26.7447 93.2255 27.2453C93.2232 28.795 93.218 30.3446 93.2127 31.8943C93.2107 32.9458 93.2088 33.9974 93.2071 35.0489C93.2025 37.6248 93.1954 40.2007 93.1869 42.7766C91.4168 42.7766 89.6467 42.7766 87.823 42.7766C87.817 42.1347 87.811 41.4928 87.8048 40.8315C87.7808 38.4467 87.749 36.0621 87.7147 33.6775C87.701 32.646 87.6894 31.6145 87.6801 30.583C87.6662 29.099 87.6446 27.6153 87.6215 26.1314C87.6189 25.6713 87.6163 25.2112 87.6136 24.7371C87.5702 22.4423 87.5165 20.6826 86.1726 18.7183C84.5796 17.2424 82.8051 17.2906 80.7216 17.3516C78.4618 17.6332 76.9056 18.5144 75.29 20.069C73.6726 22.7125 73.6597 25.3927 73.6234 28.4012C73.6154 28.8135 73.6074 29.2258 73.5992 29.6506C73.5746 30.9591 73.5554 32.2677 73.5364 33.5763C73.5206 34.467 73.5045 35.3576 73.488 36.2483C73.4485 38.4243 73.4138 40.6004 73.3816 42.7766C71.6115 42.7766 69.8414 42.7766 68.0177 42.7766C68.0177 32.9534 68.0177 23.1303 68.0177 13.0096C69.6516 13.0096 71.2856 13.0096 72.969 13.0096C73.1052 14.0861 73.2414 15.1626 73.3816 16.2717C73.596 16.0751 73.8103 15.8785 74.0312 15.676C78.5157 11.6619 85.2267 10.6039 90.2729 14.5387Z" fill="white"/>
<path d="M165.806 13.0098C167.577 13.0098 169.347 13.0098 171.17 13.0098C171.176 13.6516 171.182 14.2935 171.189 14.9548C171.213 17.3396 171.244 19.7242 171.279 22.1089C171.292 23.1403 171.304 24.1718 171.313 25.2034C171.327 26.6873 171.349 28.1711 171.372 29.6549C171.374 30.115 171.377 30.5751 171.38 31.0492C171.423 33.3384 171.467 35.115 172.821 37.068C174.956 38.7546 177.227 38.5435 179.835 38.2913C181.987 37.5953 183.078 36.4364 184.374 34.6214C185.383 32.3681 185.342 30.1638 185.37 27.7435C185.378 27.3216 185.386 26.8997 185.394 26.465C185.419 25.1231 185.438 23.7813 185.457 22.4394C185.473 21.5272 185.489 20.615 185.505 19.7029C185.545 17.4719 185.58 15.2409 185.612 13.0098C187.382 13.0098 189.152 13.0098 190.976 13.0098C190.976 22.8329 190.976 32.656 190.976 42.7768C189.342 42.7768 187.708 42.7768 186.024 42.7768C185.82 41.162 185.82 41.162 185.612 39.5146C185.397 39.7112 185.183 39.9078 184.962 40.1103C184.531 40.4967 184.531 40.4967 184.09 40.8908C183.808 41.1463 183.525 41.4018 183.234 41.665C180.586 43.6842 177.029 43.7902 173.796 43.4919C170.842 42.932 168.754 41.5806 167.044 39.1069C165.981 36.9507 165.754 34.7355 165.76 32.3598C165.76 31.9273 165.76 31.4948 165.76 31.0492C165.762 30.5891 165.764 30.129 165.766 29.6549C165.767 28.9406 165.767 28.9406 165.768 28.2118C165.77 26.6954 165.775 25.1791 165.781 23.6627C165.783 22.6326 165.785 21.6026 165.786 20.5726C165.791 18.0516 165.798 15.5307 165.806 13.0098Z" fill="white"/>
<path d="M218.775 14.1309C221.215 16.1974 222.657 18.1015 223.572 21.1649C223.572 21.7031 223.572 22.2414 223.572 22.796C221.802 22.796 220.032 22.796 218.208 22.796C217.927 22.2241 217.646 21.6522 217.357 21.0629C216.511 19.5879 215.751 18.4921 214.146 17.7339C211.746 17.0893 209.27 17.1949 206.913 17.9282C204.22 19.8926 202.854 21.974 202.329 25.2744C201.997 29.1887 202.052 32.6534 204.402 35.9687C205.797 37.569 207.021 38.1904 209.092 38.4297C212.011 38.5189 213.858 38.1406 216.222 36.4052C217.327 34.9743 217.695 33.4901 218.208 31.7668C219.978 31.7668 221.748 31.7668 223.572 31.7668C223.373 35.308 222.182 38.2601 219.523 40.7122C216.154 43.3427 212.219 43.8669 207.985 43.4901C204.632 42.9184 201.265 41.5317 199.101 38.8438C195.87 34.1925 195.647 28.3196 196.61 22.9059C197.671 19.0531 199.475 16.2342 202.89 14.0544C207.882 11.3602 213.742 11.5515 218.775 14.1309Z" fill="white"/>
<path d="M25.9314 14.6406C28.4344 16.9458 29.7153 19.4137 30.0575 22.7959C28.1513 22.7959 26.245 22.7959 24.281 22.7959C23.847 21.8245 23.847 21.8245 23.4042 20.8335C22.7339 19.5362 22.3048 18.7894 21.1606 17.8517C18.1485 17.094 14.9328 16.9554 12.1847 18.5589C10.0208 20.3253 8.94322 22.9414 8.60178 25.6503C8.30148 29.4766 8.52161 33.1586 11.0259 36.2522C12.3059 37.69 13.6587 38.2173 15.5759 38.4137C18.879 38.4543 18.879 38.4543 21.8053 37.0677C23.3921 35.4996 23.9864 33.8284 24.6936 31.7668C26.4637 31.7668 28.2338 31.7668 30.0575 31.7668C29.8585 35.3079 28.668 38.2601 26.0088 40.7122C22.582 43.3874 18.6995 43.7789 14.4073 43.5187C10.8885 43.036 7.83368 41.5703 5.55877 38.8262C3.29164 35.4145 2.67836 32.3095 2.64471 28.2753C2.64052 27.9188 2.63633 27.5623 2.63202 27.195C2.69313 22.6571 4.08427 18.8795 7.22533 15.5421C12.0509 11.1216 20.5813 10.9678 25.9314 14.6406Z" fill="white"/>
<path d="M365.923 2C368.782 2 371.641 2 374.587 2C374.587 15.4563 374.587 28.9126 374.587 42.7767C371.728 42.7767 368.869 42.7767 365.923 42.7767C365.923 29.3204 365.923 15.8641 365.923 2Z" fill="white"/>
<path d="M130.735 4.03906C132.505 4.03906 134.275 4.03906 136.098 4.03906C136.098 6.99945 136.098 9.95984 136.098 13.0099C138.005 13.0099 139.911 13.0099 141.875 13.0099C141.875 14.4901 141.875 15.9703 141.875 17.4954C139.969 17.4954 138.062 17.4954 136.098 17.4954C136.235 24.089 136.371 30.6826 136.511 37.476C138.281 37.7451 140.051 38.0142 141.875 38.2915C141.875 39.7717 141.875 41.2519 141.875 42.7769C140.766 42.8102 139.658 42.8343 138.548 42.8534C138.238 42.8636 137.928 42.8739 137.608 42.8844C135.413 42.9126 133.876 42.6741 131.972 41.5536C130.324 39.2661 130.576 36.8294 130.614 34.1406C130.615 33.6643 130.617 33.1881 130.619 32.6974C130.626 31.1809 130.641 29.6647 130.657 28.1483C130.663 27.1183 130.669 26.0882 130.674 25.0582C130.688 22.5372 130.709 20.0163 130.735 17.4954C129.101 17.4954 127.467 17.4954 125.783 17.4954C125.783 16.0152 125.783 14.535 125.783 13.0099C127.417 13.0099 129.051 13.0099 130.735 13.0099C130.735 10.0495 130.735 7.08916 130.735 4.03906Z" fill="white"/>
<path d="M230.586 4.03906C232.356 4.03906 234.126 4.03906 235.95 4.03906C235.95 6.99945 235.95 9.95984 235.95 13.0099C237.856 13.0099 239.763 13.0099 241.727 13.0099C241.727 14.4901 241.727 15.9703 241.727 17.4954C239.821 17.4954 237.914 17.4954 235.95 17.4954C236.086 23.9544 236.223 30.4134 236.363 37.0682C238.288 38.0192 239.603 38.1063 241.727 38.2915C241.727 39.7717 241.727 41.2519 241.727 42.7769C240.618 42.8102 239.51 42.8343 238.4 42.8534C238.09 42.8636 237.779 42.8739 237.46 42.8844C235.266 42.9126 233.713 42.7027 231.824 41.5536C230.331 39.0312 230.425 36.6481 230.465 33.7822C230.467 33.3156 230.469 32.849 230.471 32.3682C230.478 30.885 230.493 29.402 230.509 27.9189C230.515 26.9104 230.521 25.9019 230.526 24.8933C230.539 22.4272 230.561 19.9614 230.586 17.4954C228.952 17.4954 227.318 17.4954 225.635 17.4954C225.635 16.0152 225.635 14.535 225.635 13.0099C227.269 13.0099 228.903 13.0099 230.586 13.0099C230.586 10.0495 230.586 7.08916 230.586 4.03906Z" fill="white"/>
<path d="M162.918 12.1943C162.918 14.0782 162.918 15.9621 162.918 17.9031C162.169 17.9956 161.42 18.0881 160.649 18.1834C157.573 18.6996 155.589 19.5571 153.686 22.0317C151.658 26.1702 152.018 31.2301 151.932 35.7174C151.917 36.4042 151.9 37.091 151.884 37.7777C151.845 39.444 151.81 41.1104 151.778 42.7769C150.144 42.7769 148.51 42.7769 146.826 42.7769C146.826 32.9538 146.826 23.1306 146.826 13.0099C148.46 13.0099 150.094 13.0099 151.778 13.0099C151.914 14.4901 152.05 15.9703 152.19 17.4953C152.599 16.9907 153.007 16.4861 153.428 15.9662C156.105 12.9405 158.935 12.1943 162.918 12.1943Z" fill="white"/>
</g>
<defs>
<clipPath id="clip0_298_463">
<rect width="373" height="42" fill="white" transform="translate(2 2)"/>
</clipPath>
</defs>
</svg>
