<svg width="822" height="502" viewBox="0 0 822 502" fill="none" xmlns="http://www.w3.org/2000/svg">
<path d="M821 481.08C737.116 473.278 560.741 420.024 526.32 269.426C491.899 118.829 161.765 64.2471 1 55.7809" stroke="url(#paint0_linear_26_65)" stroke-opacity="0.99"/>
<path d="M821 486.06C737.116 478.258 560.741 425.004 526.32 274.406C491.899 123.809 161.765 69.2271 1 60.761" stroke="url(#paint1_linear_26_65)" stroke-opacity="0.99"/>
<path d="M821 491.04C737.116 483.238 560.741 429.984 526.32 279.386C491.899 128.789 161.765 74.2072 1 65.741" stroke="url(#paint2_linear_26_65)" stroke-opacity="0.99"/>
<path d="M821 496.02C737.116 488.218 560.741 434.964 526.32 284.367C491.899 133.769 161.765 79.1873 1 70.7211" stroke="url(#paint3_linear_26_65)" stroke-opacity="0.99"/>
<path d="M821 501C737.116 493.198 560.741 439.944 526.32 289.347C491.899 138.749 161.765 84.1674 1 75.7012" stroke="url(#paint4_linear_26_65)" stroke-opacity="0.99"/>
<path d="M821 476.1C737.116 468.297 560.741 415.044 526.32 264.446C491.899 113.849 161.765 59.2669 1 50.8008" stroke="url(#paint5_linear_26_65)" stroke-opacity="0.99"/>
<path d="M821 471.12C737.116 463.317 560.741 410.064 526.32 259.466C491.899 108.869 161.765 54.2869 1 45.8208" stroke="url(#paint6_linear_26_65)" stroke-opacity="0.99"/>
<path d="M821 466.139C737.116 458.337 560.741 405.084 526.32 254.486C491.899 103.888 161.765 49.3068 1 40.8406" stroke="url(#paint7_linear_26_65)" stroke-opacity="0.99"/>
<path d="M821 461.159C737.116 453.357 560.741 400.104 526.32 249.506C491.899 98.9083 161.765 44.3267 1 35.8605" stroke="url(#paint8_linear_26_65)" stroke-opacity="0.99"/>
<path d="M821 456.179C737.116 448.377 560.741 395.124 526.32 244.526C491.899 93.9283 161.765 39.3466 1 30.8805" stroke="url(#paint9_linear_26_65)" stroke-opacity="0.99"/>
<path d="M821 451.199C737.116 443.397 560.741 390.143 526.32 239.546C491.899 88.9482 161.765 34.3666 1 25.9004" stroke="url(#paint10_linear_26_65)" stroke-opacity="0.99"/>
<path d="M821 446.219C737.116 438.417 560.741 385.163 526.32 234.566C491.899 83.9681 161.765 29.3865 1 20.9203" stroke="url(#paint11_linear_26_65)" stroke-opacity="0.99"/>
<path d="M821 441.239C737.116 433.437 560.741 380.183 526.32 229.586C491.899 78.9881 161.765 24.4064 1 15.9403" stroke="url(#paint12_linear_26_65)" stroke-opacity="0.99"/>
<path d="M821 436.259C737.116 428.457 560.741 375.203 526.32 224.606C491.899 74.008 161.765 19.4263 1 10.9601" stroke="url(#paint13_linear_26_65)" stroke-opacity="0.99"/>
<path d="M821 431.279C737.116 423.477 560.741 370.223 526.32 219.625C491.899 69.0279 161.765 14.4462 1 5.98004" stroke="url(#paint14_linear_26_65)" stroke-opacity="0.99"/>
<path d="M821 426.299C737.116 418.497 560.741 365.243 526.32 214.645C491.899 64.0478 161.765 9.46614 1 1" stroke="url(#paint15_linear_26_65)" stroke-opacity="0.99"/>
<defs>
<linearGradient id="paint0_linear_26_65" x1="411" y1="55.7809" x2="411" y2="481.08" gradientUnits="userSpaceOnUse">
<stop stop-color="#EFF6D4"/>
<stop offset="1" stop-color="#738820"/>
</linearGradient>
<linearGradient id="paint1_linear_26_65" x1="411" y1="60.761" x2="411" y2="486.06" gradientUnits="userSpaceOnUse">
<stop stop-color="#EFF6D4"/>
<stop offset="1" stop-color="#738820"/>
</linearGradient>
<linearGradient id="paint2_linear_26_65" x1="411" y1="65.741" x2="411" y2="491.04" gradientUnits="userSpaceOnUse">
<stop stop-color="#EFF6D4"/>
<stop offset="1" stop-color="#738820"/>
</linearGradient>
<linearGradient id="paint3_linear_26_65" x1="411" y1="70.7211" x2="411" y2="496.02" gradientUnits="userSpaceOnUse">
<stop stop-color="#EFF6D4"/>
<stop offset="1" stop-color="#738820"/>
</linearGradient>
<linearGradient id="paint4_linear_26_65" x1="411" y1="75.7012" x2="411" y2="501" gradientUnits="userSpaceOnUse">
<stop stop-color="#EFF6D4"/>
<stop offset="1" stop-color="#738820"/>
</linearGradient>
<linearGradient id="paint5_linear_26_65" x1="411" y1="50.8008" x2="411" y2="476.1" gradientUnits="userSpaceOnUse">
<stop stop-color="#EFF6D4"/>
<stop offset="1" stop-color="#738820"/>
</linearGradient>
<linearGradient id="paint6_linear_26_65" x1="411" y1="45.8208" x2="411" y2="471.12" gradientUnits="userSpaceOnUse">
<stop stop-color="#EFF6D4"/>
<stop offset="1" stop-color="#738820"/>
</linearGradient>
<linearGradient id="paint7_linear_26_65" x1="411" y1="40.8406" x2="411" y2="466.139" gradientUnits="userSpaceOnUse">
<stop stop-color="#EFF6D4"/>
<stop offset="1" stop-color="#738820"/>
</linearGradient>
<linearGradient id="paint8_linear_26_65" x1="411" y1="35.8605" x2="411" y2="461.159" gradientUnits="userSpaceOnUse">
<stop stop-color="#EFF6D4"/>
<stop offset="1" stop-color="#738820"/>
</linearGradient>
<linearGradient id="paint9_linear_26_65" x1="411" y1="30.8805" x2="411" y2="456.179" gradientUnits="userSpaceOnUse">
<stop stop-color="#EFF6D4"/>
<stop offset="1" stop-color="#738820"/>
</linearGradient>
<linearGradient id="paint10_linear_26_65" x1="411" y1="25.9004" x2="411" y2="451.199" gradientUnits="userSpaceOnUse">
<stop stop-color="#EFF6D4"/>
<stop offset="1" stop-color="#738820"/>
</linearGradient>
<linearGradient id="paint11_linear_26_65" x1="411" y1="20.9203" x2="411" y2="446.219" gradientUnits="userSpaceOnUse">
<stop stop-color="#EFF6D4"/>
<stop offset="1" stop-color="#738820"/>
</linearGradient>
<linearGradient id="paint12_linear_26_65" x1="411" y1="15.9403" x2="411" y2="441.239" gradientUnits="userSpaceOnUse">
<stop stop-color="#EFF6D4"/>
<stop offset="1" stop-color="#738820"/>
</linearGradient>
<linearGradient id="paint13_linear_26_65" x1="411" y1="10.9601" x2="411" y2="436.259" gradientUnits="userSpaceOnUse">
<stop stop-color="#EFF6D4"/>
<stop offset="1" stop-color="#738820"/>
</linearGradient>
<linearGradient id="paint14_linear_26_65" x1="411" y1="5.98004" x2="411" y2="431.279" gradientUnits="userSpaceOnUse">
<stop stop-color="#EFF6D4"/>
<stop offset="1" stop-color="#738820"/>
</linearGradient>
<linearGradient id="paint15_linear_26_65" x1="411" y1="1" x2="411" y2="426.299" gradientUnits="userSpaceOnUse">
<stop stop-color="#EFF6D4"/>
<stop offset="1" stop-color="#738820"/>
</linearGradient>
</defs>
</svg>
