<svg width="108" height="108" viewBox="0 0 108 108" fill="none" xmlns="http://www.w3.org/2000/svg">
<path d="M53.979 92.5735C55.7049 92.5735 57.1244 93.8853 57.2953 95.5661L57.3124 95.9069V104.007C57.3124 105.848 55.8201 107.34 53.979 107.34C52.2532 107.34 50.8337 106.029 50.663 104.348L50.6457 104.007V95.9069C50.6457 94.0661 52.1382 92.5735 53.979 92.5735ZM85.719 80.9274L85.9897 81.1703L91.7175 86.8981C93.0191 88.1997 93.0191 90.3103 91.7175 91.6122C90.5023 92.8271 88.5828 92.9079 87.274 91.8551L87.0033 91.6122L81.2756 85.8845C79.974 84.5826 79.974 82.4722 81.2756 81.1703C82.4905 79.9554 84.4102 79.8743 85.719 80.9274ZM26.6798 81.1703C27.8948 82.3853 27.9758 84.305 26.9228 85.6138L26.6798 85.8845L20.9521 91.6122C19.6505 92.9138 17.5398 92.9138 16.2382 91.6122C15.0232 90.397 14.9422 88.4775 15.9952 87.1687L16.2382 86.8981L21.9657 81.1703C23.2676 79.8687 25.378 79.8687 26.6798 81.1703ZM53.9996 24.8813C70.0815 24.8813 83.1182 37.9181 83.1182 53.9999C83.1182 70.0815 70.0815 83.1183 53.9996 83.1183C37.918 83.1183 24.8812 70.0815 24.8812 53.9999C24.8812 37.9181 37.918 24.8813 53.9996 24.8813ZM53.9996 31.5479C41.5999 31.5479 31.5478 41.6002 31.5478 53.9999C31.5478 66.3997 41.5999 76.4517 53.9996 76.4517C66.3996 76.4517 76.4516 66.3997 76.4516 53.9999C76.4516 41.6002 66.3996 31.5479 53.9996 31.5479ZM103.949 50.7653C105.79 50.7653 107.282 52.2578 107.282 54.0986C107.282 55.8245 105.971 57.2442 104.289 57.4149L103.949 57.4319H95.8486C94.0076 57.4319 92.5153 55.9397 92.5153 54.0986C92.5153 52.3727 93.827 50.9533 95.5078 50.7826L95.8486 50.7653H103.949ZM12.1507 50.6098C13.9916 50.6098 15.484 52.1023 15.484 53.9431C15.484 55.669 14.1724 57.0885 12.4915 57.2594L12.1507 57.2765H4.05062C2.20969 57.2765 0.717285 55.7842 0.717285 53.9431C0.717285 52.2173 2.02897 50.7978 3.70982 50.6271L4.05062 50.6098H12.1507ZM20.6814 16.1447L20.9521 16.3877L26.6798 22.1154C27.9817 23.417 27.9817 25.5277 26.6798 26.8293C25.4649 28.0445 23.5454 28.1253 22.2364 27.0725L21.9657 26.8293L16.2382 21.1018C14.9364 19.7999 14.9364 17.6895 16.2382 16.3877C17.4532 15.1728 19.3726 15.0917 20.6814 16.1447ZM91.7175 16.3877C92.9324 17.6026 93.0132 19.5223 91.9604 20.8311L91.7175 21.1018L85.9897 26.8293C84.6879 28.1311 82.5775 28.1311 81.2756 26.8293C80.0607 25.6143 79.9798 23.6949 81.0326 22.3861L81.2756 22.1154L87.0033 16.3877C88.3049 15.086 90.4156 15.086 91.7175 16.3877ZM54.0009 0.659424C55.7268 0.659424 57.1465 1.9711 57.3172 3.65196L57.3343 3.99276V12.0928C57.3343 13.9338 55.842 15.4262 54.0009 15.4262C52.2751 15.4262 50.8556 14.1145 50.6849 12.4336L50.6676 12.0928V3.99276C50.6676 2.15182 52.1601 0.659424 54.0009 0.659424Z" fill="black"/>
</svg>
