<?xml version="1.0" encoding="UTF-8"?>
<svg version="1.1" xmlns="http://www.w3.org/2000/svg" width="512" height="512">
<path d="M0 0 C0.9858239 -0.00644889 1.9716478 -0.01289778 2.98734516 -0.0195421 C4.07312558 -0.01644489 5.15890599 -0.01334769 6.27758884 -0.01015663 C7.42889162 -0.01468774 8.5801944 -0.01921886 9.76638514 -0.02388728 C12.96717143 -0.0343801 16.16781694 -0.03585327 19.36861503 -0.03349853 C22.81858526 -0.03309113 26.26852172 -0.04412206 29.7184763 -0.05361366 C36.47924196 -0.07024084 43.23997275 -0.07572397 50.00075715 -0.07683842 C55.49455477 -0.077788 60.98834085 -0.08189378 66.48213482 -0.08823967 C82.04933658 -0.10585611 97.61651074 -0.11507781 113.18372255 -0.11357872 C114.0233082 -0.11349881 114.86289385 -0.1134189 115.72792149 -0.11333656 C116.56852911 -0.1132548 117.40913672 -0.11317304 118.2752173 -0.1130888 C131.90380955 -0.1122756 145.53229136 -0.13142085 159.16085165 -0.1596133 C173.14600731 -0.18831576 187.13110905 -0.20215508 201.11629492 -0.20042574 C208.97139623 -0.19976097 216.82638174 -0.20529155 224.68145657 -0.22678185 C231.36847131 -0.24495894 238.05531776 -0.24936968 244.74234646 -0.235763 C248.15555481 -0.22921585 251.56843997 -0.22917832 254.98161793 -0.2464695 C258.67846799 -0.26180307 262.37445971 -0.2526918 266.07129002 -0.23720741 C267.15483971 -0.24749454 268.23838941 -0.25778167 269.35477394 -0.26838052 C276.58231988 -0.20112649 276.58231988 -0.20112649 279.90199757 2.11995125 C281.63987619 4.90032778 281.77662926 6.78677844 281.83485508 10.06049156 C281.87797573 11.81349068 281.87797573 11.81349068 281.92196751 13.60190392 C281.92955585 14.86231499 281.9371442 16.12272606 281.9449625 17.42133141 C281.96064777 18.72371758 281.97633305 20.02610374 281.99249363 21.36795616 C282.02094031 24.12691407 282.03236227 26.88537908 282.03407383 29.64447594 C282.03923398 33.15600824 282.10401615 36.66361102 282.18436241 40.17411804 C282.24934905 43.54819475 282.24908379 46.92164522 282.2574625 50.29633141 C282.29136585 51.54459709 282.3252692 52.79286278 282.36019993 54.0789547 C282.29503639 60.40606849 281.80319548 64.35697818 277.33163548 69.00978661 C276.51450046 69.86865597 275.69736544 70.72752533 274.85546875 71.61242104 C273.99168138 72.48522083 273.127894 73.35802063 272.23793125 74.25726891 C271.4161366 75.09299809 270.59434195 75.92872726 269.74764442 76.78978157 C267.06931374 79.47940344 264.36508724 82.14053837 261.6534586 84.79657555 C260.62558087 85.8077502 259.59802285 86.81924994 258.57075596 87.83104515 C256.38004774 89.98840774 254.18809316 92.14449325 251.9954195 94.29985809 C248.52688047 97.71139037 245.06739152 101.13200239 241.61015415 104.55498314 C241.02402076 105.13527545 240.43788737 105.71556775 239.83399236 106.31344467 C237.42361831 108.70007187 235.0134945 111.08695171 232.60336471 113.47382557 C225.78282532 120.22757595 218.95405771 126.97255762 212.10170078 133.69403648 C206.63486855 139.05657892 201.1859136 144.43657389 195.75723708 149.83774847 C192.89016596 152.68894849 190.01483191 155.53051395 187.11748981 158.35097504 C184.39851773 160.99814632 181.70384768 163.6678044 179.02593327 166.35648346 C178.04090918 167.33716525 177.04730163 168.30931315 176.04464436 169.2719593 C170.55841105 174.22433039 170.55841105 174.22433039 167.86259937 180.80427933 C168.08832328 183.11054322 168.49692108 185.06694343 169.23793125 187.25726891 C169.6884586 188.63592125 169.6884586 188.63592125 170.1480875 190.04242516 C175.08421715 199.79755596 181.85105964 206.49876557 192.23793125 210.25726891 C200.10903618 212.54583331 207.80457499 212.52509521 215.92636967 212.50109863 C218.39019115 212.49545187 220.85355127 212.50474804 223.31733799 212.51830101 C230.31546951 212.55522538 237.31343519 212.57393096 244.31166172 212.56268883 C248.60815331 212.55683591 252.90398439 212.5750937 257.20034122 212.60857773 C258.83176674 212.61651934 260.46326447 212.61527148 262.09467411 212.60455322 C264.37330246 212.59021256 266.6498475 212.60650236 268.92836094 212.62958336 C270.869538 212.6305275 270.869538 212.6305275 272.84993076 212.63149071 C277.17973104 213.43122336 278.64324962 214.74040083 281.23793125 218.25726891 C281.88630772 221.04457664 281.88630772 221.04457664 281.91664219 224.11395836 C281.93885838 225.26898354 281.96107456 226.42400871 281.98396397 227.61403465 C281.98011692 228.85368477 281.97626987 230.09333488 281.97230625 231.37055016 C281.98659672 233.29582794 281.98659672 233.29582794 282.00117588 235.26000023 C282.01754335 237.97444977 282.01488346 240.6880835 281.99965 243.40253258 C281.98240197 246.86329957 282.01943698 250.32102122 282.07191181 253.78134441 C282.11317257 257.10288683 282.10235131 260.42375573 282.09730625 263.74555016 C282.11774998 264.97912758 282.1381937 266.212705 282.15925694 267.48366356 C282.03029289 277.10434 282.03029289 277.10434 278.46351719 281.3185482 C277.07734238 282.65503497 275.66545292 283.96503852 274.23793125 285.25726891 C272.83976755 286.67251238 271.44208627 288.08826013 270.05191517 289.5113554 C267.89593117 291.70858769 265.71062554 293.87565957 263.52600193 296.04436302 C261.7316079 297.82582139 259.94050716 299.61053528 258.1501627 301.39606285 C253.70585756 305.82710321 249.25608663 310.25264131 244.80647373 314.67835045 C241.03516423 318.42982542 237.26598148 322.18341359 233.49951267 325.93974876 C231.74743329 327.68541601 229.99233648 329.42800842 228.23707676 331.17047691 C223.20618018 336.17853813 218.23708889 341.19453491 213.65126133 346.62128258 C211.1729989 349.48997088 208.44769443 352.10961128 205.73793125 354.75726891 C202.28660599 358.16569634 198.87649523 361.55376341 195.73793125 365.25726891 C192.07336595 369.58145596 188.0227226 373.49809181 183.99574375 377.47992516 C181.13219008 380.32368467 178.34915935 383.17601975 175.73793125 386.25726891 C172.07336595 390.58145596 168.0227226 394.49809181 163.99574375 398.47992516 C161.13219008 401.32368467 158.34915935 404.17601975 155.73793125 407.25726891 C152.07336595 411.58145596 148.0227226 415.49809181 143.99574375 419.47992516 C141.13219008 422.32368467 138.34915935 425.17601975 135.73793125 428.25726891 C132.07336595 432.58145596 128.0227226 436.49809181 123.99574375 440.47992516 C121.13219008 443.32368467 118.34915935 446.17601975 115.73793125 449.25726891 C112.07336595 453.58145596 108.0227226 457.49809181 103.99574375 461.47992516 C101.13219008 464.32368467 98.34915935 467.17601975 95.73793125 470.25726891 C92.07336595 474.58145596 88.0227226 478.49809181 83.99574375 482.47992516 C81.13219008 485.32368467 78.34915935 488.17601975 75.73793125 491.25726891 C71.09139262 496.73480059 65.88319547 501.69574034 60.7743082 506.73676109 C59.14478861 508.25128239 59.14478861 508.25128239 57.8394022 510.32055473 C53.62481912 513.45818069 49.19402664 512.80735965 44.07801914 512.76520348 C42.92586194 512.77144344 41.77370474 512.7776834 40.58663368 512.78411245 C37.38794291 512.79732116 34.18985767 512.79254831 30.99118185 512.78016758 C27.54189427 512.77112978 24.09268952 512.78508045 20.64341831 512.79608727 C13.88608041 512.81389077 7.12892003 512.81002443 0.37157512 512.7984367 C-5.11934795 512.78940982 -10.6102212 512.78817514 -16.10114956 512.79253197 C-16.88210458 512.7931449 -17.6630596 512.79375783 -18.46767992 512.79438934 C-20.05408487 512.79566822 -21.64048981 512.79696507 -23.22689474 512.7982797 C-38.10899491 512.80969086 -52.99099659 512.79656342 -67.87308061 512.77507824 C-80.64764943 512.75720675 -93.42207287 512.76031071 -106.19663906 512.77875328 C-121.02481799 512.80015056 -135.85291055 512.80859217 -150.68110275 512.79630423 C-152.26173113 512.79503 -153.84235953 512.79377252 -155.42298794 512.79253197 C-156.20072423 512.79191487 -156.97846053 512.79129776 -157.77976459 512.79066196 C-163.26525056 512.78720562 -168.75068183 512.79304349 -174.23615932 512.80245018 C-180.91950845 512.81365889 -187.60266961 512.81065406 -194.28599715 512.7893272 C-197.69717458 512.77880137 -201.10803844 512.77472059 -204.51921368 512.78792381 C-208.21384429 512.79879779 -211.90758337 512.7852129 -215.60215664 512.76520348 C-216.68502421 512.77412636 -217.76789179 512.78304925 -218.88357353 512.79224253 C-226.10641728 512.71597176 -226.10641728 512.71597176 -229.42571449 510.39374542 C-231.16450224 507.61388433 -231.30076669 505.72776338 -231.35899258 502.45404625 C-231.38773968 501.28538017 -231.41648678 500.1167141 -231.446105 498.9126339 C-231.45369335 497.65222282 -231.4612817 496.39181175 -231.4691 495.09320641 C-231.49262791 493.13962715 -231.49262791 493.13962715 -231.51663113 491.14658165 C-231.54507781 488.38762374 -231.55649977 485.62915873 -231.55821133 482.87006187 C-231.56337148 479.35852957 -231.62815364 475.85092679 -231.70849991 472.34041977 C-231.77348655 468.96634306 -231.77322128 465.59289259 -231.7816 462.21820641 C-231.81550335 460.96994072 -231.8494067 459.72167503 -231.88433743 458.43558311 C-231.81895381 452.08710053 -231.31515607 448.14420754 -226.83183193 443.47386742 C-225.60640792 442.18588816 -225.60640792 442.18588816 -224.35622787 440.87188911 C-223.50015536 440.00906445 -222.64408285 439.14623978 -221.76206875 438.25726891 C-220.56242253 437.04661451 -220.56242253 437.04661451 -219.33854103 435.81150246 C-216.76640225 433.25652352 -214.16760191 430.7315401 -211.56065273 428.21210289 C-210.06091153 426.75522159 -208.56234055 425.29714261 -207.06376183 423.83906567 C-206.01101924 422.81495912 -204.95791245 421.79122684 -203.90445697 420.76785362 C-197.13132649 414.18648422 -190.40241038 407.56005123 -183.67079532 400.93627059 C-177.13434022 394.50510909 -170.58489792 388.08867039 -163.99229336 381.71503258 C-158.72921431 376.62659413 -153.49728358 371.50834286 -148.29933125 366.35336548 C-145.55639404 363.63530358 -142.80072358 360.93409073 -140.00657368 358.26861954 C-126.52952834 346.61395509 -126.52952834 346.61395509 -120.23119354 330.89970303 C-120.3607459 327.55333863 -120.91750007 324.49419006 -121.76206875 321.25726891 C-122.02648266 320.16728096 -122.29089657 319.07729301 -122.56332302 317.95427513 C-125.45507316 307.70913634 -132.09773474 301.15434726 -140.91831875 295.66742516 C-146.56100748 292.86933363 -151.82961605 292.00670299 -158.08677578 291.97015953 C-158.78202358 291.96332649 -159.47727139 291.95649345 -160.1935873 291.94945335 C-161.69017891 291.93595315 -163.18681548 291.92684383 -164.68345928 291.92174339 C-167.05470178 291.91339633 -169.42556975 291.89284118 -171.7967062 291.86920738 C-177.68115703 291.81303413 -183.56569872 291.77759446 -189.45030117 291.74158287 C-194.43469456 291.71029658 -199.41890344 291.6710861 -204.4031477 291.62132835 C-206.73465644 291.60132118 -209.06602082 291.59295506 -211.39759731 291.58502769 C-212.83045379 291.57205263 -214.26330546 291.55853193 -215.69615078 291.54437828 C-216.94300655 291.53708702 -218.18986233 291.52979576 -219.47450161 291.52228355 C-223.50476854 291.197399 -226.25809369 290.32844104 -229.54435635 287.98787498 C-231.29297492 285.50274801 -231.18531126 283.58966734 -231.24546719 280.56757164 C-231.27428982 279.39883003 -231.30311245 278.23008842 -231.33280849 277.0259304 C-231.34555813 275.76035805 -231.35830776 274.49478569 -231.37144375 273.19086266 C-231.38854397 271.88706154 -231.40564419 270.58326042 -231.4232626 269.23995018 C-231.45477871 266.47509834 -231.47231106 263.71050747 -231.48277187 260.94550133 C-231.49914682 257.426201 -231.57103298 253.91043139 -231.65668774 250.39223194 C-231.72654752 247.01268782 -231.7319491 243.63359018 -231.74644375 240.25336266 C-231.78348415 239.00195992 -231.82052456 237.75055717 -231.8586874 236.46123314 C-231.81022746 230.05175533 -231.30622431 226.13291116 -226.76938343 221.42713737 C-225.95242646 220.56868217 -225.13546949 219.71022697 -224.29375625 218.82575798 C-223.45829937 217.97815659 -222.6228425 217.13055519 -221.76206875 216.25726891 C-221.02387 215.49497726 -220.28567126 214.73268562 -219.52510285 213.94729424 C-217.22688459 211.59399013 -214.9048432 209.26660066 -212.5756979 206.94391441 C-211.69624457 206.06290109 -210.81679124 205.18188777 -209.9106878 204.27417707 C-207.49866951 201.85888854 -205.08446666 199.44582415 -202.6692555 197.03373098 C-200.05403106 194.42078635 -197.44170709 191.80494448 -194.8289938 189.18948936 C-189.72386454 184.07993217 -184.61605849 178.97305915 -179.50726135 173.86716956 C-175.35663449 169.71880674 -171.20699159 165.56946203 -167.05803967 161.41942406 C-166.46619794 160.8274291 -165.87435621 160.23543414 -165.26457988 159.62549993 C-164.06213065 158.42273097 -162.85968366 157.21995976 -161.65723889 156.01718634 C-150.40577586 144.7628777 -139.1512599 133.51162607 -127.89568357 122.2614314 C-118.23628604 112.60650919 -108.57952467 102.94895683 -98.9246664 93.28949547 C-87.70217102 82.06165208 -76.47805999 70.8354279 -65.25135362 59.61179495 C-64.0553014 58.41606127 -62.85925126 57.22032551 -61.66320324 56.02458763 C-61.07476067 55.43629934 -60.4863181 54.84801104 -59.88004393 54.24189582 C-55.73113876 50.09385452 -51.58339597 45.9446531 -47.43609905 41.79500389 C-42.38821781 36.74432231 -37.33856734 31.69541774 -32.28661878 26.64880437 C-29.70878555 24.07360371 -27.13176669 21.49760168 -24.55689907 18.9194355 C-21.76948011 16.12849955 -18.97821741 13.34142872 -16.18653774 10.55475426 C-15.36875241 9.7347382 -14.55096708 8.91472215 -13.70840037 8.06985712 C-12.96253086 7.32659536 -12.21666135 6.5833336 -11.44818974 5.81754875 C-10.80412634 5.17364771 -10.16006295 4.52974668 -9.49648249 3.86633348 C-6.28011187 0.88241568 -4.2913921 0.007085 0 0 Z M-112.60304463 117.37363636 C-114.26696314 119.20014155 -115.93326629 121.02444801 -117.59988976 122.84848499 C-144.06281414 151.83877326 -169.49204924 181.61538508 -193.76219082 212.46831322 C-194.68734704 213.64290725 -194.68734704 213.64290725 -195.63119328 214.84123045 C-196.18193292 215.54686343 -196.73267256 216.25249642 -197.30010128 216.97951221 C-197.77929532 217.59276055 -198.25848935 218.20600888 -198.75220442 218.8378405 C-199.85868737 220.10273731 -199.85868737 220.10273731 -199.76206875 221.25726891 C-163.53001661 227.43580398 -127.17605429 231.50515985 -90.50013018 233.75240165 C-88.39409578 233.88183703 -86.2883055 234.01484549 -84.18249798 234.14791441 C-12.37567318 238.61178776 46.86038066 231.89341255 102.37091541 182.91318321 C123.80420775 163.80840214 143.75326202 143.35725957 163.07890713 122.14090145 C164.74282565 120.31439626 166.40912879 118.4900898 168.07575226 116.66605282 C194.53867664 87.67576455 219.96791174 57.89915273 244.23805332 27.04622459 C244.85482413 26.26316191 245.47159495 25.48009922 246.10705578 24.67330736 C246.65779542 23.96767438 247.20853506 23.2620414 247.77596378 22.5350256 C248.49475484 21.6151531 248.49475484 21.6151531 249.22806692 20.67669731 C250.33454987 19.4118005 250.33454987 19.4118005 250.23793125 18.25726891 C214.00587911 12.07873383 177.65191679 8.00937796 140.97599268 5.76213616 C138.86995829 5.63270078 136.764168 5.49969232 134.65836048 5.3666234 C51.5895505 0.20264841 -6.64086607 13.68149634 -112.60304463 117.37363636 Z M258.96017456 34.33935165 C258.25453761 35.02696339 257.54890065 35.71457513 256.82188076 36.42302358 C256.03882204 37.19126002 255.25576333 37.95949647 254.44897556 38.7510128 C253.21037756 39.9608121 253.21037756 39.9608121 251.94675738 41.19505179 C249.64390303 43.44594617 247.34343955 45.6992504 245.0441817 47.95381761 C243.57407851 49.3948531 242.10305837 50.83494608 240.63173199 52.27473259 C221.40379343 71.09135424 202.26049856 89.99377559 183.14321136 108.92274094 C180.71529645 111.32631072 178.28714075 113.72963697 175.85878086 116.13275719 C175.25524218 116.7300413 174.6517035 117.32732541 174.02987576 117.94270904 C164.27674325 127.59202787 154.47724879 137.19287811 144.65910333 146.77598862 C134.57149127 156.62411351 124.53434125 166.52160689 114.54191786 176.4663111 C108.38297559 182.59281531 102.18898513 188.67865112 95.9432987 194.71671982 C91.65423244 198.87064107 87.41562253 203.07206284 83.21212023 207.31253092 C80.79053974 209.7526132 78.35375604 212.1676158 75.85430622 214.52809334 C66.42369659 223.51129348 59.42409017 230.46881984 58.99155003 244.01248515 C59.11790298 249.13903699 59.50841342 254.18152748 60.23793125 259.25726891 C65.5531792 254.8002602 70.56758108 250.12391968 75.52063084 245.26978111 C76.32698807 244.48262301 77.13334531 243.69546491 77.96413761 242.88445354 C80.65336687 240.25752949 83.33921347 237.62717799 86.02479649 234.99652672 C86.97790091 234.06411909 87.9310925 233.13180057 88.88436794 232.19956779 C106.89410135 214.58623939 124.82793608 196.8959473 142.73167809 179.17493804 C145.65608693 176.28038158 148.58100429 173.38633946 151.5062418 170.49262047 C152.08844378 169.91667305 152.67064577 169.34072564 153.27049024 168.74732527 C162.69354455 159.42824386 172.16293048 150.15766255 181.65073978 140.90456858 C191.41310385 131.38170689 201.12497021 121.80947614 210.79216439 112.19000697 C216.74424625 106.27033458 222.73119961 100.39135769 228.7701121 94.56026968 C232.91337189 90.55217715 237.0060979 86.49661233 241.06380271 82.40194646 C243.40156785 80.04567959 245.75747717 77.72596704 248.16655827 75.44144249 C257.45205249 66.61233172 264.0302945 59.84626144 264.44081885 46.54554629 C264.31876133 41.40777932 263.94057098 36.34800265 263.23793125 31.25726891 C261.38834778 31.25726891 260.21249695 33.11503514 258.96017456 34.33935165 Z M149.67922783 195.70130444 C149.00212855 196.38322196 148.32502928 197.06513948 147.62741184 197.76772118 C146.46458179 198.93499245 146.46458179 198.93499245 145.27826023 200.12584496 C144.42166309 200.9907505 143.56506596 201.85565605 142.68251133 202.74677086 C141.30463702 204.13181838 139.92676064 205.51686384 138.54880655 206.90183198 C137.06244796 208.39661413 135.5772816 209.89257251 134.09237194 211.38879395 C130.99834886 214.50582632 127.89949409 217.6180237 124.79962254 220.72923851 C115.983352 229.57898449 107.17110638 238.43270865 98.36952305 247.29706383 C93.51254838 252.18859637 88.65020648 257.0747264 83.78185672 261.95493859 C81.20540346 264.53815717 78.63185874 267.12413504 76.06496716 269.71685791 C73.19813968 272.6125301 70.3197535 275.49644234 67.44032383 278.37958336 C66.59384785 279.23841621 65.74737186 280.09724907 64.87524509 280.98210716 C58.56554929 287.27038879 54.20185467 290.62698486 44.9984293 290.64203453 C44.29999912 290.6474073 43.60156895 290.65278008 42.88197422 290.65831566 C41.37445613 290.66805293 39.86688226 290.67105012 38.3593359 290.66795921 C35.96596332 290.66345552 33.57332025 290.67755388 31.18002415 290.69635582 C26.09517155 290.73303976 21.01039662 290.7468238 15.92543125 290.75726891 C10.03927566 290.76938722 4.15347752 290.79113784 -1.7325182 290.83727074 C-4.07725746 290.85074259 -6.42153332 290.84668775 -8.76629543 290.84186363 C-21.70819557 290.88950102 -30.8415267 293.44585578 -40.76206875 302.25726891 C-43.22031198 305.08120121 -44.98039066 307.97812274 -46.76206875 311.25726891 C-47.12682812 311.88827507 -47.49158749 312.51928123 -47.86740017 313.1694088 C-52.26581808 322.16296172 -51.35937644 332.17337713 -51.328475 341.93695641 C-51.3337184 343.95658211 -51.33999749 345.97620536 -51.34725857 347.99582481 C-51.35763276 352.21704235 -51.35314498 356.43792217 -51.33848476 360.65912437 C-51.32131363 366.04110665 -51.3447878 371.42201957 -51.37997437 376.8038826 C-51.40204537 380.97178649 -51.40048327 385.13943841 -51.39220905 389.30738258 C-51.39139461 391.29031229 -51.39815988 393.27326145 -51.41298008 395.25613594 C-51.50144001 409.23354804 -50.7246183 420.96955614 -40.5081625 431.58148766 C-26.82885821 444.70994747 -11.81238511 443.78819554 6.04823208 444.0647707 C9.95990436 444.12638148 13.86679448 444.21451275 17.77601719 444.36835289 C37.35058195 445.94526892 37.35058195 445.94526892 54.40153599 438.37727928 C56.55796055 436.00139259 58.45537625 433.57484673 60.19246006 430.87766075 C61.51816697 428.82292726 63.08660924 427.05556861 64.73793125 425.25726891 C65.24324375 424.65914391 65.74855625 424.06101891 66.26918125 423.44476891 C69.72560098 419.60430254 73.4509572 416.02572269 77.12245274 412.39227867 C80.69491358 408.84269073 84.08397526 405.22569012 87.3355875 401.37836266 C90.56294311 397.77989429 94.04418098 394.4320336 97.48036289 391.03436852 C100.34383581 388.19069204 103.12677809 385.33842964 105.73793125 382.25726891 C109.40249655 377.93308185 113.45313991 374.016446 117.48011875 370.03461266 C120.34367242 367.19085314 123.12670315 364.33851806 125.73793125 361.25726891 C129.40249655 356.93308185 133.45313991 353.016446 137.48011875 349.03461266 C140.34367242 346.19085314 143.12670315 343.33851806 145.73793125 340.25726891 C149.40249655 335.93308185 153.45313991 332.016446 157.48011875 328.03461266 C160.34367242 325.19085314 163.12670315 322.33851806 165.73793125 319.25726891 C169.40249655 314.93308185 173.45313991 311.016446 177.48011875 307.03461266 C180.34367242 304.19085314 183.12670315 301.33851806 185.73793125 298.25726891 C189.36137509 293.98160517 193.35141596 290.08908723 197.35707188 286.17523766 C200.14649327 283.43009279 202.80204915 280.63594989 205.33973789 277.65546227 C209.63437933 272.7248598 214.24623645 268.14168854 218.890275 263.54242516 C219.79040821 262.64607857 220.69054142 261.74973198 221.61795139 260.82622337 C224.46802146 257.98828923 227.32123549 255.15355183 230.17543125 252.31976891 C233.95836186 248.56364076 237.73772413 244.80396575 241.515275 241.04242516 C242.39014057 240.17585793 243.26500614 239.3092907 244.16638279 238.41646385 C244.96463978 237.62151009 245.76289677 236.82655632 246.58534336 236.00751305 C247.29259052 235.3055027 247.99983768 234.60349236 248.72851658 233.88020897 C250.3514366 232.50462056 250.3514366 232.50462056 250.23793125 231.25726891 C249.63008793 231.25140266 249.02224461 231.24553642 248.39598179 231.23949242 C242.0028397 231.17498035 235.61017447 231.09042088 229.21742344 230.99481773 C226.83955818 230.96180078 224.46161892 230.93369859 222.08363438 230.91083336 C200.73848025 230.70007238 181.71338937 230.15654796 165.421525 214.54242516 C159.58342692 208.43278763 155.78077967 201.90731327 152.23793125 194.25726891 C151.00605962 194.14400081 151.00605962 194.14400081 149.67922783 195.70130444 Z M-212.76206875 239.25726891 C-212.76206875 250.47726891 -212.76206875 261.69726891 -212.76206875 273.25726891 C-208.22070156 273.28305016 -203.67933437 273.30883141 -199.00035 273.33539391 C-196.09730135 273.36060525 -193.19435252 273.38697078 -190.29136562 273.41742516 C-185.69883456 273.46549629 -181.10653496 273.50963838 -176.51377773 273.528265 C-172.80465729 273.5435781 -169.09614876 273.57827587 -165.38730335 273.62557793 C-163.98302164 273.64024269 -162.57865249 273.6483012 -161.17429447 273.64915276 C-144.71414742 273.66914329 -130.8490377 278.01995685 -118.63706875 289.29633141 C-110.4300251 297.87953122 -103.68876178 310.23573431 -103.61489773 322.37126732 C-103.60774242 323.18256599 -103.60058712 323.99386467 -103.59321499 324.82974815 C-103.59052608 325.71131584 -103.58783718 326.59288353 -103.5850668 327.50116539 C-103.5784956 328.43671761 -103.5719244 329.37226982 -103.56515408 330.3361721 C-103.54544077 333.43356983 -103.53375932 336.53091897 -103.5237875 339.62836266 C-103.51971197 340.68965952 -103.51563644 341.75095638 -103.51143742 342.84441376 C-103.49057943 348.46795138 -103.47627969 354.09146465 -103.46690273 359.71503258 C-103.45587294 365.49818663 -103.42151175 371.28095226 -103.38173103 377.06396961 C-103.35546142 381.53124726 -103.34720146 385.99843409 -103.34362125 390.46578217 C-103.33877758 392.59582755 -103.32722769 394.72586949 -103.30858326 396.85583878 C-103.17047557 413.68730123 -104.61325401 426.23007416 -114.76206875 440.25726891 C-115.50456875 441.30914391 -116.24706875 442.36101891 -117.01206875 443.44476891 C-127.32231089 453.98933473 -140.40939912 460.25831686 -155.2046957 460.46259117 C-156.48564617 460.48253639 -157.76659664 460.50248161 -159.08636379 460.52303123 C-160.47435799 460.54001169 -161.86235342 460.55689063 -163.25035 460.57367516 C-164.6781055 460.59426315 -166.10585516 460.61526009 -167.5335989 460.63664818 C-171.2801377 460.69167844 -175.02672976 460.74117117 -178.77336025 460.78949547 C-183.27473393 460.84871307 -187.77601088 460.91483562 -192.27730465 460.97979546 C-199.10549996 461.07756515 -205.9337591 461.16658494 -212.76206875 461.25726891 C-212.76206875 472.14726891 -212.76206875 483.03726891 -212.76206875 494.25726891 C-128.61206875 494.25726891 -44.46206875 494.25726891 42.23793125 494.25726891 C42.23793125 483.36726891 42.23793125 472.47726891 42.23793125 461.25726891 C37.69656406 461.23148766 33.15519688 461.20570641 28.4762125 461.17914391 C25.57316386 461.15393256 22.67021502 461.12756704 19.76722813 461.09711266 C15.17469706 461.04904152 10.58239747 461.00489943 5.98964024 460.98627281 C2.28051979 460.97095971 -1.42798873 460.93626194 -5.13683414 460.88895988 C-6.54111586 460.87429512 -7.945485 460.86623661 -9.34984303 460.86538506 C-25.74866805 460.845469 -40.20930361 456.61233335 -52.44956875 445.38226891 C-62.84618077 434.49412652 -68.06856636 420.69316259 -68.05259609 405.74286461 C-68.05931332 404.82623543 -68.06603054 403.90960625 -68.07295132 402.96520042 C-68.09184679 399.9544275 -68.09585152 396.94387858 -68.09800625 393.93305016 C-68.10444101 391.82328261 -68.11116987 389.71351595 -68.11817837 387.60375023 C-68.13013075 383.186559 -68.13386139 378.76944586 -68.13267422 374.35223961 C-68.13247137 368.72162313 -68.15974724 363.09151332 -68.19421864 357.46101665 C-68.21657567 353.10353406 -68.22050903 348.74617159 -68.21945477 344.38863754 C-68.22179849 342.31442269 -68.23055189 340.2402039 -68.2461195 338.16604614 C-68.32325538 326.82552399 -68.17231692 316.87782252 -63.76206875 306.25726891 C-63.4514349 305.49356483 -63.14080105 304.72986076 -62.82075405 303.94301414 C-57.63664683 291.93450583 -47.37015324 283.17692499 -35.6566 277.84320641 C-29.14477835 275.4001748 -23.19587922 274.1466605 -16.22764492 274.05194664 C-14.27618809 274.02202881 -14.27618809 274.02202881 -12.28530788 273.99150658 C-10.87521895 273.97452602 -9.46512878 273.95764708 -8.0550375 273.94086266 C-6.60486183 273.92027515 -5.15469193 273.89927822 -3.70452785 273.87788963 C0.1011954 273.82285435 3.90697114 273.7733638 7.71278477 273.72504234 C12.28507536 273.66582939 16.85727062 273.59970404 21.42948246 273.53474236 C28.36557354 273.43696633 35.30172746 273.34795085 42.23793125 273.25726891 C42.23793125 262.03726891 42.23793125 250.81726891 42.23793125 239.25726891 C-41.91206875 239.25726891 -126.06206875 239.25726891 -212.76206875 239.25726891 Z M257.82923985 249.53656578 C257.37216648 249.99188683 256.91509312 250.44720787 256.44416904 250.91632652 C254.92236418 252.43370485 253.40427747 253.95474375 251.88636875 255.47601891 C250.82854185 256.53317218 249.77056654 257.59017697 248.71244907 258.64703941 C246.48639981 260.87160997 244.2621793 263.09798929 242.03920078 265.32562828 C239.20831453 268.1621634 236.37302858 270.99425096 233.53630733 273.82494926 C231.34498373 276.01263019 229.15608366 278.20272364 226.96786976 280.39351463 C225.92495076 281.43709523 224.88130366 282.47994875 223.83688068 283.52202415 C218.61999208 288.72977226 213.47156111 293.95438608 208.69767857 299.57733727 C206.19699667 302.45521524 203.46327543 305.09438738 200.73793125 307.75726891 C197.28660599 311.16569634 193.87649523 314.55376341 190.73793125 318.25726891 C187.07336595 322.58145596 183.0227226 326.49809181 178.99574375 330.47992516 C176.13219008 333.32368467 173.34915935 336.17601975 170.73793125 339.25726891 C167.07336595 343.58145596 163.0227226 347.49809181 158.99574375 351.47992516 C156.13219008 354.32368467 153.34915935 357.17601975 150.73793125 360.25726891 C147.07336595 364.58145596 143.0227226 368.49809181 138.99574375 372.47992516 C136.13219008 375.32368467 133.34915935 378.17601975 130.73793125 381.25726891 C127.07336595 385.58145596 123.0227226 389.49809181 118.99574375 393.47992516 C116.13219008 396.32368467 113.34915935 399.17601975 110.73793125 402.25726891 C107.07336595 406.58145596 103.0227226 410.49809181 98.99574375 414.47992516 C96.13219008 417.32368467 93.34915935 420.17601975 90.73793125 423.25726891 C87.07737342 427.57672714 83.03167665 431.48943421 79.00892735 435.46674156 C75.47614161 438.97495851 72.0836757 442.5360681 68.92176914 446.38788414 C67.23793125 448.25726891 67.23793125 448.25726891 65.41688633 449.68768883 C62.25192748 452.23680902 60.46354532 454.09724632 59.67250156 458.16449547 C59.54984212 461.53306842 59.62629077 464.82869073 59.80043125 468.19476891 C59.83201328 469.35556969 59.86359531 470.51637047 59.89613438 471.71234703 C59.97826028 474.56328923 60.09304707 477.4089415 60.23793125 480.25726891 C63.21645265 477.95797113 65.85346559 475.7290762 68.23793125 472.81976891 C71.55294757 468.93044055 75.10473081 465.34470079 78.73793125 461.75726891 C82.16662235 458.36749107 85.56056799 455.00529414 88.67543125 451.31976891 C92.55193025 446.74375129 96.86317805 442.60740689 101.1222086 438.39252281 C104.69475044 434.84285133 108.08390002 431.22577914 111.3355875 427.37836266 C114.56294311 423.77989429 118.04418098 420.4320336 121.48036289 417.03436852 C124.34383581 414.19069204 127.12677809 411.33842964 129.73793125 408.25726891 C133.40249655 403.93308185 137.45313991 400.016446 141.48011875 396.03461266 C144.34367242 393.19085314 147.12670315 390.33851806 149.73793125 387.25726891 C153.40249655 382.93308185 157.45313991 379.016446 161.48011875 375.03461266 C164.34367242 372.19085314 167.12670315 369.33851806 169.73793125 366.25726891 C173.40249655 361.93308185 177.45313991 358.016446 181.48011875 354.03461266 C184.34367242 351.19085314 187.12670315 348.33851806 189.73793125 345.25726891 C193.36137509 340.98160517 197.35141596 337.08908723 201.35707188 333.17523766 C204.11888031 330.45726745 206.73019676 327.6987017 209.21669102 324.72577477 C213.54597121 319.75445686 218.38819679 315.36590562 223.23783779 310.91576385 C226.65106707 307.76117845 230.00746378 304.54593408 233.37042236 301.33795071 C236.30372398 298.54594807 239.25542802 295.78125224 242.26014805 293.0661068 C257.24479186 280.36732682 257.24479186 280.36732682 264.76966953 263.05365562 C265.0090438 257.01354889 264.46342516 251.17221398 263.23793125 245.25726891 C261.14855512 245.25726891 259.16096086 248.20612223 257.82923985 249.53656578 Z M-124.84350491 367.21172142 C-125.50118359 367.86658028 -126.15886227 368.52143913 -126.8364706 369.1961422 C-127.56223293 369.92392876 -128.28799526 370.65171532 -129.03575039 371.40155602 C-130.17713718 372.54031433 -130.17713718 372.54031433 -131.3415823 373.70207787 C-133.87099553 376.22706854 -136.39670844 378.75572491 -138.922225 381.28461266 C-140.66942836 383.03114309 -142.41678019 384.777525 -144.16427517 386.52376366 C-147.83204907 390.19006003 -151.49799971 393.85816752 -155.16270351 397.52753258 C-159.87305472 402.2435811 -164.58787378 406.95512144 -169.30406952 411.66532612 C-172.91480773 415.27246018 -176.52317224 418.88196114 -180.13081074 422.49219513 C-181.86890976 424.23096382 -183.60775903 425.96898287 -185.34735203 427.70625687 C-187.77324916 430.12962986 -190.19594337 432.55615892 -192.61778164 434.98358727 C-193.3455682 435.70934959 -194.07335476 436.43511192 -194.82319546 437.18286705 C-195.47805431 437.84054573 -196.13291317 438.49822441 -196.80761623 439.17583275 C-197.66846624 440.03724829 -197.66846624 440.03724829 -198.54670715 440.91606617 C-199.87398343 442.07911269 -199.87398343 442.07911269 -199.76206875 443.25726891 C-193.12768237 443.35941389 -186.49350177 443.42904434 -179.8585043 443.47699547 C-177.60549752 443.49700355 -175.35254196 443.52421881 -173.09971523 443.55902672 C-169.84511008 443.60802232 -166.59119658 443.63034647 -163.3362875 443.64789391 C-162.34312023 443.66853905 -161.34995296 443.68918419 -160.32668972 443.71045494 C-149.45042353 443.71387725 -140.15070523 440.26100278 -132.13706875 432.81976891 C-122.98308012 422.94309696 -120.43500672 415.07364419 -120.56675625 401.85492516 C-120.57100109 400.2383728 -120.57100109 400.2383728 -120.57533169 398.58916283 C-120.58647682 395.16591592 -120.61157119 391.742936 -120.63706875 388.31976891 C-120.64710586 385.99099666 -120.65623043 383.66222029 -120.6644125 381.33344078 C-120.68639759 375.64129325 -120.71981862 369.94930016 -120.76206875 364.25726891 C-122.57256792 364.25726891 -123.62477583 365.99379247 -124.84350491 367.21172142 Z " fill="#000000" transform="translate(230.76206874847412,-0.25726890563964844)"/>
<path d="M0 0 C2.69990662 1.79993774 4.5418865 3.083773 6 6 C6.41994628 9.69552724 6.19861875 11.62659676 4.4375 14.9375 C0.76360559 19.55341862 -3.07803952 23.71869301 -8 27 C-12.02035732 27.44670637 -14.29621811 27.38249016 -17.875 25.4375 C-20.66605308 22.23599794 -21 20.21894271 -21 16 C-18.96756701 11.88818013 -16.18991914 8.94972899 -12.9375 5.75 C-11.62072266 4.44289063 -11.62072266 4.44289063 -10.27734375 3.109375 C-6.80100834 -0.11055831 -4.71355545 -0.46211328 0 0 Z " fill="#000000" transform="translate(353,257)"/>
<path d="M0 0 C3.75514634 2.0408404 4.77457968 3.28395898 6.0625 7.375 C5.98370642 11.94502775 4.86391334 13.47518359 2 17 C1.53980469 17.60199219 1.07960938 18.20398438 0.60546875 18.82421875 C-2.47481266 22.70098454 -5.16830237 25.42230282 -10 27 C-13.4183218 26.88412468 -15.88599601 26.63126893 -18.875 24.9375 C-20.78335052 21.65089632 -21.53026115 18.72476123 -21 15 C-19.12437411 11.55164433 -16.70580702 8.82548694 -14 6 C-13.4121875 5.37222656 -12.824375 4.74445313 -12.21875 4.09765625 C-8.31606841 0.32802062 -5.59582901 -1.03626463 0 0 Z " fill="#000000" transform="translate(319,293)"/>
<path d="M0 0 C1.90947363 1.52847537 2.84661821 2.55379843 3.64453125 4.875 C3.98640392 9.20008676 3.44897348 11.37587753 0.8671875 14.96484375 C-7.63540013 24.73302905 -7.63540013 24.73302905 -13.875 25.4375 C-17.25646168 25.33767825 -18.04403368 24.96972685 -21 22.9375 C-23 20 -23 20 -23.75 16.6875 C-22.67489591 11.40157156 -19.75015409 8.71890281 -16 5 C-15.113125 4.05125 -14.22625 3.1025 -13.3125 2.125 C-8.46761604 -2.32705553 -6.29526865 -2.40364803 0 0 Z " fill="#000000" transform="translate(253,366)"/>
<path d="M0 0 C3.03437855 2.02291903 3.81161043 3.42227198 4.9375 6.875 C5.06051988 13.02599424 1.78036603 16.45140141 -2.25 20.75 C-6.11127136 24.4548179 -8.61792919 26.59380598 -14 27 C-17.2745581 25.88788593 -19.23799005 24.92766429 -21.4375 22.25 C-22.32599405 18.6960238 -22.00570199 16.54953643 -21 13 C-18.94665217 10.03279956 -16.56282004 7.53104955 -14 5 C-13.49984375 4.46632813 -12.9996875 3.93265625 -12.484375 3.3828125 C-8.38292597 -0.60595936 -5.41578419 -0.78616222 0 0 Z " fill="#000000" transform="translate(286,329)"/>
<path d="M0 0 C2.4375 1.5625 2.4375 1.5625 4 4 C4.7099846 8.9698922 4.79117716 10.84919686 1.9375 15 C-1.76272533 17.51930235 -3.6031656 17.7066341 -8 17 C-11.43250143 15.0598905 -12.70166193 13.85772196 -14 10.125 C-14 6.25173287 -13.12269877 4.2206464 -11 1 C-7.51811815 -1.86011723 -4.17847912 -1.04461978 0 0 Z " fill="#000000" transform="translate(218,401)"/>
<path d="M0 0 C2.43086519 3.7397926 2.52265206 7.17061618 1.625 11.5 C-0.49985419 14.22246943 -1.94622111 15.23121981 -5.34765625 15.87109375 C-8.80087506 16.08409603 -10.95908275 15.78794271 -13.8125 13.8125 C-15.62152666 11.13514055 -16.29963103 9.7408658 -16.375 6.5 C-14.4526699 0.19902913 -14.4526699 0.19902913 -11.0625 -2 C-6.72225229 -2.80748795 -3.74673734 -2.36636043 0 0 Z " fill="#000000" transform="translate(382.375,232.5)"/>
</svg>
