<svg width="187" height="37" viewBox="0 0 187 37" fill="none" xmlns="http://www.w3.org/2000/svg">
<path d="M0 10C0 4.47715 4.47715 0 10 0H177C182.523 0 187 4.47715 187 10V27C187 32.5228 182.523 37 177 37H10C4.47715 37 0 32.5228 0 27V10Z" fill="#90AF13"/>
<path d="M169 20.5L171 18.5H167L169 20.5ZM169 24C168.308 24 167.658 23.8688 167.05 23.6062C166.442 23.3438 165.913 22.9875 165.462 22.5375C165.013 22.0875 164.656 21.5583 164.394 20.95C164.131 20.3417 164 19.6917 164 19C164 18.3083 164.131 17.6583 164.394 17.05C164.656 16.4417 165.013 15.9125 165.462 15.4625C165.913 15.0125 166.442 14.6562 167.05 14.3938C167.658 14.1313 168.308 14 169 14C169.692 14 170.342 14.1313 170.95 14.3938C171.558 14.6562 172.088 15.0125 172.538 15.4625C172.988 15.9125 173.344 16.4417 173.606 17.05C173.869 17.6583 174 18.3083 174 19C174 19.6917 173.869 20.3417 173.606 20.95C173.344 21.5583 172.988 22.0875 172.538 22.5375C172.088 22.9875 171.558 23.3438 170.95 23.6062C170.342 23.8688 169.692 24 169 24ZM169 23C170.117 23 171.062 22.6125 171.838 21.8375C172.613 21.0625 173 20.1167 173 19C173 17.8833 172.613 16.9375 171.838 16.1625C171.062 15.3875 170.117 15 169 15C167.883 15 166.938 15.3875 166.163 16.1625C165.388 16.9375 165 17.8833 165 19C165 20.1167 165.388 21.0625 166.163 21.8375C166.938 22.6125 167.883 23 169 23Z" fill="white"/>
<path d="M79.7213 17.5935C79.7213 18.3345 79.6265 18.9829 79.4368 19.5387C79.2471 20.0901 78.9692 20.5488 78.6031 20.9149C78.2414 21.2766 77.7959 21.5479 77.2666 21.7287C76.7373 21.9096 76.1066 22 75.3743 22H73.5615C73.46 22 73.363 21.9669 73.2703 21.9008C73.1821 21.8302 73.138 21.7089 73.138 21.5369V13.9016C73.138 13.7295 73.1821 13.6105 73.2703 13.5443C73.363 13.4737 73.46 13.4384 73.5615 13.4384H75.5001C76.2411 13.4384 76.8674 13.5355 77.3791 13.7295C77.8908 13.9192 78.3186 14.1949 78.6627 14.5566C79.0111 14.9139 79.2736 15.3484 79.45 15.86C79.6309 16.3717 79.7213 16.9495 79.7213 17.5935ZM78.5237 17.6398C78.5237 17.1767 78.4664 16.7466 78.3517 16.3496C78.237 15.9482 78.0562 15.602 77.8092 15.3109C77.5666 15.0197 77.2578 14.7926 76.8829 14.6294C76.5079 14.4662 76.025 14.3846 75.4339 14.3846H74.276V21.0472H75.4471C75.9941 21.0472 76.455 20.9789 76.8299 20.8421C77.2049 20.7054 77.518 20.4959 77.7695 20.2136C78.0209 19.9313 78.2084 19.5784 78.3319 19.155C78.4598 18.7271 78.5237 18.2221 78.5237 17.6398ZM86.4303 18.5992C86.4303 18.7712 86.3862 18.8947 86.298 18.9697C86.2142 19.0403 86.1171 19.0756 86.0068 19.0756H82.1032C82.1032 19.4064 82.1363 19.7041 82.2024 19.9688C82.2686 20.2334 82.3789 20.4606 82.5332 20.6503C82.6876 20.8399 82.8883 20.9855 83.1353 21.0869C83.3823 21.1884 83.6845 21.2391 84.0418 21.2391C84.3241 21.2391 84.5755 21.2171 84.796 21.173C85.0166 21.1244 85.2063 21.0715 85.3651 21.0142C85.5283 20.9568 85.6606 20.9061 85.762 20.862C85.8679 20.8135 85.9473 20.7892 86.0002 20.7892C86.0311 20.7892 86.0576 20.798 86.0796 20.8157C86.1061 20.8289 86.1259 20.851 86.1392 20.8818C86.1524 20.9127 86.1612 20.9568 86.1656 21.0142C86.1745 21.0671 86.1789 21.1333 86.1789 21.2127C86.1789 21.27 86.1767 21.3207 86.1722 21.3648C86.1678 21.4045 86.1612 21.442 86.1524 21.4773C86.148 21.5082 86.137 21.5369 86.1193 21.5633C86.1061 21.5898 86.0862 21.6163 86.0598 21.6427C86.0377 21.6648 85.9671 21.7045 85.848 21.7618C85.729 21.8147 85.5746 21.8677 85.3849 21.9206C85.1952 21.9735 84.9747 22.0198 84.7233 22.0595C84.4763 22.1037 84.2116 22.1257 83.9293 22.1257C83.4397 22.1257 83.0096 22.0573 82.6391 21.9206C82.273 21.7839 81.9642 21.581 81.7128 21.3119C81.4614 21.0428 81.2717 20.7054 81.1438 20.2996C81.0159 19.8938 80.9519 19.4218 80.9519 18.8837C80.9519 18.372 81.0181 17.9133 81.1504 17.5075C81.2828 17.0973 81.4724 16.751 81.7194 16.4687C81.9709 16.182 82.273 15.9637 82.6259 15.8137C82.9788 15.6593 83.3735 15.5821 83.8102 15.5821C84.2778 15.5821 84.6747 15.6571 85.0012 15.8071C85.332 15.9571 85.6032 16.16 85.815 16.4158C86.0267 16.6672 86.1811 16.9649 86.2781 17.309C86.3796 17.6486 86.4303 18.0125 86.4303 18.4007V18.5992ZM85.332 18.275C85.3452 17.7016 85.2173 17.2517 84.9482 16.9253C84.6836 16.5988 84.2888 16.4356 83.7639 16.4356C83.4948 16.4356 83.2588 16.4864 83.0559 16.5878C82.853 16.6893 82.6832 16.8238 82.5465 16.9914C82.4097 17.159 82.3039 17.3553 82.2289 17.5803C82.1539 17.8008 82.112 18.0324 82.1032 18.275H85.332ZM91.8359 20.2136C91.8359 20.5179 91.7785 20.7892 91.6638 21.0274C91.5536 21.2656 91.3948 21.4663 91.1875 21.6295C90.9801 21.7927 90.7331 21.9162 90.4464 22C90.1597 22.0838 89.8443 22.1257 89.5003 22.1257C89.2886 22.1257 89.0857 22.1081 88.8916 22.0728C88.7019 22.0419 88.5299 22.0022 88.3755 21.9537C88.2255 21.9008 88.0976 21.8478 87.9917 21.7949C87.8859 21.7376 87.8087 21.6868 87.7602 21.6427C87.7117 21.5986 87.6764 21.5369 87.6543 21.4575C87.6323 21.3781 87.6212 21.27 87.6212 21.1333C87.6212 21.0494 87.6256 20.9789 87.6345 20.9215C87.6433 20.8642 87.6543 20.8179 87.6675 20.7826C87.6808 20.7473 87.6984 20.723 87.7205 20.7098C87.7469 20.6922 87.7756 20.6833 87.8065 20.6833C87.855 20.6833 87.9256 20.7142 88.0182 20.776C88.1153 20.8333 88.2321 20.8973 88.3689 20.9678C88.51 21.0384 88.6754 21.1046 88.8651 21.1663C89.0548 21.2237 89.2731 21.2524 89.5201 21.2524C89.7054 21.2524 89.873 21.2325 90.023 21.1928C90.1729 21.1531 90.3031 21.0958 90.4133 21.0208C90.5236 20.9414 90.6074 20.8421 90.6648 20.723C90.7265 20.6039 90.7574 20.4628 90.7574 20.2996C90.7574 20.132 90.7133 19.9908 90.6251 19.8761C90.5413 19.7615 90.4288 19.66 90.2876 19.5718C90.1465 19.4836 89.9877 19.4064 89.8112 19.3402C89.6348 19.2696 89.4518 19.1969 89.2621 19.1219C89.0768 19.0469 88.8938 18.9631 88.7129 18.8705C88.5365 18.7734 88.3777 18.6565 88.2366 18.5198C88.0954 18.3831 87.9807 18.2199 87.8925 18.0302C87.8087 17.8405 87.7668 17.6134 87.7668 17.3487C87.7668 17.1149 87.8109 16.8922 87.8991 16.6804C87.9917 16.4643 88.1285 16.2768 88.3093 16.1181C88.4902 15.9549 88.7151 15.8247 88.9842 15.7277C89.2577 15.6306 89.5753 15.5821 89.937 15.5821C90.0958 15.5821 90.2545 15.5954 90.4133 15.6218C90.5721 15.6483 90.7155 15.6814 90.8434 15.7211C90.9713 15.7608 91.0794 15.8049 91.1676 15.8534C91.2602 15.8975 91.3286 15.9372 91.3727 15.9725C91.4212 16.0078 91.4521 16.0387 91.4653 16.0651C91.483 16.0916 91.494 16.1225 91.4984 16.1578C91.5072 16.1886 91.5139 16.2283 91.5183 16.2768C91.5271 16.3254 91.5315 16.3849 91.5315 16.4555C91.5315 16.5305 91.5271 16.5966 91.5183 16.654C91.5139 16.7069 91.5028 16.751 91.4852 16.7863C91.472 16.8216 91.4543 16.8481 91.4323 16.8657C91.4102 16.8789 91.3859 16.8856 91.3595 16.8856C91.3198 16.8856 91.2624 16.8613 91.1875 16.8128C91.1125 16.7643 91.0154 16.7135 90.8963 16.6606C90.7772 16.6033 90.6361 16.5503 90.4729 16.5018C90.3141 16.4533 90.131 16.429 89.9237 16.429C89.7385 16.429 89.5753 16.4511 89.4341 16.4952C89.293 16.5349 89.1761 16.5944 89.0834 16.6738C88.9952 16.7488 88.9269 16.8392 88.8783 16.9451C88.8342 17.051 88.8122 17.1656 88.8122 17.2891C88.8122 17.4612 88.8563 17.6067 88.9445 17.7258C89.0327 17.8405 89.1474 17.942 89.2886 18.0302C89.4297 18.1184 89.5907 18.1978 89.7715 18.2684C89.9524 18.3389 90.1354 18.4117 90.3207 18.4867C90.5104 18.5617 90.6956 18.6455 90.8765 18.7381C91.0617 18.8308 91.2249 18.9432 91.3661 19.0756C91.5072 19.2079 91.6197 19.3667 91.7035 19.5519C91.7917 19.7372 91.8359 19.9577 91.8359 20.2136ZM94.4956 21.8346C94.4956 21.8699 94.4868 21.9008 94.4692 21.9272C94.4515 21.9493 94.4229 21.9691 94.3832 21.9868C94.3435 22.0044 94.2883 22.0176 94.2177 22.0265C94.1472 22.0353 94.0567 22.0397 93.9465 22.0397C93.8406 22.0397 93.7524 22.0353 93.6818 22.0265C93.6112 22.0176 93.5539 22.0044 93.5098 21.9868C93.4701 21.9691 93.4414 21.9493 93.4238 21.9272C93.4105 21.9008 93.4039 21.8699 93.4039 21.8346V15.8799C93.4039 15.849 93.4105 15.8203 93.4238 15.7939C93.4414 15.7674 93.4701 15.7453 93.5098 15.7277C93.5539 15.71 93.6112 15.6968 93.6818 15.688C93.7524 15.6792 93.8406 15.6748 93.9465 15.6748C94.0567 15.6748 94.1472 15.6792 94.2177 15.688C94.2883 15.6968 94.3435 15.71 94.3832 15.7277C94.4229 15.7453 94.4515 15.7674 94.4692 15.7939C94.4868 15.8203 94.4956 15.849 94.4956 15.8799V21.8346ZM94.6213 13.8685C94.6213 14.1243 94.5728 14.2986 94.4758 14.3912C94.3787 14.4838 94.2001 14.5301 93.9399 14.5301C93.684 14.5301 93.5076 14.486 93.4105 14.3978C93.3179 14.3052 93.2716 14.1331 93.2716 13.8817C93.2716 13.6259 93.3201 13.4517 93.4172 13.359C93.5142 13.2664 93.6928 13.2201 93.9531 13.2201C94.2089 13.2201 94.3832 13.2664 94.4758 13.359C94.5728 13.4472 94.6213 13.6171 94.6213 13.8685ZM101.489 16.1511C101.489 16.3055 101.467 16.418 101.423 16.4886C101.383 16.5547 101.33 16.5878 101.264 16.5878H100.411C100.565 16.7466 100.673 16.923 100.735 17.1171C100.797 17.3068 100.827 17.5053 100.827 17.7126C100.827 18.0566 100.772 18.361 100.662 18.6257C100.552 18.8903 100.393 19.1153 100.186 19.3005C99.9828 19.4814 99.7402 19.6203 99.4579 19.7174C99.1756 19.8144 98.8624 19.8629 98.5184 19.8629C98.2758 19.8629 98.0442 19.832 97.8237 19.7703C97.6075 19.7041 97.4399 19.6225 97.3208 19.5255C97.2414 19.6049 97.1753 19.6953 97.1223 19.7968C97.0738 19.8982 97.0495 20.0151 97.0495 20.1474C97.0495 20.3018 97.1201 20.4297 97.2613 20.5312C97.4068 20.6326 97.5987 20.6878 97.8369 20.6966L99.3917 20.7627C99.6873 20.7716 99.9585 20.8135 100.206 20.8885C100.453 20.959 100.666 21.0627 100.847 21.1994C101.028 21.3317 101.169 21.4972 101.271 21.6956C101.372 21.8897 101.423 22.1169 101.423 22.3771C101.423 22.6506 101.366 22.9109 101.251 23.1579C101.136 23.4049 100.96 23.621 100.722 23.8063C100.488 23.9959 100.188 24.1437 99.8218 24.2496C99.4557 24.3598 99.0234 24.415 98.525 24.415C98.0442 24.415 97.634 24.3731 97.2944 24.2893C96.9591 24.2099 96.6834 24.0996 96.4673 23.9584C96.2512 23.8173 96.0946 23.6475 95.9975 23.449C95.9005 23.2549 95.852 23.0432 95.852 22.8138C95.852 22.6683 95.8696 22.5271 95.9049 22.3904C95.9402 22.2536 95.9931 22.1235 96.0637 22C96.1387 21.8765 96.2291 21.7596 96.335 21.6493C96.4453 21.5346 96.571 21.4222 96.7121 21.3119C96.496 21.2016 96.335 21.0627 96.2291 20.8951C96.1277 20.7275 96.0769 20.5466 96.0769 20.3525C96.0769 20.0835 96.1321 19.8431 96.2424 19.6313C96.3526 19.4196 96.4894 19.2299 96.6526 19.0623C96.5158 18.8991 96.4078 18.7161 96.3284 18.5132C96.249 18.3059 96.2093 18.0566 96.2093 17.7655C96.2093 17.4259 96.2666 17.1215 96.3813 16.8525C96.496 16.5834 96.6548 16.3562 96.8577 16.171C97.0606 15.9857 97.3032 15.8446 97.5855 15.7475C97.8722 15.6461 98.1832 15.5954 98.5184 15.5954C98.6992 15.5954 98.8668 15.6064 99.0212 15.6284C99.18 15.6461 99.3278 15.6726 99.4645 15.7078H101.264C101.339 15.7078 101.394 15.7453 101.43 15.8203C101.469 15.8909 101.489 16.0012 101.489 16.1511ZM99.7821 17.7192C99.7821 17.3134 99.6696 16.998 99.4447 16.7731C99.2241 16.5437 98.9087 16.429 98.4985 16.429C98.2868 16.429 98.1016 16.4643 97.9428 16.5349C97.7884 16.6055 97.6583 16.7025 97.5524 16.826C97.4509 16.9495 97.3738 17.0929 97.3208 17.2561C97.2723 17.4149 97.248 17.5825 97.248 17.7589C97.248 18.1515 97.3583 18.4602 97.5789 18.6852C97.8038 18.9102 98.117 19.0226 98.5184 19.0226C98.7345 19.0226 98.922 18.9896 99.0808 18.9234C99.2396 18.8528 99.3697 18.758 99.4711 18.6389C99.577 18.5154 99.6542 18.3742 99.7027 18.2154C99.7556 18.0566 99.7821 17.8912 99.7821 17.7192ZM100.331 22.4367C100.331 22.1808 100.225 21.9846 100.014 21.8478C99.8064 21.7067 99.5241 21.6317 99.1668 21.6229L97.6252 21.5699C97.484 21.6802 97.3671 21.7861 97.2745 21.8875C97.1863 21.9846 97.1157 22.0772 97.0628 22.1654C97.0099 22.258 96.9724 22.3485 96.9503 22.4367C96.9327 22.5249 96.9238 22.6153 96.9238 22.708C96.9238 22.9947 97.0694 23.2108 97.3605 23.3564C97.6516 23.5063 98.0574 23.5813 98.5779 23.5813C98.9087 23.5813 99.1844 23.5482 99.405 23.4821C99.6299 23.4203 99.8108 23.3365 99.9475 23.2306C100.084 23.1248 100.181 23.0035 100.239 22.8667C100.3 22.73 100.331 22.5867 100.331 22.4367ZM108.019 21.8346C108.019 21.8699 108.011 21.9008 107.993 21.9272C107.975 21.9493 107.947 21.9691 107.907 21.9868C107.867 22.0044 107.812 22.0176 107.742 22.0265C107.671 22.0353 107.583 22.0397 107.477 22.0397C107.367 22.0397 107.276 22.0353 107.206 22.0265C107.135 22.0176 107.08 22.0044 107.04 21.9868C107.001 21.9691 106.972 21.9493 106.954 21.9272C106.937 21.9008 106.928 21.8699 106.928 21.8346V18.3478C106.928 18.0081 106.901 17.7347 106.848 17.5273C106.795 17.32 106.718 17.1414 106.617 16.9914C106.515 16.8414 106.383 16.7268 106.22 16.6474C106.061 16.568 105.876 16.5283 105.664 16.5283C105.391 16.5283 105.117 16.6253 104.844 16.8194C104.57 17.0135 104.283 17.298 103.983 17.6729V21.8346C103.983 21.8699 103.975 21.9008 103.957 21.9272C103.939 21.9493 103.911 21.9691 103.871 21.9868C103.831 22.0044 103.776 22.0176 103.706 22.0265C103.635 22.0353 103.545 22.0397 103.434 22.0397C103.328 22.0397 103.24 22.0353 103.17 22.0265C103.099 22.0176 103.042 22.0044 102.998 21.9868C102.958 21.9691 102.929 21.9493 102.912 21.9272C102.898 21.9008 102.892 21.8699 102.892 21.8346V15.8799C102.892 15.8446 102.898 15.8159 102.912 15.7939C102.925 15.7674 102.951 15.7453 102.991 15.7277C103.031 15.7056 103.081 15.6924 103.143 15.688C103.205 15.6792 103.287 15.6748 103.388 15.6748C103.485 15.6748 103.564 15.6792 103.626 15.688C103.692 15.6924 103.743 15.7056 103.778 15.7277C103.814 15.7453 103.838 15.7674 103.851 15.7939C103.869 15.8159 103.878 15.8446 103.878 15.8799V16.6672C104.213 16.2923 104.546 16.0188 104.877 15.8468C105.212 15.6703 105.549 15.5821 105.889 15.5821C106.286 15.5821 106.619 15.6505 106.888 15.7872C107.162 15.9196 107.382 16.0982 107.55 16.3232C107.717 16.5481 107.836 16.8128 107.907 17.1171C107.982 17.4171 108.019 17.7788 108.019 18.2022V21.8346Z" fill="white"/>
<path d="M25.8389 17.7933L27.6566 15.9545L26.473 14.7497L25.543 15.6797L24.3593 14.4961L25.2682 13.5661L24.3171 12.6149L22.4782 14.4538L25.8389 17.7933ZM32.7715 24.7471L34.6104 22.9082L33.6592 21.9571L32.7292 22.866L31.5456 21.6823L32.4545 20.7524L31.2497 19.5687L29.432 21.3864L32.7715 24.7471ZM24.5284 26.29H20.9353V22.6969L24.6341 18.9981L20.0898 14.4538L24.3171 10.2266L28.8825 14.792L32.074 11.5793C32.2431 11.4102 32.4333 11.2834 32.6447 11.1988C32.8561 11.1143 33.0745 11.072 33.2999 11.072C33.5254 11.072 33.7438 11.1143 33.9551 11.1988C34.1665 11.2834 34.3567 11.4102 34.5258 11.5793L35.646 12.7206C35.8151 12.8897 35.9419 13.0799 36.0265 13.2913C36.111 13.5027 36.1533 13.7211 36.1533 13.9465C36.1533 14.172 36.111 14.3869 36.0265 14.5912C35.9419 14.7955 35.8151 14.9822 35.646 15.1513L32.4545 18.364L36.9987 22.9082L32.7715 27.1355L28.2273 22.5912L24.5284 26.29ZM22.6262 24.5991H23.8098L32.0952 16.3349L30.8904 15.1301L22.6262 23.4155V24.5991ZM31.5034 15.7431L30.8904 15.1301L32.0952 16.3349L31.5034 15.7431Z" fill="white"/>
</svg>
