<?xml version="1.0" encoding="UTF-8"?>
<svg version="1.1" xmlns="http://www.w3.org/2000/svg" width="1883" height="695">
<path d="M0 0 C487.74 0 975.48 0 1478 0 C1478 0.33 1478 0.66 1478 1 C1476.10041031 1.07397507 1476.10041031 1.07397507 1474.16244507 1.14944458 C1380.63169991 4.79844226 1287.11982116 8.86775107 1156 17 C1155.27527496 17.04878548 1154.55054993 17.09757095 1153.80386353 17.14783478 C1073.66196951 22.55350278 993.62188198 31.46384365 727.6887207 85.76635742 C726.56425537 86.06517822 725.43979004 86.36399902 724.28125 86.671875 C723.32283203 86.9306543 722.36441406 87.18943359 721.37695312 87.45605469 C719 88 719 88 716 88 C716.33 82.06 716.66 76.12 717 70 C715.6078125 71.4540625 715.6078125 71.4540625 714.1875 72.9375 C701.25405486 85.87094514 701.25405486 85.87094514 695 88 C692.43457031 87.21728516 692.43457031 87.21728516 689.578125 85.7890625 C688.55332031 85.28632812 687.52851562 84.78359375 686.47265625 84.265625 C685.40917969 83.72421875 684.34570312 83.1828125 683.25 82.625 C682.17105469 82.09132813 681.09210937 81.55765625 679.98046875 81.0078125 C677.31294286 79.68585277 674.6536247 78.34959024 672 77 C672.65873712 79.97525392 673.62766647 82.5970827 674.8828125 85.37109375 C675.24503906 86.19287109 675.60726562 87.01464844 675.98046875 87.86132812 C676.74333628 89.57843098 677.51418322 91.29201097 678.29296875 93.00195312 C678.83244141 94.23655273 678.83244141 94.23655273 679.3828125 95.49609375 C679.71684082 96.24044678 680.05086914 96.9847998 680.39501953 97.75170898 C681.16200191 100.60204827 680.9343869 102.2057013 680 105 C678.43359375 107.00463867 678.43359375 107.00463867 676.4375 108.91796875 C675.36628906 109.96307617 675.36628906 109.96307617 674.2734375 111.02929688 C673.52320313 111.74150391 672.77296875 112.45371094 672 113.1875 C670.51887113 114.61645853 669.03960789 116.04735414 667.5625 117.48046875 C666.90378906 118.10848389 666.24507812 118.73649902 665.56640625 119.38354492 C663.90842495 120.9320893 663.90842495 120.9320893 663 123 C664.77503906 122.7834375 664.77503906 122.7834375 666.5859375 122.5625 C668.18225614 122.37469781 669.77861239 122.18721503 671.375 122 C672.14972656 121.90460938 672.92445313 121.80921875 673.72265625 121.7109375 C679.50340846 121.04209014 685.18341728 120.88941274 691 121 C691.28721924 121.51908936 691.57443848 122.03817871 691.87036133 122.57299805 C693.1834974 124.94500387 694.49798679 127.31625711 695.8125 129.6875 C696.26431641 130.50412109 696.71613281 131.32074219 697.18164062 132.16210938 C697.84389648 133.35610352 697.84389648 133.35610352 698.51953125 134.57421875 C698.92276611 135.30213623 699.32600098 136.03005371 699.74145508 136.7800293 C701.1194491 139.21069848 702.56244507 141.60407512 704 144 C706.97 131.13 706.97 131.13 710 118 C723.5 114.625 723.5 114.625 730.25 113.3125 C732.17585937 112.93544922 732.17585937 112.93544922 734.140625 112.55078125 C735.08421875 112.36902344 736.0278125 112.18726562 737 112 C736.278125 111.59007813 735.55625 111.18015625 734.8125 110.7578125 C733.884375 110.21898438 732.95625 109.68015625 732 109.125 C731.071875 108.59132813 730.14375 108.05765625 729.1875 107.5078125 C728.465625 107.01023437 727.74375 106.51265625 727 106 C727 105.34 727 104.68 727 104 C814.7634802 75.58924634 905.31766329 57.54632509 1158.83984375 24.75 C1160.11452829 24.64723063 1161.38921284 24.54446125 1162.70252419 24.43857765 C1188.25280458 22.38341059 1213.81825775 20.54314437 1239.38671875 18.73046875 C1240.38686351 18.65953656 1241.38700827 18.58860437 1242.41746044 18.51552272 C1263.74030281 17.00386633 1285.06418731 15.50729571 1306.38920057 14.02658463 C1318.58658861 13.17953121 1330.78364446 12.32778741 1342.98046875 11.47265625 C1344.60176421 11.35914023 1344.60176421 11.35914023 1346.25581312 11.24333096 C1371.10856899 9.50205055 1395.93712776 7.6857109 1420.73828125 5.30859375 C1428.65718662 4.56224876 1436.57728895 3.82985998 1444.5 3.125 C1445.43059235 3.0421664 1446.36118469 2.95933281 1447.31997681 2.87398911 C1480.90980774 -0.06269409 1514.50528927 -0.33118018 1548.19921875 -0.4765625 C1549.74243533 -0.48353189 1549.74243533 -0.48353189 1551.31682801 -0.49064207 C1599.21144888 -0.69797003 1647.10682524 -0.26082056 1695 0 C1695 80.85 1695 161.7 1695 245 C1693.44453679 241.88907358 1692.65260378 239.98130704 1691.9921875 236.71875 C1685.91707963 208.26906118 1674.07265731 184.23069523 1654 163 C1652.95585937 161.87658203 1652.95585937 161.87658203 1651.890625 160.73046875 C1631.54330458 139.52915496 1604.45272922 127.04928236 1576 121 C1574.88093262 120.75443359 1574.88093262 120.75443359 1573.73925781 120.50390625 C1549.3872742 115.41700074 1520.26324675 115.53229527 1496 121 C1495.11006348 121.19867676 1494.22012695 121.39735352 1493.30322266 121.60205078 C1480.18464262 124.63991797 1468.0520488 129.01956775 1456 135 C1454.48212891 135.73863281 1454.48212891 135.73863281 1452.93359375 136.4921875 C1419.56474056 153.6866184 1393.64668015 186.31355096 1381.74951172 221.61669922 C1377.30023342 235.76453465 1374.93819266 250.32961494 1373 265 C1373.86826416 265.03158203 1374.73652832 265.06316406 1375.63110352 265.09570312 C1390.07099411 265.77653425 1404.3917246 267.52876984 1418.73814392 269.23841095 C1420.96582812 269.50336932 1423.19375598 269.76618878 1425.42175293 270.02850342 C1446.87984789 272.55825668 1468.29178019 275.35266459 1489.69084167 278.33795547 C1557.95213131 287.85350813 1626.13089605 293.17310579 1695 295 C1695 305.56 1695 316.12 1695 327 C1664.16158323 327.44054881 1633.90155556 325.26472505 1603.32861328 321.27050781 C1602.0548584 321.10518555 1600.78110352 320.93986328 1599.46875 320.76953125 C1598.35951172 320.62104736 1597.25027344 320.47256348 1596.10742188 320.31958008 C1593.04685028 320.00481828 1590.07423418 319.94303761 1587 320 C1586.731875 320.82242187 1586.46375 321.64484375 1586.1875 322.4921875 C1582.27133063 333.64811734 1577.17949689 342.0976341 1566.55859375 347.8203125 C1552.29689008 354.3959377 1535.1507619 354.45982185 1520.1328125 350.18359375 C1517.94079249 349.27720485 1516.01317813 348.24984809 1514 347 C1512.9790625 346.45472656 1512.9790625 346.45472656 1511.9375 345.8984375 C1503.27873481 340.55230596 1499.5091111 329.98378133 1497.1875 320.5 C1496.29743979 315.88052333 1495.57983065 311.25212719 1494.92578125 306.59375 C1494.75087158 305.35302734 1494.57596191 304.11230469 1494.39575195 302.83398438 C1494.26515381 301.89876953 1494.13455566 300.96355469 1494 300 C1454.11285189 289.46286962 1413.63532453 282.00280166 1373 275 C1375.31785811 315.23745145 1385.34978709 353.06879987 1415.7578125 381.65234375 C1417 383 1417 383 1417 385 C1417.85464844 385.36931641 1417.85464844 385.36931641 1418.7265625 385.74609375 C1421.37504223 387.20685319 1423.20147276 388.95944549 1425.375 391.0625 C1431.41305193 396.57896326 1437.98936518 400.86022758 1445 405 C1445.88365234 405.52424561 1445.88365234 405.52424561 1446.78515625 406.05908203 C1457.0398727 412.0513298 1467.79188774 416.13929395 1479 420 C1479 420.33 1479 420.66 1479 421 C1405.41 421 1331.82 421 1256 421 C1259.17187123 418.88541918 1262.1261161 417.72991545 1265.6875 416.375 C1300.87389612 402.57455409 1328.38924845 377.44925488 1343.8125 342.8125 C1346.47686766 336.67573086 1348.48304152 330.52323073 1350 324 C1332.36212547 322.15218533 1314.68652027 320.91953077 1296.99584961 319.71289062 C1292.86880427 319.43119886 1288.742278 319.14254096 1284.61583805 318.8521328 C1281.3840737 318.62572888 1278.15201412 318.40378052 1274.91985893 318.18303299 C1273.39901689 318.07851174 1271.87827592 317.97250661 1270.35765266 317.86484909 C1260.88874446 317.19677134 1251.49635324 316.86216923 1242 317 C1241.76506836 317.89533447 1241.53013672 318.79066895 1241.28808594 319.71313477 C1238.14516194 331.39626012 1232.54457254 340.79745785 1222.0625 347.1796875 C1207.80402685 354.81019852 1189.75181155 354.36701847 1174.49609375 349.99609375 C1165.19053794 346.46720338 1160.19809638 341.85279671 1155.75 333 C1150.38482716 320.46213619 1150 309.75648403 1150 296 C1216.33 296 1282.66 296 1351 296 C1351 288.08 1351 280.16 1351 272 C1260.95414267 261.26994763 1170.74088976 254.08129766 1029 254 C1028.83483276 255.72295398 1028.67215925 257.44614711 1028.51049805 259.16943359 C1028.41963425 260.1290097 1028.32877045 261.08858582 1028.2351532 262.07723999 C1025.05261503 301.63356058 1035.62982761 342.06767825 1061.43457031 372.703125 C1064.82192556 376.60249632 1068.36417366 380.33252603 1072 384 C1072.84949219 384.86238281 1073.69898438 385.72476562 1074.57421875 386.61328125 C1091.08853367 402.47005836 1111.62330619 412.495416 1133 420 C1133 420.33 1133 420.66 1133 421 C1070.3 421 1007.6 421 943 421 C943 432.55 943 444.1 943 456 C948.61 456 954.22 456 960 456 C960 466.23 960 476.46 960 487 C954.39 487 948.78 487 943 487 C943.09708877 492.03584129 943.19991305 497.07088889 943.31738281 502.10620117 C943.35559285 503.81804314 943.39045952 505.52996322 943.421875 507.24194336 C943.46769938 509.70715183 943.52566413 512.17182633 943.5859375 514.63671875 C943.59748871 515.39836838 943.60903992 516.16001801 943.62094116 516.94474792 C943.73306332 521.00970191 943.93032074 524.44555083 946 528 C950.90425024 530.75579124 950.90425024 530.75579124 961 531 C961 541.23 961 551.46 961 562 C916.94722496 567.02615554 916.94722496 567.02615554 901 556 C895.51910274 550.9256143 893.66887622 545.25100455 893 538 C892.86851377 534.05276774 892.8834615 530.10919958 892.90234375 526.16015625 C892.9037587 525.03806259 892.90517365 523.91596893 892.90663147 522.75987244 C892.912206 519.19405392 892.92475384 515.62829938 892.9375 512.0625 C892.94251829 509.6373707 892.94708062 507.21224041 892.95117188 504.78710938 C892.96216709 498.85804846 892.97941417 492.92903506 893 487 C887.39 487 881.78 487 876 487 C876 476.77 876 466.54 876 456 C881.61 456 887.22 456 893 456 C893 444.45 893 432.9 893 421 C897.7025 420.979375 902.405 420.95875 907.25 420.9375 C920.67314596 420.64003416 931.8049107 418.70623634 944 413 C944.72203613 412.67547852 945.44407227 412.35095703 946.18798828 412.01660156 C971.88525418 400.38514637 993.35198035 382.60693581 1004 356 C1011.1305333 336.09556934 1012.1697303 312.02823021 1005 292 C1004.63777344 290.94296875 1004.27554687 289.8859375 1003.90234375 288.796875 C999.67835771 277.62836954 990.33272042 260.66636021 979 255 C976.4607775 254.88730981 973.95018283 254.8361441 971.41015625 254.83203125 C970.22501434 254.82574707 970.22501434 254.82574707 969.01593018 254.81933594 C966.36473876 254.80936737 963.71370754 254.80959262 961.0625 254.8125 C960.14230072 254.81277191 959.22210144 254.81304382 958.27401733 254.81332397 C885.65240453 254.91054583 811.78109286 259.95113989 741 277 C765.84497327 309.99366863 825.21554401 313.56602009 862.99307251 319.30999756 C897.57377498 324.57377498 897.57377498 324.57377498 905.9375 332.9375 C908.11487363 337.16416646 908.29891446 339.99775739 906.9375 344.5625 C903.49393191 350.67205629 899.29452264 353.4412077 892.70385742 355.32641602 C882.66111913 357.82825935 872.6229488 358.35831831 862.3125 358.3125 C860.99902588 358.30758545 859.68555176 358.3026709 858.33227539 358.29760742 C840.2391423 358.08036951 820.6036465 356.31195037 807 343 C798 332.9462572 798 332.9462572 798 326 C796.92116043 326.15033691 795.84232086 326.30067383 794.73078918 326.45556641 C784.56397956 327.8718651 774.39667891 329.28459004 764.2288866 330.69381714 C759.00154159 331.41842935 753.77437773 332.14429976 748.54760742 332.87304688 C743.50355385 333.57627136 738.45905151 334.27618909 733.41422081 334.97381592 C731.48954603 335.24056262 729.56503598 335.50850067 727.64069557 335.77764893 C724.94554172 336.15439981 722.24983348 336.52691188 719.55395508 336.8984375 C718.75841721 337.01064636 717.96287933 337.12285522 717.14323425 337.23846436 C713.40309248 337.74954723 709.77689367 338.13230549 706 338 C711.6103069 354.73969619 719.19757635 369.76557975 731 383 C731.46277344 383.60457031 731.92554688 384.20914062 732.40234375 384.83203125 C746.03971057 402.53159244 770.24082574 413.50207066 791 420 C791 420.33 791 420.66 791 421 C739.85 421 688.7 421 636 421 C636 432.55 636 444.1 636 456 C641.61 456 647.22 456 653 456 C653 466.23 653 476.46 653 487 C647.39 487 641.78 487 636 487 C636.07425367 491.85721444 636.15730476 496.71267185 636.26245117 501.5690918 C636.2955636 503.2187366 636.32363756 504.86849096 636.34643555 506.51831055 C636.38023533 508.89939768 636.43256004 511.27949306 636.48828125 513.66015625 C636.49467117 514.38960953 636.5010611 515.11906281 636.50764465 515.87062073 C636.64973226 520.89682072 637.58218993 524.55837486 640 529 C644.22154311 530.53442511 644.22154311 530.53442511 654 531 C654 541.23 654 551.46 654 562 C650.885625 562.33 647.77125 562.66 644.5625 563 C643.60029541 563.10441406 642.63809082 563.20882812 641.64672852 563.31640625 C626.47843532 564.87641437 606.45419737 565.15756776 593.5 555.8125 C585.53299384 546.84961807 585.84542504 535.86463921 585.90234375 524.5 C585.9037587 523.42371338 585.90517365 522.34742676 585.90663147 521.23852539 C585.9121962 517.82565445 585.92474213 514.41285087 585.9375 511 C585.94251956 508.6757822 585.94708167 506.35156337 585.95117188 504.02734375 C585.96215407 498.35153683 585.97939423 492.67577981 586 487 C580.39 487 574.78 487 569 487 C569 476.77 569 466.54 569 456 C574.61 456 580.22 456 586 456 C586 444.45 586 432.9 586 421 C592.06375 420.9690625 592.06375 420.9690625 598.25 420.9375 C611.01306455 420.5912034 621.4603245 418.37329711 633 413 C633.88445801 412.5889502 634.76891602 412.17790039 635.68017578 411.75439453 C661.0897074 399.67194882 682.97033125 382.09120857 693 355 C699.28956806 335.64092273 702.53565795 309.0713159 693 290 C681.54146271 292.5668928 670.42214255 296.2317268 659.25 299.8125 C657.7194548 300.30114029 657.7194548 300.30114029 656.1579895 300.7996521 C637.17720324 306.8667397 618.34208603 313.316077 599.57817078 320.02197266 C595.73348162 321.39494199 591.87785504 322.72366306 588 324 C588 323.34 588 322.68 588 322 C620.6018578 305.99750982 654.46140036 293.15078292 689 282 C679.44729447 261.8587534 661.33203663 246.4669928 640.74609375 238.296875 C614.67060063 229.26969699 586.83583138 226.285805 559.60372925 222.78471375 C551.40026557 221.72797653 543.20382845 220.63454609 535.01953125 219.4375 C534.20412369 219.3212326 533.38871613 219.20496521 532.54859924 219.08517456 C523.56231815 217.7453741 515.48688041 215.65321068 509 209 C506.45284881 205.52661201 506.4921487 202.20791074 507 198 C511.42329321 190.95037645 517.70600969 188.47833499 525.5 186.25 C545.9088703 181.91579417 567.06858967 184.35107815 585 195 C588.71468572 197.65256884 591.2365552 200.36490629 593.8125 204.125 C594.41707031 204.99382812 595.02164063 205.86265625 595.64453125 206.7578125 C597 209 597 209 597 211 C607.88341463 208.93248314 618.76659317 206.86372851 629.64947128 204.79338932 C634.70272189 203.83210839 639.75605311 202.87125549 644.80957031 201.91137695 C649.68563941 200.98518713 654.56149442 200.05787798 659.43720245 199.12978935 C661.29826512 198.77574146 663.15940484 198.4220983 665.02062225 198.06886482 C667.62560637 197.57440332 670.23031392 197.07850909 672.83496094 196.58227539 C673.60604187 196.43625885 674.3771228 196.29024231 675.17156982 196.13980103 C678.47363676 195.50931857 681.74415889 194.83577536 685 194 C678.35423866 178.87953482 670.69337059 165.89291616 659 154 C658.26523437 153.25234375 657.53046875 152.5046875 656.7734375 151.734375 C631.66696164 127.71948505 593.52878706 117.98388923 559.609375 117.796875 C558.75040115 117.78986069 557.89142731 117.78284637 557.00642395 117.77561951 C554.25422853 117.75823702 551.50224827 117.7517687 548.75 117.75 C547.8096994 117.74932526 546.8693988 117.74865051 545.90060425 117.74795532 C532.08393594 117.76372054 518.55323541 118.04032832 505 121 C503.78014404 121.26538574 503.78014404 121.26538574 502.53564453 121.53613281 C471.8369704 128.47795368 440.68842247 143.15586332 422.8359375 170.2890625 C416.72170685 180.38235075 411.88263706 191.28824617 410 203 C409.88914062 203.67933594 409.77828125 204.35867187 409.6640625 205.05859375 C406.39998142 229.0981098 412.25408922 252.19125405 426 272 C426.61617187 272.89460938 427.23234375 273.78921875 427.8671875 274.7109375 C454.22197595 310.25162732 514.98251347 313.6545909 554.92407227 319.80444336 C587.57058802 324.8886329 587.57058802 324.8886329 594.6171875 332.8203125 C597.05429829 336.66186002 596.71427873 340.61724118 596 345 C592.0793282 351.82955733 586.23452288 353.73669164 578.94921875 355.91015625 C555.68788692 361.37593368 523.56997926 360.9491335 502.66796875 348.625 C496.0314148 343.95530238 489.95193738 337.64030853 487 330 C487 328.68 487 327.36 487 326 C475.74271475 327.54553792 464.48565699 329.09272125 453.2288866 330.64200497 C448.00190438 331.36134855 442.77484552 332.08012536 437.54760742 332.79760742 C432.50296079 333.49004852 427.4585209 334.18397771 422.41422081 334.87893867 C420.48978652 335.14380452 418.56527837 335.40813428 416.64069557 335.67191887 C413.94491785 336.04149727 411.24940913 336.41298151 408.55395508 336.78491211 C407.75841721 336.8935257 406.96287933 337.00213928 406.14323425 337.11404419 C402.4011791 337.63235027 398.69354311 338.20306781 395 339 C407.59457083 372.63322892 427.89149127 397.64334946 460.8125 412.7890625 C467.10734372 415.54305663 473.43877686 417.96375834 480 420 C480 420.33 480 420.66 480 421 C412.68 421 345.36 421 276 421 C278.4003789 419.3997474 280.29294214 418.38689207 282.921875 417.3359375 C283.69249268 417.02285645 284.46311035 416.70977539 285.25708008 416.38720703 C286.07974365 416.05317871 286.90240723 415.71915039 287.75 415.375 C326.07447792 399.44973613 355.40497776 371.26822271 371.75 332.75 C387.4220915 294.26874027 387.03138881 247.65373572 371.04345703 209.38818359 C355.1053752 172.91033697 326.19484113 144.13750685 289.0859375 129.4140625 C281.34984513 126.47961908 273.47085908 124.21552312 265.4375 122.25 C264.23565063 121.95198486 264.23565063 121.95198486 263.00952148 121.64794922 C248.68707541 118.31807681 234.44833443 117.62260278 219.8125 117.6875 C218.95660278 117.68932281 218.10070557 117.69114563 217.21887207 117.69302368 C204.27932488 117.73935925 191.67941882 118.19767467 179 121 C178.21931152 121.16628906 177.43862305 121.33257812 176.63427734 121.50390625 C141.09234964 129.30103847 108.00136731 148.70823879 86 178 C85.39800781 178.79792969 84.79601562 179.59585938 84.17578125 180.41796875 C59.23254263 214.77798061 50.84549458 257.27909823 57 299 C59.91355857 316.47443088 65.59440995 332.44492228 74 348 C74.57878906 349.07378906 75.15757812 350.14757812 75.75390625 351.25390625 C82.62694204 363.48503955 91.37381237 373.89531766 101 384 C101.71671875 384.78117187 102.4334375 385.56234375 103.171875 386.3671875 C118.60109473 402.66647601 138.98782306 412.870351 160 420 C160 420.33 160 420.66 160 421 C96.64 421 33.28 421 -32 421 C-32 347.41 -32 273.82 -32 198 C-6.92 198 18.16 198 44 198 C44 173.25 44 148.5 44 123 C18.59 123 -6.82 123 -33 123 C-33 94.63636364 -33 94.63636364 -23.9375 84.75 C-4.52839456 73.18712868 21.87513253 78.01110988 43 81 C44.485 81.495 44.485 81.495 46 82 C46 56.92 46 31.84 46 6 C23.0333205 3.16349559 23.0333205 3.16349559 0 1 C0 0.67 0 0.34 0 0 Z M816 120 C815.1867627 120.17692383 814.37352539 120.35384766 813.53564453 120.53613281 C781.23588719 127.84000295 750.43245169 143.55853538 731.875 172.0625 C725.9276579 182.06059086 721.38240388 193.39830672 720 205 C719.86722656 206.09183594 719.73445312 207.18367188 719.59765625 208.30859375 C717.49986631 230.58288024 722.9072353 249.84227239 734 269 C739.56183564 268.38605141 744.89592664 267.43891628 750.3359375 266.14453125 C751.95586116 265.7680718 753.57590207 265.39211661 755.19604492 265.01660156 C756.03944427 264.82005981 756.88284363 264.62351807 757.75180054 264.42102051 C824.40542127 248.95894997 891.72382636 243.30911448 960 242 C937.35796602 224.07867502 892.56225114 224.23994804 864.734375 220.8359375 C864.00782715 220.74697708 863.2812793 220.65801666 862.53271484 220.56636047 C859.15668681 220.15620697 855.78009726 219.75978197 852.40039062 219.38061523 C828.84689296 216.6357658 828.84689296 216.6357658 821 209 C819.136038 205.28982803 818.47396464 202.17336755 819.14453125 197.9921875 C821.24290015 193.105575 826.73287591 190.9498916 831.38671875 189 C846.80382271 183.55558977 866.49082717 184.17167261 882 189 C882.89460938 189.26683594 883.78921875 189.53367187 884.7109375 189.80859375 C895.74282131 193.62732276 902.97217521 201.25967384 909 211 C918.13871905 210.29257404 927.03599203 208.59826546 936.0234375 206.875 C937.65859563 206.56459745 939.29382024 206.25454487 940.92910767 205.94482422 C944.33686767 205.29850953 947.74408304 204.64942422 951.15087891 203.99804688 C955.51466676 203.16371516 959.87934934 202.33418631 964.24439049 201.50643921 C968.42104418 200.71422686 972.59726271 199.91973236 976.7734375 199.125 C977.56702038 198.97415955 978.36060326 198.82331909 979.1782341 198.66790771 C981.42293801 198.24079693 983.66732756 197.8120738 985.91162109 197.3828125 C987.18717865 197.13934082 988.46273621 196.89586914 989.77694702 196.64501953 C992.20967794 196.15816469 994.603456 195.63658567 997 195 C993.37681832 181.47345508 985.39903417 169.22880445 976 159 C975.55285645 158.51047852 975.10571289 158.02095703 974.64501953 157.51660156 C967.52504234 149.80757031 959.97024911 143.53373007 951 138 C949.906875 137.32324219 948.81375 136.64648438 947.6875 135.94921875 C924.92871397 122.56017711 896.8130649 116.9413487 870.609375 116.796875 C869.32091423 116.78635353 869.32091423 116.78635353 868.00642395 116.77561951 C865.25422853 116.75823702 862.50224827 116.7517687 859.75 116.75 C858.8096994 116.74932526 857.8693988 116.74865051 856.90060425 116.74795532 C843.08393594 116.76372054 829.55323541 117.04032832 816 120 Z M1151 120 C1150.21367188 120.17692383 1149.42734375 120.35384766 1148.6171875 120.53613281 C1107.78565932 129.9176625 1073.23890183 153.27052298 1050.73632812 189.00683594 C1041.52317012 204.22697296 1034.36989678 220.73869339 1030.93261719 238.24902344 C1030.75672058 239.14119568 1030.58082397 240.03336792 1030.39959717 240.95257568 C1030.2677301 241.62822571 1030.13586304 242.30387573 1030 243 C1030.84723129 243.03305992 1030.84723129 243.03305992 1031.71157837 243.06678772 C1131.69816204 247.00728237 1231.69747023 253.32800809 1351 263 C1350.01436946 252.27032429 1348.90818671 241.78188003 1346.25 231.3125 C1345.98614502 230.25289063 1345.72229004 229.19328125 1345.45043945 228.1015625 C1335.8089923 190.46410344 1312.40450258 158.45430846 1279.07910156 138.20410156 C1255.78396061 124.71283392 1228.24631887 116.95630393 1201.29296875 116.796875 C1200.4938356 116.78986069 1199.69470245 116.78284637 1198.87135315 116.77561951 C1196.31001066 116.75822966 1193.74889933 116.75176834 1191.1875 116.75 C1190.31250854 116.74932526 1189.43751709 116.74865051 1188.53601074 116.74795532 C1175.79968473 116.7635786 1163.45542351 117.09410923 1151 120 Z " fill="#FF6500" transform="translate(188,0)"/>
<path d="M0 0 C621.39 0 1242.78 0 1883 0 C1883 5.94 1883 11.88 1883 18 C1261.61 18 640.22 18 0 18 C0 12.06 0 6.12 0 0 Z " fill="#FF6600" transform="translate(0,569)"/>
<path d="M0 0 C15.18 0 30.36 0 46 0 C46 73.59 46 147.18 46 223 C46.99 223 47.98 223 49 223 C49.33 235.87 49.66 248.74 50 262 C54.29 260.02 58.58 258.04 63 256 C81.88263603 250.04786473 103.02651958 250.21832634 121 259 C126.34813271 262.01974804 130.87178124 265.42548732 135 270 C135.48082031 270.50015625 135.96164063 271.0003125 136.45703125 271.515625 C147.51214385 283.49432929 149.74082446 298.67621243 149.27734375 314.4140625 C148.52447949 329.59005661 142.77020458 342.45027718 131.59765625 352.84765625 C115.34251368 366.31620295 96.21874843 367.13116298 76 366 C65.64571759 364.80975857 56.80527355 360.28613387 48 355 C47.67 357.97 47.34 360.94 47 364 C31.49 364 15.98 364 0 364 C0 243.88 0 123.76 0 0 Z M54 293.875 C48.89308387 300.42386892 48.1066983 306.85851611 49 315 C50.73595972 321.65277977 54.13676656 326.39895899 60 330 C67.17242905 333.40561379 73.87175791 334.0404914 81.5 331.9375 C87.85500908 329.59560219 92.37588326 325.53768241 96 319.875 C98.4687581 312.64738582 98.06541318 304.40618455 94.9375 297.5 C91.63143444 291.76327779 87.74805989 289.08885392 81.6875 286.6875 C71.21893571 284.73573378 61.56051849 285.70400486 54 293.875 Z " fill="#7F7F7F" transform="translate(0,198)"/>
<path d="M0 0 C13.27063424 13.90458174 15.8125 30.8758589 15.8125 49.5625 C-18.5075 49.5625 -52.8275 49.5625 -88.1875 49.5625 C-85.3219288 57.2040232 -84.02232754 59.89797282 -77.4296875 63.53125 C-67.11851867 67.89833327 -53.30753538 66.81918092 -43.15625 62.73046875 C-40.88230947 61.57333951 -40.88230947 61.57333951 -39.1875 58.5625 C-36.89694214 58.20173645 -36.89694214 58.20173645 -34.00341797 58.22192383 C-32.38196365 58.22226372 -32.38196365 58.22226372 -30.72775269 58.22261047 C-29.55689117 58.23809433 -28.38602966 58.25357819 -27.1796875 58.26953125 C-25.98393097 58.27377609 -24.78817444 58.27802094 -23.55618286 58.28239441 C-19.72472929 58.29923098 -15.89379547 58.33689316 -12.0625 58.375 C-9.47005966 58.39004036 -6.87761111 58.40372989 -4.28515625 58.41601562 C2.08090748 58.44915082 8.44666662 58.4993997 14.8125 58.5625 C13.43606422 67.92901681 7.59878584 74.6888342 0.44140625 80.68359375 C-17.83591641 93.74658365 -40.47998147 95.99342316 -62.3125 95.9375 C-63.07830383 95.93728851 -63.84410767 95.93707703 -64.63311768 95.93685913 C-76.83735981 95.90330391 -88.43839473 95.13147995 -100.1875 91.5625 C-102.03601563 91.00175781 -102.03601563 91.00175781 -103.921875 90.4296875 C-117.21536838 85.80453197 -128.92490149 76.89781919 -135.8671875 64.51171875 C-143.09771288 48.36069313 -142.90477183 31.1162009 -137.1875 14.5625 C-130.46013531 0.31523177 -118.6707099 -8.96042541 -104.109375 -14.44921875 C-103.14515625 -14.77535156 -102.1809375 -15.10148437 -101.1875 -15.4375 C-100.32640625 -15.73269531 -99.4653125 -16.02789062 -98.578125 -16.33203125 C-67.24246017 -25.52443004 -24.82446616 -22.51960705 0 0 Z M-86.625 17 C-89.23093321 20.06037388 -89.31752639 21.21263196 -90.1875 25.5625 C-72.0375 25.5625 -53.8875 25.5625 -35.1875 25.5625 C-36.26287592 19.11024446 -37.38512293 16.68454032 -42.1875 12.5625 C-55.42705316 4.71333634 -75.77358442 5.1433464 -86.625 17 Z " fill="#808080" transform="translate(518.1875,469.4375)"/>
<path d="M0 0 C10.84274424 10.24639331 16.41664237 23.27630767 18.53125 37.90234375 C18.53125 42.52234375 18.53125 47.14234375 18.53125 51.90234375 C-15.78875 51.90234375 -50.10875 51.90234375 -85.46875 51.90234375 C-82.6031788 59.54386695 -81.30357754 62.23781657 -74.7109375 65.87109375 C-65.35354892 69.83422303 -51.63621833 69.44585054 -42.1953125 65.94921875 C-40.30488793 64.92321192 -40.30488793 64.92321192 -38.69903564 62.86529541 C-35.93532186 60.43285516 -34.69018176 60.41429299 -31.05761719 60.44824219 C-29.97679871 60.44854431 -28.89598022 60.44884644 -27.78240967 60.44915771 C-26.62187073 60.46980286 -25.46133179 60.490448 -24.265625 60.51171875 C-23.07269836 60.51737854 -21.87977173 60.52303833 -20.6506958 60.52886963 C-16.83963944 60.55126449 -13.02952233 60.60146946 -9.21875 60.65234375 C-6.63543024 60.6724046 -4.05209575 60.69065609 -1.46875 60.70703125 C4.86490394 60.75113964 11.19800987 60.81808397 17.53125 60.90234375 C15.70382595 70.94586634 9.17531588 78.95490795 0.9453125 84.7109375 C-24.60376297 100.63629955 -62.3278763 102.33494803 -91.20043945 95.67089844 C-93.30689038 95.12732807 -95.38736385 94.53459831 -97.46875 93.90234375 C-99.31726562 93.34160156 -99.31726562 93.34160156 -101.203125 92.76953125 C-114.30262708 88.21187039 -126.22298477 79.52958713 -132.84375 67.15234375 C-140.29723902 50.77537204 -140.27629681 33.71742544 -134.46875 16.90234375 C-127.74138531 2.65507552 -115.9519599 -6.62058166 -101.390625 -12.109375 C-100.42640625 -12.43550781 -99.4621875 -12.76164062 -98.46875 -13.09765625 C-97.60765625 -13.39285156 -96.7465625 -13.68804687 -95.859375 -13.9921875 C-66.11349716 -22.71821814 -24.29462564 -20.64274362 0 0 Z M-83.90625 19.33984375 C-86.51218321 22.40021763 -86.59877639 23.55247571 -87.46875 27.90234375 C-69.31875 27.90234375 -51.16875 27.90234375 -32.46875 27.90234375 C-33.54412592 21.45008821 -34.66637293 19.02438407 -39.46875 14.90234375 C-52.70830316 7.05318009 -73.05483442 7.48319015 -83.90625 19.33984375 Z " fill="#7F7F7F" transform="translate(1513.46875,467.09765625)"/>
<path d="M0 0 C9.62516717 5.1986197 14.18884507 14.52164543 17.31640625 24.66015625 C26.1806896 60.3547258 28.63351551 115.26835187 12.19140625 149.18359375 C7.68007188 156.67171652 2.20682866 161.48578927 -6.07421875 164.2890625 C-16.25862973 166.72863375 -27.53472154 166.3038587 -36.80859375 161.18359375 C-47.59196246 153.8649844 -51.70097963 143.44926736 -54.25439453 131.01220703 C-60.8027943 96.33595708 -64.78293462 43.98084142 -46.80859375 12.18359375 C-35.86097016 -2.93754918 -17.23709603 -7.6053752 0 0 Z " fill="#FF6500" transform="translate(424.80859375,192.81640625)"/>
<path d="M0 0 C15.18 0 30.36 0 46 0 C46 73.59 46 147.18 46 223 C30.82 223 15.64 223 0 223 C0 149.41 0 75.82 0 0 Z " fill="#FF6600" transform="translate(0,198)"/>
<path d="M0 0 C16.5 0 33 0 50 0 C50 11.55 50 23.1 50 35 C55.61 35 61.22 35 67 35 C67 45.23 67 55.46 67 66 C61.39 66 55.78 66 50 66 C50.09708877 71.03584129 50.19991305 76.07088889 50.31738281 81.10620117 C50.35559285 82.81804314 50.39045952 84.52996322 50.421875 86.24194336 C50.46769938 88.70715183 50.52566413 91.17182633 50.5859375 93.63671875 C50.59748871 94.39836838 50.60903992 95.16001801 50.62094116 95.94474792 C50.73306332 100.00970191 50.93032074 103.44555083 53 107 C57.90425024 109.75579124 57.90425024 109.75579124 68 110 C68 120.23 68 130.46 68 141 C23.94722496 146.02615554 23.94722496 146.02615554 8 135 C2.51910274 129.9256143 0.66887622 124.25100455 0 117 C-0.13148623 113.05276774 -0.1165385 109.10919958 -0.09765625 105.16015625 C-0.0962413 104.03806259 -0.09482635 102.91596893 -0.09336853 101.75987244 C-0.087794 98.19405392 -0.07524616 94.62829938 -0.0625 91.0625 C-0.05748171 88.6373707 -0.05291938 86.21224041 -0.04882812 83.78710938 C-0.03783291 77.85804846 -0.02058583 71.92903506 0 66 C-5.61 66 -11.22 66 -17 66 C-17 55.77 -17 45.54 -17 35 C-11.39 35 -5.78 35 0 35 C0 23.45 0 11.9 0 0 Z " fill="#808080" transform="translate(1081,421)"/>
<path d="M0 0 C16.5 0 33 0 50 0 C50 11.55 50 23.1 50 35 C55.61 35 61.22 35 67 35 C67 45.23 67 55.46 67 66 C61.39 66 55.78 66 50 66 C50.07425367 70.85721444 50.15730476 75.71267185 50.26245117 80.5690918 C50.2955636 82.2187366 50.32363756 83.86849096 50.34643555 85.51831055 C50.38023533 87.89939768 50.43256004 90.27949306 50.48828125 92.66015625 C50.49467117 93.38960953 50.5010611 94.11906281 50.50764465 94.87062073 C50.64973226 99.89682072 51.58218993 103.55837486 54 108 C58.22154311 109.53442511 58.22154311 109.53442511 68 110 C68 120.23 68 130.46 68 141 C64.885625 141.33 61.77125 141.66 58.5625 142 C57.60029541 142.10441406 56.63809082 142.20882812 55.64672852 142.31640625 C40.47843532 143.87641437 20.45419737 144.15756776 7.5 134.8125 C-0.46700616 125.84961807 -0.15457496 114.86463921 -0.09765625 103.5 C-0.0962413 102.42371338 -0.09482635 101.34742676 -0.09336853 100.23852539 C-0.0878038 96.82565445 -0.07525787 93.41285087 -0.0625 90 C-0.05748044 87.6757822 -0.05291833 85.35156337 -0.04882812 83.02734375 C-0.03784593 77.35153683 -0.02060577 71.67577981 0 66 C-5.61 66 -11.22 66 -17 66 C-17 55.77 -17 45.54 -17 35 C-11.39 35 -5.78 35 0 35 C0 23.45 0 11.9 0 0 Z " fill="#7F7F7F" transform="translate(774,421)"/>
<path d="M0 0 C9.11853917 9.7698634 11.11662394 21.49922444 10.8125 34.4375 C10.750625 38.19125 10.68875 41.945 10.625 45.8125 C-3.565 45.8125 -17.755 45.8125 -32.375 45.8125 C-33.365 41.8525 -34.355 37.8925 -35.375 33.8125 C-38.70766481 29.81066468 -38.70766481 29.81066468 -41.375 29.28125 C-44.78026964 29.33445734 -46.81889922 29.46127845 -49.75 31.3125 C-54.55145796 38.69935841 -53.71713133 47.90632307 -53.7890625 56.375 C-53.80780205 57.77605291 -53.82737748 59.17709486 -53.8477478 60.578125 C-53.89878108 64.24075827 -53.93855957 67.90342802 -53.97589111 71.56622314 C-54.01611285 75.31376927 -54.06701861 79.06116977 -54.1171875 82.80859375 C-54.21460304 90.14317196 -54.29435052 97.47764174 -54.375 104.8125 C-70.875 104.8125 -87.375 104.8125 -104.375 104.8125 C-104.375 68.8425 -104.375 32.8725 -104.375 -4.1875 C-88.205 -4.1875 -72.035 -4.1875 -55.375 -4.1875 C-55.375 -1.8775 -55.375 0.4325 -55.375 2.8125 C-54.84132813 2.41417969 -54.30765625 2.01585937 -53.7578125 1.60546875 C-38.81413186 -9.02057406 -15.43330455 -11.32036806 0 0 Z " fill="#7F7F7F" transform="translate(1871.375,457.1875)"/>
<path d="M0 0 C45.54 0 91.08 0 138 0 C138 0.33 138 0.66 138 1 C137.1793103 1.09704224 137.1793103 1.09704224 136.34204102 1.19604492 C113.40957341 3.98567892 91.52620854 8.96336072 74 25 C73.31808594 25.59039063 72.63617188 26.18078125 71.93359375 26.7890625 C50.09010349 46.87994395 47.84874576 75.75108098 46.65625 103.5546875 C46.39535416 110.0357444 46.20262074 116.51613631 46 123 C30.82 123 15.64 123 0 123 C0 82.41 0 41.82 0 0 Z " fill="#FF6500" transform="translate(0,0)"/>
<path d="M0 0 C9.24 0 18.48 0 28 0 C28 31.68 28 63.36 28 96 C19.09 96 10.18 96 1 96 C0.67 94.02 0.34 92.04 0 90 C-0.47050781 90.42152344 -0.94101562 90.84304688 -1.42578125 91.27734375 C-2.04839844 91.82519531 -2.67101562 92.37304688 -3.3125 92.9375 C-3.92738281 93.48277344 -4.54226563 94.02804687 -5.17578125 94.58984375 C-10.5156322 98.71765144 -18.61106329 97.55387959 -25 97 C-31.45227087 95.20210161 -36.04753831 91.86948923 -39.75390625 86.3046875 C-43.36821114 79.61992297 -45.65595734 72.5976088 -46 65 C-46.0515625 64.19304687 -46.103125 63.38609375 -46.15625 62.5546875 C-46.56175182 50.96409369 -44.49009252 39.15642771 -37 30 C-30.0979399 23.38724781 -23.43803515 21.53077559 -13.984375 21.671875 C-8.76971515 22.24521456 -4.74050818 24.25949182 -1 28 C-0.67 18.76 -0.34 9.52 0 0 Z M-14 44 C-16.75359075 53.07994082 -18.27193199 65.03705641 -14.375 74 C-12.24940193 77.16027882 -12.24940193 77.16027882 -9.0625 78.3125 C-5.80344622 78.25957253 -5.80344622 78.25957253 -3.1875 75.75 C0.91374094 70.59415425 0.18344631 65.42443305 0.1875 59.125 C0.20586914 57.63419922 0.20586914 57.63419922 0.22460938 56.11328125 C0.22654297 55.15035156 0.22847656 54.18742188 0.23046875 53.1953125 C0.23457764 52.31891113 0.23868652 51.44250977 0.24291992 50.53955078 C-0.03263946 47.65877822 -0.68609672 45.57639889 -2 43 C-6.48803321 40.00797786 -10.23853543 39.84941841 -14 44 Z " fill="#7F7F7F" transform="translate(284,598)"/>
<path d="M0 0 C1.01642578 -0.01611328 2.03285156 -0.03222656 3.08007812 -0.04882812 C12.11632929 -0.05458737 21.4738735 1.04972991 28.75390625 6.86328125 C35.56386612 13.74746411 35.33658908 22.42870773 35.46875 31.49609375 C35.48715942 32.46982437 35.50556885 33.44355499 35.52453613 34.4467926 C35.58304371 37.54780286 35.63595495 40.64886668 35.6875 43.75 C35.75546684 47.83213933 35.82915161 51.91411782 35.90625 55.99609375 C35.91982544 56.92546249 35.93340088 57.85483124 35.9473877 58.81236267 C35.96410522 59.69340164 35.98082275 60.57444061 35.99804688 61.48217773 C36.01057495 62.24795639 36.02310303 63.01373505 36.03601074 63.80271912 C36.22839352 66.98999869 36.73593024 70.15151171 37.1875 73.3125 C27.9475 73.3125 18.7075 73.3125 9.1875 73.3125 C8.6925 69.8475 8.6925 69.8475 8.1875 66.3125 C7.66800781 66.72242188 7.14851562 67.13234375 6.61328125 67.5546875 C5.91589844 68.09351563 5.21851563 68.63234375 4.5 69.1875 C3.81550781 69.72117187 3.13101563 70.25484375 2.42578125 70.8046875 C-5.00217028 75.80850825 -14.18114207 75.27460659 -22.8125 74.3125 C-30.05703761 72.34787963 -34.12618522 68.73382251 -37.8125 62.3125 C-39.72448117 56.5765565 -39.96160927 49.64169509 -37.9765625 43.890625 C-33.25972415 35.72321363 -25.81613532 31.78926672 -17.03515625 29.125 C-9.02568758 27.10564305 -1.07026522 25.98866607 7.1875 26.3125 C6.21973902 22.51702079 6.21973902 22.51702079 4.1875 19.3125 C-0.48177187 18.79369201 -4.49509116 18.34854231 -8.375 21.1875 C-9.83009039 23.23873384 -9.83009039 23.23873384 -10.8125 25.3125 C-19.58470291 25.6314892 -28.13074479 24.42886806 -36.8125 23.3125 C-36.09672537 16.62925594 -34.54170927 13.02260135 -29.8125 8.3125 C-20.4237545 1.21216326 -11.46348553 -0.03593569 0 0 Z M-7.25 45.1875 C-9.08877721 47.68823701 -9.7347863 49.20395185 -9.8125 52.3125 C-8.3942658 55.14896841 -7.41873626 56.0891498 -4.4375 57.1875 C-0.56836003 57.37174476 1.96120487 56.31981386 4.9375 53.875 C7.27238132 50.95639835 7.30183607 48.20168913 7.25 44.625 C7.24097656 43.81675781 7.23195313 43.00851562 7.22265625 42.17578125 C7.21105469 41.56089844 7.19945312 40.94601562 7.1875 40.3125 C1.60434364 40.3125 -2.80729607 41.77003544 -7.25 45.1875 Z " fill="#7F7F7F" transform="translate(975.8125,620.6875)"/>
<path d="M0 0 C9.57 0 19.14 0 29 0 C29.06058594 3.59777344 29.12117188 7.19554687 29.18359375 10.90234375 C29.24532747 14.37070945 29.30873821 17.83904069 29.37231445 21.30737305 C29.41573878 23.72563639 29.45740812 26.1439319 29.49731445 28.56225586 C29.55483603 32.02988396 29.61858187 35.49734903 29.68359375 38.96484375 C29.70030624 40.05337143 29.71701874 41.14189911 29.73423767 42.26341248 C29.75418289 43.26437454 29.77412811 44.26533661 29.79467773 45.29663086 C29.81799416 46.62566689 29.81799416 46.62566689 29.84178162 47.98155212 C29.77981325 49.99637541 29.77981325 49.99637541 31 51 C35.08604951 51.44178832 35.08604951 51.44178832 38.66828918 49.78105164 C40.38805717 47.48100605 40.39487782 46.11030979 40.43237305 43.25317383 C40.45216721 42.29240433 40.47196136 41.33163483 40.49235535 40.3417511 C40.49874527 39.30729355 40.50513519 38.272836 40.51171875 37.20703125 C40.52966995 36.14586594 40.54762115 35.08470062 40.56611633 33.99137878 C40.62034524 30.59845975 40.6541559 27.20568238 40.6875 23.8125 C40.7206619 21.5136521 40.7551505 19.21482294 40.79101562 16.91601562 C40.8785793 11.27732192 40.93854222 5.63928091 41 0 C50.57 0 60.14 0 70 0 C70 23.76 70 47.52 70 72 C61.09 72 52.18 72 43 72 C42.505 68.535 42.505 68.535 42 65 C41.55269531 65.40992188 41.10539063 65.81984375 40.64453125 66.2421875 C40.03996094 66.78101563 39.43539062 67.31984375 38.8125 67.875 C38.22082031 68.40867187 37.62914062 68.94234375 37.01953125 69.4921875 C30.3177107 74.49586783 21.94031057 73.62854162 14 73 C8.30977238 71.59842476 5.12209879 68.57194396 1.91015625 63.78125 C-0.02385768 59.99622703 -0.12266289 56.42493065 -0.11352539 52.22167969 C-0.11344986 51.0607782 -0.11337433 49.89987671 -0.11329651 48.70379639 C-0.10813522 47.45576233 -0.10297394 46.20772827 -0.09765625 44.921875 C-0.0962413 43.64016418 -0.09482635 42.35845337 -0.09336853 41.03790283 C-0.08955901 37.6381636 -0.07974214 34.2384674 -0.06866455 30.83874512 C-0.05841674 27.36646111 -0.05380883 23.8941699 -0.04882812 20.421875 C-0.0386497 13.61454538 -0.0190741 6.80733379 0 0 Z " fill="#808080" transform="translate(478,622)"/>
<path d="M0 0 C4.1824277 2.49003573 7.3410958 4.79768482 8.88961792 9.60362244 C10.49812129 16.26033904 10.56988395 22.68055834 10.5078125 29.50390625 C10.5049826 30.68975815 10.50215271 31.87561005 10.49923706 33.09739685 C10.48810994 36.85670384 10.46301898 40.61576593 10.4375 44.375 C10.42746056 46.93554342 10.4183364 49.49609059 10.41015625 52.05664062 C10.38990318 58.30876228 10.35073939 64.56035943 10.3125 70.8125 C0.7425 70.8125 -8.8275 70.8125 -18.6875 70.8125 C-18.73648437 67.31011719 -18.78546875 63.80773437 -18.8359375 60.19921875 C-18.88992077 56.81351382 -18.94723874 53.42788067 -19.00488281 50.04223633 C-19.04320602 47.68617076 -19.07805294 45.330046 -19.109375 42.97387695 C-19.15495274 39.59044213 -19.21295952 36.20741592 -19.2734375 32.82421875 C-19.28498871 31.76788742 -19.29653992 30.71155609 -19.30844116 29.62321472 C-19.32831085 28.64242447 -19.34818054 27.66163422 -19.36865234 26.65112305 C-19.38197601 25.78730515 -19.39529968 24.92348724 -19.4090271 24.03349304 C-19.5553214 21.52665113 -19.5553214 21.52665113 -21.6875 18.8125 C-23.9975 19.1425 -26.3075 19.4725 -28.6875 19.8125 C-30.96790827 25.30948415 -31.03064125 30.38886602 -31.1015625 36.2421875 C-31.12092865 37.23251984 -31.1402948 38.22285217 -31.1602478 39.24319458 C-31.21979553 42.3912101 -31.2663297 45.53926268 -31.3125 48.6875 C-31.3507026 50.82814052 -31.38975565 52.96876604 -31.4296875 55.109375 C-31.52706973 60.34366982 -31.60683574 65.57781425 -31.6875 70.8125 C-40.9275 70.8125 -50.1675 70.8125 -59.6875 70.8125 C-59.6875 47.0525 -59.6875 23.2925 -59.6875 -1.1875 C-51.1075 -1.1875 -42.5275 -1.1875 -33.6875 -1.1875 C-33.3575 1.1225 -33.0275 3.4325 -32.6875 5.8125 C-32.01654297 5.19761719 -32.01654297 5.19761719 -31.33203125 4.5703125 C-30.72746094 4.03148437 -30.12289063 3.49265625 -29.5 2.9375 C-28.90832031 2.40382813 -28.31664062 1.87015625 -27.70703125 1.3203125 C-20.1639183 -4.31148943 -8.2597509 -3.90863212 0 0 Z " fill="#7F7F7F" transform="translate(1872.6875,623.1875)"/>
<path d="M0 0 C8.25516196 5.65803235 12.11191203 12.53864009 15.109375 21.9453125 C16.02843852 27.11369325 15.7734375 32.43022683 15.7734375 37.6796875 C0.2634375 38.0096875 -15.2465625 38.3396875 -31.2265625 38.6796875 C-29.7415625 43.1346875 -29.7415625 43.1346875 -28.2265625 47.6796875 C-24.75392977 49.41600386 -21.01463237 49.28159152 -17.2265625 48.6796875 C-14.47086803 46.49809605 -12.79067503 44.80791256 -11.2265625 41.6796875 C-2.1667566 41.55744124 6.75089864 41.84038156 15.7734375 42.6796875 C14.69977347 51.28134073 9.74813971 57.79523059 3.05859375 63.171875 C-8.12340254 70.5500811 -23.11748944 70.30356234 -35.9296875 68.01953125 C-45.38646974 65.21886882 -52.84516047 59.61720969 -58.0078125 51.19921875 C-63.02901771 40.8188426 -63.62547539 29.5991835 -60.2265625 18.6796875 C-56.34385295 8.07375983 -49.03398539 1.47071372 -38.9609375 -3.2265625 C-26.7636123 -8.10549258 -11.13561573 -6.60322477 0 0 Z M-30.2265625 14.6796875 C-30.8865625 17.3196875 -31.5465625 19.9596875 -32.2265625 22.6796875 C-25.9565625 22.6796875 -19.6865625 22.6796875 -13.2265625 22.6796875 C-13.51661918 16.0164144 -13.51661918 16.0164144 -16.4140625 13.2421875 C-21.46328188 10.43706562 -25.88151093 10.81741944 -30.2265625 14.6796875 Z " fill="#7F7F7F" transform="translate(64.2265625,626.3203125)"/>
<path d="M0 0 C9.62601844 6.90090618 15.78651458 15.31003014 18 27 C19.13671387 39.57489721 16.1623409 49.0659861 8.4375 59.01171875 C2.81636427 65.24091003 -5.70428324 69.47323778 -14.11547852 70.17700195 C-27.89670728 70.5501104 -38.97289205 70.24472851 -49.99609375 60.9765625 C-57.97567241 53.10586698 -61.08762333 44.05202794 -61.375 33 C-61.0808945 21.7014471 -57.97751682 14.16667874 -50.1484375 6.08984375 C-37.46507436 -5.81028381 -15.35902365 -8.44972835 0 0 Z M-29 19 C-30.61397637 23.78043234 -30.22399729 28.88897981 -30.25 33.875 C-30.270625 34.85597656 -30.29125 35.83695313 -30.3125 36.84765625 C-30.34178236 42.27221312 -30.23875221 46.40306138 -27 51 C-23.69873108 52.82425515 -23.69873108 52.82425515 -20 53 C-17.00990148 51.77570579 -17.00990148 51.77570579 -15 49 C-13.20734346 43.22714451 -12.66196368 37.95896468 -12.6875 31.9375 C-12.67138672 31.17373047 -12.65527344 30.40996094 -12.63867188 29.62304688 C-12.63416209 24.35110816 -13.46964648 20.65182088 -16 16 C-21.82924521 12.11383653 -24.74577499 13.80039165 -29 19 Z " fill="#7F7F7F" transform="translate(1633,625)"/>
<path d="M0 0 C9.57996408 6.72128919 12.67023538 13.35117692 15 25 C2.13 25.99 2.13 25.99 -11 27 C-11.99 24.03 -12.98 21.06 -14 18 C-16.86120256 16.56939872 -18.84010585 16.61307419 -22 17 C-26.27859031 21.8687407 -26.22917173 28.51615233 -26.16796875 34.734375 C-25.8358122 39.21462611 -24.90477089 43.60539853 -24 48 C-21.13794479 48.63062233 -18.88801591 49.12300809 -16 49 C-11.64686218 45.85092158 -11.0768872 44.38443598 -10 39 C-1.75 39.66 6.5 40.32 15 41 C13.75111561 50.99107516 11.29533932 58.21433512 3.19140625 64.52734375 C-6.59177296 71.10177969 -17.52435109 71.34852647 -29 70 C-38.88041056 67.55846847 -45.92014201 62.59716733 -51.3125 54.0625 C-57.0515554 44.39258473 -57.59527647 32.58662732 -55.3125 21.73046875 C-52.05157042 12.01561604 -45.74096177 3.75534548 -36.7421875 -1.2578125 C-25.85322846 -6.01965086 -10.26944033 -6.45888733 0 0 Z " fill="#7F7F7F" transform="translate(766,625)"/>
<path d="M0 0 C9.24 0 18.48 0 28 0 C28 7.59 28 15.18 28 23 C32.62 23 37.24 23 42 23 C42 29.27 42 35.54 42 42 C37.38 42 32.76 42 28 42 C28.07392857 46.2368717 28.15667396 50.47160105 28.26245117 54.70751953 C28.29573178 56.14881342 28.32375404 57.59023863 28.34643555 59.03173828 C28.3799262 61.10245797 28.432233 63.17197093 28.48828125 65.2421875 C28.51446533 66.4885498 28.54064941 67.73491211 28.56762695 69.01904297 C28.78165161 70.4946167 28.78165161 70.4946167 29 72 C32.31371 74.20914 33.3446021 74.22481553 37.1875 74.125 C38.08855469 74.10695313 38.98960938 74.08890625 39.91796875 74.0703125 C40.60503906 74.04710937 41.29210938 74.02390625 42 74 C42.02888146 77.31248187 42.04675799 80.62493167 42.0625 83.9375 C42.07087891 84.88302734 42.07925781 85.82855469 42.08789062 86.80273438 C42.09111328 87.70185547 42.09433594 88.60097656 42.09765625 89.52734375 C42.10289307 90.35999756 42.10812988 91.19265137 42.11352539 92.05053711 C42 94 42 94 41 95 C29.22542128 97.07351072 16.53519127 97.64937334 6.0625 91.1875 C0.29326891 85.06861854 -0.14999489 78.51337787 -0.09765625 70.515625 C-0.0962413 69.70003113 -0.09482635 68.88443726 -0.09336853 68.04412842 C-0.08778303 65.44604788 -0.07523321 62.84805437 -0.0625 60.25 C-0.05748312 58.48567833 -0.05292054 56.72135531 -0.04882812 54.95703125 C-0.03781835 50.63798744 -0.02056369 46.31900846 0 42 C-3.63 42 -7.26 42 -11 42 C-11 35.73 -11 29.46 -11 23 C-7.37 23 -3.74 23 0 23 C0 15.41 0 7.82 0 0 Z " fill="#808080" transform="translate(1179,599)"/>
<path d="M0 0 C0.91381836 2.07861328 0.91381836 2.07861328 1.83984375 4.8203125 C2.17943115 5.82344482 2.51901855 6.82657715 2.86889648 7.86010742 C3.22153564 8.93752197 3.5741748 10.01493652 3.9375 11.125 C4.297229 12.21852783 4.65695801 13.31205566 5.02758789 14.4387207 C9.11416448 27.11581093 10.96900175 38.5970228 12 52 C-16.05 52 -44.1 52 -73 52 C-66.89851583 31.66171944 -54.03266816 20.11914784 -35.8828125 10.31640625 C-7.33443123 -3.66721562 -7.33443123 -3.66721562 0 0 Z " fill="#FF6500" transform="translate(1756,185)"/>
<path d="M0 0 C0.33 0 0.66 0 1 0 C1 29.7 1 59.4 1 90 C-30.02 90 -61.04 90 -93 90 C-90.31448251 88.20965501 -87.93298344 87.20151888 -84.91113281 86.14916992 C-65.6219702 79.4072144 -49.82459569 69.03580656 -35 55 C-34.10410156 54.16855469 -33.20820312 53.33710938 -32.28515625 52.48046875 C-17.1023386 37.93647933 -6.8485068 19.78839906 0 0 Z " fill="#FF6500" transform="translate(1882,331)"/>
<path d="M0 0 C0.91967773 1.70800781 0.91967773 1.70800781 1.68359375 3.953125 C1.96968506 4.79004883 2.25577637 5.62697266 2.55053711 6.48925781 C2.84323486 7.40030273 3.13593262 8.31134766 3.4375 9.25 C3.89491577 10.65137207 3.89491577 10.65137207 4.36157227 12.08105469 C6.45703956 18.7318131 8.11794717 25.40439476 9.4375 32.25 C9.60113037 33.09336914 9.76476074 33.93673828 9.93334961 34.80566406 C10.93596095 40.43997072 11 45.04674835 11 51 C-17.05 51 -45.1 51 -74 51 C-66.98700094 39.31166824 -66.98700094 39.31166824 -62.6875 34.375 C-62.21094971 33.82360352 -61.73439941 33.27220703 -61.2434082 32.70410156 C-50.76899255 20.77631483 -17.76188941 -5.9206298 0 0 Z " fill="#FF6500" transform="translate(1411,186)"/>
<path d="M0 0 C9.57 0 19.14 0 29 0 C29 23.76 29 47.52 29 72 C19.43 72 9.86 72 0 72 C0 48.24 0 24.48 0 0 Z " fill="#808080" transform="translate(1381,622)"/>
<path d="M0 0 C9.57 0 19.14 0 29 0 C29 7.59 29 15.18 29 23 C19.43 23 9.86 23 0 23 C0 15.41 0 7.82 0 0 Z " fill="#808080" transform="translate(1381,595)"/>
</svg>
