<svg width="212" height="78" viewBox="0 0 212 78" fill="none" xmlns="http://www.w3.org/2000/svg">
<g clip-path="url(#clip0_298_287)">
<rect width="212" height="47" fill="white"/>
<path d="M21.1662 0.00010208C76.0791 0.00010208 130.992 0.00010208 187.569 0.00010208C187.569 0.0371381 187.569 0.074174 187.569 0.112332C187.355 0.120635 187.355 0.120635 187.137 0.129104C176.606 0.538632 166.078 0.995332 151.316 1.90802C151.234 1.91349 151.153 1.91897 151.069 1.92461C142.046 2.53129 133.034 3.5313 103.094 9.62568C102.967 9.65922 102.841 9.69275 102.71 9.72731C102.602 9.75635 102.495 9.78539 102.383 9.81531C102.116 9.87636 102.116 9.87636 101.778 9.87636C101.815 9.20971 101.852 8.54307 101.891 7.85622C101.734 8.01941 101.734 8.01941 101.574 8.18589C100.118 9.63742 100.118 9.63742 99.4137 9.87636C99.1249 9.78852 99.1249 9.78852 98.8033 9.62823C98.6879 9.57181 98.5725 9.51538 98.4536 9.45725C98.3339 9.39649 98.2142 9.33573 98.0908 9.27312C97.9693 9.21323 97.8479 9.15334 97.7227 9.09163C97.4224 8.94326 97.123 8.79329 96.8242 8.64183C96.8984 8.97574 97.0075 9.26999 97.1488 9.58132C97.1896 9.67355 97.2303 9.76577 97.2724 9.8608C97.3582 10.0535 97.445 10.2458 97.5327 10.4377C97.5935 10.5763 97.5935 10.5763 97.6554 10.7176C97.693 10.8012 97.7306 10.8847 97.7694 10.9708C97.8557 11.2907 97.8301 11.4707 97.7249 11.7843C97.5485 12.0093 97.5485 12.0093 97.3238 12.224C97.2032 12.3413 97.2032 12.3413 97.0802 12.4609C96.9957 12.5409 96.9112 12.6208 96.8242 12.7032C96.6575 12.8635 96.4909 13.0241 96.3246 13.185C96.2505 13.2554 96.1763 13.3259 96.0999 13.3985C95.9132 13.5723 95.9132 13.5723 95.8109 13.8044C96.0108 13.7801 96.0108 13.7801 96.2147 13.7553C96.3944 13.7342 96.5741 13.7132 96.7538 13.6922C96.8411 13.6815 96.9283 13.6708 97.0182 13.6597C97.669 13.5847 98.3085 13.5675 98.9633 13.58C98.9957 13.6382 99.028 13.6965 99.0613 13.7565C99.2092 14.0227 99.3572 14.2888 99.5052 14.555C99.556 14.6466 99.6069 14.7383 99.6593 14.8327C99.7339 14.9667 99.7339 14.9667 99.8099 15.1034C99.8553 15.1851 99.9007 15.2668 99.9475 15.351C100.103 15.6237 100.265 15.8924 100.427 16.1613C100.761 14.7169 100.761 14.7169 101.102 13.2433C102.622 12.8645 102.622 12.8645 103.382 12.7172C103.599 12.6749 103.599 12.6749 103.82 12.6317C103.927 12.6113 104.033 12.5909 104.142 12.5699C104.061 12.5239 103.98 12.4779 103.896 12.4305C103.792 12.37 103.687 12.3095 103.579 12.2472C103.475 12.1873 103.37 12.1274 103.263 12.0657C103.181 12.0099 103.1 11.954 103.016 11.8965C103.016 11.8224 103.016 11.7484 103.016 11.672C112.897 8.4835 123.093 6.45854 151.636 2.7778C151.779 2.76627 151.923 2.75473 152.071 2.74285C154.947 2.5122 157.826 2.30566 160.704 2.10223C160.817 2.09427 160.929 2.08631 161.045 2.0781C163.446 1.90845 165.847 1.74049 168.248 1.57431C169.621 1.47924 170.994 1.38365 172.367 1.28768C172.55 1.27494 172.55 1.27494 172.736 1.26194C175.534 1.06652 178.33 0.862671 181.122 0.595887C182.013 0.512124 182.905 0.429928 183.797 0.350821C183.902 0.341525 184.007 0.332229 184.115 0.32265C187.896 -0.0069341 191.679 -0.0370663 195.472 -0.0533826C195.646 -0.0541648 195.646 -0.0541648 195.823 -0.0549628C201.216 -0.0782313 206.608 -0.0291699 212 0.00010208C212 9.07392 212 18.1477 212 27.4965C211.825 27.1474 211.736 26.9333 211.661 26.5671C210.977 23.3742 209.644 20.6764 207.384 18.2936C207.266 18.1675 207.266 18.1675 207.146 18.0389C204.856 15.6595 201.806 14.2589 198.602 13.58C198.476 13.5524 198.476 13.5524 198.348 13.5243C195.606 12.9534 192.327 12.9663 189.595 13.58C189.495 13.6023 189.395 13.6246 189.292 13.6475C187.815 13.9885 186.449 14.48 185.092 15.1512C184.921 15.2341 184.921 15.2341 184.747 15.3187C180.99 17.2484 178.072 20.9101 176.732 24.8722C176.231 26.46 175.965 28.0946 175.747 29.7411C175.845 29.7447 175.943 29.7482 176.043 29.7519C177.669 29.8283 179.281 30.0249 180.897 30.2168C181.148 30.2465 181.398 30.276 181.649 30.3055C184.065 30.5894 186.476 30.903 188.885 31.238C196.57 32.306 204.246 32.903 212 33.108C212 34.2932 212 35.4783 212 36.6994C208.528 36.7488 205.121 36.5046 201.679 36.0564C201.536 36.0378 201.392 36.0193 201.244 36.0001C201.12 35.9835 200.995 35.9668 200.866 35.9496C200.521 35.9143 200.187 35.9074 199.841 35.9138C199.81 36.0061 199.78 36.0984 199.749 36.1935C199.308 37.4455 198.735 38.3938 197.539 39.0361C195.934 39.774 194.003 39.7812 192.312 39.3013C192.066 39.1996 191.849 39.0843 191.622 38.944C191.507 38.8828 191.507 38.8828 191.39 38.8204C190.415 38.2204 189.99 37.0343 189.729 35.9699C189.629 35.4514 189.548 34.932 189.474 34.4092C189.455 34.2699 189.435 34.1307 189.415 33.9872C189.4 33.8823 189.385 33.7773 189.37 33.6692C184.879 32.4866 180.322 31.6493 175.747 30.8634C176.008 35.3793 177.138 39.6251 180.561 42.833C180.701 42.9843 180.701 42.9843 180.701 43.2087C180.797 43.2502 180.797 43.2502 180.895 43.2925C181.194 43.4564 181.399 43.6531 181.644 43.8891C182.324 44.5082 183.064 44.9887 183.853 45.4533C183.953 45.5122 183.953 45.5122 184.054 45.5722C185.209 46.2447 186.419 46.7035 187.681 47.1368C187.681 47.1738 187.681 47.2109 187.681 47.249C179.396 47.249 171.111 47.249 162.575 47.249C162.932 47.0117 163.264 46.882 163.665 46.73C167.627 45.1811 170.725 42.3613 172.461 38.474C172.761 37.7853 172.987 37.0948 173.158 36.3627C171.172 36.1553 169.182 36.017 167.19 35.8815C166.726 35.8499 166.261 35.8175 165.796 35.7849C165.433 35.7595 165.069 35.7346 164.705 35.7099C164.533 35.6981 164.362 35.6862 164.191 35.6741C163.125 35.5992 162.068 35.5616 160.998 35.5771C160.972 35.6776 160.946 35.778 160.918 35.8816C160.564 37.1928 159.934 38.2479 158.754 38.9642C157.148 39.8205 155.116 39.7708 153.398 39.2802C152.351 38.8842 151.789 38.3663 151.288 37.3728C150.684 35.9656 150.64 34.7641 150.64 33.2202C158.108 33.2202 165.576 33.2202 173.27 33.2202C173.27 32.3314 173.27 31.4425 173.27 30.5267C163.132 29.3225 152.976 28.5157 137.018 28.5066C136.999 28.6999 136.981 28.8933 136.962 29.0867C136.952 29.1944 136.942 29.3021 136.931 29.4131C136.573 33.8525 137.764 38.3904 140.669 41.8287C141.051 42.2663 141.449 42.6849 141.859 43.0965C141.954 43.1933 142.05 43.2901 142.149 43.3898C144.008 45.1694 146.32 46.2946 148.727 47.1368C148.727 47.1738 148.727 47.2109 148.727 47.249C141.667 47.249 134.608 47.249 127.335 47.249C127.335 48.5453 127.335 49.8415 127.335 51.1771C127.967 51.1771 128.598 51.1771 129.249 51.1771C129.249 52.3252 129.249 53.4733 129.249 54.6562C128.617 54.6562 127.986 54.6562 127.335 54.6562C127.346 55.2214 127.358 55.7865 127.371 56.3516C127.375 56.5437 127.379 56.7358 127.383 56.928C127.388 57.2046 127.394 57.4813 127.401 57.7579C127.402 57.8434 127.404 57.9289 127.405 58.0169C127.418 58.4731 127.44 58.8587 127.673 59.2577C128.225 59.5669 128.225 59.5669 129.362 59.5943C129.362 60.7425 129.362 61.8906 129.362 63.0735C124.402 63.6376 124.402 63.6376 122.606 62.4001C121.989 61.8306 121.781 61.1937 121.706 60.38C121.691 59.937 121.693 59.4944 121.695 59.0512C121.695 58.9252 121.695 58.7993 121.695 58.6696C121.696 58.2694 121.697 57.8692 121.699 57.469C121.699 57.1968 121.7 56.9246 121.7 56.6525C121.702 55.987 121.703 55.3216 121.706 54.6562C121.074 54.6562 120.443 54.6562 119.792 54.6562C119.792 53.5081 119.792 52.36 119.792 51.1771C120.423 51.1771 121.055 51.1771 121.706 51.1771C121.706 49.8808 121.706 48.5846 121.706 47.249C122.235 47.2467 122.765 47.2444 123.31 47.242C124.821 47.2086 126.075 46.9916 127.448 46.3512C127.529 46.3148 127.61 46.2783 127.694 46.2408C130.587 44.9354 133.004 42.9402 134.203 39.9541C135.006 37.7202 135.123 35.0191 134.315 32.7713C134.275 32.6527 134.234 32.5341 134.192 32.4118C133.716 31.1584 132.664 29.2547 131.388 28.6188C131.102 28.6062 130.82 28.6004 130.534 28.6C130.4 28.5993 130.4 28.5993 130.264 28.5985C129.966 28.5974 129.667 28.5974 129.369 28.5978C129.265 28.5978 129.161 28.5978 129.055 28.5979C120.879 28.6088 112.562 29.1745 104.593 31.0879C107.39 34.7908 114.074 35.1917 118.327 35.8363C122.221 36.4271 122.221 36.4271 123.162 37.3657C123.408 37.8401 123.428 38.1581 123.275 38.6704C122.887 39.3561 122.414 39.6669 121.672 39.8785C120.542 40.1592 119.412 40.2187 118.251 40.2136C118.103 40.213 117.955 40.2125 117.803 40.2119C115.766 40.1875 113.555 39.9891 112.023 38.4951C111.01 37.3667 111.01 37.3667 111.01 36.5872C110.889 36.604 110.767 36.6209 110.642 36.6383C109.497 36.7972 108.353 36.9558 107.208 37.1139C106.619 37.1953 106.031 37.2767 105.442 37.3585C104.875 37.4374 104.307 37.516 103.739 37.5943C103.522 37.6242 103.305 37.6543 103.089 37.6845C102.785 37.7268 102.482 37.7686 102.178 37.8103C102.089 37.8229 101.999 37.8355 101.907 37.8484C101.486 37.9058 101.077 37.9488 100.652 37.9339C101.284 39.8126 102.138 41.499 103.467 42.9843C103.519 43.0521 103.571 43.12 103.625 43.1899C105.16 45.1763 107.885 46.4075 110.222 47.1368C110.222 47.1738 110.222 47.2109 110.222 47.249C104.463 47.249 98.7044 47.249 92.7711 47.249C92.7711 48.5453 92.7711 49.8415 92.7711 51.1771C93.4027 51.1771 94.0343 51.1771 94.6851 51.1771C94.6851 52.3252 94.6851 53.4733 94.6851 54.6562C94.0535 54.6562 93.4219 54.6562 92.7711 54.6562C92.7795 55.2013 92.7888 55.7463 92.8007 56.2913C92.8044 56.4765 92.8075 56.6616 92.8101 56.8468C92.8139 57.114 92.8198 57.3811 92.8261 57.6483C92.8268 57.7302 92.8275 57.812 92.8283 57.8964C92.8443 58.4605 92.9492 58.8714 93.2215 59.3699C93.6967 59.5421 93.6967 59.5421 94.7977 59.5943C94.7977 60.7425 94.7977 61.8906 94.7977 63.0735C94.447 63.1105 94.0964 63.1476 93.7351 63.1857C93.6268 63.1974 93.5185 63.2092 93.4068 63.2212C91.6991 63.3963 89.4446 63.4279 87.9862 62.3791C87.0892 61.3732 87.1244 60.1403 87.1308 58.8648C87.131 58.7441 87.1311 58.6233 87.1313 58.4988C87.1319 58.1158 87.1333 57.7328 87.1348 57.3497C87.1353 57.0889 87.1358 56.828 87.1363 56.5672C87.1375 55.9302 87.1395 55.2932 87.1418 54.6562C86.5102 54.6562 85.8786 54.6562 85.2278 54.6562C85.2278 53.5081 85.2278 52.36 85.2278 51.1771C85.8594 51.1771 86.491 51.1771 87.1418 51.1771C87.1418 49.8808 87.1418 48.5846 87.1418 47.249C87.8245 47.2456 87.8245 47.2456 88.521 47.242C89.9579 47.2031 91.1341 46.9542 92.4333 46.3512C92.5329 46.305 92.6325 46.2589 92.7351 46.2114C95.5959 44.8554 98.0593 42.8823 99.1885 39.8418C99.8966 37.6692 100.262 34.6872 99.1885 32.5469C97.8985 32.8349 96.6466 33.2463 95.3887 33.6481C95.2164 33.703 95.2164 33.703 95.0406 33.7589C92.9036 34.4398 90.7831 35.1636 88.6705 35.9162C88.2376 36.0703 87.8036 36.2194 87.367 36.3627C87.367 36.2886 87.367 36.2145 87.367 36.1382C91.0375 34.3423 94.8496 32.9005 98.7382 31.649C97.6627 29.3886 95.6231 27.6611 93.3055 26.7442C90.3697 25.7311 87.2359 25.3962 84.1699 25.0033C83.2463 24.8847 82.3235 24.762 81.4021 24.6276C81.3103 24.6146 81.2185 24.6015 81.1239 24.5881C80.1122 24.4377 79.203 24.2029 78.4726 23.4562C78.1859 23.0664 78.1903 22.6939 78.2475 22.2217C78.7455 21.4305 79.4528 21.1531 80.3303 20.903C82.6281 20.4166 85.0104 20.6899 87.0292 21.885C87.4474 22.1827 87.7314 22.4871 88.0214 22.9091C88.0894 23.0066 88.1575 23.1041 88.2276 23.2046C88.3802 23.4562 88.3802 23.4562 88.3802 23.6807C89.6056 23.4486 90.8309 23.2165 92.0561 22.9841C92.625 22.8762 93.194 22.7684 93.7629 22.6607C94.3119 22.5567 94.8609 22.4526 95.4098 22.3485C95.6193 22.3087 95.8289 22.2691 96.0384 22.2294C96.3317 22.1739 96.625 22.1183 96.9182 22.0626C97.005 22.0462 97.0918 22.0298 97.1813 22.0129C97.5531 21.9422 97.9213 21.8666 98.2878 21.7728C97.5396 20.0758 96.6771 18.6183 95.3606 17.2836C95.2779 17.1996 95.1951 17.1157 95.1099 17.0293C92.2833 14.3341 87.9894 13.2415 84.1706 13.2205C84.0739 13.2197 83.9771 13.2189 83.8775 13.2181C83.5676 13.2161 83.2578 13.2154 82.948 13.2152C82.8421 13.2151 82.7362 13.2151 82.6272 13.215C81.0716 13.2168 79.5482 13.2478 78.0223 13.58C77.885 13.6097 77.885 13.6097 77.7448 13.6401C74.2886 14.4192 70.7817 16.0665 68.7718 19.1117C68.0834 20.2445 67.5386 21.4684 67.3266 22.7828C67.3141 22.8591 67.3016 22.9353 67.2888 23.0139C66.9213 25.7118 67.5804 28.3036 69.128 30.5267C69.1974 30.6271 69.2667 30.7275 69.3382 30.831C72.3054 34.8197 79.1462 35.2016 83.6431 35.8918C87.3186 36.4624 87.3186 36.4624 88.112 37.3526C88.3864 37.7837 88.3481 38.2276 88.2677 38.7195C87.8262 39.486 87.1682 39.7 86.348 39.944C83.7291 40.5574 80.113 40.5095 77.7597 39.1264C77.0126 38.6023 76.3281 37.8935 75.9957 37.0361C75.9957 36.8879 75.9957 36.7398 75.9957 36.5872C74.7283 36.7606 73.4609 36.9342 72.1936 37.1081C71.6051 37.1889 71.0166 37.2695 70.4281 37.35C69.8601 37.4278 69.2922 37.5056 68.7243 37.5836C68.5076 37.6134 68.2909 37.643 68.0742 37.6726C67.7707 37.7141 67.4673 37.7558 67.1638 37.7975C67.0742 37.8097 66.9847 37.8219 66.8924 37.8345C66.4711 37.8927 66.0536 37.9567 65.6378 38.0461C67.0558 41.8208 69.3409 44.6277 73.0474 46.3275C73.7561 46.6366 74.4689 46.9083 75.2076 47.1368C75.2076 47.1738 75.2076 47.2109 75.2076 47.249C67.6283 47.249 60.049 47.249 52.24 47.249C52.5103 47.0694 52.7234 46.9558 53.0193 46.8378C53.1061 46.8027 53.1929 46.7675 53.2823 46.7313C53.3749 46.6938 53.4675 46.6564 53.5629 46.6177C57.8777 44.8304 61.1799 41.6676 63.0202 37.3447C64.7846 33.0259 64.7407 27.7943 62.9406 23.4998C61.1462 19.4059 57.8913 16.1767 53.7133 14.5243C52.8424 14.1949 51.9553 13.9408 51.0508 13.7202C50.9155 13.6868 50.9155 13.6868 50.7775 13.6527C49.165 13.279 47.5619 13.2009 45.9141 13.2082C45.8177 13.2084 45.7214 13.2086 45.6221 13.2088C44.1653 13.214 42.7467 13.2655 41.3192 13.58C41.2313 13.5986 41.1434 13.6173 41.0528 13.6365C37.0513 14.5116 33.3257 16.6897 30.8486 19.9771C30.7809 20.0666 30.7131 20.1562 30.6433 20.2485C27.835 24.1047 26.8907 28.8746 27.5836 33.5569C27.9117 35.5181 28.5512 37.3105 29.4976 39.0562C29.5628 39.1767 29.6279 39.2972 29.6951 39.4214C30.4689 40.7941 31.4537 41.9625 32.5374 43.0965C32.6181 43.1842 32.6988 43.2718 32.782 43.3622C34.5191 45.1914 36.8143 46.3366 39.18 47.1368C39.18 47.1738 39.18 47.2109 39.18 47.249C32.0466 47.249 24.9131 47.249 17.5635 47.249C17.5635 38.99 17.5635 30.731 17.5635 22.2217C20.3871 22.2217 23.2108 22.2217 26.12 22.2217C26.12 19.444 26.12 16.6663 26.12 13.8044C23.2592 13.8044 20.3984 13.8044 17.4509 13.8044C17.4509 10.6212 17.4509 10.6212 18.4712 9.51161C20.6564 8.21391 23.6291 8.75531 26.0074 9.09075C26.1746 9.1463 26.1746 9.1463 26.3452 9.20298C26.3452 6.38825 26.3452 3.57351 26.3452 0.673483C23.7595 0.355142 23.7595 0.355142 21.1662 0.112332C21.1662 0.0752963 21.1662 0.0382604 21.1662 0.00010208ZM113.037 13.4677C112.945 13.4876 112.854 13.5074 112.759 13.5279C109.123 14.3476 105.655 16.1117 103.565 19.3107C102.896 20.4328 102.384 21.7052 102.228 23.0073C102.213 23.1298 102.198 23.2524 102.183 23.3786C101.947 25.8785 102.556 28.04 103.805 30.19C104.431 30.1211 105.031 30.0148 105.644 29.8696C105.826 29.8273 106.009 29.7851 106.191 29.743C106.286 29.7209 106.381 29.6989 106.479 29.6761C113.983 27.9408 121.562 27.3067 129.249 27.1598C126.7 25.1485 121.657 25.1666 118.523 24.7846C118.442 24.7746 118.36 24.7646 118.276 24.7543C117.895 24.7083 117.515 24.6638 117.135 24.6212C114.483 24.3132 114.483 24.3132 113.6 23.4562C113.39 23.0398 113.315 22.6901 113.391 22.2208C113.627 21.6724 114.245 21.4305 114.769 21.2116C116.505 20.6006 118.721 20.6697 120.467 21.2116C120.568 21.2416 120.669 21.2715 120.773 21.3024C122.015 21.7309 122.829 22.5875 123.507 23.6807C124.536 23.6013 125.538 23.4111 126.55 23.2177C126.734 23.1829 126.918 23.1481 127.102 23.1133C127.486 23.0408 127.869 22.968 128.253 22.8948C128.744 22.8012 129.235 22.7081 129.727 22.6152C130.197 22.5263 130.667 22.4371 131.138 22.3479C131.227 22.331 131.316 22.3141 131.408 22.2966C131.661 22.2487 131.914 22.2006 132.166 22.1524C132.31 22.1251 132.454 22.0978 132.602 22.0696C132.875 22.015 133.145 21.9564 133.415 21.885C133.007 20.3669 132.109 18.9927 131.05 17.8447C131 17.7898 130.95 17.7348 130.898 17.6782C130.096 16.813 129.246 16.1089 128.236 15.4879C128.113 15.4119 127.99 15.336 127.863 15.2577C125.301 13.7551 122.135 13.1245 119.185 13.1082C119.04 13.1071 119.04 13.1071 118.892 13.1059C118.582 13.1039 118.272 13.1032 117.962 13.103C117.856 13.1029 117.751 13.1028 117.641 13.1028C116.086 13.1045 114.563 13.1356 113.037 13.4677ZM150.753 13.4677C150.665 13.4876 150.576 13.5074 150.485 13.5279C145.888 14.5808 141.998 17.2017 139.465 21.2124C138.427 22.9205 137.622 24.7737 137.235 26.7388C137.215 26.839 137.196 26.9391 137.175 27.0423C137.16 27.1181 137.145 27.1939 137.13 27.272C137.225 27.2758 137.225 27.2758 137.323 27.2795C148.58 27.7218 159.838 28.4312 173.27 29.5166C173.159 28.3125 173.035 27.1353 172.736 25.9604C172.706 25.8414 172.676 25.7225 172.646 25.6C171.56 21.3759 168.925 17.7835 165.173 15.5108C162.55 13.9967 159.45 13.1261 156.415 13.1082C156.325 13.1075 156.235 13.1067 156.143 13.1059C155.854 13.1039 155.566 13.1032 155.278 13.103C155.179 13.1029 155.081 13.1028 154.979 13.1028C153.545 13.1045 152.155 13.1416 150.753 13.4677Z" fill="#FF6500"/>
<path d="M0 63.8589C69.96 63.8589 139.92 63.8589 212 63.8589C212 64.5255 212 65.1922 212 65.879C142.04 65.879 72.08 65.879 0 65.879C0 65.2124 0 64.5457 0 63.8589Z" fill="#FF6600"/>
<path d="M0 22.2217C1.70906 22.2217 3.41812 22.2217 5.17897 22.2217C5.17897 30.4807 5.17897 38.7397 5.17897 47.249C5.29043 47.249 5.40189 47.249 5.51673 47.249C5.55388 48.6934 5.59104 50.1378 5.62931 51.626C6.11231 51.4038 6.5953 51.1816 7.09294 50.9526C9.21886 50.2846 11.5994 50.3037 13.6229 51.2893C14.2251 51.6282 14.7344 52.0104 15.1992 52.5238C15.2533 52.58 15.3074 52.6361 15.3632 52.6939C16.6078 54.0383 16.8588 55.7422 16.8066 57.5084C16.7218 59.2116 16.074 60.6549 14.8161 61.8218C12.986 63.3334 10.8329 63.4249 8.55656 63.2979C7.39081 63.1644 6.3955 62.6567 5.40414 62.0634C5.36699 62.3967 5.32984 62.7301 5.29156 63.0735C3.54534 63.0735 1.79913 63.0735 0 63.0735C0 49.5924 0 36.1113 0 22.2217ZM6.07966 55.2033C5.50469 55.9383 5.41615 56.6605 5.51673 57.5742C5.71217 58.3208 6.09506 58.8535 6.75518 59.2577C7.5627 59.6399 8.31695 59.7111 9.17578 59.4751C9.89127 59.2123 10.4003 58.7568 10.8083 58.1213C11.0862 57.3102 11.0408 56.3853 10.6887 55.6102C10.3164 54.9663 9.87923 54.6662 9.19689 54.3967C8.01828 54.1776 6.93087 54.2863 6.07966 55.2033Z" fill="white"/>
<path d="M58.3408 52.6849C59.8349 54.2454 60.1211 56.1501 60.1211 58.2473C56.2571 58.2473 52.3931 58.2473 48.4121 58.2473C48.7347 59.1049 48.881 59.4073 49.6233 59.815C50.7842 60.3051 52.3391 60.184 53.482 59.7251C53.738 59.5953 53.738 59.5953 53.9288 59.2574C54.1867 59.2169 54.1867 59.2169 54.5125 59.2191C54.695 59.2192 54.695 59.2192 54.8813 59.2192C55.0131 59.221 55.1449 59.2227 55.2807 59.2245C55.4154 59.225 55.55 59.2254 55.6887 59.2259C56.1201 59.2278 56.5514 59.2321 56.9827 59.2363C57.2746 59.238 57.5665 59.2396 57.8583 59.2409C58.5751 59.2447 59.2918 59.2503 60.0085 59.2574C59.8535 60.3086 59.1963 61.0672 58.3905 61.74C56.3327 63.2061 53.7833 63.4583 51.3253 63.452C51.239 63.452 51.1528 63.4519 51.064 63.4519C49.69 63.4481 48.3838 63.3615 47.0611 62.961C46.8529 62.898 46.8529 62.898 46.6406 62.8338C45.144 62.3148 43.8256 61.3151 43.044 59.9251C42.23 58.1124 42.2517 56.1771 42.8954 54.3192C43.6528 52.7203 44.9801 51.6793 46.6195 51.0633C46.7281 51.0266 46.8366 50.99 46.9485 50.9523C47.0454 50.9192 47.1424 50.8861 47.2423 50.8519C50.7702 49.8203 55.5459 50.1575 58.3408 52.6849ZM48.588 54.5928C48.2946 54.9363 48.2849 55.0656 48.1869 55.5538C50.2304 55.5538 52.2738 55.5538 54.3792 55.5538C54.2581 54.8296 54.1317 54.5574 53.5911 54.0948C52.1005 53.2139 49.8097 53.2621 48.588 54.5928Z" fill="white"/>
<path d="M170.396 52.4227C171.617 53.5726 172.244 55.035 172.482 56.6765C172.482 57.195 172.482 57.7135 172.482 58.2477C168.618 58.2477 164.754 58.2477 160.773 58.2477C161.096 59.1053 161.242 59.4077 161.984 59.8154C163.038 60.2602 164.582 60.2166 165.645 59.8242C165.858 59.709 165.858 59.709 166.039 59.4781C166.35 59.2051 166.49 59.203 166.899 59.2068C167.021 59.2068 167.143 59.2069 167.268 59.2069C167.399 59.2092 167.529 59.2115 167.664 59.2139C167.798 59.2146 167.932 59.2152 168.071 59.2159C168.5 59.2184 168.929 59.224 169.358 59.2297C169.649 59.232 169.94 59.234 170.23 59.2359C170.944 59.2408 171.657 59.2483 172.37 59.2578C172.164 60.385 171.429 61.2838 170.502 61.9298C167.626 63.7171 163.379 63.9078 160.128 63.1599C159.891 63.0989 159.656 63.0323 159.422 62.9614C159.214 62.8984 159.214 62.8984 159.002 62.8342C157.527 62.3227 156.185 61.3483 155.439 59.9592C154.6 58.1212 154.603 56.2068 155.256 54.3196C156.014 52.7207 157.341 51.6797 158.981 51.0637C159.089 51.027 159.198 50.9904 159.31 50.9527C159.407 50.9196 159.503 50.8865 159.603 50.8523C162.952 49.873 167.661 50.1059 170.396 52.4227ZM160.949 54.5932C160.656 54.9367 160.646 55.066 160.548 55.5542C162.591 55.5542 164.635 55.5542 166.74 55.5542C166.619 54.83 166.493 54.5578 165.952 54.0952C164.462 53.2143 162.171 53.2625 160.949 54.5932Z" fill="white"/>
<path d="M47.8276 21.6398C48.9113 22.2232 49.4251 23.2696 49.7772 24.4074C50.7752 28.4134 51.0514 34.5764 49.2002 38.3827C48.6923 39.2231 48.0761 39.7634 47.1437 40.078C45.9971 40.3518 44.7276 40.3041 43.6835 39.7295C42.4694 38.9081 42.0068 37.7391 41.7193 36.3433C40.982 32.4516 40.5339 26.5758 42.5576 23.0072C43.7902 21.3101 45.8869 20.7863 47.8276 21.6398Z" fill="#FF6500"/>
<path d="M0 22.2217C1.70906 22.2217 3.41812 22.2217 5.17897 22.2217C5.17897 30.4807 5.17897 38.7397 5.17897 47.249C3.46991 47.249 1.76085 47.249 0 47.249C0 38.99 0 30.731 0 22.2217Z" fill="#FF6600"/>
<path d="M121.706 47.249C123.563 47.249 125.421 47.249 127.335 47.249C127.335 48.5453 127.335 49.8415 127.335 51.1771C127.967 51.1771 128.598 51.1771 129.249 51.1771C129.249 52.3252 129.249 53.4733 129.249 54.6562C128.617 54.6562 127.986 54.6562 127.335 54.6562C127.346 55.2214 127.358 55.7865 127.371 56.3516C127.375 56.5437 127.379 56.7358 127.383 56.928C127.388 57.2046 127.394 57.4813 127.401 57.7579C127.402 57.8434 127.404 57.9289 127.405 58.0169C127.418 58.4731 127.44 58.8587 127.673 59.2577C128.225 59.5669 128.225 59.5669 129.362 59.5943C129.362 60.7425 129.362 61.8906 129.362 63.0735C124.402 63.6376 124.402 63.6376 122.606 62.4001C121.989 61.8306 121.781 61.1937 121.706 60.38C121.691 59.937 121.693 59.4944 121.695 59.0512C121.695 58.9252 121.695 58.7993 121.695 58.6696C121.696 58.2694 121.697 57.8692 121.699 57.469C121.699 57.1968 121.7 56.9246 121.7 56.6525C121.702 55.987 121.703 55.3216 121.706 54.6562C121.074 54.6562 120.443 54.6562 119.792 54.6562C119.792 53.5081 119.792 52.36 119.792 51.1771C120.423 51.1771 121.055 51.1771 121.706 51.1771C121.706 49.8808 121.706 48.5846 121.706 47.249Z" fill="white"/>
<path d="M87.1418 47.249C88.9995 47.249 90.8572 47.249 92.7711 47.249C92.7711 48.5453 92.7711 49.8415 92.7711 51.1771C93.4027 51.1771 94.0343 51.1771 94.6851 51.1771C94.6851 52.3252 94.6851 53.4733 94.6851 54.6562C94.0535 54.6562 93.4219 54.6562 92.7711 54.6562C92.7795 55.2013 92.7888 55.7463 92.8007 56.2913C92.8044 56.4764 92.8076 56.6616 92.8101 56.8468C92.8139 57.114 92.8198 57.3811 92.8261 57.6483C92.8268 57.7302 92.8275 57.812 92.8283 57.8964C92.8443 58.4605 92.9493 58.8714 93.2215 59.3699C93.6968 59.5421 93.6968 59.5421 94.7977 59.5943C94.7977 60.7425 94.7977 61.8906 94.7977 63.0735C94.447 63.1105 94.0964 63.1476 93.7351 63.1857C93.6268 63.1974 93.5185 63.2092 93.4069 63.2212C91.6991 63.3963 89.4447 63.4279 87.9862 62.3791C87.0892 61.3732 87.1244 60.1403 87.1308 58.8649C87.131 58.7441 87.1311 58.6233 87.1313 58.4988C87.1319 58.1158 87.1333 57.7328 87.1348 57.3497C87.1353 57.0889 87.1359 56.828 87.1363 56.5672C87.1376 55.9302 87.1395 55.2932 87.1418 54.6562C86.5102 54.6562 85.8786 54.6562 85.2278 54.6562C85.2278 53.5081 85.2278 52.36 85.2278 51.1771C85.8595 51.1771 86.4911 51.1771 87.1418 51.1771C87.1418 49.8808 87.1418 48.5846 87.1418 47.249Z" fill="white"/>
<path d="M210.691 51.3101C211.718 52.4065 211.943 53.7229 211.909 55.175C211.902 55.5963 211.895 56.0175 211.887 56.4516C210.29 56.4516 208.692 56.4516 207.046 56.4516C206.935 56.0072 206.823 55.5627 206.708 55.1048C206.333 54.6557 206.333 54.6557 206.033 54.5963C205.65 54.6023 205.42 54.6165 205.09 54.8243C204.549 55.6533 204.643 56.6866 204.635 57.637C204.633 57.7943 204.631 57.9515 204.629 58.1087C204.623 58.5198 204.618 58.9309 204.614 59.3419C204.61 59.7625 204.604 60.1831 204.598 60.6037C204.587 61.4268 204.578 62.25 204.569 63.0732C202.712 63.0732 200.854 63.0732 198.94 63.0732C198.94 59.0363 198.94 54.9993 198.94 50.8401C200.761 50.8401 202.581 50.8401 204.457 50.8401C204.457 51.0993 204.457 51.3586 204.457 51.6257C204.517 51.581 204.577 51.5363 204.639 51.4902C206.321 50.2977 208.954 50.0396 210.691 51.3101Z" fill="white"/>
<path d="M0 0C5.12718 0 10.2544 0 15.5369 0C15.5369 0.037036 15.5369 0.0740719 15.5369 0.11223C15.4445 0.123121 15.4445 0.123121 15.3502 0.134232C12.7684 0.447314 10.3046 1.00596 8.33139 2.80576C8.25461 2.87202 8.17784 2.93827 8.09874 3.00654C5.63946 5.26135 5.38711 8.50156 5.25285 11.622C5.22348 12.3493 5.20178 13.0766 5.17897 13.8043C3.46991 13.8043 1.76085 13.8043 0 13.8043C0 9.24889 0 4.69347 0 0Z" fill="#FF6500"/>
<path d="M31.9745 67.1138C33.0148 67.1138 34.0551 67.1138 35.1269 67.1138C35.1269 70.6692 35.1269 74.2247 35.1269 77.8879C34.1238 77.8879 33.1206 77.8879 32.0871 77.8879C32.05 77.6657 32.0128 77.4434 31.9745 77.2145C31.9215 77.2618 31.8686 77.3091 31.814 77.3578C31.7439 77.4193 31.6738 77.4808 31.6016 77.5442C31.5323 77.6054 31.4631 77.6666 31.3918 77.7296C30.7906 78.1929 29.8792 78.0623 29.1599 78.0001C28.4334 77.7983 27.9161 77.4243 27.4988 76.7998C27.0919 76.0495 26.8343 75.2614 26.7955 74.4087C26.7897 74.3182 26.7839 74.2276 26.778 74.1343C26.7323 72.8335 26.9655 71.5083 27.8088 70.4807C28.5859 69.7385 29.3357 69.5302 30.4001 69.546C30.9872 69.6104 31.4408 69.8364 31.8619 70.2562C31.8991 69.2192 31.9362 68.1822 31.9745 67.1138ZM30.3983 72.0519C30.0883 73.0709 29.9173 74.4129 30.3561 75.4188C30.5954 75.7735 30.5954 75.7735 30.9542 75.9028C31.3211 75.8969 31.3211 75.8969 31.6157 75.6152C32.0774 75.0366 31.9952 74.4564 31.9956 73.7494C31.9977 73.5821 31.9977 73.5821 31.9998 73.4114C32 73.3033 32.0002 73.1952 32.0005 73.0839C32.0009 72.9855 32.0014 72.8872 32.0019 72.7858C31.9708 72.4625 31.8973 72.2288 31.7493 71.9397C31.2441 71.6039 30.8218 71.5861 30.3983 72.0519Z" fill="white"/>
<path d="M109.863 69.6598C109.978 69.658 110.092 69.6562 110.21 69.6543C111.227 69.6537 112.281 69.7776 113.1 70.43C113.867 71.2027 113.842 72.177 113.856 73.1946C113.859 73.3039 113.861 73.4132 113.863 73.5258C113.869 73.8738 113.875 74.2218 113.881 74.5699C113.889 75.028 113.897 75.4861 113.906 75.9442C113.907 76.0485 113.909 76.1528 113.91 76.2603C113.912 76.3592 113.914 76.4581 113.916 76.5599C113.917 76.6459 113.919 76.7318 113.92 76.8204C113.942 77.1781 113.999 77.5329 114.05 77.8877C113.01 77.8877 111.969 77.8877 110.898 77.8877C110.842 77.4988 110.842 77.4988 110.785 77.102C110.726 77.1481 110.668 77.1941 110.608 77.2415C110.529 77.3019 110.451 77.3624 110.37 77.4247C110.293 77.4846 110.216 77.5445 110.136 77.6062C109.3 78.1678 108.267 78.1079 107.295 77.9999C106.479 77.7794 106.021 77.3738 105.606 76.6531C105.391 76.0094 105.364 75.2311 105.587 74.5856C106.119 73.669 106.957 73.2275 107.945 72.9285C108.847 72.7019 109.743 72.5765 110.672 72.6128C110.563 72.1869 110.563 72.1869 110.335 71.8272C109.809 71.769 109.357 71.719 108.92 72.0377C108.756 72.2679 108.756 72.2679 108.646 72.5006C107.658 72.5364 106.696 72.4014 105.719 72.2761C105.799 71.5261 105.974 71.1213 106.507 70.5927C107.564 69.7958 108.573 69.6557 109.863 69.6598ZM109.047 74.7312C108.84 75.0118 108.767 75.1819 108.758 75.5308C108.918 75.8492 109.028 75.9547 109.364 76.0779C109.799 76.0986 110.084 75.9806 110.419 75.7062C110.682 75.3786 110.685 75.0695 110.679 74.6681C110.678 74.5773 110.677 74.4866 110.676 74.3932C110.675 74.3242 110.674 74.2552 110.672 74.1841C110.044 74.1841 109.547 74.3476 109.047 74.7312Z" fill="white"/>
<path d="M53.8162 69.8071C54.8937 69.8071 55.9711 69.8071 57.0812 69.8071C57.0881 70.2109 57.0949 70.6147 57.1019 71.0307C57.1089 71.42 57.116 71.8092 57.1232 72.1985C57.1281 72.4699 57.1327 72.7413 57.1372 73.0127C57.1437 73.4018 57.1509 73.791 57.1582 74.1802C57.1601 74.3023 57.162 74.4245 57.1639 74.5504C57.1662 74.6627 57.1684 74.775 57.1707 74.8908C57.1733 75.0399 57.1733 75.0399 57.176 75.1921C57.169 75.4182 57.169 75.4182 57.3064 75.5309C57.7665 75.5805 57.7665 75.5805 58.1698 75.3941C58.3634 75.1359 58.3642 74.9821 58.3684 74.6614C58.3706 74.5536 58.3728 74.4458 58.3751 74.3347C58.3758 74.2186 58.3766 74.1025 58.3773 73.9829C58.3793 73.8638 58.3813 73.7447 58.3834 73.622C58.3895 73.2412 58.3933 72.8604 58.3971 72.4796C58.4008 72.2216 58.4047 71.9636 58.4088 71.7056C58.4186 71.0728 58.4254 70.44 58.4323 69.8071C59.5097 69.8071 60.5872 69.8071 61.6973 69.8071C61.6973 72.4737 61.6973 75.1403 61.6973 77.8877C60.6941 77.8877 59.691 77.8877 58.6575 77.8877C58.6017 77.4988 58.6017 77.4988 58.5449 77.1021C58.4945 77.1481 58.4441 77.1941 58.3923 77.2415C58.3242 77.302 58.2561 77.3624 58.186 77.4248C58.1194 77.4846 58.0528 77.5445 57.9841 77.6063C57.2296 78.1678 56.2864 78.0705 55.3925 77.9999C54.7518 77.8426 54.3929 77.503 54.0313 76.9653C53.8136 76.5405 53.8024 76.1397 53.8035 75.668C53.8035 75.5377 53.8035 75.4074 53.8035 75.2732C53.8041 75.1331 53.8046 74.993 53.8052 74.8487C53.8054 74.7049 53.8056 74.561 53.8057 74.4128C53.8062 74.0313 53.8073 73.6497 53.8085 73.2682C53.8097 72.8785 53.8102 72.4888 53.8107 72.0991C53.8119 71.3351 53.8141 70.5711 53.8162 69.8071Z" fill="white"/>
<path d="M210.839 69.9407C211.31 70.2201 211.665 70.4791 211.84 71.0185C212.021 71.7656 212.029 72.4861 212.022 73.2519C212.022 73.385 212.021 73.5181 212.021 73.6552C212.02 74.0771 212.017 74.499 212.014 74.9209C212.013 75.2083 212.012 75.4956 212.011 75.783C212.009 76.4847 212.004 77.1863 212 77.888C210.923 77.888 209.845 77.888 208.735 77.888C208.729 77.4949 208.724 77.1018 208.718 76.6968C208.712 76.3169 208.706 75.9369 208.699 75.5569C208.695 75.2925 208.691 75.0281 208.687 74.7636C208.682 74.3839 208.676 74.0042 208.669 73.6245C208.668 73.506 208.666 73.3874 208.665 73.2653C208.663 73.1552 208.661 73.0451 208.658 72.9317C208.657 72.8348 208.655 72.7378 208.654 72.638C208.637 72.3566 208.637 72.3566 208.397 72.052C208.137 72.089 207.877 72.1261 207.609 72.1642C207.352 72.7812 207.345 73.3512 207.337 74.0081C207.335 74.1193 207.333 74.2304 207.331 74.3449C207.324 74.6982 207.319 75.0516 207.314 75.4049C207.309 75.6451 207.305 75.8854 207.3 76.1256C207.289 76.7131 207.28 77.3005 207.271 77.888C206.231 77.888 205.191 77.888 204.119 77.888C204.119 75.2214 204.119 72.5548 204.119 69.8074C205.085 69.8074 206.051 69.8074 207.046 69.8074C207.083 70.0666 207.121 70.3259 207.159 70.593C207.234 70.524 207.234 70.524 207.311 70.4536C207.379 70.3931 207.448 70.3327 207.518 70.2703C207.584 70.2105 207.651 70.1506 207.72 70.0888C208.569 69.4568 209.909 69.502 210.839 69.9407Z" fill="white"/>
<path d="M7.23108 70.2921C8.1605 70.9271 8.59472 71.6993 8.93219 72.755C9.03567 73.335 9.00696 73.9317 9.00696 74.5209C7.26074 74.5579 5.51453 74.5949 3.7154 74.6331C3.88259 75.1331 3.88259 75.1331 4.05316 75.6432C4.44413 75.838 4.86512 75.8229 5.29161 75.7554C5.60186 75.5106 5.79103 75.3209 5.96713 74.9698C6.98714 74.9561 7.99114 74.9878 9.00696 75.082C8.88608 76.0474 8.32859 76.7784 7.57544 77.3819C6.3165 78.2099 4.62837 78.1822 3.18589 77.9259C2.12119 77.6116 1.28144 76.9829 0.700199 76.0382C0.13488 74.8732 0.0677269 73.614 0.450398 72.3885C0.887538 71.1982 1.71053 70.4571 2.84462 69.9299C4.21787 69.3824 5.97737 69.551 7.23108 70.2921ZM3.82799 71.9396C3.75368 72.2359 3.67937 72.5321 3.60281 72.8374C4.30873 72.8374 5.01465 72.8374 5.74195 72.8374C5.7093 72.0896 5.7093 72.0896 5.38309 71.7782C4.81461 71.4634 4.31718 71.5061 3.82799 71.9396Z" fill="white"/>
<path d="M183.853 70.1437C184.937 70.9182 185.631 71.862 185.88 73.1739C186.008 74.5852 185.673 75.6504 184.803 76.7666C184.17 77.4657 183.211 77.9407 182.264 78.0197C180.713 78.0616 179.466 78.0273 178.225 76.9871C177.326 76.1038 176.976 75.0877 176.943 73.8473C176.977 72.5793 177.326 71.7336 178.207 70.8272C179.635 69.4916 182.124 69.1954 183.853 70.1437ZM180.588 72.2761C180.407 72.8126 180.451 73.3859 180.448 73.9455C180.445 74.0556 180.443 74.1657 180.441 74.2791C180.437 74.8879 180.449 75.3515 180.814 75.8675C181.185 76.0722 181.185 76.0722 181.602 76.0919C181.938 75.9545 181.938 75.9545 182.165 75.643C182.366 74.9951 182.428 74.4039 182.425 73.7281C182.427 73.6423 182.429 73.5566 182.43 73.4683C182.431 72.8766 182.337 72.4615 182.052 71.9394C181.396 71.5032 181.067 71.6925 180.588 72.2761Z" fill="white"/>
<path d="M86.2411 70.144C87.3197 70.8984 87.6676 71.6424 87.9299 72.9498C86.4809 73.0609 86.4809 73.0609 85.0027 73.1743C84.8912 72.8409 84.7797 72.5076 84.6649 72.1642C84.3428 72.0036 84.12 72.0085 83.7642 72.052C83.2825 72.5984 83.2881 73.3444 83.2949 74.0423C83.3323 74.5451 83.4372 75.0379 83.539 75.5311C83.8613 75.6019 84.1146 75.6571 84.4397 75.6433C84.9298 75.2899 84.994 75.1253 85.1152 74.521C86.0441 74.5951 86.9729 74.6692 87.9299 74.7455C87.7893 75.8668 87.5128 76.6774 86.6004 77.386C85.499 78.1238 84.2681 78.1515 82.9761 78.0002C81.8637 77.7261 81.0711 77.1693 80.464 76.2115C79.8179 75.1262 79.7567 73.8012 80.0137 72.5829C80.3808 71.4926 81.0913 70.5655 82.1044 70.0029C83.3304 69.4685 85.0849 69.4192 86.2411 70.144Z" fill="white"/>
<path d="M132.739 67.2261C133.78 67.2261 134.82 67.2261 135.892 67.2261C135.892 68.0779 135.892 68.9297 135.892 69.8074C136.412 69.8074 136.932 69.8074 137.468 69.8074C137.468 70.5111 137.468 71.2147 137.468 71.9397C136.948 71.9397 136.428 71.9397 135.892 71.9397C135.9 72.4152 135.909 72.8905 135.921 73.3659C135.925 73.5277 135.928 73.6894 135.931 73.8512C135.934 74.0836 135.94 74.3159 135.947 74.5482C135.95 74.6881 135.953 74.828 135.956 74.9721C135.98 75.1377 135.98 75.1377 136.004 75.3067C136.377 75.5546 136.493 75.5563 136.926 75.5451C137.027 75.5431 137.129 75.5411 137.233 75.539C137.311 75.5364 137.388 75.5338 137.468 75.5311C137.471 75.9029 137.473 76.2746 137.475 76.6464C137.476 76.7525 137.477 76.8586 137.478 76.968C137.478 77.0689 137.478 77.1698 137.479 77.2737C137.479 77.3672 137.48 77.4606 137.481 77.5569C137.468 77.7757 137.468 77.7757 137.355 77.8879C136.03 78.1207 134.601 78.1853 133.422 77.4601C132.772 76.7733 132.722 76.0376 132.728 75.1401C132.728 75.0485 132.729 74.957 132.729 74.8627C132.729 74.5711 132.731 74.2795 132.732 73.9879C132.733 73.7899 132.733 73.5919 132.734 73.3939C132.735 72.9092 132.737 72.4245 132.739 71.9397C132.331 71.9397 131.922 71.9397 131.501 71.9397C131.501 71.2361 131.501 70.5324 131.501 69.8074C131.909 69.8074 132.318 69.8074 132.739 69.8074C132.739 68.9555 132.739 68.1037 132.739 67.2261Z" fill="white"/>
<path d="M197.702 20.7628C197.804 20.9961 197.804 20.9961 197.909 21.3038C197.947 21.4164 197.985 21.529 198.025 21.645C198.064 21.7659 198.104 21.8868 198.145 22.0114C198.185 22.1341 198.226 22.2568 198.268 22.3833C198.728 23.806 198.936 25.0946 199.053 26.5988C195.895 26.5988 192.736 26.5988 189.483 26.5988C190.17 24.3162 191.618 23.0208 193.662 21.9206C196.876 20.3512 196.876 20.3512 197.702 20.7628Z" fill="#FF6500"/>
<path d="M211.887 37.1484C211.925 37.1484 211.962 37.1484 212 37.1484C212 40.4817 212 43.8149 212 47.2492C208.508 47.2492 205.015 47.2492 201.417 47.2492C201.719 47.0482 201.987 46.9351 202.328 46.817C204.499 46.0603 206.278 44.8963 207.947 43.3211C208.048 43.2278 208.149 43.1345 208.253 43.0383C209.962 41.4061 211.116 39.3693 211.887 37.1484Z" fill="#FF6500"/>
<path d="M158.859 20.8747C158.963 21.0664 158.963 21.0664 159.049 21.3183C159.081 21.4123 159.113 21.5062 159.146 21.603C159.179 21.7052 159.212 21.8075 159.246 21.9128C159.298 22.0701 159.298 22.0701 159.35 22.2305C159.586 22.977 159.773 23.7258 159.922 24.4941C159.94 24.5888 159.959 24.6834 159.978 24.7809C160.091 25.4133 160.098 25.9303 160.098 26.5984C156.94 26.5984 153.782 26.5984 150.528 26.5984C151.317 25.2866 151.317 25.2866 151.802 24.7326C151.855 24.6707 151.909 24.6088 151.964 24.5451C153.143 23.2064 156.86 20.2102 158.859 20.8747Z" fill="#FF6500"/>
<path d="M155.482 69.8071C156.559 69.8071 157.637 69.8071 158.747 69.8071C158.747 72.4737 158.747 75.1403 158.747 77.8877C157.669 77.8877 156.592 77.8877 155.482 77.8877C155.482 75.2211 155.482 72.5545 155.482 69.8071Z" fill="white"/>
<path d="M155.482 66.7769C156.559 66.7769 157.637 66.7769 158.747 66.7769C158.747 67.6287 158.747 68.4805 158.747 69.3582C157.669 69.3582 156.592 69.3582 155.482 69.3582C155.482 68.5063 155.482 67.6545 155.482 66.7769Z" fill="white"/>
</g>
<defs>
<clipPath id="clip0_298_287">
<rect width="212" height="78" fill="white"/>
</clipPath>
</defs>
</svg>
