<svg width="21" height="23" viewBox="0 0 21 23" fill="none" xmlns="http://www.w3.org/2000/svg">
<path d="M6.0597 22.75H2.08955C1.51493 22.75 1.02301 22.5215 0.613806 22.0646C0.204602 21.6076 0 21.0583 0 20.4167V15.9833C0.835821 15.9833 1.56716 15.6868 2.19403 15.0938C2.8209 14.5007 3.13433 13.7472 3.13433 12.8333C3.13433 11.9194 2.8209 11.166 2.19403 10.5729C1.56716 9.97986 0.835821 9.68333 0 9.68333V5.25C0 4.60833 0.204602 4.05903 0.613806 3.60208C1.02301 3.14514 1.51493 2.91667 2.08955 2.91667H6.26866C6.26866 2.1 6.52114 1.40972 7.02612 0.845833C7.53109 0.281944 8.14925 0 8.8806 0C9.61194 0 10.2301 0.281944 10.7351 0.845833C11.2401 1.40972 11.4925 2.1 11.4925 2.91667H15.6716C16.2463 2.91667 16.7382 3.14514 17.1474 3.60208C17.5566 4.05903 17.7612 4.60833 17.7612 5.25V9.91667C18.4925 9.91667 19.1107 10.1986 19.6157 10.7625C20.1206 11.3264 20.3731 12.0167 20.3731 12.8333C20.3731 13.65 20.1206 14.3403 19.6157 14.9042C19.1107 15.4681 18.4925 15.75 17.7612 15.75V20.4167C17.7612 21.0583 17.5566 21.6076 17.1474 22.0646C16.7382 22.5215 16.2463 22.75 15.6716 22.75H11.7015C11.7015 21.7778 11.4272 20.9514 10.8787 20.2708C10.3302 19.5903 9.66418 19.25 8.8806 19.25C8.09702 19.25 7.43097 19.5903 6.88246 20.2708C6.33396 20.9514 6.0597 21.7778 6.0597 22.75ZM2.08955 20.4167H4.3097C4.72761 19.1333 5.39801 18.2292 6.3209 17.7042C7.24378 17.1792 8.09702 16.9167 8.8806 16.9167C9.66418 16.9167 10.5174 17.1792 11.4403 17.7042C12.3632 18.2292 13.0336 19.1333 13.4515 20.4167H15.6716V13.4167H17.7612C17.9005 13.4167 18.0224 13.3583 18.1269 13.2417C18.2313 13.125 18.2836 12.9889 18.2836 12.8333C18.2836 12.6778 18.2313 12.5417 18.1269 12.425C18.0224 12.3083 17.9005 12.25 17.7612 12.25H15.6716V5.25H9.40299V2.91667C9.40299 2.76111 9.35075 2.625 9.24627 2.50833C9.14179 2.39167 9.0199 2.33333 8.8806 2.33333C8.74129 2.33333 8.6194 2.39167 8.51493 2.50833C8.41045 2.625 8.35821 2.76111 8.35821 2.91667V5.25H2.08955V7.81667C3.02985 8.20556 3.78731 8.85694 4.36194 9.77083C4.93657 10.6847 5.22388 11.7056 5.22388 12.8333C5.22388 13.9417 4.93657 14.9528 4.36194 15.8667C3.78731 16.7806 3.02985 17.4417 2.08955 17.85V20.4167Z" fill="black"/>
</svg>
