<?xml version="1.0" encoding="UTF-8"?>
<svg id="Layer_1" data-name="Layer 1" xmlns="http://www.w3.org/2000/svg" viewBox="0 0 1200 1176">
  <defs>
    <style>
      .cls-1 {
        fill: #fff;
      }
    </style>
  </defs>
  <path class="cls-1" d="m552.1,18.3l-11.5,1.2-11.5,41.9-11.6,42-18.5,3.7c-20.6,4.1-29.8,6.4-46.7,11.5-6.4,1.9-12.1,3.4-12.8,3.2s-13.5-14-28.4-30.8-27.7-30.9-28.5-31.4c-.9-.6-3.2-.2-6.7,1.3-31.5,13.4-66.6,32.5-100.6,54.7l-14.2,9.3,7,20.8c3.8,11.4,9.8,29.7,13.3,40.6l6.4,19.8-12.6,11c-7,6.1-19.9,18-28.7,26.4l-16.1,15.3-2.9-1.6c-7.4-3.9-72-34.2-73-34.2-1.2.1-19,21.3-29.7,35.6-15.4,20.4-32.3,47.5-42.9,68.5l-4.9,9.8,30,30.7c16.5,16.8,30,31.2,30,31.9s-1.4,4.5-3.1,8.5c-5.1,12.1-12.6,33.3-16.9,47.7-2.2,7.5-4.1,13.8-4.3,13.9-.1.2-19.5,2.7-43,5.7s-43,5.7-43.3,6c-.9.9-4.2,15.7-6.9,30.7-4.6,26.4-5.8,40.8-5.9,71.4l-.1,28.9,41.2,12.1,41.2,12,.6,6.6c1.5,17.7,3.8,34.3,7.2,51.7,2,10.6,3.5,19.4,3.2,19.6-.2.2-15.9,9.9-34.9,21.5s-35.4,21.7-36.4,22.5c-1.9,1.4-1.9,1.7,1.8,14.3,9.1,30.7,22.7,64.8,37.8,94.6,7,14,9.3,17.8,10.9,17.8,1.1,0,19.4-3.1,40.7-7,21.3-3.8,40-7,41.6-7.2,2.7-.3,3.5.7,12.5,13.9,5.3,7.8,16.8,23.2,25.5,34.3q15.9,20,18,18.2c1.2-1.1,25.8-21.1,54.8-44.6,29-23.4,53-43.1,53.3-43.6.3-.6-2-4.3-5.2-8.3-48.9-60.2-79.7-132.1-87.9-204.7-2.9-26.2-1.4-67.4,3.7-96,26.1-148.6,144.5-267.5,292.9-294.4,24.1-4.3,33.9-5.1,65.5-5.1,37.9,0,58.4,2.5,91,11,103.5,27,189.5,98.1,236.4,195.5,16.5,34.3,27,69.2,32.7,109,2.2,15.1,3,63.8,1.5,79.9-5.3,52.8-22.3,105.6-48.2,149.7-8.4,14.3-22.2,34.2-30.4,43.9-4.2,4.9-8.5,10.2-9.6,11.7l-1.9,2.6,29.2,24.4c24.6,20.4,48.5,39.7,77.7,62.4l5.4,4.2,2.2-2.6c5.7-6.9,23.9-32.2,33.7-46.9,8.5-12.7,11.4-16.3,13.1-16.3,1.2,0,19.7,3.9,41.1,8.6,37.4,8.2,39,8.5,40.4,6.7,2.5-3.3,22.9-45.5,28.7-59.3,6.3-15,19-52.2,20.1-58.6l.6-4.1-10.9-8.6c-6-4.7-21.5-16-34.3-25.2-15.7-11.1-23.5-17.2-23.4-18.3.1-1,1.6-9.6,3.2-19.2,1.7-9.6,3.8-24.3,4.7-32.5.9-8.3,1.8-16,2.1-17.1.3-1.8,5.9-3.9,41-15.5l40.7-13.4-.7-18c-1.2-33.3-3.9-61-8.1-86-3.3-19.4-4.4-24.3-5.8-24.8-.7-.2-19-2.8-40.7-5.6-21.7-2.9-40.1-5.6-40.9-6s-2.3-3.8-3.3-7.7c-3.2-11.8-7.8-25.3-14.5-42.2-3.5-9-6.3-17-6.1-17.7.2-.8,12.9-14.4,28.4-30.2,15.4-15.8,28.4-29.4,28.8-30.1,1.3-2.2-18-36.4-36.1-64-5.2-7.9-14.8-21.5-21.4-30.3-10.5-13.9-12.3-15.9-14.2-15.3-1.2.3-18.5,6.9-38.4,14.5-19.9,7.7-36.7,13.9-37.2,13.9s-9.4-8.5-19.8-18.8c-10.3-10.4-23-22.3-28-26.6-5.1-4.3-9.3-8.6-9.3-9.5s5-18.7,11-39.5c6.1-20.8,11-38.6,11-39.6,0-1.7-2.9-4-21-16-22.1-14.8-47.1-28.6-73.6-40.8-8.3-3.8-16.1-7.3-17.4-7.7-2-.6-6,3-32.9,29.8l-30.6,30.5-15.5-4.9c-16.2-5.1-47.1-13.2-55.2-14.4-2.6-.4-5.1-1.2-5.6-1.9-.5-.6-5.1-18.7-10.2-40.1-10.7-45.6-10-42.5-10.8-42.5-.4,0-6.3-.7-13.2-1.6-16.3-2-88.2-2.8-104.9-1.1Zm86.9,21l14.4,1.2,5.7,23.5c3.1,12.9,7.6,31.4,9.9,41.1l4.2,17.7,14.2,2.7c19.9,3.7,45.4,10.4,67.1,17.6l18.6,6.1,29.9-29.6c17.9-17.6,30.7-29.6,31.8-29.6,2.5,0,42.1,20,55.2,28,8,4.8,26.7,16.8,28.8,18.5.1.1-5,18.1-11.3,39.9-6.4,21.9-11.5,40.2-11.3,40.6s5.3,4.8,11.3,9.7c21.7,17.7,33.5,29.1,59.3,57.6l4.2,4.7,36.3-13.9c19.9-7.7,37.4-14.2,38.8-14.6,2.4-.6,3.2.1,9.3,8.5,13.8,18.7,35,52.1,42.5,66.8l2.2,4.2-28.3,29.1c-15.6,15.9-28.4,29.6-28.6,30.5-.2.8,4.1,12.8,9.7,26.7,8.7,22.1,14.8,40.7,19.4,59.7l1.3,5.5,38,5.1c47.1,6.3,45.3,5.9,45.9,8.7,1.3,5.6,5.5,38.5,6.5,50.7.6,7.4,1.2,19.8,1.3,27.4l.2,13.9-39.2,13.1-39.3,13.1-.5,3c-.2,1.6-1.4,12-2.5,23-2.5,23.2-5.9,45.1-9.5,60.1-1.4,5.8-2.5,10.7-2.5,10.9s10.7,7.9,23.8,17.1c13,9.2,28.6,20.4,34.5,24.8,12.6,9.3,12.1,6.5,4.7,27.7-6.2,17.7-13.3,34.5-23.1,54.8l-7.9,16.4-4.2-.6c-2.4-.3-20.7-4.1-40.7-8.6-20-4.4-36.7-7.8-37.1-7.6s-3.2,4.6-6.3,9.7c-10.1,17-32.9,49.8-34.5,49.8-1,0-44.3-34.6-63-50.3l-15.2-12.7,6.6-8.8c35.4-46.9,61-106.5,70.9-165.7,4-23.7,5-36.7,5-64,0-31.9-2.3-53.7-9-84-9.9-45.3-31.8-95.1-59.2-134.4-29.3-42-70-80.7-112.7-107.3-89.7-55.8-195.5-72.4-298-46.6-144.5,36.2-257.1,156.3-284,302.8-4.8,26.5-6,39.7-6,68,0,26.7.6,35.1,4.5,58.9,9.4,57.2,36.7,122,72.5,172,8,11.1,9.4,13.5,8.2,14.7-2.9,2.9-75.3,61.4-76,61.4-2.2,0-26.4-33-36.5-49.7-5-8.3-7.3-11.3-8.8-11.3-1.1,0-20.1,3.2-42.1,7.1-22.1,4-40.9,6.9-41.8,6.6-1.9-.7-9.7-16.9-19.3-39.7-7.4-17.8-18.7-50.5-17.9-51.9.3-.5,16.6-10.7,36.1-22.6s35.7-22,35.9-22.3c.2-.4-1.2-7.5-3-15.7-6.2-27.8-9.6-51-11-75.6l-.7-12.7-26.6-7.7c-14.6-4.3-33.1-9.7-41.1-12l-14.5-4.3.1-17.8c.1-9.9.9-24.7,1.9-32.9,1.9-17.4,6.2-43.6,7.3-44.7.4-.4,18.9-3,41.2-5.8,22.3-2.7,41.6-5.3,42.9-5.8,2.1-.6,2.8-2.3,5.8-13.7,5-19.1,14.4-46.4,22.3-64.8l7-16.2-4.3-4.5c-2.4-2.5-15.7-16.2-29.5-30.4-13.9-14.3-25.2-26.6-25.2-27.4,0-2.4,12.2-23.2,23.5-40.2,8.9-13.3,15.7-22.5,29.7-40l2.6-3.3,37.4,17.6c20.5,9.7,37.7,17.7,38.2,17.7.4,0,2.9-2.3,5.4-5.2,9.9-10.9,45.7-43.7,68.9-62.9l3.1-2.6-12.9-39.2c-7.1-21.6-12.9-39.6-12.9-40,0-.9,16.9-11.6,34-21.7,17.1-10,52.2-27.5,54.5-27.2,1.2.2,13.2,12.9,29.1,30.8,15,16.8,27.9,30.6,28.7,30.8s6.1-1.3,11.8-3.3c22.1-7.7,52.8-15.1,84.3-20.2l4.9-.8,11.6-41.7,11.6-41.7,5.5-.4c13.3-.8,62.8-.4,76,.6Z"/>
  <path class="cls-1" d="m586.8,164c.2,6,.2,11-.1,11s-3.6-4.7-7.3-10.5c-6.6-10.4-6.7-10.5-10.6-10.5h-3.9l.6,12.7c.3,7.1.8,14.7,1.1,17,.5,4,.7,4.3,3.6,4.3h3l-.4-11c-.2-6.1,0-11,.3-11s3.8,4.9,7.8,10.8q7.1,10.8,10.7,10.4l3.7-.4-.6-7.2c-.4-3.9-.9-11.5-1.3-16.9l-.7-9.7h-6.5l.6,11Z"/>
  <path class="cls-1" d="m615.7,162.7c-.4,5.4-.7,13.3-.7,17.5v7.8h7v-6.3c0-3.4.3-11.3.7-17.5l.6-11.2h-7l-.6,9.7Z"/>
  <path class="cls-1" d="m630.7,159.9c-.4,3.3-1,10.9-1.3,17l-.7,11,2.7.7c1.5.3,2.9.4,3.1.2.3-.3.9-5.5,1.4-11.7s1.1-11.4,1.3-11.7c.2-.2,3,5.3,6.3,12.1l5.8,12.5h7.4l.7-10.3c.3-5.6.9-13.2,1.3-17l.6-6.7h-7.1l-.7,11.7-.8,11.8-6.1-12.5c-6-12.3-6.2-12.5-9.7-12.8l-3.6-.3-.6,6Z"/>
  <path class="cls-1" d="m541,156.7c-2.4.4-2.7,1.3-6.6,17.8-2.2,9.6-3.9,17.6-3.8,17.8.2.2,1.9.1,3.8-.1,3-.3,3.5-.8,4.1-3.9.7-3.8.9-3.9,8.3-4.7q5.3-.5,6.8,2.9c1,2.5,2.1,3.5,3.7,3.5,5.7-.1,5.5-1-2.8-17.9-5.4-11-8.4-16.1-9.4-16-.9.1-2.7.4-4.1.6Zm5.6,14.6c1.2,2.8,2,5.5,1.8,5.9-.7,1.1-7.4,1-7.4,0,0-2.5,2.4-12.2,2.9-11.7.3.3,1.5,2.9,2.7,5.8Z"/>
  <path class="cls-1" d="m669.9,161.9c-2.3,2.4-2.9,3.8-2.9,7.4,0,5.3,1,6.3,10.3,10.7,5.4,2.7,6.7,3.7,6.7,5.6,0,5.7-11.1,5.2-13.3-.6-.7-2-1.9-3-3.8-3.2-3.3-.5-3.9.5-2.7,4.9,1.3,4.9,6,7.7,13.8,8.1,6,.4,6.9.2,9.8-2.3,2.8-2.3,3.2-3.3,3.2-7.5,0-5.5-1.4-7-10.7-11-6.6-2.8-7.8-4.2-6.3-6.9,2.1-4,10.2-2.3,12,2.5.7,1.8,1.7,2.4,4.1,2.4,3,0,3.1-.1,2.5-3.2-1.2-6.1-6.9-9.8-15.1-9.8-3.8,0-5.2.5-7.6,2.9Z"/>
  <path class="cls-1" d="m514.9,160.8c-1.4.6-1.3,2.4,1,16.9,1.4,8.9,2.9,16.4,3.2,16.8.4.3,1.8.3,3.3-.1,3.3-.8,3.3-3,.3-20.9-2-11.4-2.5-13-4.2-13.2-1.1-.1-2.7.1-3.6.5Z"/>
  <path class="cls-1" d="m699.6,166.6c-.8,3.2.1,4,5.7,4.9,2.9.5,3.7,1.1,3.3,2.3-.3,1-1.8,7.2-3.4,14l-2.9,12.2,3.1.9c1.7.4,3.3.7,3.5.5s1.8-6.3,3.6-13.6,3.7-13.3,4.1-13.3c.5,0,2.7.4,4.8.8,2.8.6,4.1.5,4.7-.5,2.3-3.5,1-4.4-10.8-7.3-6.5-1.5-12.5-3-13.4-3.2-1.1-.3-1.9.4-2.3,2.3Z"/>
  <path class="cls-1" d="m485.8,167.2c-5.7,1.5-7.8,2.5-7.8,3.7,0,1.8,7.6,31,8.2,31.7.2.2,4.4-.7,9.3-2,7.2-1.9,9.5-3,11.8-5.6,2.8-3.1,2.9-3.6,2.5-11.4-.3-9.4-2.9-14.4-8.5-17.1-3.9-1.9-5.9-1.8-15.5.7Zm14.9,8.7c2.5,3.7,3.2,11.6,1.3,15.1-.9,1.7-6.5,4-9.6,4-1.1,0-4.3-10.2-6-18.7-.5-2.7-.3-3.2,1.7-3.6,1.3-.3,4.2-.4,6.4-.3,3.3.1,4.3.7,6.2,3.5Z"/>
  <path class="cls-1" d="m463.8,173.7c-1,.2-1.8.6-1.8.7s1.6,4.9,3.5,10.6,3.3,10.5,3.1,10.8c-.3.2-4.8-3.5-10-8.2-5.3-4.7-9.7-8.6-9.9-8.6-2,0-6.7,2.5-6.4,3.4.2.6,2.5,8,5.2,16.4,4.8,15,5,15.3,7.5,14.7,1.4-.4,2.8-.9,3.2-1.3.3-.4-.9-5.2-2.8-10.7-1.8-5.5-3.2-10.4-3.1-10.9.2-.5,4.7,3,10,7.8,9.2,8.3,9.9,8.8,13.2,8.2,1.9-.4,3.5-1,3.5-1.4,0-.3-2.4-7.7-5.2-16.4-5.3-16.1-5.5-16.3-10-15.1Z"/>
  <path class="cls-1" d="m730.6,177.7c-.8,2.7-2.9,9.9-4.6,16.2-2.6,9.2-2.9,11.5-1.8,12.2,2.2,1.5,5.6,1,6.2-.9,1-3.5,7.4-26.8,7.9-28.9.3-1.6-.1-2.3-1.7-2.7-3.8-1-4.4-.6-6,4.1Z"/>
  <path class="cls-1" d="m743.7,177.7c-.4.3-.7,1.6-.7,2.9,0,1.7.9,2.5,3.8,3.4,2,.7,4,1.5,4.4,1.9.5.4-1.2,6.6-3.6,13.8l-4.4,13.2,3.1,1c1.7.6,3.4.8,3.8.4.3-.5,2.5-6.5,4.8-13.5l4.2-12.6,4.5,1.5c4.7,1.6,6,1.2,6.6-2.1.3-1.8-5.1-4-24.3-10.1-.8-.3-1.8-.2-2.2.2Z"/>
  <path class="cls-1" d="m430.3,186l-2.3.9,3.9,10.8c7.2,19.8,7.6,20.8,10.2,20.5,4.3-.5,4.4-1.8.4-12.4-2-5.7-4.6-12.7-5.7-15.6-2-5.3-2.6-5.7-6.5-4.2Z"/>
  <path class="cls-1" d="m378,187.3c-1.3.7-3,2.3-3.6,3.6-2.3,4.5,2,11.1,7.2,11.1,3.4,0,3.6-1.2.4-3.1-3.7-2.3-4.1-6.3-.7-8,2.9-1.6,2.8-1.4,2.1-3.3s-2-2-5.4-.3Z"/>
  <path class="cls-1" d="m772.1,201.3c-5.6,12.6-6.3,16.9-3,21.1,4.6,5.9,14.9,8.4,19.8,4.9,2.3-1.6,13.1-22.7,13.1-25.6,0-1.2-4.8-4.2-5.6-3.4-.2.1-2.8,5.5-5.8,11.9-5.8,12.4-7.4,14-12.2,11.6-5.8-2.8-5.7-3.8,2-21.3l3.5-8-2.2-1.2c-1.2-.7-2.7-1.2-3.3-1.3-.7,0-3.5,5.1-6.3,11.3Z"/>
  <path class="cls-1" d="m379.5,205.3c-13.3,6.9-36.7,21.9-46.5,29.7-11,8.9-24.8,19.7-27.5,21.7l-3,2.2,2,2.1,2.1,2,3.4-2.5c3.6-2.6,5-2.3,7.1,1.8.8,1.4.6,2.3-.7,3.8-1.2,1.4-1.4,2.3-.7,3,1.3,1.3,14,3.5,15,2.6.4-.4-.1-2.1-1-3.6-.9-1.6-1.7-3.1-1.7-3.4s1.8-1.9,3.9-3.6l3.9-3.1,4.1,5.7,4,5.7-3,3.3c-3.5,4-3.6,4.9-.7,5.6,1.6.5,3-.1,4.9-1.9,2.8-2.7,5.9-2.4,5.9.5,0,1.9-4.2,6.2-7.7,8-1.2.6-4.2,1.1-6.7,1.1-4.5,0-4.6.1-4.6,3.1v3.1l5.3-.7c10.5-1.3,21.7-9.1,21.7-15.1,0-3-5-8.4-7.8-8.4-1.1,0-2.2-.8-2.4-1.8-.3-.9-3.7-6.3-7.6-11.8-4-5.6-7.2-10.6-7.2-11.1,0-2.2,19-16.3,21.9-16.3.8,0,7.1,9.3,7.1,10.5,0,.3-2.1.5-4.7.5l-4.8-.1,2.8-2.3c2.7-2.1,2.7-2.3.9-3.9-1.6-1.5-2-1.5-4.7.3-6.3,4.2-8,9.2-5,15,3.4,6.6,11.5,6.8,18.3.6l2.3-2.1,1.9,2.4c1.7,2.4,1.9,2.4,4.4.8l2.5-1.7-7.6-12.1-7.7-12.2,3-2.4c4.9-4,20.2-11.4,20.9-10.2.9,1.3,1.1,1.1-5.3,4.3-8.6,4.4-9.4,11.3-1.5,13.5,5.8,1.7,7.7,1.3,11.8-1.9,2.1-1.7,4.4-3,5.1-3,2.1,0,1.7,5.4-.5,8.1-1.6,2-2.9,2.4-7.1,2.4s-5.5.4-6.7,2.2c-1.3,2-1.2,2.3.9,3.7,1.9,1.2,3.1,1.4,5.9.6,1.9-.6,6.4-.7,10.3-.4,5.3.5,7,.4,7.7-.7,1.9-3,1-3.9-3.8-3.9-3.8-.1-4.4-.3-3-1.1,2.5-1.5,5-6.8,4.3-9.3-.9-3.7-4.6-7.6-7.1-7.6-1.3,0-4.4,1.7-6.9,3.9-3.2,2.8-5.1,3.8-6.6,3.4-3.3-.9-2-3.5,3-6.3,9.3-5.1,8.7-4.4,6.8-8.3-1.7-3.5-1.7-3.6.8-5.1,2.7-1.9,2.9-2.5,1.2-4.9-1.2-1.5-2.6-.9-15.3,5.6Zm-15.7,37.9c-.3.7-1.6,2-3,2.8-2.1,1.1-3.1,1.2-5.2.2-1.4-.6-2.6-1.8-2.6-2.7,0-1.2,1.3-1.5,5.6-1.5,4,0,5.5.3,5.2,1.2Zm-31.8,9.8c0,.4-1.8,2.3-4.1,4.1l-4.1,3.2-2.4-2.9c-1.3-1.6-2.2-3.2-2.1-3.6s2-2.1,4.2-3.7l4-3.1,2.3,2.6c1.2,1.4,2.2,2.9,2.2,3.4Z"/>
  <path class="cls-1" d="m808.4,206.7c-1.8,2.8-1.7,2.8,3.9,5.9,1.5.8,2.7,1.9,2.7,2.4,0,.6-2.9,6.1-6.5,12.2-3.6,6.2-6.5,11.6-6.5,12s1.3,1.4,2.8,2.2l2.9,1.5,6.9-11.9c3.8-6.6,7.2-12,7.7-12,.4,0,2.5,1.1,4.7,2.5l4,2.5,1.4-2.8,1.4-2.8-11.8-7.1-11.9-7.1-1.7,2.5Z"/>
  <path class="cls-1" d="m829.3,236.5l-9.2,14.4,11.1,7c10.2,6.5,11.2,6.9,12.4,5.3,2.3-2.9,1.6-3.8-5.6-8.2-3.9-2.3-7.3-4.7-7.6-5.1-.9-1.5,3.6-8,4.9-7.2.7.3,3.8,2.4,7,4.6,5.6,3.7,5.9,3.8,7.2,2,2.3-2.9,1.8-3.7-5-8.1-3.6-2.3-6.5-4.5-6.5-4.9s.8-1.8,1.8-3.1l1.7-2.2,5.5,3.3c3,1.8,6.5,4,7.7,4.7,2,1.3,2.4,1.2,3.7-.5.9-1.1,1.6-2.3,1.6-2.7,0-.6-20.2-13.8-21.1-13.8-.2,0-4.5,6.5-9.6,14.5Z"/>
  <path class="cls-1" d="m318.2,231.8c-2,1.5-2.1,2-.9,3.6,1.3,1.8,1.5,1.8,4,.1,2.2-1.4,2.5-2.1,1.6-3.6-1.2-2.3-1.8-2.3-4.7-.1Z"/>
  <path class="cls-1" d="m874.2,256.7c-4.6,2.3-9.7,8.6-11.2,13.9-1.1,3.8-1,5,.4,8.9,2,5.2,7.6,10.2,12.3,11.1,6,1.1,10.4-.4,15.4-5.4,7.9-8,8.9-16.7,2.6-23.9-5.4-6.1-12.8-7.9-19.5-4.6Zm14.2,7.9c4.4,4.5,3,11.4-3.4,16.8-4.6,3.8-10,3.6-13.4-.5-3.1-3.7-3.2-5.7-.6-11,3.9-7.6,12.4-10.2,17.4-5.3Z"/>
  <path class="cls-1" d="m279.8,281.2c-12.9,12.7-41.8,47.5-41.8,50.4,0,.7.9,1.8,1.9,2.4,1.6.8,2.4.5,4.5-2.2l2.5-3.2,4.8,4.1c4.3,3.7,4.8,4.5,4.6,7.9-.3,3.8-3.6,11.3-5.7,12.6-.6.4-1.9.8-2.9.8-1.7,0-1.7-.2-.3-2.2,3.8-5.4.6-12.8-6.3-14.9-6.4-1.9-12.7,2.2-14.5,9.4-.4,1.6-4.3,8.3-8.7,14.9-4.5,6.6-8.5,13.3-8.9,14.8s-1.8,4.4-3.1,6.6c-1.4,2.1-5.8,10.6-9.9,18.7-6.1,12.3-7.2,15-6,15.7,2.8,1.8,3.9,1,7.6-6,2-3.9,4.2-7,4.8-7,2.1,0,7.7,4.1,7.3,5.3-.2.6-2,1.6-4,2-3.8.9-4.6,2.7-2.8,5.6.8,1.2,2.1,1.2,8.8.2,16.9-2.7,17.3-2.9,17.3-6.6v-3.3l-6.1,1.4c-3.4.8-6.3,1.3-6.4,1.2-.2-.2-.6-1.8-1-3.6-.4-2.1-.3-3.2.5-3.2.6,0,2-1.6,3.1-3.5l2.1-3.5,6.4,3.6c3.6,2,6.6,3.5,6.8,3.3s.9-1.5,1.6-2.8c1.4-2.8,2.6-1.7-12.2-10.2-6-3.3-10.8-6.4-10.8-6.8,0-2.3,2.8-8.3,6.2-13.4l3.9-5.7,3,1.7c6.3,3.7,6.2,6.3-.2,6.3-4,0-4.4.5-3.3,4.5.5,2,1.1,2.1,13.2,1.7,7.9-.3,13-.9,13.4-1.6.4-.6.8-2.4.8-3.9,0-2.2-.4-2.7-1.7-2.3-1,.2-4.2.8-7,1.1l-5.3.7v-2.9c0-3.5,5-8.3,8.8-8.3,1.4,0,4.5-.9,6.8-2,3.2-1.6,4.8-3.3,6.8-7.3,1.4-2.9,2.8-6.5,3.1-8l.6-2.8,3,2.5c3.7,3.1,4.1,3.2,6.5.5,1.7-1.8,1.7-2.2.4-3.2-5.7-4.3-21-17-21-17.4,0-.2,1.4-2.2,3.1-4.3l3.2-3.9,4.6,4.1c18.6,16.4,16.9,15.3,19.1,13.3,1.1-1,2-2.2,2-2.6s-4.7-4.9-10.5-9.9c-5.8-5.1-10.5-9.5-10.5-9.9,0-.3,4.6-5.7,10.2-11.9l10.1-11.3,2.6,2.5,2.5,2.5-7.2,7.5c-4,4-7.2,7.9-7.2,8.4,0,2.8,3.4,4.4,8.2,4,6.6-.7,7.8-2.1,4.8-5.3l-2.4-2.6,3.7-3.7,3.7-3.7,5.8,5.8,5.8,5.7,2.1-2.2,2.2-2.3-9.9-10.5-9.8-10.5,2.1-2.3,2.1-2.2-2.1-2.1-2-2.1-7.5,7.4Zm-39,62.4c3.1,2.1,2.9,10.4-.3,10.4-.6,0-2,1.8-3,4-1,2.3-2.2,4.3-2.7,4.6-.9.6-7.8-3.3-7.8-4.4.1-2.2,2.2-3.7,4.8-3.4,2,.2,3.9-.5,5.7-2.1,3.5-3,2.6-4.8-2-4-3.2.5-3.5.4-3.5-2,0-4.3,4.7-6,8.8-3.1Zm-27.3,48c2.9,1.9,3,2.1,1,6.8l-1.5,3.6-4-2c-2.2-1.1-4-2.2-4-2.5,0-.2.8-2,1.7-4,1.9-3.9,3.2-4.3,6.8-1.9Z"/>
  <path class="cls-1" d="m897.5,289.1l-11.7,12.2,2.6,2.6,2.6,2.5,5.3-5.2,5.2-5.2,5.3,5.2,5.2,5.3,2.2-2.3,2.2-2.2-5.4-5.5-5.4-5.5,2.6-2.7,2.6-2.6,6,5.7c3.2,3.1,6.3,5.6,6.8,5.6s1.5-1,2.3-2.2c1.2-2,.8-2.6-7-9.9-4.6-4.3-8.7-7.8-9-7.9-.4,0-5.9,5.5-12.4,12.1Z"/>
  <path class="cls-1" d="m933.7,305.7c-1.4,1.7-1.3,2.1,1.4,5.3,1.6,1.9,2.9,3.7,2.9,4.1,0,.6-12.5,11.5-20.2,17.9-.4.3.3,1.8,1.5,3.4l2.3,2.8,10.9-9.2,11-9.2,3.2,3.9c2.7,3.2,3.5,3.6,5,2.7,1-.6,1.8-1.8,1.8-2.7,0-1.8-15.5-20.6-17.1-20.6-.6-.1-1.8.7-2.7,1.6Z"/>
  <path class="cls-1" d="m946.4,340.1c-7.1,5-13.3,9.5-13.8,9.9-1,1,13,21,14.8,21,.8,0,1.9-.7,2.6-1.5,1.1-1.3,1-2.1-.6-4.3-9.2-12.6-8.9-12.1-6.8-13.7,5-4,5.1-3.9,10,2.7,2.5,3.5,4.7,6.4,4.9,6.6.5.6,4.5-2.2,4.5-3.1,0-.5-2-3.7-4.5-7.1-4.2-5.9-4.4-6.4-2.7-7.8,3.6-3.1,4-2.9,9.4,4.6l5.4,7.4,2.3-1.8,2.4-1.8-6.7-9.5c-3.6-5.3-7-9.8-7.5-10.1s-6.7,3.5-13.7,8.5Z"/>
  <path class="cls-1" d="m969.8,364c-7.6,2.3-14.3,8.8-15.4,14.6-1.9,10.4,8.1,20.5,18.1,18,2.5-.6,2.5-.7,1-3.6-1.2-2.4-2.2-3-4.9-3-6.8,0-10-8.1-5.2-13.3,3.7-4,10.2-6.9,13.8-6.2,3.5.8,7.2,6,6.2,9-1.4,4.6-1.3,6.1.1,8q1.5,1.9,3.6-.2c4.9-4.9,2.8-16.4-3.9-21.2-3.4-2.4-9.6-3.4-13.4-2.1Z"/>
  <path class="cls-1" d="m195.2,376.5c-1,2.1-.9,2.6.8,3.5,1.5.8,2.2.6,3.4-1.2,1.1-1.6,1.3-2.5.4-3.5-1.6-2-3.4-1.6-4.6,1.2Z"/>
  <path class="cls-1" d="m983.5,398.7c-8.2,4.1-15.1,7.7-15.3,7.8-.2.2.4,1.7,1.3,3.4l1.6,3.1,6.9-3.5,7-3.5,3,5.9,3,6-6.9,3.8-6.9,3.7,1.4,2.8c.8,1.5,1.9,2.8,2.4,2.8.9,0,28.9-13.6,29.8-14.5.2-.2-.4-1.7-1.2-3.4-1.7-3.3-2.5-3.3-8.1.1-1.6,1-3.6,1.8-4.2,1.8-1.2,0-6.3-8.9-6.3-11,0-.6,2.5-2.2,5.5-3.6l5.5-2.5-1.6-3.2c-.9-1.8-1.7-3.3-1.8-3.3,0-.1-6.8,3.2-15.1,7.3Z"/>
  <path class="cls-1" d="m998.2,432.1c-14,5.6-15.2,6.3-14.6,8.2.3,1.2,1,2.6,1.4,3.1.5.4,5.5-1,11.1-3.2,5.7-2.2,10.5-3.9,10.7-3.7s-3.3,4.9-7.7,10.5c-8.3,10.3-9.1,12.2-6.8,15.4,1.3,1.7,2.2,1.5,17.1-4.4,14.4-5.7,15.6-6.4,15-8.3-1.3-4.4-.7-4.4-16.7,1.7l-6.9,2.6,2.1-2.7c1.1-1.6,4.9-6.4,8.4-10.8,6.2-7.7,6.4-8,5.2-10.9-.7-1.7-1.7-3.2-2.2-3.3-.4-.1-7.7,2.5-16.1,5.8Z"/>
  <path class="cls-1" d="m180.3,439.9c-1.3,2.2-2.7,2.9-7.5,3.8-14.1,2.7-22.1,13-17.3,22.2,1.6,3.1,3.3,4.1,7.3,4.1,3.3,0,4.5-.8,6.1-3.7,1.7-3.3,1.4-3.6-2.3-2.9-5.9,1.1-8.4-4.3-4.3-9.3,2.5-3,13.7-6.6,13.7-4.5,0,.4-1.6,5.4-3.5,11.3-1.9,5.8-4.1,13.4-5,16.8-.8,3.5-2.2,8.9-3,12-.8,3.2-1.7,7.5-2,9.6-.5,3.1-2.2,5.4-8.9,12-4.6,4.5-9.6,10.4-11.1,13.1-6.4,11-1.2,24.2,8.8,22.2q2.7-.5,2.7,5.3v5.8l-8.2,5.1c-4.6,2.9-8.9,5.6-9.6,6-1.2.8-1.1,1.5.2,4.1.9,1.7,1.9,3.1,2.2,3.1s3.7-3,7.5-6.7l7-6.7-.7,25c-.4,18.8-.2,30.1,1.1,45.9,2.6,33.3,2.5,32.9,5.8,33.3,2.3.3,2.7,0,2.7-2.1s.5-2.5,5.8-3c6-.6,9.2-3,9.2-6.8,0-3.1,1.5-2.2,5.6,3.1,2.1,2.7,4.1,5,4.5,5s1.3-1,2.2-2.3c1.4-2.1,1.2-2.5-5-9.5l-6.5-7.2h5.6c5.5,0,5.6,0,5.6-3v-2.9l-14.7-.3-14.8-.3-.3-4.1-.3-4.1,7.7-.6c4.2-.4,10.8-.7,14.6-.7h6.8v-6h-28.8l-.9-4.3c-1.3-6.6-.5-18.7,1.3-18.7,1.2,0,1.3,1,.8,4.9-.8,6.3.6,9.1,4.7,9.1,1.9,0,3.8-.9,5.4-2.6,2-2.1,2.6-2.3,4.3-1.3,4.4,2.7,11.2-2.8,11.2-9.2,0-2.4-1.7-8.9-3.5-13.2-.6-1.4-.2-1.7,2.4-1.7,2.8,0,3.1-.3,3.1-3,0-1.7-.1-3-.2-3.1-.2,0-6.6-.6-14.3-1.2l-14-1.2-.3-5.3c-.4-6.1-1.4-5.8,13.8-3.7q15,2.1,15-1.4c0-3.4.3-3.3-15.7-5.2-5.6-.7-10.7-1.5-11.2-1.9-1.1-.6-2-10.5-1.1-11.3.3-.3,6.7.7,14.3,2.1,11.9,2.3,14,2.4,14.7,1.2,2.4-3.7,1.2-4.7-7.7-6.4-4.9-.9-11.2-2.2-14.2-2.7l-5.4-1.1.5-7.4c.3-4.1.7-7.6.9-7.8.2-.3,2-.1,3.9.3,3,.6,3.5,1.1,3.8,3.9.2,1.8.5,3.2.8,3.2,1.3,0,8.2-4.1,10.3-6.1s2.2-2.3.7-3.4c-.8-.7-5.2-2-9.6-2.9l-8.1-1.8.7-3.6c.4-2.1.8-3.9,1-4.1s6.2,1.1,13.3,2.9c7.1,1.7,13.4,2.9,13.9,2.6s1.2-1.7,1.4-3c.5-2.4.1-2.5-13.1-5.8-16.1-4-15.5-3.2-11.5-17.6,3.4-12.3,3.3-12.2,6.4-11,2.4,1,2.5,1,.4,1.8-3.7,1.5-4.5,10.3-1.4,14.3,2.8,3.5,7.9,4.4,11.9,2.1,3-1.8,6.1-6.7,6.1-9.6,0-2.3,1-2.7,3.8-1.7,2.1.8,2.9.7,3.9-.8,2.4-3.1,1-4.5-7.6-7.4-4.7-1.6-8.9-3.3-9.4-3.8-1.4-1.4,1.5-6.6,3.9-6.9,2-.3,6.6,3.9,7.6,7,.6,1.7,5.8-.6,5.8-2.5,0-2.7-4.6-8.2-8.3-10-3.1-1.6-4.2-1.7-7.2-.7-3.6,1.2-6.5,5.1-6.5,8.9,0,2.4-1.1,3.3-2.8,2.2-1-.6-1-1.8-.3-5.2,1.9-8.4,4.8-15.4,6.2-15.1.8.2,6.5,2.3,12.7,4.7,6.1,2.5,11.9,4.5,12.6,4.5,1.8,0,3.2-3.8,1.9-5.1-.5-.5-6.3-3.1-12.8-5.7l-12-4.9.3-3.5c.2-2.9-.1-3.7-1.9-4.1-1.5-.4-2.5.1-3.6,2.2Zm7.5,43.4c1.7,1.4.7,5.7-1.9,7.9-3.8,3.2-6.7-.3-5.4-6.9.6-3.2.9-3.4,3.3-2.8,1.5.4,3.3,1.2,4,1.8Zm-30.2,41.5c-.9,3.3-1.6,8-1.6,10.5,0,4.5-1.1,5.6-5.7,5.7-2.3,0-5.3-3.9-5.3-6.8,0-4,4.1-12,9.1-17.6l4.4-5,.3,3.6c.2,2-.4,6.3-1.2,9.6Zm12.2,58.8l6.1.7,2.1,4.9c2.5,5.8,2.3,11.6-.3,13.2-2.4,1.5-4.7-1.5-4.7-6.2,0-2.6-.4-3.3-1.7-3-1.4.2-1.9,1.5-2.1,4.8-.6,11.3-3.2,12.5-3.2,1.5v-7.5h-3.4c-4.2,0-4.5-.4-3.9-5.3q.6-4.2,11.1-3.1Zm1.6,62c1.9,1.9,2.1,6.8.4,8.1-.7.6-3.4,1.3-6,1.5l-4.8.6v-11.8h4.4c2.7,0,5.1.6,6,1.6Z"/>
  <path class="cls-1" d="m1014.3,463.1c-15.5,2.9-21.1,17.1-11.2,28.4,5.5,6.3,15.5,6.7,24.1,1,5.3-3.5,7.1-7.5,6.6-14.7-.8-11.1-8.3-16.8-19.5-14.7Zm11.5,9.6c2.6,2.8,2.9,7.8.7,10.9-3.8,5.5-15.4,7.3-19.4,3-4.3-4.6-2.7-11.6,3.4-14.9,5.9-3.1,11.8-2.8,15.3,1Z"/>
  <path class="cls-1" d="m1036,499.8c-3.8.5-29.1,6.9-29.6,7.5-.3.2.8,5.5,2.3,11.8,2.7,11,2.9,11.4,5.3,11.1,1.4-.2,2.7-.6,2.9-.8s-.4-4-1.3-8.5c-1-4.4-1.6-8.2-1.4-8.3.1-.2,6.3-1.8,13.5-3.6q13.3-3.2,12.7-5.9c-.8-3.4-1.4-3.8-4.4-3.3Z"/>
  <path class="cls-1" d="m1022,534.2c-5.7,3-8.3,7.3-8.3,14.3,0,9.2,5.3,15.4,14,16.2,10.4,1,19.5-4.3,21.4-12.5,1.7-7.5-1.8-15.4-8.1-18.7-4.4-2.3-13.8-1.9-19,.7Zm18.5,7.3c1.8,1.7,2.5,3.5,2.5,6.3,0,4.8-2.6,7.7-8.2,9.3-8.5,2.2-14.8-1.4-14.8-8.6,0-6.3,4.3-9.3,13.3-9.4,3.8-.1,5.3.4,7.2,2.4Z"/>
  <path class="cls-1" d="m1029.6,571.1c-8.3,2-12.6,7.4-12.6,15.8,0,3.9.6,5.6,2.6,8,2.2,2.6,2.3,3.2,1,3.7-.9.3-1.6,1.8-1.6,3.1,0,2.5.2,2.5,4.6,1.9,2.6-.3,6.6-.6,9-.6h4.4v-5.9c0-7.5-.6-9.1-3.6-9.1-2.1,0-2.4.4-2.4,4,0,4.8-1.8,5.3-5.5,1.5-2.7-2.6-3.3-7.2-1.5-10.6,1.6-2.9,6.4-4.9,12-4.9,4.4,0,5.6.5,8.1,2.9,3.8,3.8,3.9,8.4.3,12.2-2.1,2.2-2.5,3.3-1.9,5.8.6,3.1.7,3.1,3.6,1.5,9.7-5,9-22.4-1.1-27.5-4.5-2.3-10.5-3-15.4-1.8Z"/>
  <path class="cls-1" d="m1041,614.5c-9.6,5-11.1,5.4-17.3,5.5h-6.8l.3,3.2.3,3.3,7,.5c6.2.5,8,1.2,16.7,6.3,5.3,3.1,9.9,5.7,10.2,5.7.4,0,.6-1.7.6-3.8,0-3.7-.2-3.9-7-7.2-3.8-1.9-7-3.7-7-4,0-.4,3.2-2.1,7-3.8l7-3.1v-4c0-2.3-.1-4.1-.2-4.1-.2,0-5,2.5-10.8,5.5Z"/>
  <path class="cls-1" d="m143.2,626.7c-8.2,5.8-8.9,6.7-7.3,9.2.6,1,1.3,1,2.7.3,3.2-1.8,13.7-12.9,13.2-14.2-.2-.7-3.7,1.3-8.6,4.7Z"/>
  <path class="cls-1" d="m145.2,636c-2.8,3.6-5.2,6.7-5.2,7.1,0,.3.9,1.4,1.9,2.3,1.9,1.7,2.1,1.6,5.6-5.4,5.2-10.3,4.2-12-2.3-4Z"/>
  <path class="cls-1" d="m1014.6,656.8c-.3.5-.8,5.6-1.2,11.3-.7,10.2-.6,10.5,1.9,13.5,3.5,4.1,8,5,12.3,2.5,3.2-1.9,3.3-1.9,5,0,2.4,2.6,7.6,2.5,10.9-.4,2.5-2.2,3.5-5.6,4.9-18.4l.7-5.2-3.3-.5c-3.3-.6-28.8-3.6-30-3.6-.4,0-.9.4-1.2.8Zm13.6,12.6c-.4,6.3-1.7,8.6-4.5,8.6-3.4,0-4.7-1.9-4.7-6.6,0-6.7.7-7.5,5.4-7.2l4.1.3-.3,4.9Zm11.7-3.7c2.2.6,2.3,1,1.8,5.6-.7,5.7-2.2,7.9-5.1,7.5-1.8-.3-2.1-1.1-2.4-5.7-.5-8.1.2-8.9,5.7-7.4Z"/>
  <path class="cls-1" d="m162.3,688.8c-1.3.8,1.3,15.5,6.3,35.1l2.4,9.4-4.1,4c-5.5,5.6-7.9,10.6-7.9,16.6,0,10.1,9.4,15.8,15.6,9.5,1.8-1.8,2.4-3.2,2-4.7-.3-1.2-.6-2.8-.6-3.6,0-1-.9-.6-2.8,1.2-1.5,1.5-3.6,2.7-4.5,2.7-2.7,0-5-4.5-4.3-8.3.6-3.2,5.9-10.7,7.7-10.7,1.1,0,3.6,5.6,6,13.9,1,3.5,2.5,7.4,3.4,8.8.9,1.3,3.1,6.5,4.9,11.6,4.4,12.2,12.3,29.6,22.3,49.2,10.1,19.9,10.3,20.1,13.1,18.6,1.8-1,2-1.6,1.2-3.1-1.6-3-1.2-3.8,3-6l4-2,2,3.2c2.5,4.1,2.5,5.5.1,6.3-1.1.3-3.1,1.5-4.5,2.6-3.3,2.6-3.4,6.5-.3,11,1.9,2.8,2.9,3.4,5.6,3.2,4.2-.2,4.7-.7,3.3-3.8-.8-1.7-2-2.5-3.8-2.5-3.3,0-2.7-1.9,1.5-4.4q3.2-1.8,5.5.3c1.2,1.1,2.8,2.1,3.4,2.1,2.9,0,5.3-9.9,3.6-14.4-.5-1.4-1-1.4-3.8-.2-3.2,1.3-3.4,1.3-5-1.4-.9-1.6-1.6-3.3-1.6-3.9s2.5-2.3,5.5-3.8c4.6-2.3,5.4-3.1,4.9-4.8-1.2-4-2.3-3.9-14.4,2.3-6.6,3.4-12.4,6.2-12.9,6.2-.9,0-6.5-8.9-5.9-9.4.1-.2,6.2-2.9,13.5-6.1l13.2-5.7-1.4-2.9-1.5-2.8-7.3,3.1c-3.9,1.7-9.6,4.1-12.6,5.4-2.9,1.3-5.7,2.4-6.1,2.4-1.5,0-11-19.1-11-22.1,0-.4,1.7-1.3,3.7-1.8,5.9-1.7,8,1.7,4.8,7.8-1.3,2.7-1.3,3,1,5.1,1.4,1.3,2.7,2.2,2.9,1.9.2-.2,3.6-6.1,7.6-13.2,7.1-12.4,7.2-12.8,5.5-14.7-1-1.1-2.2-2-2.7-2-.4,0-2.3,2.9-4,6.5l-3.2,6.4-1.8-2.9c-2.1-3.5-5.5-3.9-11.9-1.3-4.1,1.6-4.3,1.6-5.9-.4-.9-1.2-3.6-7.6-6-14.3-3.5-10-4-12.4-2.9-13.1,2.8-1.8,3.8-.7,6.4,7.1,2.9,8.6,5,11,9.9,11,2,0,3.9-1.1,6.1-3.5,5.3-5.5,8.2-15.5,4.6-15.5-.5,0-2.2,2.3-3.8,5.2-3.3,6.1-5.5,7.8-8,6.2-2-1.3-5.8-10.7-5-12.6.2-.7,3.7-2.2,7.6-3.3,5.9-1.6,7.1-2.3,7.1-4,0-4.4-1-4.5-14.9-.4-7.3,2.1-13.7,3.7-14.1,3.4-1.1-.7-3.3-7.5-2.7-8.1.3-.3,6.3-2.3,13.4-4.4,12.5-3.7,12.8-3.8,12.6-6.5-.1-1.5-.4-2.9-.6-3.2-.4-.3-19.5,4.9-26.5,7.2-1.5.5-3.6-4-5.2-11-1.3-5.6-.2-7.5,4.2-7.5,2.5,0,3.2.6,4.5,4l1.6,3.9,3-1.7c4-2.3,7.7-8,7.7-11.7-.1-2.6-1.1-6.2-3.4-11.7-.6-1.3-.1-1.7,2.6-2,3-.3,3.3-.5,3-3.3-.2-1.7-.5-3.1-.6-3.2s-6.4.9-14.1,2.3c-14.5,2.6-15.4,2.5-15.5-1.9,0-1.8-2.5-2.3-4.7-.9Zm24.2,11.7c1.8,1.7,2.5,3.5,2.5,6.3,0,2.1-.3,4.1-.6,4.5-.4.3-2.3-.5-4.3-1.8-4.1-2.9-7.2-3.1-10.5-1-2.3,1.5-2.4,1.5-3.2-2.2-.4-2.1-.8-4.2-.8-4.8-.1-.9,8.3-3.1,12.7-3.4,1,0,2.9,1,4.2,2.4Z"/>
  <path class="cls-1" d="m1015.6,693c-6.4,2-10.6,8.5-10.6,16.6,0,9.1,6.7,15.1,18,16.1,8.9.8,14.8-3.3,17.1-11.7,3.1-11.5-3.5-19.7-17.1-21.4-2.5-.3-5.8-.1-7.4.4Zm13.1,8.5c4.4,1.8,6.7,5.6,5.9,9.9-1.3,6.6-8.1,9.2-16.1,6.1-5.2-1.9-7.5-4.7-7.5-9,0-8,7.6-11,17.7-7Z"/>
  <path class="cls-1" d="m999.1,730c-.8,2.3-.7,3.2.2,3.5.7.3,6.4,2.3,12.7,4.4,6.3,2.2,10.8,4,10,4-.9.1-7-.6-13.5-1.4-6.6-.8-12.1-1.5-12.2-1.5,0,0-.6,1.5-1.2,3.2-1.4,3.9-1.8,3.4,11.7,11.5,5.1,3.1,9.1,5.7,8.9,5.9s-5.6-1.4-12.1-3.6l-11.7-3.9-.9,2.5c-.6,1.4-1,2.9-1,3.3,0,.7,29.5,11.1,31.6,11.1,1,0,3.4-6.2,3.4-8.8,0-.6-4.3-3.7-9.5-6.8-5.3-3.1-9.8-6.1-10.1-6.6-.4-.6,4.2-.8,12.1-.6l12.7.3,1.3-4.3,1.3-4.3-3.4-1.4c-3.3-1.4-27.9-9.5-28.8-9.5-.2,0-.9,1.4-1.5,3Z"/>
  <path class="cls-1" d="m983.4,772.8c-4.9,10.3-5.5,15.9-2.1,19.8,2.1,2.4,3.3,2.9,7.4,3,3.9,0,5.4.6,7.5,2.7,2.9,2.9,7.3,3.6,10.9,1.7,2-1.1,11.2-18.5,10.7-20.1-.3-.8-21.6-11.2-28.5-14-2.1-.8-2.6-.2-5.9,6.9Zm11.4,3l3.2,1.8-2.7,5.4c-2.2,4.4-3.3,5.6-5.5,5.8-2.1.3-3-.2-3.9-2.1s-.7-3.4,1.1-7.6c1.2-2.8,2.8-5.1,3.4-5.1.6.1,2.6.9,4.4,1.8Zm14.6,7.1c.3.4-.6,3.1-1.9,6-2,4.2-2.9,5.2-4.6,4.9-3.8-.5-4.3-2.9-1.9-8.5,2.1-5,2.2-5.1,5.1-4.1,1.6.5,3.1,1.3,3.3,1.7Z"/>
  <path class="cls-1" d="m971.8,796.2c-1.6,3.5-1.6,3.6,1,6.1l2.6,2.7-2.7,5.6q-2.8,5.6-6.6,5.1c-3.6-.4-4-.2-5.4,2.9l-1.6,3.3,3.2.6c6.9,1.1,27.3,3.5,30.2,3.5,2.4,0,3.5-.6,4.3-2.5.7-1.4,1.2-3.2,1.2-3.9s-5.5-7.1-12.3-14.1l-12.2-12.8-1.7,3.5Zm13.2,18.4l4.5,4.6-5-.6q-8.7-1.2-6.8-5.2c.9-1.8,1.9-3.4,2.3-3.4.3,0,2.6,2.1,5,4.6Z"/>
  <path class="cls-1" d="m951.4,831.5c-1.9,2.9-2,2.8,4.3,6.9,3.8,2.5,5.8,5,10.3,12.8,3,5.3,5.8,10,6.1,10.3.4.3,1.6-.7,2.8-2.4l2.1-3-4-6.2c-2.2-3.4-4-6.5-4-6.9,0-.3,2.6-.3,5.8.1,9.6,1.2,9.8,1.2,12.1-2.6l2-3.5-2.2-.1c-1.2,0-6.8-.4-12.3-.8-9-.6-10.7-1.1-15.1-3.9-2.7-1.8-5.3-3.2-5.6-3.2-.4,0-1.4,1.1-2.3,2.5Z"/>
  <path class="cls-1" d="m597.9,293.2c-5.2,6.5-13.3,19-18.4,28.2-3.5,6.3-3.9,6.7-5.2,5-9.4-13.1-27.4-22.4-46.3-24-9.1-.8-9-1-6.9,8.5,1.1,5.1.6,11.3-2.3,31.5l-1.1,7.9-2.6-3c-5.2-6.1-16.1-12.4-25.5-14.9-5.8-1.6-22.4-1.8-24.6-.4-1.3.8-1,2.2,1.8,10.2,3.4,9.8,6.2,22.6,6.2,28.5v3.5l-3.7-3.4c-8.8-7.9-19.1-11.8-31.1-11.8-8.1,0-16.1,2-18.3,4.6-.9,1.2-.3,2.5,3.8,7.2,2.7,3.1,5.9,7.1,7.1,8.9,2.6,3.7,8.5,17.4,7.8,18.1-.3.2-1.9,0-3.6-.6-9.8-3.5-24.6-2.1-32.5,2.9-3.7,2.4-10.5,10.7-10.5,12.9,0,.3,3,2.5,6.6,4.9,8,5.3,14,13,20.2,26.1,13.2,28.1,17.3,35.8,21.6,40.7,5.7,6.3,14.8,12.5,21.8,14.9,2.9.9,5.5,1.8,5.7,2s-2.4,3.3-5.7,6.9c-6.1,6.5-12.4,15.1-15.6,21.4-2.8,5.3-9.6,12.1-14.8,14.7-4,2-4.8,2.9-4.8,5.2,0,5,9.8,17.7,19.3,24.8,6.8,5.1,16.7,10.4,26.7,14.1,14.1,5.4,34.9,4.1,57.4-3.7,6.5-2.2,12.5-3.8,13.4-3.5,1,.3,3.9,2.7,6.6,5.5,5.6,5.7,16.8,11.8,27.4,15,4,1.2,7.2,2.8,7.2,3.5s-.7,2.9-1.5,4.9c-.9,2-2.7,8.5-4.2,14.4-2.3,9.2-2.7,12.9-2.7,26.7-.1,8.8.3,19.1.7,22.8l.9,6.8-5.4-.8c-10.6-1.6-28.6-.7-40.8,2-18,4-28.9,5.1-50.2,5.1l-19.8-.1-35.7,45c-19.7,24.8-35.9,45.4-36.1,45.8s1.9,4.1,4.6,8.1c11.2,16.6,12.7,23.4,7.2,32.1-1.6,2.6-2.6,4.7-2.2,4.8.4,0,37.5,0,82.5-.1l81.7-.1,6.1,4c17,11.4,40.4,10.7,56.5-1.5l3.1-2.4h168.7l-4.6-4.8c-6.1-6.3-7.2-8.6-7.1-15.8,0-4.5,1-8.3,3.8-15.3,3-7.5,3.5-9.8,2.7-11.5-.6-1.1-12.3-20.8-25.9-43.6l-24.9-41.5-12.4.3c-15,.4-21.3-.7-43.5-7.8-19.6-6.2-29.8-7.6-44.9-6-5.8.6-14.4,2.2-19.1,3.5-4.7,1.4-8.7,2.5-9,2.5-3,0-4.5-33.9-2.1-47.6,1.7-9.9,7.1-27.2,8.9-29,.7-.6,4.6-1.8,8.7-2.8,10.3-2.3,20.6-8,24.9-13.8l3.4-4.6,3.3,3.3c5.4,5.5,22.6,10.6,39.9,12.1,15,1.2,32.6-2.6,44.8-9.8,12.5-7.3,25.2-19.9,30.3-30,2.1-4,3.1-7.8,2.1-7.8-4.5,0-17.9-2.6-20.6-4-5.4-2.7-11.3-9.4-19.4-21.5-6.6-10-11.8-15.5-19.6-20.5q-2.3-1.6,4.7-4.4c16.7-6.5,28.4-18,41.6-40.7,16.5-28.4,25.5-39.6,35.9-44.7,2.6-1.3,4.7-2.9,4.7-3.6,0-2.2-4.3-6.1-9.5-8.6-4.3-2.1-6.7-2.5-17-2.8-10.8-.4-12.9-.1-19.5,2.1-4.1,1.4-7.6,2.4-7.8,2.2-.1-.1,1.1-3.8,2.8-8,3.1-7.8,7.3-14.7,13.2-21.7,3.1-3.7,3.1-3.8,1.3-5.8-2.4-2.7-10.5-5-17.4-5-5.9,0-19.6,2.9-25.7,5.5-2.1.8-3.9,1.4-4.1,1.1-.7-.6,3.5-19.7,5.7-26,2.6-7.7,2.6-8.2-1.1-9.5-9.4-3.3-28.1,1.1-40.4,9.5l-3.8,2.5.6-8.3c.4-4.6,1.8-12.8,3.3-18.3,4-15,4.4-13.9-5.6-14.3-15.8-.6-27.7,3.9-41.6,15.7l-8.1,6.9-3.1-6.4c-6-12.1-22.2-36.4-24.4-36.4-.4,0-2.6,2.4-4.9,5.2Zm13.7,26.5c8.2,11.3,16.8,33.4,21.6,55.2,1.8,8,2.2,13,2.2,30.1.1,22.7-1,30.8-6.6,47.3-5.6,17-11,24.7-20.3,29.3-5.5,2.6-5.6,2.6-10.1.9-7.4-2.8-15.6-11.2-20.2-20.8-12.7-26-14.7-58.6-5.7-92.9,5-19.5,15.7-42.6,24.7-53.8l5-6.1,2.5,2.3c1.4,1.3,4.5,5.1,6.9,8.5Zm-68-1.8c8.4,4,17.2,12.8,21.3,21.3l3.2,6.7-4.1,13.1c-13.2,43.1-11.5,81.5,4.8,108.4,1.9,3.3,4.9,7.4,6.5,9.3,3.5,4,2.4,4.3-7,1.4-18-5.5-32.7-22.3-40.9-46.7-5.6-16.6-5.3-32,1.2-71.7,1.9-11.6,4-26.5,4.6-33,1.4-13.5,1.1-13.2,10.4-8.8Zm128.9,3.8c-4,10.4-4.8,30.2-3.1,75.3.7,19.7.6,25.1-.8,33-4.3,25.9-14.7,42.7-32.7,52.4-4.6,2.6-5,2.6-7.8,1.1l-3.1-1.5,3.7-4.8c7.2-9.4,14.6-28.6,17.5-45.6.7-3.9,1.2-15,1.2-24.6-.1-19.8-1.6-30.6-7-49.3-1.9-6.5-3.4-12.4-3.4-13.1,0-2.1,6.7-9.2,13.3-14.2,10.7-8.1,24-13.3,22.2-8.7Zm-178.2,24.2c5.7,2.8,12.5,8.8,17.2,15.1l3.7,5-1.7,12.3c-2,14.2-2.3,36.2-.6,46,1.8,10.7,5.7,21.6,10.7,30.2,6,10.2,18.4,22.7,28.4,28.6l7.5,4.4-4.3.3c-6.2.5-20.6-3.4-28.6-7.6-14.6-7.6-29-26.2-35.5-45.9-4.1-12.3-6.1-27.1-7.2-53.8-.5-12.7-1.3-25-1.8-27.5-.6-2.5-1-5.8-1.1-7.4,0-2.8.1-2.8,4.4-2.4,2.4.3,6.4,1.5,8.9,2.7Zm217.4,10.3c-1,13-6.7,55.9-8.8,66.2-6.4,31.5-19.4,51.9-39.2,61.5-6.3,3.1-14.7,5.1-14.7,3.5.1-.5,2.1-2.5,4.6-4.4,8.8-6.8,18.6-22.3,23.4-37,4.4-13.6,5.5-23.1,5.3-47.3,0-12.6-.4-24.8-.7-27.2-.6-3.9-.4-4.7,2.3-7.8,4.3-4.8,12.6-10.3,19.1-12.7,9.2-3.3,9.4-3.2,8.7,5.2Zm-256.9,17c6.8,3.2,16.5,12,18.2,16.3.5,1.4,1,5.4,1,8.7,0,8.9,2.8,25.9,5.7,35.2,5.3,16.9,17.2,36.1,28.6,46.1,2.9,2.5,8.5,6.7,12.6,9.3l7.4,4.7-3.9.3c-5.2.5-15.2-2.2-24.4-6.6-6.1-2.8-9.3-5.3-17-13.1-14.1-14.2-17.8-22-30.1-63.9-5.8-20-7.8-25.1-13.4-34.7-1.5-2.4-2.4-4.9-2-5.5,1.1-1.8,10.5,0,17.3,3.2Zm297.2,4.4c0,.3-2.2,5.1-5,10.7-3.3,6.7-6.9,16.7-10.4,29.2-3,10.4-6.7,21.9-8.1,25.5-6.3,15.5-24.6,38-35.3,43.4-5.2,2.6-17,6.2-17.8,5.3-.3-.2,2.1-2.4,5.3-4.8,12.3-9.5,25.2-31.7,30.2-51.9,1.5-6.3,4.1-19.4,5.6-29,1.6-9.6,3.3-18.1,3.9-18.8,1.4-1.9,10-6.2,16.6-8.3,5.2-1.7,15-2.6,15-1.3Zm-317.8,32.3c7.5,3.6,11,7.8,13.2,15.7,7.6,27.5,13.7,40.2,24.6,51.7,4.4,4.6,10.5,10.2,13.6,12.3l5.7,3.9-5.7.3c-16.7.9-32.8-7.3-42.2-21.5-2.1-3.2-7.3-13.6-11.6-23.1-9.3-20.9-11.3-24.5-18.4-32.4-3-3.3-5.4-6.4-5.4-6.8,0-3.6,18.8-3.6,26.2-.1Zm346.8,3.8c0,.9-1.6,3.3-7.6,11.9-2.3,3.3-8.1,13.3-12.9,22.4-14.9,28.2-21.6,35.9-38.1,44.1-9.9,4.9-11,5.2-19.9,5.7-5.2.2-9.5.2-9.5,0,0-.3,3-2.3,6.6-4.4,6.8-4,17.4-14.3,25.7-25.1,5.9-7.8,11.7-18.5,15.3-28.8,2.3-6.3,4-9.1,7.9-13.1,5.8-5.9,12.6-10.1,19.3-11.9,5.2-1.5,13.2-1.9,13.2-.8Zm-165,82.4c13.1,3,28.5,15.2,34.4,27.4,5.9,12,4.5,24.8-3.6,32-6.7,6.1-11.9,8-22.4,8-8.2,0-9.6-.3-15.5-3.3l-6.4-3.3-6.5,2.8c-5.7,2.4-7.8,2.8-17,2.8s-10.9-.2-15.1-2.7c-14.1-8.3-18.7-23.2-11.3-37,4.1-7.5,15.2-18.9,21.7-22.1,2.9-1.5,8.2-3.4,11.8-4.1,7.6-1.7,23.6-2,29.9-.5Zm-64,8.6c0,.4-1.1,1.8-2.4,3.2-1.3,1.5-5,7.5-8.2,13.5-6.6,12.1-9.5,15-21.4,21.4-14,7.5-30.9,11.2-51.6,11.2-9.8,0-21.5-1.3-23.7-2.7-.4-.2.5-2.1,2.1-4.1s6.5-9.2,11.1-15.9c12.7-18.9,19-23.3,36.8-25.8,10.2-1.4,57.3-2,57.3-.8Zm114.6,2.3c4.3.6,14.4,1.4,22.4,1.9,8.7.6,16.4,1.6,19.3,2.6,6.4,2.3,12.3,8.2,23.2,23.5,9.9,13.8,15.5,19.6,22.1,23.1,2.4,1.3,4.4,2.7,4.4,3.1,0,1.4-10.8,5.9-17.5,7.3-17.9,3.8-41,.4-61.6-9.2-8.9-4.1-9.6-5.2-10.9-16.5-1.3-10.9-2.5-14.8-8.1-26-2.7-5.4-4.9-10-4.9-10.3,0-.7,2.7-.6,11.6.5Zm-129.1,50.2c.7,7.1.6,7.3-2.2,9.7l-2.8,2.4-.3-8.4c-.2-7,0-8.6,1.4-9.6,1-.7,2.1-1.3,2.5-1.3.3,0,1,3.3,1.4,7.2Zm-12.5,6.7c0,8.2-.2,9.1-2.2,10.5-4.3,3.1-4.8,2.3-4.8-7.9,0-9,.1-9.6,2.3-10.5,4.5-1.8,4.7-1.5,4.7,7.9Zm-13.2,4.6c-.3,9.9-1,11.4-5,11.5-1.6,0-1.8-1.1-1.8-9.9,0-10.4.2-10.9,4.8-11,2.4-.1,2.4,0,2,9.4Zm-13.8,2.4q0,9.9-2.6,10.5c-1.5.4-3.1.3-3.6-.2s-.8-4.9-.6-9.7c.3-9.4.5-9.7,6.1-10.4.4-.1.7,4.4.7,9.8Zm-41.2-6.5c.2.2.2,1.8,0,3.5l-.3,3.1-4.5-4.1-4.5-4,4.5.6c2.4.3,4.6.8,4.8.9Zm28,7.9l.3,8.7h-7.1v-8.4c0-7.2.3-8.5,1.8-8.9,4.3-1.2,4.7-.5,5,8.6Zm-13.8-1.3c0,3.8-.2,7-.5,7-.4,0-1.9-.7-3.5-1.5-2.8-1.4-3-2-3-7v-5.5h7v7Zm179.9,9.1c-.5.9-2,2.4-3.4,3.3l-2.5,1.6v-7.9c0-7.8.1-8,2.8-8.9s2.7-.9,3.3,4.7c.3,3.1.2,6.3-.2,7.2Zm-93.8-11.1c1.5.9,1.9,2.2,1.9,6.2v5.2l-3-2.9c-2.2-2.1-3-3.8-3-6.2,0-3.5.9-4,4.1-2.3Zm115.4.7q3.5,1.7,3.5,8c0,3.5-.3,6.3-.6,6.3-.4,0-2.2-.9-4-2.1-3.2-2-3.4-2.3-3.4-8,0-3.2.2-5.9.5-5.9.2,0,2,.8,4,1.7Zm-67.3,3c1.5,1.4,1.8,3.2,1.8,13v11.3h-2.9c-6,0-6.1-.3-6.1-11.8,0-8.4.3-10.9,1.7-12.4,2-2.2,3.1-2.3,5.5-.1Zm31.8,8.2v9.9l-3.1,1.1c-1.8.6-3.4,1.1-3.5,1.1-.2,0-.4-4.7-.4-10.4q0-11.1,5.3-11.5c1.5-.1,1.7,1,1.7,9.8Zm-63.2.4l.3,8.7-3.6-1.7-3.5-1.7v-14.7l3.3.3,3.2.3.3,8.8Zm49.2,2.6c0,10.4-.1,10.9-2.2,11.5-1.3.3-3.3.6-4.5.6-2.2,0-2.3-.3-2.3-9.6,0-11.5.8-13.4,5.5-13.4h3.5v10.9Zm-32.8.6c-.2,5.5-.5,10.1-.7,10.3-.1.2-1.8-.1-3.6-.6l-3.4-.8-.5-9.8-.5-9.7,4.5.3,4.5.3-.3,10Zm97.7-8.4c3,1.1,3.1,1.3,3.1,7.1,0,5.5-.2,5.9-2,5.4-1.1-.3-2.9-.9-4-1.2-1.7-.5-2-1.4-2-6.5,0-6.4.1-6.5,4.9-4.8Zm58.1,1.9c-1.9,1.6-4.7,3.6-6.2,4.5q-2.8,1.6-2.8-1.3c0-2.7.5-3,5.3-4.4,7.4-2.2,7.6-2.1,3.7,1.2Zm-41.2,7.2c.3,5.2.1,5.8-1.7,5.8-4.3,0-5.1-1-5.1-6.7v-5.4l3.3.3c3.2.3,3.2.4,3.5,6Zm25.2-1.8c0,3.9-.3,4.4-2.5,4.8-2.4.5-2.5.3-2.5-3.8s.5-4.7,4.3-5.3c.4,0,.7,1.9.7,4.3Zm-12.2,2.3c-.3,4.4-.5,4.8-3,5.1-2.7.3-2.8.2-2.8-4.7s.1-5.1,3.1-5.1,3,.1,2.7,4.7Zm-110.8,22.1c0,.4-1.2,4.2-2.5,8.5-6.1,18.9-7.5,44.7-3.7,63.5,2.2,11,1.7,11.8-5.4,8.4-4.9-2.4-5.6-4.1-7.4-18.2-2.5-20.2-.2-39,7.1-58.5l1.9-5,5,.3c2.7.2,5,.7,5,1Zm72.5,81.7c29.2,9.2,27,8.8,43.3,9.3l15.2.4,8.4,14.2c4.6,7.7,14.5,24.4,22,37l13.6,22.8-14.7-.4c-11.6-.4-21.2-1.6-44.3-5.6-16.2-2.8-34.6-5.6-40.9-6.3-15.9-1.6-38.3-.7-49.1,2.1-8.9,2.3-21,7.4-25.9,10.9-1.6,1.2-3.4,2.1-4,2.1-1.5,0-1.4-10.5.4-43.5.8-14.9,1.5-28.9,1.5-31.2,0-4.2.1-4.3,5.8-7.2,13.8-7,24.4-9.1,42.7-8.7,13,.3,14.9.6,26,4.1Zm-109.8-1c7.5.7,16,3.5,22,7.2l4.4,2.8-.5,7.5c-.3,4.1-1,18.1-1.6,31-1.3,29.2-2,38.2-2.8,37.8-25.9-13.4-29.3-14.2-60.7-14.2-24.3,0-25.7.1-47.5,3.7-40.3,6.8-55,8.7-66.8,8.7h-11.3l6-7.8c3.4-4.2,17.2-21.7,30.8-38.7l24.8-31,14,.3c17.2.4,32.5-1,51.5-4.8,19.7-4,21.2-4.1,37.7-2.5Zm-9.2,81.4c13,3.2,27.7,10.3,25.6,12.4-.7.7-3.4-.1-8.8-2.6-14.8-6.9-21-8-45.3-8.1-20.6,0-22.8.2-53,4.6-37.7,5.7-48.5,6.8-64,6.8-9.5,0-12-.3-13.1-1.6-1.1-1.4-.6-1.5,5.7-.9,8.5.9,26.9-.7,47.5-4.1,56.8-9.2,58.8-9.4,80.4-8.9,12.6.3,19.1.9,25,2.4Zm116.8-1.9c7,.6,27.4,3.5,45.4,6.6,24.1,4,36.6,5.7,47,6.1,9,.4,14,1,13.6,1.6s-6.2.8-15.7.4c-11.7-.4-21.9-1.7-45.6-5.8-30.1-5.2-30.8-5.2-51.5-5.3-18.7,0-21.9.3-29,2.2-8.4,2.3-20.6,7.7-25.6,11.3l-2.9,2.1-2-2.4c-1.1-1.2-1.9-2.6-2-2.9,0-1.4,16.1-8.9,23.6-11,13.2-3.6,25.7-4.4,44.7-2.9Zm-130.3,9c13.3,1.7,26.8,5.9,32.5,10.3,3.5,2.7,1,2.8-4.8.2-21.1-9.3-46-10.2-91.7-3.5-37,5.5-43.3,6.2-59.2,6.3-11.4.2-16-.1-16.9-1.1-1-1,1.5-1.2,12.6-1.2,15.8,0,30.6-1.5,64-6.6,36.7-5.5,47.8-6.3,63.5-4.4Zm136.5,0c6.1.6,22.9,3,37.5,5.5,14.6,2.4,32.6,5.1,40,5.9l13.5,1.5-12.5-.5c-6.9-.2-19.7-1.5-28.5-2.9-30.5-4.9-35.1-5.5-47.6-6.5-21.7-1.8-41.8,1.5-58.8,9.5-7,3.4-9.7,4.2-10.2,3.3-1.3-2.1,8.8-7.9,20.6-11.8,13.8-4.6,27.2-5.7,46-4Zm-72.6,25c5.3,10.2,6.2,15.2,3.1,18.5s-7.8,4.5-17.3,4.5c-8.1,0-13.2-1.4-15.7-4.4-4.1-5.1,2-20.4,13.3-33.3l3.2-3.6,4.7,5.3c2.6,2.9,6.5,8.8,8.7,13Zm-63.4-16c11.8,1.7,29.5,7,29.5,8.9,0,.4-.6,1.5-1.3,2.5-1.2,1.6-1.9,1.5-11.9-1.3-26.1-7.3-47.8-8-76.8-2.3-22.8,4.5-34.9,5.6-53.5,4.8-20-.9-27.7-2.3-13-2.5,14.5-.2,29.9-1.7,56.5-5.7,12.9-1.9,27.1-3.8,31.5-4.3,11.5-1.2,30.8-1.2,39-.1Zm173,4.1c18.8,3,30.5,4.3,42.2,4.8,14.1.5,16.1.8,15.3,2.1-1.6,2.6-19.7,1.8-41.5-1.8-28.1-4.6-40.1-5.5-62.4-4.9-21.4.6-28.8,1.9-44.1,7.8-4.5,1.7-8.4,2.9-8.7,2.6-2.9-3,19.6-12,36.3-14.7,12-1.9,35.1-.4,62.9,4.1Zm-172.7,7.8c16,3.4,24.2,6.1,24.2,8.2q0,2.3-10.2-.1c-17.5-4.1-30.2-5.3-49.3-4.7-10,.3-24,1.5-31.5,2.6-18.5,2.8-39.7,3.7-54.5,2.2-6.6-.7-12.4-1.6-12.8-2.1-.5-.4,9-.5,21-.2,23.3.5,30.1-.1,53.3-4.4,7.4-1.5,16.4-3,20-3.4,9.5-1.3,29.1-.3,39.8,1.9Zm157-1.4c8.1.9,21.9,2.8,30.7,4.2,11.5,2,19.7,2.7,29.2,2.8,13.9,0,17.3,1.3,7.2,2.8-6.8.9-20.7.2-41.4-2.3-26.5-3.2-47.4-4.2-61.6-3.1-12.8,1.1-29.6,3.9-38.3,6.6-6.1,1.8-6.6,1.9-6.6.1,0-1.5,8.7-5.1,19-8.1,16-4.5,37.3-5.5,61.8-3Zm-159.6,11.9c14.2,2.3,24.8,5,24.8,6.3,0,.8-.7,1-2.2.4-1.2-.4-36.3-.6-78-.3l-75.8.5v-2.7c0-2.1.4-2.6,1.8-2.2.9.3,7.9,1,15.4,1.6,15.5,1.1,32.2.2,54.3-2.9,7.7-1.1,16.3-2.2,19-2.5,8.3-.6,31.9.4,40.7,1.8Zm160.4-1.4c7.1.6,20.2,2,29.1,3.1,11.6,1.5,20.4,2,30.3,1.7,7.7-.2,14-.2,14-.1s.3.8.6,1.7c.6,1.5-6.5,1.6-75.7,1.6-42,0-75.9-.4-75.3-.8,1.9-1.7,23.8-6.2,36.4-7.5,7.7-.8,28.4-.6,40.6.3Z"/>
  <path class="cls-1" d="m637,698.9c0,3,1.4,4.1,5.5,4.1s6.4-1.8,4.9-4.1c-.7-1.2-10.4-1.2-10.4,0Z"/>
  <path class="cls-1" d="m625.5,700.4c-2.2.7-5,1.8-6.3,2.5-2.2,1.2-2.3,1.4-.7,3.1,1.5,1.7,1.8,1.7,6.8-.4,5.3-2.1,5.7-2.5,5.7-5.1,0-1.8-.2-1.8-5.5-.1Z"/>
  <path class="cls-1" d="m654.2,701.2c.2,1.8,1.3,2.4,6.1,3.3,5.2,1,5.9,1,6.8-.6,1.4-2.6,1.3-2.6-4.1-3.8-7.7-1.7-9.2-1.5-8.8,1.1Z"/>
  <path class="cls-1" d="m672.7,705c-.6,2.4-.2,2.7,4.8,3.1,3.4.4,4,.1,4.3-1.7.2-1.7-.4-2.3-2.9-2.8-4.8-.9-5.6-.8-6.2,1.4Z"/>
  <path class="cls-1" d="m689,707.9c0,1.9,3.4,3.1,9.1,3.1,2.2,0,2.9-.5,2.9-1.9,0-2.1-2.6-3.1-8.2-3.1-3.1,0-3.8.4-3.8,1.9Z"/>
  <path class="cls-1" d="m709.7,708.7c-.4.3-.7,1.5-.7,2.5,0,1.5.8,1.8,4.5,1.8,4.1,0,4.5-.2,4.5-2.5s-.4-2.5-3.8-2.5c-2.1,0-4.2.3-4.5.7Z"/>
  <path class="cls-1" d="m630.5,712.4c-9.9,2.6-12.1,4.1-9.2,6.4.9.8,3,.6,7.6-.8,3.4-1.1,7.6-2,9.2-2,2.4,0,2.9-.4,2.9-2.5s-.5-2.5-2.7-2.4c-1.6,0-5,.6-7.8,1.3Z"/>
  <path class="cls-1" d="m649,712.9c0,2.4.5,2.7,7.3,3.6,4.2.6,4.7.4,4.7-1.4,0-2.5-.5-2.8-6.8-3.7-4.9-.6-5.2-.5-5.2,1.5Z"/>
  <path class="cls-1" d="m667.6,715.6c-.8,2.2.5,3,6.1,3.9,4.6.7,6.3.2,6.3-2,0-1.9-.7-2.2-6.6-3-4.3-.5-5.2-.4-5.8,1.1Z"/>
  <path class="cls-1" d="m686.7,718.9c-.7,2.8-.1,3.1,7,3.1,5.5,0,6.3-.2,6.3-1.9,0-1.4-1-2-4.6-2.5-7.1-.9-8.1-.8-8.7,1.3Z"/>
  <path class="cls-1" d="m708.5,720.8c-1,2.6-.5,2.9,4.8,3.6,2.8.4,7.1.9,9.5,1.2,3.8.6,4.2.4,4.2-1.4,0-2.8-.7-3.1-9.9-4-6.4-.6-8.1-.5-8.6.6Z"/>
  <path class="cls-1" d="m643.1,723.9c-.7.5-1.1,1.7-.7,2.7.5,1.6,1.6,1.9,6.8,1.9s6.4-.3,6.9-2c.3-1.1.1-2.3-.5-2.7-1.5-1.1-10.8-1-12.5.1Z"/>
  <path class="cls-1" d="m663.4,726.3c-.3,1.1-.1,2.3.6,2.7,1.8,1.1,8.9,2.1,10.1,1.5,1.3-.9,1.1-4.5-.3-4.5-.7-.1-3.2-.5-5.5-.9-3.8-.7-4.3-.6-4.9,1.2Z"/>
  <path class="cls-1" d="m628,727c-8.4,3.3-5.8,7.4,2.9,4.5,4.8-1.6,4.9-1.7,3.9-4.1-1.3-2.8-.9-2.7-6.8-.4Z"/>
  <path class="cls-1" d="m680.7,729.9c-.7,2.7-.2,2.9,6.7,3.7q5.6.7,5.6-2c0-2-.5-2.6-2.2-2.6-1.3,0-3.9-.3-5.9-.6-3.1-.5-3.7-.3-4.2,1.5Z"/>
  <path class="cls-1" d="m701,733.2c0,2.2.5,2.6,4.6,3.2,7.8,1,9.4.8,9.4-1.3,0-2.6-.5-2.8-7.8-3.7-6.1-.7-6.2-.6-6.2,1.8Z"/>
  <path class="cls-1" d="m722.6,734.5c-.8,2.8,1.2,3.6,8.1,3.2,7-.3,7.9-.8,6.5-3.3-.7-1.3-2.4-1.7-7.5-1.8-5.8-.1-6.7.1-7.1,1.9Z"/>
  <path class="cls-1" d="m646.4,737.6c.3.9.6,2,.6,2.5s2.4.9,5.4.9c4.9,0,5.4-.2,5.8-2.5.5-2.5.4-2.5-5.9-2.5-5.5,0-6.4.2-5.9,1.6Z"/>
  <path class="cls-1" d="m665.8,737.6c-1.9,1.8-.7,4.3,2.2,4.8,1.7.3,4.3.8,5.9,1.2,2.4.4,2.9.1,3.4-1.8.4-1.2.3-2.6-.1-3-1.1-1-10.6-2.1-11.4-1.2Z"/>
  <path class="cls-1" d="m628.8,740.1c-4.2,2.1-4.6,3-2.3,4.9,1.3,1.1,2.6,1,7-.6,4.5-1.5,5.5-2.2,5.5-4.1s-.5-2.3-3.2-2.3c-1.8.1-5,1-7,2.1Z"/>
  <path class="cls-1" d="m684,741.4c0,.8-.2,2.1-.5,2.8-.4,1.1,1.2,1.7,6.7,2.6,3.9.6,7.6.9,8,.6s.8-1.6.8-2.8c0-2.1-.6-2.4-5.7-3-3.2-.4-6.6-.9-7.5-1.2-1.2-.3-1.8,0-1.8,1Z"/>
  <path class="cls-1" d="m705.6,745.6c-.4,1.4-.5,2.8-.3,3s3.8.7,8,1l7.7.7v-2.5c0-2.4-.4-2.6-5.7-3.2-3.2-.4-6.5-.9-7.4-1.2-1.2-.3-1.9.4-2.3,2.2Z"/>
  <path class="cls-1" d="m727.7,748.5c-.6,3.3-.1,3.5,8.3,4.2l7,.6v-2.6c0-2.8.1-2.7-10.6-4.1-3.8-.5-4.2-.4-4.7,1.9Z"/>
  <path class="cls-1" d="m552.2,701.2c.3,2,.9,2.3,4.8,2.3s4.5-.3,4.8-2.3,0-2.2-4.8-2.2-5.1.2-4.8,2.2Z"/>
  <path class="cls-1" d="m537.2,701.3c-4.7.9-5.2,1.2-4.6,3.1.4,1.2.7,2.2.8,2.3.1.2,2.8-.3,5.9-.9,4.9-1.1,5.7-1.5,5.7-3.5q0-2.5-7.8-1Z"/>
  <path class="cls-1" d="m568,702.9c0,2.7,10.3,6.9,12.5,5.1,2.3-1.9,1.9-2.6-3.4-4.9-6.3-2.7-9.1-2.7-9.1-.2Z"/>
  <path class="cls-1" d="m519.3,704.7c-1.5.3-2.3,1.2-2.3,2.4,0,1.5.7,1.9,3.8,1.9,4.6,0,6.5-1.1,5.6-3.3-.6-1.6-2.5-1.9-7.1-1Z"/>
  <path class="cls-1" d="m481,708.5c0,2.2.4,2.5,4,2.5,3.3,0,4-.4,4-1.9,0-2.1-1.9-3.1-5.6-3.1-1.9,0-2.4.5-2.4,2.5Z"/>
  <path class="cls-1" d="m500.3,706.7c-1.5.3-2.3,1.2-2.3,2.4,0,1.7.7,1.9,6,1.9,5.7,0,6-.1,6-2.5,0-2.2-.4-2.5-3.7-2.4-2.1.1-4.8.4-6,.6Z"/>
  <path class="cls-1" d="m542.3,712.7c-3.4.3-4.3.8-4.3,2.3,0,2.7,1,3,6.9,2.3,4.5-.5,5.1-.8,5.1-2.9,0-1.7-.5-2.3-1.7-2.2-1,.1-3.7.3-6,.5Z"/>
  <path class="cls-1" d="m557,714.8c0,1.4,1.4,2,6.6,3,3.6.7,8,2,9.7,2.8,2.8,1.5,3.1,1.5,4.4-.2.7-1,1.3-2.1,1.3-2.5,0-1.2-13-4.9-17.5-4.9-3.6,0-4.5.3-4.5,1.8Z"/>
  <path class="cls-1" d="m522.2,715.7c-2.7.4-3.3.8-3,2.6.3,1.9.9,2.2,4.3,2,6.8-.4,8.4-1.1,7.8-3.3-.5-2-1.6-2.2-9.1-1.3Z"/>
  <path class="cls-1" d="m505.3,717.8c-6,.3-6.3.4-6.3,2.9s.1,2.6,6.1,2c6.8-.6,7.2-.8,6.7-3.4-.3-1.6-1.1-1.8-6.5-1.5Z"/>
  <path class="cls-1" d="m471,721.5v2.5h20v-5h-20v2.5Z"/>
  <path class="cls-1" d="m542,727.5c0,2.6.1,2.6,6.8,2.3,6.1-.3,6.7-.5,7-2.6s0-2.2-6.7-2.2-7.1.1-7.1,2.5Z"/>
  <path class="cls-1" d="m525.8,726.7c-2.8.4-3.4,1.7-2,4,.6.9,2.4,1.1,6,.6,4.7-.5,5.3-.8,5-2.7-.3-2.2-3.3-2.8-9-1.9Z"/>
  <path class="cls-1" d="m563.6,727.7c-1.7,1.8-.2,4,3.9,5.7,4.4,1.8,4.7,1.8,6.6,0q2-1.8-1.3-3.5c-4.1-2-8.3-3.1-9.2-2.2Z"/>
  <path class="cls-1" d="m508.3,729.7c-2.8.4-3.3.8-3.3,3,0,2.5.1,2.5,5.8,1.8,6.9-.9,7.1-1,6.5-3.5-.5-2-1.6-2.2-9-1.3Z"/>
  <path class="cls-1" d="m488.7,731.7c-5.7.4-5.8.5-5.5,3.1.3,2.5.6,2.7,4.3,2.4,7.9-.6,9.5-1.2,9.5-3.8,0-1.4-.5-2.3-1.2-2.2s-3.9.3-7.1.5Z"/>
  <path class="cls-1" d="m461,734.5c0,2.2.4,2.5,3.9,2.5,2.1,0,5.3.3,7,.6,2.9.6,3.1.5,3.1-2.5v-3.1h-7c-6.8,0-7,.1-7,2.5Z"/>
  <path class="cls-1" d="m539,739.4c0,2.2.5,2.4,5.5,2.8,3,.1,5.5.1,5.5-.2s.3-1.5.6-2.8c.6-2.1.4-2.2-5.5-2.2s-6.1.1-6.1,2.4Z"/>
  <path class="cls-1" d="m522.3,738.7c-1.6.3-2.3,1.1-2.3,2.8,0,3.1.5,3.3,6.8,2.2,4.6-.7,5.2-1.1,5.2-3.3s-.4-2.4-3.7-2.3c-2.1.1-4.8.4-6,.6Z"/>
  <path class="cls-1" d="m558.7,739.7c-2.1,2-.4,4.1,5,6.1,5.7,2.1,5.8,2.1,7.7.2s1.9-1.9-3.5-4.5c-5.5-2.5-8-3-9.2-1.8Z"/>
  <path class="cls-1" d="m507,741.5c-.8.2-3.2.6-5.2,1-3.2.5-3.8,1-3.8,3,0,2.1.5,2.5,3,2.5,1.6,0,5.1-.5,7.8-1.1,4.5-.9,4.9-1.2,4.4-3.5-.4-2.3-1.8-2.8-6.2-1.9Z"/>
  <path class="cls-1" d="m479.3,744.7c-2.7.3-3.3.9-3.3,2.9,0,2.2.4,2.4,4.3,2.4,2.3,0,5.9-.3,8-.7,3.1-.5,3.8-.9,3.5-2.7s-1-2.1-4.8-2.2c-2.5-.1-6,.1-7.7.3Z"/>
  <path class="cls-1" d="m451,748v3h9.6c8.4,0,9.5-.2,9-1.6-.3-.9-.6-2.2-.6-3,0-1.1-1.9-1.4-9-1.4h-9v3Z"/>
  <path class="cls-1" d="m553,896.6c-72.3,3.5-151.7,18.2-222.5,41.1-26.3,8.5-77.4,28.4-88.8,34.5l-2.5,1.3,7.9,16.5c4.3,9.1,7.8,17,7.9,17.6,0,.6-8.7,5.4-19.3,10.6-17.9,9-44.7,24.2-44.7,25.4,0,1.6,62.7,117.4,63.5,117.4.6,0,7.8-3.1,16-6.9,33.5-15.3,73.5-29.9,108.5-39.6,13.2-3.6,19.5-5.8,19.4-6.7-.1-.7-2.9-12.9-6.4-27.1-3.4-14.3-5.8-26.2-5.4-26.7,1.1-1,33.8-8,53.4-11.4,50.9-8.9,90.3-12.5,144.1-13.3,61.4-.9,112.7,3.4,170.9,14.3,15.4,2.9,52.1,11.2,52,11.7,0,.1-3.1,12.4-6.9,27.3l-6.8,27.2,14.6,3.7c31.4,8,77.1,24.4,113,40.7,9.6,4.3,17.5,7.7,17.7,7.6.8-.9,61.7-115.2,62.1-116.6.3-1.3-2.6-3.5-11.7-9.1-12.5-7.5-48.5-26.1-50.7-26.1-.7,0-1.3-.4-1.3-.9,0-.6,3.4-8.4,7.5-17.4s7.5-16.8,7.5-17.4c0-2.1-51.2-22.7-83-33.3-68.2-22.8-130.8-35.7-207.5-42.6-16.2-1.5-89.9-2.7-108.5-1.8Zm70.7,20.4c85.7,3.2,167.5,18.5,247.3,46.3,19.1,6.6,51.9,19.3,53.3,20.7,1.1,1-33.2,75-34.7,75-.7,0-7-2.1-14.1-4.6-36.2-12.7-79.6-24.1-121.5-31.8-43.8-8.1-81.6-12-129-13.6-102-3.3-204.7,10.6-301.5,40.7-9.9,3.1-19.1,5.7-20.4,5.7-2.1.1-3.9-3.1-19.2-35.4-9.3-19.5-16.9-35.8-16.9-36.1,0-1.5,41.2-17.3,67.5-25.9,32.1-10.4,55.4-16.6,96.5-25.5,10.7-2.3,41.4-7.3,58-9.4,46.5-6,88.4-7.9,134.7-6.1Zm-350.1,129c19.6,41.8,32.4,70.4,31.6,71.2-.4.4-2.2,1-3.9,1.4l-3.2.6-21.5-43.1c-11.9-23.7-21.6-43.5-21.6-44,0-.7,9.1-5.1,9.7-4.7.1.1,4.1,8.5,8.9,18.6Zm659.8-16l4.6,2.1-22,43.9c-12.1,24.2-22.2,44-22.4,44-1.5,0-6.6-2.4-6.6-3.1,0-.6,7-16.2,15.6-34.7,21.8-47,25.2-54.2,25.7-54.2.2,0,2.5.9,5.1,2Zm-666.2,50.4l21.7,43.4-4.1,1.7c-3.3,1.3-4.3,1.4-5,.3-1.6-2.6-43.8-83.5-43.8-84.1,0-.8,7-4.6,8.5-4.7.6,0,10.8,19.5,22.7,43.4Zm685.3-41.2c2.5,1.2,4.5,2.5,4.5,2.8,0,.7-43.8,84.1-44.6,84.9-.7.8-8.4-2-8.4-3.1,0-1,43.2-86.7,43.7-86.8.1,0,2.3,1,4.8,2.2Zm-704.3,49.9c12,22.8,21.6,41.9,21.4,42.5s-1.8,1.6-3.5,2.2c-3,1-3.2.9-5.5-3.1-1.9-3.3-36.3-67.6-41.5-77.4-1-2.1-.8-2.5,2.1-4.3,1.8-1.1,3.7-1.9,4.2-1.7s10.8,19,22.8,41.8Zm722.6-40.1c2.4,1.5,3.2,2.6,2.7,3.8-.9,2.6-42.6,80.6-43.6,81.6-1,1.1-8.3-2-7.7-3.2,1.4-3.5,44.4-84.2,44.8-84.2.3,0,2,.9,3.8,2Zm-658.2,36.2c1.5,1.5,10.4,22.3,10.4,24.3,0,1.5-6,3.9-7.1,2.8-1-1.1-12.9-27.4-12.9-28.6,0-1.4,8-.2,9.6,1.5Zm571.4,12.5c-6.8,14.6-7,14.8-10.1,14.6-1.7,0-3.6-.6-4.1-1.1-.6-.6.9-5.5,4.2-13.5,5-12.1,5.3-12.6,8.9-13.5,8.7-2.3,8.6-2.7,1.1,13.5Zm-548.3-7.4c.6.7,2.3,4,3.7,7.5l2.5,6.3-2.7,1c-1.5.5-3.3,1.2-4,1.4-1.3.5-2.8-2.4-7.2-13.4l-2.1-5.4,4.3.7c2.4.4,4.8,1.2,5.5,1.9Zm530.3-1.3c0,1.3-6.1,16.2-7.1,17.4-.6.7-7.9-1-7.9-1.9,0-1.4,4.5-12.3,5.5-13.4.7-.7,2.8-1.7,4.6-2.1,4.8-1.1,4.9-1.1,4.9,0Zm-509,5c11.2,2.5,11.1,2.3,1.6,5l-6.7,1.9-1.5-3.4c-.8-1.9-1.4-3.7-1.4-4,0-.8,2.9-.6,8,.5Zm485.5,2.7c-.9,2-1.7,3.9-1.9,4.1-.6.5-13.6-3.2-13.6-3.9,0-.6,12-3.5,15.8-3.8.9-.1.9.8-.3,3.6Z"/>
  <path class="cls-1" d="m715.4,933.2c.3,1.3.6,2.9.6,3.5,0,.7.7,1.3,1.5,1.3,3.4,0,7.5,3.2,10.9,8.7,2,3.2,3.6,6.2,3.6,6.8,0,.7-4.7.3-14.1-1.2-7.8-1.3-14.3-2.2-14.5-2s.2,1.7.8,3.4c1,2.5,1.8,3.2,5,3.6,4.7.6,6.8,2.2,6.8,5.2,0,2-.7,2.4-5.1,3l-5,.7.6,3.8c.6,3.6.5,3.8-3.5,5.4-4.7,1.8-8.3,2-11.1.6-4.9-2.7-.2-6.6,6.7-5.5,4.7.7,5,.3,3.4-3.9-.7-2-1.6-2.6-4-2.6-1.6,0-3-.5-3-1,0-.6.8-1,1.8-1,2.9,0,6.2-2.9,6.2-5.5s-5.2-7.5-8.1-7.5c-1.1,0-3.3.7-4.8,1.5-4.6,2.3-5.4,6.6-2,10.9l2.1,2.7-2.6,2.4c-3,2.8-3.3,5.3-1.1,9.6,4.1,7.9,19.3,9.6,21.1,2.4l.6-2.6,2.4,3.4c2.9,4.3,7.2,6.1,12.3,5.3l4-.6-.6,3.4c-.4,2.9-.1,3.6,2.5,5.5l3,2.1.6-2.7c.3-1.6,1.5-8.9,2.6-16.3,1.2-7.4,2.3-13.6,2.5-13.8s3.4.1,7.2.7c4.4.7,7.2,1.7,8.1,2.8,2.3,3.2,1,4.7-4.6,5.7-5.2,1-5.3,1-4.6,4,1.3,5.9,3.6,10.6,6.7,13.2,2.5,2.1,3.9,2.5,7.9,2.2l4.8-.3v3.6c0,2.5.7,4.2,2.4,5.8,2.9,2.7,2.5,3.9,6.2-15.4,1.5-7.7,3-14.3,3.4-14.8.3-.4,3-.3,5.8.4,5.7,1.2,5.8,1.2,3.9,9.4-.8,3.3-1.9,5.3-3.4,6l-2.1,1.1,2.6,4.9c2.6,4.9,6.2,7.2,6.2,4.1,0-2.3,1.5-2.7,6.7-1.6l4.9,1.1-1,5c-.9,4.7-.9,5.1,1.6,7.6l2.6,2.6,1.1-3.9c.5-2.1,1.9-7.7,3.1-12.4,4.4-17.8,3.7-16.3,7.6-15.6,3.6.7,3.7.5,2.8-3.1-.5-1.8-2.3-2.8-8.8-4.7-13.8-4.2-63.4-14.6-69.7-14.6-2.6,0-3.2-.8-7.2-9.3-5.3-11.2-9.2-15.7-13.7-15.7-2.9,0-3.2.3-2.6,2.2Zm-16.9,22.8c0,2-.6,2.6-2.8,2.8-1.8.2-2.9-.2-3.3-1.2-1.1-2.8.4-4.8,3.3-4.4,2.2.2,2.8.8,2.8,2.8Zm31.1,9.9c-1,8.7-1.5,9.7-5,10.9-3.8,1.4-9.5,1.5-11.4.3-2.7-1.7-.8-4.4,3.8-5.5,4.4-1.1,4.5-1.2,4.4-4.9-.1-2-.9-4.6-1.8-5.6-.9-.9-1.6-2-1.6-2.2,0-.3,2.8,0,6.1.5l6.1,1-.6,5.5Zm33.4.3c4.4,1,5.1,1.5,4.6,3.2-.2,1.2-.8,4.3-1.1,6.9-.6,3.9-1.3,5-3.6,6.2-6.1,3.2-17,.8-13.8-3.1.6-.8,2.2-1.4,3.6-1.4,6,0,7.5-3.1,4.9-9.5q-1.7-3.9,5.4-2.3Zm38.3,8.7c3.1,1.2,3.1,1.5,1.2,9.4-1.3,5.6-2.5,8.4-2.5,5.9,0-.7-.6-1.2-1.2-1.2-.7,0-3-.5-5-1-4.1-1.2-4.1-1.4-1.6-11.4.8-3.5,1.2-3.8,3.6-3.3,1.5.3,3.9,1,5.5,1.6Z"/>
  <path class="cls-1" d="m559,943.1c-9.1.3-21.1,1-26.7,1.4l-10.2.8,1.5,2.8c1,2,2.2,2.9,3.8,2.9,2.2,0,2.4.5,3,8,.6,6.4,1.2,8.6,3.2,10.9,2.7,3.3,8.3,5.5,11.9,4.9,2-.4,2.5,0,2.7,2,.2,1.7,1.5,3.3,3.6,4.5l3.3,1.9-.7-17.1-.7-17.1h17.3v10.8l-3.2-.2c-2.9-.1-3.3.2-3.6,2.7-.3,2.4,1,4.2,8.7,12,7.2,7.4,9.3,8.9,10.3,7.9s.2-2.3-4-6.5c-4.9-5-5.1-5.4-3.5-7,1.3-1.3,1.7-3.6,1.7-10.9l.1-9.3,7.8-.3,7.7-.3v3.3c0,1.8.3,5,.7,7.1.5,3.3.3,3.9-1.6,4.4-3,.8-2.6,2.2,1.8,7.1,4.4,4.8,6.1,5.3,6.1,1.7,0-2.4.3-2.5,5.5-2.5h5.5v4.9c0,4.1.4,5.1,2.6,6.6,1.4.9,2.9,1.4,3.2,1,.4-.4.9-7.8,1.1-16.6l.3-15.9h5.8c3.3,0,6.2.5,6.5,1,1.2,1.9-.6,14-2.1,14-2.6,0-2.3,1.9,1.2,6.4,3.8,5,6.1,5.8,6.6,2.3.2-1.2.9-2.2,1.6-2.1.6.1,3.1.2,5.3.2l4.2.2-.5,4.5c-.5,4-.2,4.8,2,6.5,1.3,1.1,2.8,2,3.2,2,.8,0,1.5-6,2.6-23.3l.6-9.7h7.9l-1.5-2.9c-1.5-2.9-1.7-2.9-12.3-3.6-6-.3-16.6-1-23.7-1.5-14-1.1-40.3-1-66.6.1Zm52,13v7l-5.2-.3-5.3-.3-.3-6.8-.3-6.7h11.1v7.1Zm-64,1.8c0,7.3-.2,8-2.5,9.5-4.4,2.9-6.2,2.1-6.9-3-.3-2.6-.6-6.9-.6-9.5v-4.9h10v7.9Zm101-.4v7.5h-11v-5.3c0-8.9.5-9.7,6.1-9.7h4.9v7.5Z"/>
  <path class="cls-1" d="m480,951.1c-22.2,3.5-55.7,10.2-81,16.1-14,3.3-25.6,6.1-25.8,6.3-.1.1.7,1.3,1.8,2.7l1.9,2.5,12.2-2.9c6.6-1.6,12.2-2.8,12.4-2.6s.5,1.4.7,2.8c.3,2.3-.2,2.6-9.2,5-14.4,3.9-14.9,4.7-6,7.9,6.7,2.5,10.1,6.1,8.3,9-1.1,1.6-3.1,1.8-7,.6-1.8-.6-2.5-.2-3.3,1.9-1.4,3.8-.4,5.3,4.9,7.1,2.6.8,6.1,2.9,7.6,4.5,2.7,2.8,6.5,4.1,6.5,2.2,0-.4-1.7-2.5-3.9-4.6l-3.8-3.7,2.8-2.9c4.6-4.6,3.6-10.5-2.2-13.6-3.9-2-2.8-3.2,3.4-4,3.8-.6,4.7-.4,4.7.8,0,.9.7,4.7,1.6,8.6,1.4,6.4,1.9,7.2,4.6,8.1,1.7.6,3.3,1.1,3.4,1.1.9,0,.2-4.3-2.6-16-3.8-15.8-3.8-16.8-.2-17.6,1.5-.3,3.4-.8,4.3-1,1.3-.4,2,1.5,3.8,10.3,3.8,18,3.9,18.3,7.4,19.8,1.8.7,3.3,1.2,3.5,1,.2-.1-1.1-6.9-2.7-15.1-1.7-8.1-3.1-15.5-3.1-16.5,0-1.3,1.1-1.9,4.3-2.4,2.3-.3,7.7-1.3,12.1-2.1,4.3-.9,8.2-1.2,8.6-.7.4.4,1,2.9,1.3,5.4l.6,4.6-6.4,1.2c-12.7,2.3-14.1,3.9-7.6,9,5,4,7.1,4,7.1.1,0-2.5.4-3,3.5-3.6,2-.3,3.8-.4,4.1-.1.4.3,1.1,3.1,1.8,6.2,1,5,1.5,5.9,4.4,7,4,1.7,4,2.2.7-16.7-1.4-7.8-2.5-14.5-2.5-14.9,0-.9,10.4-2.9,11.2-2.1.3.4,1,3.5,1.6,7,.8,5.8.7,6.4-1.2,7.4s-1.8,1.3,2.3,4.9c5.1,4.5,8.1,5.1,8.1,1.5,0-2.1.6-2.5,4.6-3.1,2.5-.3,4.8-.4,5.1-.2.2.3.7,2.3,1,4.6.4,3.2,1.1,4.3,3.7,5.5,2.7,1.3,3.1,1.3,3.4.1.2-.8-.6-8.1-1.7-16.2-1.2-8.2-2.1-15.2-2.1-15.6s1.3-.7,2.8-.7c3.8,0,4.4-.8,2.5-3.6-1.8-2.8-2.5-2.8-18.3-.3Zm6.4,7.6c.3,1.6.8,4.9,1.2,7.4q.6,4.6-2.6,5.3c-7.4,1.4-7.7,1.2-8.8-6.2-.5-3.7-.9-6.8-.7-7s6.4-1.6,9.7-2.1c.3-.1.9,1.1,1.2,2.6Z"/>
  <path class="cls-1" d="m644,986.7c.1,2.9,2.5,5.3,5.4,5.3,3.6,0,7.4,2.1,11.5,6.4,3.7,3.8,5.1,4.4,5.1,2.3,0-1.9-9.7-12.5-13.1-14.2-4-2.1-8.9-2-8.9.2Z"/>
  <path class="cls-1" d="m489,991.2c.1,3,2.7,4.5,8.3,5,4.4.4,6.9,1.2,10.3,3.6,4.6,3.3,6.4,3.9,6.4,2.3,0-1.1-7.1-7-12-10-4-2.4-13-3-13-.9Z"/>
  <path class="cls-1" d="m793.6,1011.7c.9,3.9,1,4,4.3,4.6,3,.6,8,5,11.7,10.2,3.2,4.5,3.9,2.4,1-3.3-4.5-8.8-10.4-14.2-15.6-14.2-1.7,0-1.9.4-1.4,2.7Z"/>
</svg>