<svg width="23" height="24" viewBox="0 0 23 24" fill="none" xmlns="http://www.w3.org/2000/svg">
<path d="M10.4056 17.8335H12.6612V10.8335H10.4056V17.8335ZM11.5334 8.50016C11.8529 8.50016 12.1208 8.38836 12.3369 8.16475C12.5531 7.94113 12.6612 7.66405 12.6612 7.3335C12.6612 7.00294 12.5531 6.72586 12.3369 6.50225C12.1208 6.27863 11.8529 6.16683 11.5334 6.16683C11.2139 6.16683 10.946 6.27863 10.7299 6.50225C10.5137 6.72586 10.4056 7.00294 10.4056 7.3335C10.4056 7.66405 10.5137 7.94113 10.7299 8.16475C10.946 8.38836 11.2139 8.50016 11.5334 8.50016ZM11.5334 23.6668C9.9733 23.6668 8.50719 23.3606 7.13506 22.7481C5.76293 22.1356 4.56937 21.3043 3.55437 20.2543C2.53937 19.2043 1.73582 17.9696 1.14374 16.5502C0.551657 15.1307 0.255615 13.6141 0.255615 12.0002C0.255615 10.3863 0.551657 8.86961 1.14374 7.45016C1.73582 6.03072 2.53937 4.796 3.55437 3.746C4.56937 2.696 5.76293 1.86475 7.13506 1.25225C8.50719 0.639746 9.9733 0.333496 11.5334 0.333496C13.0935 0.333496 14.5596 0.639746 15.9317 1.25225C17.3039 1.86475 18.4974 2.696 19.5124 3.746C20.5274 4.796 21.331 6.03072 21.923 7.45016C22.5151 8.86961 22.8112 10.3863 22.8112 12.0002C22.8112 13.6141 22.5151 15.1307 21.923 16.5502C21.331 17.9696 20.5274 19.2043 19.5124 20.2543C18.4974 21.3043 17.3039 22.1356 15.9317 22.7481C14.5596 23.3606 13.0935 23.6668 11.5334 23.6668ZM11.5334 21.3335C14.0521 21.3335 16.1855 20.4293 17.9335 18.621C19.6816 16.8127 20.5556 14.6057 20.5556 12.0002C20.5556 9.39461 19.6816 7.18766 17.9335 5.37933C16.1855 3.571 14.0521 2.66683 11.5334 2.66683C9.01469 2.66683 6.88131 3.571 5.13325 5.37933C3.3852 7.18766 2.51117 9.39461 2.51117 12.0002C2.51117 14.6057 3.3852 16.8127 5.13325 18.621C6.88131 20.4293 9.01469 21.3335 11.5334 21.3335Z" fill="black"/>
</svg>