<svg width="39" height="922" viewBox="0 0 39 922" fill="none" xmlns="http://www.w3.org/2000/svg">
<rect width="39" height="919" fill="white"/>
<path d="M31.9332 694.635L27.9898 694.64L27.9839 690.242L13.7273 690.261L13.7332 694.659L9.78984 694.665L9.77191 681.318L13.7152 681.313L13.7212 685.711L27.9778 685.692L27.9719 681.294L31.9152 681.288L31.9332 694.635ZM31.8117 604.254L9.66841 604.283L9.66128 598.975L26.7919 593.219C26.0438 593.281 25.1844 593.353 24.2139 593.435C23.2231 593.517 22.2424 593.589 21.2718 593.651C20.281 593.693 19.4418 593.714 18.7542 593.715L9.65423 593.727L9.64885 589.723L31.7922 589.694L31.7993 595.002L14.6686 600.697C15.3156 600.636 16.084 600.574 16.9737 600.512C17.8634 600.45 18.7632 600.398 19.6731 600.357C20.5831 600.295 21.3919 600.263 22.0997 600.263L31.8063 600.25L31.8117 604.254ZM31.6892 513.083L9.54592 513.113L9.53577 505.56C9.53368 504.003 9.82508 502.648 10.41 501.494C10.9948 500.321 11.8126 499.42 12.8633 498.791C13.914 498.143 15.1472 497.818 16.5627 497.816C17.958 497.814 19.192 498.136 20.2647 498.781C21.3171 499.427 22.1373 500.326 22.7253 501.478C23.3133 502.63 23.6083 503.984 23.6104 505.541L23.6145 508.544L31.6831 508.533L31.6892 513.083ZM19.5195 508.55L19.5154 505.547C19.5141 504.576 19.2502 503.808 18.7237 503.242C18.1769 502.657 17.4586 502.365 16.5688 502.366C15.679 502.367 14.9717 502.661 14.4467 503.248C13.9014 503.815 13.6295 504.584 13.6308 505.555L13.6348 508.558L19.5195 508.55ZM31.8608 414.997C31.8638 417.242 31.2595 419.022 30.048 420.338C28.8364 421.634 27.179 422.283 25.0759 422.286L9.42392 422.307L9.41781 417.757L25.0395 417.736C25.9697 417.735 26.6873 417.501 27.1922 417.036C27.6769 416.55 27.9186 415.872 27.9175 415.002C27.9163 414.153 27.6728 413.486 27.1868 413.001C26.6806 412.517 25.9623 412.275 25.0321 412.276L9.41047 412.297L9.40436 407.747L25.0563 407.726C27.1392 407.723 28.7983 408.378 30.0337 409.691C31.2487 410.984 31.8578 412.752 31.8608 414.997ZM31.4383 326.284L13.5416 326.308L13.5492 331.92L9.30249 331.926L9.2813 316.152L13.528 316.147L13.5355 321.758L31.4322 321.734L31.4383 326.284ZM31.6163 233.021C31.6184 234.578 31.3573 235.933 30.8331 237.087C30.3089 238.24 29.5719 239.131 28.6223 239.759C27.6727 240.387 26.5508 240.702 25.2566 240.704L25.2505 236.154C25.9987 236.153 26.5949 235.869 27.039 235.302C27.4629 234.715 27.6742 233.926 27.6728 232.935C27.6716 231.985 27.4582 231.247 27.0329 230.722C26.6075 230.176 26.0207 229.904 25.2724 229.905C24.6253 229.906 24.0695 230.109 23.6049 230.514C23.1404 230.919 22.8277 231.486 22.6669 232.214L22.1542 234.459C21.7119 236.34 20.8948 237.808 19.7031 238.861C18.4912 239.894 17.0157 240.411 15.2765 240.414C13.9823 240.415 12.8596 240.124 11.9084 239.539C10.9369 238.933 10.1875 238.085 9.66027 236.994C9.13303 235.902 8.8684 234.608 8.86639 233.112C8.86335 230.847 9.42717 229.057 10.5578 227.741C11.6683 226.405 13.1739 225.735 15.0748 225.733L15.0809 230.283C14.3732 230.284 13.8174 230.537 13.4136 231.043C13.0098 231.529 12.8086 232.237 12.8098 233.167C12.811 234.037 13.0141 234.704 13.4192 235.169C13.804 235.633 14.3604 235.865 15.0884 235.864C15.7355 235.863 16.2914 235.68 16.756 235.316C17.2004 234.931 17.503 234.395 17.6639 233.707L18.2067 231.34C18.6489 229.378 19.4558 227.891 20.6274 226.878C21.7787 225.865 23.2542 225.358 25.054 225.355C26.3482 225.354 27.4912 225.676 28.483 226.321C29.4747 226.947 30.2443 227.836 30.7919 228.988C31.3394 230.119 31.6142 231.464 31.6163 233.021Z" fill="black"/>
</svg>
