<svg width="128" height="128" viewBox="0 0 128 128" fill="none" xmlns="http://www.w3.org/2000/svg">
<path d="M32.5 12V116H112.5V38.3984L111.297 37.2031L87.2969 13.2031L86.1016 12H32.5ZM40.5 20H80.5V44H104.5V108H40.5V20ZM88.5 25.6016L98.8984 36H88.5V25.6016ZM96 72.5L78 56.5V68H49.5V77H78V89L96 72.5Z" fill="black"/>
<path d="M32.5 12V116H112.5V38.3984L111.297 37.2031L87.2969 13.2031L86.1016 12H32.5ZM40.5 20H80.5V44H104.5V108H40.5V20ZM88.5 25.6016L98.8984 36H88.5V25.6016ZM96 72.5L78 56.5V68H49.5V77H78V89L96 72.5Z" fill="black"/>
</svg>
