<svg width="121" height="100" viewBox="0 0 121 100" fill="none" xmlns="http://www.w3.org/2000/svg">
<path d="M42.3796 0.506836H77.6707C79.3829 0.506836 80.775 1.90096 80.7751 3.625V10.2363H98.8142C100.527 10.2363 101.919 11.6304 101.919 13.3545V50.3945C101.919 52.1187 100.527 53.5137 98.8142 53.5137H42.3796C40.6672 53.5137 39.2751 52.1187 39.2751 50.3945V3.625C39.2753 1.90096 40.6673 0.506836 42.3796 0.506836Z" fill="#F5F5F5" stroke="black" stroke-width="1.01341"/>
<path d="M46.4563 42.423C46.9331 41.2716 47.4044 40.3807 47.8705 39.7511C48.3363 39.1215 48.943 38.6193 49.6912 38.2448C50.1284 38.0152 50.5838 37.8506 51.0587 37.751C51.5328 37.6517 51.9841 37.5251 52.4127 37.3719C52.8405 37.2189 53.2343 37.0109 53.5939 36.7488C53.9532 36.4867 54.2501 36.0729 54.4846 35.5067C54.8803 34.5505 54.8949 33.7721 54.5275 33.1725C54.1602 32.5729 53.6166 32.1227 52.8975 31.8226C51.8666 31.3924 51.0378 31.3844 50.4109 31.7978C49.7834 32.2114 49.219 32.8859 48.718 33.8213L44.9561 32.2514C45.3521 31.2952 45.867 30.4912 46.5015 29.8403C47.1356 29.1895 47.8528 28.7104 48.6527 28.4031C49.4523 28.0962 50.3162 27.9643 51.2446 28.0082C52.1721 28.052 53.1223 28.2769 54.0947 28.6827C56.1943 29.559 57.6736 30.6802 58.5336 32.0462C59.3927 33.4124 59.4228 35.0614 58.6226 36.9938C58.3639 37.6187 58.0742 38.1385 57.7542 38.5544C57.4336 38.9699 57.0682 39.3153 56.6581 39.5907C56.2476 39.8656 55.7889 40.0922 55.2824 40.27C54.7753 40.4477 54.2162 40.6147 53.6042 40.7713C53.0388 40.9247 52.5666 41.0883 52.187 41.2614C51.8073 41.4352 51.4843 41.6497 51.2195 41.905C50.9538 42.1605 50.7309 42.4514 50.5509 42.7762C50.3703 43.1017 50.1914 43.4794 50.0139 43.9084L46.4563 42.423ZM44 48.0254L45.5881 44.1897L49.5249 45.8328L47.9368 49.6685L44 48.0254Z" fill="#90AF13"/>
<line x1="59.6973" y1="51.1222" x2="85.0324" y2="51.1222" stroke="black" stroke-width="1.01341"/>
<path d="M8.51063 81.0092C6.52098 79.0457 6.49309 75.8347 8.44869 73.8371L31.7062 50.0771L38.9116 57.187L15.6541 80.9465C13.6985 82.9446 10.5003 82.9726 8.51063 81.0092Z" fill="#777777"/>
<path opacity="0.2" d="M50.0091 59.1697C61.2899 59.1437 70.4138 49.9411 70.3878 38.6152C70.3619 27.2893 61.196 18.1289 49.9152 18.155C38.6344 18.181 29.5105 27.3836 29.5365 38.7095C29.5624 50.0354 38.7284 59.1958 50.0091 59.1697Z" fill="#DCF0FF"/>
<path opacity="0.5" d="M30.8423 45.8952C31.5311 47.735 32.491 49.4946 33.7238 51.1112L70.3784 38.3821C70.3509 36.3923 70.0355 34.4071 69.4353 32.4927L30.8423 45.8952Z" fill="white"/>
<path opacity="0.5" d="M29.5801 40.0226C29.6564 41.1862 29.8315 42.3435 30.1048 43.4824L68.5329 30.1376C68.0537 29.0852 67.4831 28.0658 66.8177 27.0913L29.5801 40.0226Z" fill="white"/>
<path d="M66.4799 21.7874C57.1946 12.6252 42.2694 12.7553 33.1437 22.0782C24.0179 31.4006 24.1476 46.3856 33.4333 55.5478C42.7186 64.71 57.6438 64.5798 66.7695 55.257C75.8952 45.9341 75.7656 30.9492 66.4799 21.7874ZM36.3493 52.5687C28.7024 45.0235 28.5958 32.6832 36.1109 25.0054C43.626 17.328 55.9171 17.2209 63.5639 24.7661C71.2107 32.3113 71.3174 44.6516 63.8023 52.3294C56.2876 60.0068 43.9961 60.1139 36.3493 52.5687Z" fill="#777777"/>
<path d="M33.3386 59.3726L14.9485 78.1595" stroke="white" stroke-width="1.01341" stroke-miterlimit="10" stroke-linecap="round" stroke-linejoin="round"/>
<path d="M51.648 16.7006C45.8538 16.1137 39.8467 18.1216 35.5589 22.0781C31.2711 26.035 28.7732 31.8758 28.8683 37.722" stroke="white" stroke-width="1.01341" stroke-miterlimit="10" stroke-linecap="round" stroke-linejoin="round"/>
<path d="M2.02094 97.7681V88.0183H2.89321C3.26839 88.4216 3.66232 88.8812 4.07501 89.397C4.4877 89.9129 4.90039 90.4522 5.31308 91.015C5.73514 91.5683 6.14314 92.1264 6.53708 92.6892C6.93101 93.2519 7.29211 93.7912 7.62039 94.3071C7.95804 94.823 8.24411 95.2872 8.47859 95.6999V88.0183H9.5619V97.7681H8.64742C8.4317 97.3741 8.15501 96.9099 7.81735 96.3752C7.4797 95.8312 7.10921 95.2591 6.7059 94.6588C6.30259 94.0492 5.88521 93.4442 5.45376 92.8439C5.0317 92.2343 4.61432 91.6668 4.20163 91.1416C3.79832 90.607 3.43252 90.1474 3.10425 89.7628V97.7681H2.02094ZM14.9203 97.9369C14.2731 97.9369 13.6963 97.7821 13.1898 97.4726C12.6833 97.1537 12.2847 96.7082 11.994 96.1361C11.7126 95.5639 11.5719 94.8933 11.5719 94.1242C11.5719 93.3551 11.7126 92.6892 11.994 92.1264C12.2847 91.5543 12.6833 91.1088 13.1898 90.7899C13.6963 90.471 14.2731 90.3115 14.9203 90.3115C15.5769 90.3115 16.1584 90.471 16.6649 90.7899C17.1713 91.1088 17.5653 91.5543 17.8467 92.1264C18.1374 92.6892 18.2828 93.3551 18.2828 94.1242C18.2828 94.8933 18.1374 95.5639 17.8467 96.1361C17.5653 96.7082 17.1713 97.1537 16.6649 97.4726C16.1678 97.7821 15.5862 97.9369 14.9203 97.9369ZM14.9203 96.9943C15.3893 96.9943 15.7926 96.877 16.1302 96.6425C16.4679 96.4081 16.7258 96.0751 16.904 95.6437C17.0916 95.2122 17.1854 94.7057 17.1854 94.1242C17.1854 93.5427 17.0916 93.0362 16.904 92.6048C16.7258 92.1733 16.4679 91.8403 16.1302 91.6059C15.7926 91.3714 15.3893 91.2541 14.9203 91.2541C14.4607 91.2541 14.0621 91.3714 13.7244 91.6059C13.3868 91.8403 13.1242 92.1733 12.9366 92.6048C12.7584 93.0362 12.6693 93.5427 12.6693 94.1242C12.6693 94.7057 12.7584 95.2122 12.9366 95.6437C13.1242 96.0751 13.3868 96.4081 13.7244 96.6425C14.0621 96.877 14.4607 96.9943 14.9203 96.9943ZM23.4387 97.7681V90.818C23.6826 90.7148 24.0156 90.6117 24.4376 90.5085C24.8691 90.3959 25.3849 90.3397 25.9852 90.3397C26.1822 90.3397 26.3745 90.3537 26.5621 90.3819C26.759 90.4006 26.9325 90.4288 27.0826 90.4663C27.2421 90.4944 27.3593 90.5225 27.4343 90.5507L27.2233 91.4511C27.1389 91.4136 26.9794 91.3761 26.7449 91.3385C26.5105 91.2917 26.2103 91.2682 25.8445 91.2682C25.4881 91.2682 25.1927 91.2963 24.9582 91.3526C24.7237 91.3995 24.5689 91.4417 24.4939 91.4792V97.7681H23.4387ZM31.9495 97.9228C31.096 97.9228 30.4019 97.7587 29.8673 97.4304C29.342 97.1021 28.9528 96.6519 28.6995 96.0798C28.4557 95.5077 28.3338 94.8558 28.3338 94.1242C28.3338 93.2707 28.4885 92.5625 28.798 91.9998C29.1075 91.437 29.5062 91.015 29.9939 90.7336C30.491 90.4522 31.0115 90.3115 31.5555 90.3115C32.1652 90.3115 32.6904 90.4428 33.1313 90.7054C33.5815 90.9587 33.9285 91.3526 34.1724 91.8872C34.4162 92.4125 34.5382 93.0831 34.5382 93.8991C34.5382 93.9648 34.5335 94.0445 34.5241 94.1383C34.5241 94.2227 34.5194 94.3024 34.51 94.3774H29.4311C29.4686 95.2028 29.6891 95.8453 30.0924 96.3049C30.5051 96.7551 31.1429 96.9802 32.0058 96.9802C32.4841 96.9802 32.8733 96.938 33.1735 96.8536C33.483 96.7598 33.7034 96.6801 33.8347 96.6144L34.0176 97.5008C33.8863 97.5758 33.6284 97.6649 33.2438 97.7681C32.8686 97.8712 32.4372 97.9228 31.9495 97.9228ZM29.4593 93.5192H33.4689C33.4595 93.0409 33.3798 92.6329 33.2298 92.2952C33.0797 91.9482 32.864 91.6856 32.5826 91.5074C32.3106 91.3198 31.9729 91.226 31.5696 91.226C31.1569 91.226 30.7958 91.3339 30.4863 91.5496C30.1768 91.7653 29.9329 92.0467 29.7547 92.3937C29.5859 92.7408 29.4874 93.1159 29.4593 93.5192ZM39.5855 97.9228C38.8164 97.9228 38.1739 97.7681 37.6581 97.4585C37.1422 97.1397 36.753 96.6941 36.4903 96.122C36.2277 95.5499 36.0964 94.8886 36.0964 94.1383C36.0964 93.3785 36.2324 92.7126 36.5044 92.1405C36.7764 91.5683 37.1657 91.1228 37.6721 90.8039C38.188 90.4757 38.7977 90.3115 39.5011 90.3115C39.8857 90.3115 40.2514 90.3443 40.5985 90.41C40.9455 90.4757 41.2175 90.5601 41.4145 90.6632L41.1472 91.5496C40.9596 91.4652 40.7486 91.3948 40.5141 91.3385C40.2796 91.2823 39.9701 91.2541 39.5855 91.2541C38.807 91.2541 38.2114 91.5074 37.7988 92.0139C37.3954 92.5203 37.1938 93.2285 37.1938 94.1383C37.1938 94.701 37.2782 95.1981 37.447 95.6296C37.6159 96.0517 37.8879 96.3846 38.263 96.6285C38.6382 96.863 39.1353 96.9802 39.7543 96.9802C40.1201 96.9802 40.439 96.938 40.711 96.8536C40.9924 96.7692 41.1988 96.6941 41.3301 96.6285L41.5411 97.5289C41.3629 97.6227 41.0909 97.7118 40.7251 97.7962C40.3593 97.8806 39.9794 97.9228 39.5855 97.9228ZM46.2108 97.9228C45.3573 97.9228 44.6632 97.7587 44.1286 97.4304C43.6033 97.1021 43.2141 96.6519 42.9609 96.0798C42.717 95.5077 42.5951 94.8558 42.5951 94.1242C42.5951 93.2707 42.7498 92.5625 43.0593 91.9998C43.3689 91.437 43.7675 91.015 44.2552 90.7336C44.7523 90.4522 45.2729 90.3115 45.8169 90.3115C46.4265 90.3115 46.9518 90.4428 47.3926 90.7054C47.8428 90.9587 48.1898 91.3526 48.4337 91.8872C48.6776 92.4125 48.7995 93.0831 48.7995 93.8991C48.7995 93.9648 48.7948 94.0445 48.7854 94.1383C48.7854 94.2227 48.7807 94.3024 48.7713 94.3774H43.6924C43.73 95.2028 43.9504 95.8453 44.3537 96.3049C44.7664 96.7551 45.4042 96.9802 46.2671 96.9802C46.7454 96.9802 47.1347 96.938 47.4348 96.8536C47.7443 96.7598 47.9647 96.6801 48.096 96.6144L48.2789 97.5008C48.1476 97.5758 47.8897 97.6649 47.5051 97.7681C47.13 97.8712 46.6985 97.9228 46.2108 97.9228ZM43.7206 93.5192H47.7302C47.7209 93.0409 47.6411 92.6329 47.4911 92.2952C47.341 91.9482 47.1253 91.6856 46.8439 91.5074C46.5719 91.3198 46.2342 91.226 45.8309 91.226C45.4182 91.226 45.0571 91.3339 44.7476 91.5496C44.4381 91.7653 44.1942 92.0467 44.016 92.3937C43.8472 92.7408 43.7487 93.1159 43.7206 93.5192ZM50.7798 97.7681V90.7336C51.0706 90.6585 51.4504 90.5741 51.9194 90.4803C52.3884 90.3865 52.9511 90.3397 53.6077 90.3397C54.3674 90.3397 54.9583 90.4803 55.3804 90.7617C55.8024 91.0431 56.0979 91.437 56.2667 91.9435C56.4449 92.4406 56.534 93.0221 56.534 93.6881V97.7681H55.4788V93.9835C55.4788 93.3176 55.4179 92.7877 55.2959 92.3937C55.174 91.9998 54.9677 91.7137 54.6769 91.5355C54.3861 91.3573 53.9828 91.2682 53.467 91.2682C53.073 91.2682 52.726 91.2917 52.4259 91.3385C52.1257 91.3854 51.9288 91.423 51.835 91.4511V97.7681H50.7798ZM61.1949 97.9228C60.5759 97.9228 60.0881 97.815 59.7317 97.5992C59.3753 97.3835 59.1221 97.0599 58.972 96.6285C58.8313 96.197 58.761 95.6577 58.761 95.0105V88.37L59.8161 88.1871V90.4803H62.6721V91.3667H59.8161V95.095C59.8161 95.6108 59.8724 96.0048 59.985 96.2768C60.1069 96.5488 60.2757 96.7363 60.4915 96.8395C60.7166 96.9333 60.9792 96.9802 61.2793 96.9802C61.6357 96.9802 61.9312 96.938 62.1657 96.8536C62.4095 96.7692 62.6018 96.6941 62.7425 96.6285L62.9676 97.4867C62.8269 97.5711 62.5924 97.6649 62.2641 97.7681C61.9452 97.8712 61.5888 97.9228 61.1949 97.9228ZM67.3866 97.7681C67.4241 96.9052 67.4663 96.047 67.5132 95.1934C67.5601 94.3399 67.6117 93.5052 67.6679 92.6892C67.7242 91.8638 67.7852 91.0619 67.8508 90.2834C67.9165 89.4955 67.9915 88.7405 68.0759 88.0183H69.0608C69.3328 88.4685 69.6188 88.9937 69.919 89.594C70.2285 90.1849 70.538 90.8086 70.8475 91.4652C71.1571 92.1123 71.4525 92.7501 71.7339 93.3785C72.0246 94.007 72.2826 94.5744 72.5077 95.0809C72.7328 94.5744 72.986 94.007 73.2674 93.3785C73.5582 92.7501 73.8583 92.1123 74.1678 91.4652C74.4773 90.8086 74.7868 90.1849 75.0964 89.594C75.4059 88.9937 75.692 88.4685 75.9546 88.0183H76.8831C76.9675 88.7405 77.0426 89.4955 77.1082 90.2834C77.1833 91.0619 77.2442 91.8638 77.2911 92.6892C77.3474 93.5052 77.399 94.3399 77.4459 95.1934C77.5022 96.047 77.5491 96.9052 77.5866 97.7681H76.4892C76.4517 96.8114 76.4095 95.8734 76.3626 94.9543C76.3251 94.0257 76.2782 93.13 76.2219 92.2671C76.1656 91.4042 76.0999 90.5882 76.0249 89.8191C75.9311 89.9973 75.7811 90.2928 75.5747 90.7054C75.3777 91.1088 75.1526 91.5777 74.8994 92.1123C74.6462 92.6376 74.3882 93.1769 74.1256 93.7303C73.8724 94.2837 73.6379 94.7948 73.4222 95.2638C73.2158 95.7328 73.0564 96.1032 72.9438 96.3752H72.0012C71.8886 96.1032 71.7245 95.7328 71.5088 95.2638C71.3024 94.7948 71.0679 94.2837 70.8053 93.7303C70.5521 93.1769 70.2988 92.6376 70.0456 92.1123C69.7924 91.5777 69.5626 91.1088 69.3562 90.7054C69.1593 90.2928 69.0139 89.9973 68.9201 89.8191C68.8451 90.5882 68.7794 91.4042 68.7231 92.2671C68.6668 93.13 68.6153 94.0257 68.5684 94.9543C68.5308 95.8734 68.4933 96.8114 68.4558 97.7681H67.3866ZM82.7096 97.9369C82.0625 97.9369 81.4856 97.7821 80.9792 97.4726C80.4727 97.1537 80.0741 96.7082 79.7833 96.1361C79.5019 95.5639 79.3612 94.8933 79.3612 94.1242C79.3612 93.3551 79.5019 92.6892 79.7833 92.1264C80.0741 91.5543 80.4727 91.1088 80.9792 90.7899C81.4856 90.471 82.0625 90.3115 82.7096 90.3115C83.3662 90.3115 83.9477 90.471 84.4542 90.7899C84.9607 91.1088 85.3546 91.5543 85.636 92.1264C85.9268 92.6892 86.0721 93.3551 86.0721 94.1242C86.0721 94.8933 85.9268 95.5639 85.636 96.1361C85.3546 96.7082 84.9607 97.1537 84.4542 97.4726C83.9571 97.7821 83.3756 97.9369 82.7096 97.9369ZM82.7096 96.9943C83.1786 96.9943 83.5819 96.877 83.9196 96.6425C84.2572 96.4081 84.5152 96.0751 84.6934 95.6437C84.881 95.2122 84.9748 94.7057 84.9748 94.1242C84.9748 93.5427 84.881 93.0362 84.6934 92.6048C84.5152 92.1733 84.2572 91.8403 83.9196 91.6059C83.5819 91.3714 83.1786 91.2541 82.7096 91.2541C82.2501 91.2541 81.8514 91.3714 81.5138 91.6059C81.1761 91.8403 80.9135 92.1733 80.7259 92.6048C80.5477 93.0362 80.4586 93.5427 80.4586 94.1242C80.4586 94.7057 80.5477 95.2122 80.7259 95.6437C80.9135 96.0751 81.1761 96.4081 81.5138 96.6425C81.8514 96.877 82.2501 96.9943 82.7096 96.9943ZM91.1927 97.9369C90.4799 97.9369 89.8514 97.7868 89.3074 97.4867C88.7634 97.1772 88.3414 96.741 88.0412 96.1783C87.7411 95.6061 87.591 94.9261 87.591 94.1383C87.591 93.3879 87.7177 92.7267 87.9709 92.1545C88.2335 91.5824 88.6087 91.1369 89.0964 90.818C89.5935 90.4897 90.1891 90.3256 90.8832 90.3256C91.3334 90.3256 91.7273 90.3912 92.065 90.5225C92.412 90.6445 92.6699 90.7664 92.8388 90.8883V87.0334L93.8799 86.8505V97.543C93.7017 97.5992 93.4812 97.6602 93.2186 97.7259C92.956 97.7821 92.6559 97.829 92.3182 97.8665C91.9899 97.9134 91.6148 97.9369 91.1927 97.9369ZM91.2068 96.9943C91.6194 96.9943 91.9571 96.9755 92.2197 96.938C92.4917 96.8911 92.6981 96.8489 92.8388 96.8114V91.8732C92.6793 91.7419 92.4354 91.6105 92.1072 91.4792C91.7789 91.3385 91.4084 91.2682 90.9957 91.2682C90.5737 91.2682 90.2125 91.3432 89.9124 91.4933C89.6217 91.634 89.3825 91.8357 89.1949 92.0983C89.0167 92.3609 88.8854 92.6657 88.801 93.0128C88.7259 93.3598 88.6884 93.7303 88.6884 94.1242C88.6884 94.7339 88.7916 95.2544 88.9979 95.6859C89.2137 96.1079 89.5091 96.4315 89.8843 96.6566C90.2688 96.8817 90.7097 96.9943 91.2068 96.9943ZM99.0848 97.9088C98.3532 97.9088 97.7717 97.7728 97.3403 97.5008C96.9182 97.2194 96.6134 96.8254 96.4258 96.319C96.2476 95.8125 96.1585 95.2263 96.1585 94.5603V90.4803H97.2137V94.279C97.2137 94.9355 97.2793 95.4608 97.4106 95.8547C97.5419 96.2486 97.753 96.5347 98.0437 96.7129C98.3439 96.8817 98.7378 96.9661 99.2255 96.9661C99.6194 96.9661 99.9665 96.9474 100.267 96.9099C100.576 96.863 100.778 96.8254 100.872 96.7973V90.4803H101.913V97.5148C101.631 97.5899 101.251 97.6743 100.773 97.7681C100.304 97.8619 99.7414 97.9088 99.0848 97.9088ZM106.25 97.8947C105.8 97.8759 105.425 97.8009 105.124 97.6696C104.834 97.5383 104.618 97.3366 104.477 97.0646C104.337 96.7832 104.266 96.4081 104.266 95.9391V87.0334L105.321 86.8505V95.8688C105.321 96.319 105.401 96.6097 105.561 96.741C105.729 96.8723 106.011 96.9661 106.405 97.0224L106.25 97.8947ZM111.156 97.9228C110.303 97.9228 109.609 97.7587 109.074 97.4304C108.549 97.1021 108.159 96.6519 107.906 96.0798C107.662 95.5077 107.54 94.8558 107.54 94.1242C107.54 93.2707 107.695 92.5625 108.005 91.9998C108.314 91.437 108.713 91.015 109.201 90.7336C109.698 90.4522 110.218 90.3115 110.762 90.3115C111.372 90.3115 111.897 90.4428 112.338 90.7054C112.788 90.9587 113.135 91.3526 113.379 91.8872C113.623 92.4125 113.745 93.0831 113.745 93.8991C113.745 93.9648 113.74 94.0445 113.731 94.1383C113.731 94.2227 113.726 94.3024 113.717 94.3774H108.638C108.675 95.2028 108.896 95.8453 109.299 96.3049C109.712 96.7551 110.349 96.9802 111.212 96.9802C111.691 96.9802 112.08 96.938 112.38 96.8536C112.69 96.7598 112.91 96.6801 113.041 96.6144L113.224 97.5008C113.093 97.5758 112.835 97.6649 112.45 97.7681C112.075 97.8712 111.644 97.9228 111.156 97.9228ZM108.666 93.5192H112.676C112.666 93.0409 112.586 92.6329 112.436 92.2952C112.286 91.9482 112.071 91.6856 111.789 91.5074C111.517 91.3198 111.18 91.226 110.776 91.226C110.364 91.226 110.002 91.3339 109.693 91.5496C109.383 91.7653 109.14 92.0467 108.961 92.3937C108.793 92.7408 108.694 93.1159 108.666 93.5192ZM117.287 97.9369C116.658 97.9369 116.166 97.8806 115.81 97.7681C115.462 97.6649 115.228 97.5852 115.106 97.5289L115.359 96.6003C115.462 96.6379 115.674 96.7176 115.992 96.8395C116.311 96.9614 116.743 97.0224 117.287 97.0224C117.803 97.0224 118.22 96.9427 118.539 96.7832C118.858 96.6238 119.017 96.3471 119.017 95.9532C119.017 95.6999 118.961 95.4983 118.848 95.3482C118.736 95.1888 118.553 95.0434 118.3 94.9121C118.056 94.7808 117.718 94.6307 117.287 94.4619C116.921 94.3118 116.583 94.1523 116.274 93.9835C115.964 93.8147 115.711 93.599 115.514 93.3363C115.326 93.0737 115.233 92.7361 115.233 92.3234C115.233 91.9201 115.336 91.5683 115.542 91.2682C115.749 90.9681 116.039 90.7336 116.414 90.5648C116.799 90.3959 117.254 90.3115 117.779 90.3115C118.267 90.3115 118.68 90.3537 119.017 90.4381C119.355 90.5225 119.594 90.5976 119.735 90.6632L119.496 91.5777C119.374 91.5121 119.177 91.437 118.905 91.3526C118.633 91.2588 118.248 91.2119 117.751 91.2119C117.357 91.2119 117.015 91.2963 116.724 91.4652C116.433 91.6246 116.288 91.8825 116.288 92.239C116.288 92.4922 116.349 92.6985 116.471 92.858C116.593 93.0081 116.776 93.1441 117.019 93.266C117.263 93.3879 117.563 93.5192 117.92 93.6599C118.323 93.8194 118.684 93.9882 119.003 94.1664C119.331 94.3352 119.594 94.5557 119.791 94.8277C119.988 95.0997 120.087 95.4608 120.087 95.911C120.087 96.3518 119.974 96.727 119.749 97.0365C119.524 97.3366 119.2 97.5617 118.778 97.7118C118.365 97.8619 117.868 97.9369 117.287 97.9369Z" fill="#020202"/>
</svg>
