<svg width="126" height="101" viewBox="0 0 126 101" fill="none" xmlns="http://www.w3.org/2000/svg">
<path d="M38.3796 0.506836H73.6707C75.3829 0.506836 76.775 1.90096 76.7751 3.625V10.2363H94.8142C96.5265 10.2363 97.9186 11.6304 97.9187 13.3545V50.3945C97.9187 52.1187 96.5266 53.5137 94.8142 53.5137H38.3796C36.6672 53.5137 35.2751 52.1187 35.2751 50.3945V3.625C35.2753 1.90096 36.6673 0.506836 38.3796 0.506836Z" fill="#F5F5F5" stroke="black" stroke-width="1.01341"/>
<path d="M42.4563 42.423C42.9331 41.2716 43.4044 40.3807 43.8705 39.7511C44.3363 39.1215 44.943 38.6193 45.6912 38.2448C46.1284 38.0152 46.5838 37.8506 47.0587 37.751C47.5328 37.6517 47.9841 37.5251 48.4127 37.3719C48.8405 37.2189 49.2343 37.0109 49.5939 36.7488C49.9532 36.4867 50.2501 36.0729 50.4846 35.5067C50.8803 34.5505 50.8949 33.7721 50.5275 33.1725C50.1602 32.5729 49.6166 32.1227 48.8975 31.8226C47.8666 31.3924 47.0378 31.3844 46.4109 31.7978C45.7834 32.2114 45.219 32.8859 44.718 33.8213L40.9561 32.2514C41.3521 31.2952 41.867 30.4912 42.5015 29.8403C43.1356 29.1895 43.8528 28.7104 44.6527 28.4031C45.4523 28.0962 46.3162 27.9643 47.2446 28.0082C48.1721 28.052 49.1223 28.2769 50.0947 28.6827C52.1943 29.559 53.6736 30.6802 54.5336 32.0462C55.3927 33.4124 55.4228 35.0614 54.6226 36.9938C54.3639 37.6187 54.0742 38.1385 53.7542 38.5544C53.4336 38.9699 53.0682 39.3153 52.6581 39.5907C52.2476 39.8656 51.7889 40.0922 51.2824 40.27C50.7753 40.4477 50.2162 40.6147 49.6042 40.7713C49.0388 40.9247 48.5666 41.0883 48.187 41.2614C47.8073 41.4352 47.4843 41.6497 47.2195 41.905C46.9538 42.1605 46.7309 42.4514 46.5509 42.7762C46.3703 43.1017 46.1914 43.4794 46.0139 43.9084L42.4563 42.423ZM40 48.0254L41.5881 44.1897L45.5249 45.8328L43.9368 49.6685L40 48.0254Z" fill="#90AF13"/>
<line x1="55.6973" y1="51.1222" x2="81.0324" y2="51.1222" stroke="black" stroke-width="1.01341"/>
<path d="M4.51063 81.0092C2.52098 79.0457 2.49309 75.8347 4.44869 73.8371L27.7062 50.0771L34.9116 57.187L11.6541 80.9465C9.69848 82.9446 6.50028 82.9726 4.51063 81.0092Z" fill="#777777"/>
<path opacity="0.2" d="M46.0091 59.1697C57.2899 59.1437 66.4138 49.9411 66.3878 38.6152C66.3619 27.2893 57.196 18.1289 45.9152 18.155C34.6344 18.181 25.5105 27.3836 25.5365 38.7095C25.5624 50.0354 34.7284 59.1958 46.0091 59.1697Z" fill="#DCF0FF"/>
<path opacity="0.5" d="M26.8423 45.8952C27.5311 47.735 28.491 49.4946 29.7238 51.1112L66.3784 38.3821C66.3509 36.3923 66.0355 34.4071 65.4353 32.4927L26.8423 45.8952Z" fill="white"/>
<path opacity="0.5" d="M25.5801 40.0226C25.6564 41.1862 25.8315 42.3435 26.1048 43.4824L64.5329 30.1376C64.0537 29.0852 63.4831 28.0658 62.8177 27.0913L25.5801 40.0226Z" fill="white"/>
<path d="M62.4799 21.7874C53.1946 12.6252 38.2694 12.7553 29.1437 22.0782C20.0179 31.4006 20.1476 46.3856 29.4333 55.5478C38.7186 64.71 53.6438 64.5798 62.7695 55.257C71.8952 45.9341 71.7656 30.9492 62.4799 21.7874ZM32.3493 52.5687C24.7024 45.0235 24.5958 32.6832 32.1109 25.0054C39.626 17.328 51.9171 17.2209 59.5639 24.7661C67.2107 32.3113 67.3174 44.6516 59.8023 52.3294C52.2876 60.0068 39.9961 60.1139 32.3493 52.5687Z" fill="#777777"/>
<path d="M29.3386 59.3726L10.9485 78.1595" stroke="white" stroke-width="1.01341" stroke-miterlimit="10" stroke-linecap="round" stroke-linejoin="round"/>
<path d="M47.648 16.7006C41.8538 16.1137 35.8467 18.1216 31.5589 22.0781C27.2711 26.035 24.7732 31.8758 24.8683 37.722" stroke="white" stroke-width="1.01341" stroke-miterlimit="10" stroke-linecap="round" stroke-linejoin="round"/>
<path d="M7.90065 98V87.9728H8.79774C9.18359 88.3876 9.58873 88.8603 10.0132 89.3908C10.4376 89.9213 10.862 90.476 11.2865 91.0548C11.7205 91.6239 12.1401 92.1978 12.5453 92.7766C12.9504 93.3554 13.3218 93.91 13.6594 94.4406C14.0067 94.9711 14.3009 95.4486 14.542 95.873V87.9728H15.6562V98H14.7157C14.4938 97.5949 14.2092 97.1174 13.862 96.5675C13.5147 96.0081 13.1337 95.4197 12.7189 94.8023C12.3041 94.1753 11.8749 93.5531 11.4311 92.9358C10.9971 92.3088 10.5678 91.7252 10.1434 91.185C9.7286 90.6352 9.3524 90.1625 9.01478 89.767V98H7.90065ZM21.167 98.1736C20.5014 98.1736 19.9082 98.0145 19.3873 97.6961C18.8664 97.3682 18.4564 96.91 18.1574 96.3216C17.868 95.7332 17.7233 95.0435 17.7233 94.2525C17.7233 93.4615 17.868 92.7766 18.1574 92.1978C18.4564 91.6094 18.8664 91.1512 19.3873 90.8233C19.9082 90.4953 20.5014 90.3313 21.167 90.3313C21.8422 90.3313 22.4403 90.4953 22.9612 90.8233C23.4821 91.1512 23.8872 91.6094 24.1766 92.1978C24.4756 92.7766 24.6252 93.4615 24.6252 94.2525C24.6252 95.0435 24.4756 95.7332 24.1766 96.3216C23.8872 96.91 23.4821 97.3682 22.9612 97.6961C22.45 98.0145 21.8519 98.1736 21.167 98.1736ZM21.167 97.2042C21.6493 97.2042 22.0641 97.0836 22.4114 96.8425C22.7586 96.6013 23.0239 96.2589 23.2072 95.8151C23.4001 95.3714 23.4966 94.8505 23.4966 94.2525C23.4966 93.6544 23.4001 93.1335 23.2072 92.6898C23.0239 92.2461 22.7586 91.9036 22.4114 91.6625C22.0641 91.4213 21.6493 91.3007 21.167 91.3007C20.6944 91.3007 20.2844 91.4213 19.9371 91.6625C19.5899 91.9036 19.3198 92.2461 19.1269 92.6898C18.9436 93.1335 18.8519 93.6544 18.8519 94.2525C18.8519 94.8505 18.9436 95.3714 19.1269 95.8151C19.3198 96.2589 19.5899 96.6013 19.9371 96.8425C20.2844 97.0836 20.6944 97.2042 21.167 97.2042ZM33.1978 98.1736C32.4647 98.1736 31.8184 98.0193 31.259 97.7106C30.6995 97.3923 30.2654 96.9437 29.9567 96.365C29.6481 95.7766 29.4937 95.0772 29.4937 94.2669C29.4937 93.4952 29.6239 92.8152 29.8844 92.2268C30.1545 91.6384 30.5403 91.1802 31.0419 90.8522C31.5532 90.5146 32.1657 90.3458 32.8795 90.3458C33.3425 90.3458 33.7477 90.4133 34.0949 90.5483C34.4518 90.6737 34.7171 90.7991 34.8907 90.9245V86.96L35.9615 86.7719V97.7685C35.7782 97.8264 35.5515 97.8891 35.2814 97.9566C35.0113 98.0145 34.7026 98.0627 34.3554 98.1013C34.0178 98.1495 33.6319 98.1736 33.1978 98.1736ZM33.2123 97.2042C33.6367 97.2042 33.984 97.1849 34.2541 97.1463C34.5338 97.0981 34.746 97.0547 34.8907 97.0161V91.9374C34.7268 91.8023 34.476 91.6673 34.1383 91.5323C33.8007 91.3876 33.4197 91.3152 32.9953 91.3152C32.5612 91.3152 32.1898 91.3924 31.8811 91.5467C31.5821 91.6914 31.3361 91.8988 31.1432 92.1689C30.9599 92.439 30.8249 92.7525 30.7381 93.1094C30.6609 93.4663 30.6223 93.8473 30.6223 94.2525C30.6223 94.8795 30.7284 95.4148 30.9406 95.8586C31.1625 96.2926 31.4664 96.6254 31.8522 96.8569C32.2477 97.0884 32.7011 97.2042 33.2123 97.2042ZM41.6762 98.1592C40.7984 98.1592 40.0846 97.9904 39.5348 97.6527C38.9946 97.3151 38.5943 96.8521 38.3339 96.2637C38.0831 95.6753 37.9577 95.0049 37.9577 94.2525C37.9577 93.3747 38.1168 92.6464 38.4351 92.0676C38.7535 91.4888 39.1634 91.0548 39.665 90.7654C40.1763 90.476 40.7116 90.3313 41.2711 90.3313C41.8981 90.3313 42.4383 90.4664 42.8917 90.7364C43.3547 90.9969 43.7116 91.402 43.9624 91.9519C44.2132 92.492 44.3386 93.1817 44.3386 94.021C44.3386 94.0885 44.3338 94.1705 44.3241 94.2669C44.3241 94.3538 44.3193 94.4357 44.3096 94.5129H39.0863C39.1248 95.3618 39.3515 96.0225 39.7663 96.4952C40.1907 96.9582 40.8467 97.1897 41.7341 97.1897C42.2261 97.1897 42.6264 97.1463 42.9351 97.0595C43.2534 96.963 43.4801 96.881 43.6151 96.8135L43.8032 97.7251C43.6682 97.8023 43.4029 97.8939 43.0074 98C42.6216 98.1061 42.1778 98.1592 41.6762 98.1592ZM39.1152 93.6303H43.2389C43.2293 93.1383 43.1473 92.7187 42.9929 92.3715C42.8386 92.0146 42.6167 91.7445 42.3274 91.5612C42.0476 91.3683 41.7004 91.2718 41.2856 91.2718C40.8611 91.2718 40.4898 91.3827 40.1714 91.6046C39.8531 91.8265 39.6023 92.1158 39.419 92.4728C39.2454 92.8297 39.1441 93.2155 39.1152 93.6303ZM47.9813 98.1736C47.335 98.1736 46.8286 98.1158 46.4621 98C46.1051 97.8939 45.864 97.8119 45.7386 97.754L45.999 96.7991C46.1051 96.8376 46.3222 96.9196 46.6502 97.045C46.9781 97.1704 47.4218 97.2331 47.9813 97.2331C48.5119 97.2331 48.9411 97.1511 49.2691 96.9872C49.5971 96.8232 49.761 96.5386 49.761 96.1335C49.761 95.873 49.7032 95.6656 49.5874 95.5113C49.4717 95.3473 49.2836 95.1978 49.0231 95.0627C48.7723 94.9277 48.425 94.7734 47.9813 94.5997C47.6051 94.4454 47.2579 94.2814 46.9395 94.1078C46.6212 93.9341 46.3608 93.7123 46.1582 93.4422C45.9653 93.1721 45.8688 92.8248 45.8688 92.4004C45.8688 91.9856 45.9749 91.6239 46.1871 91.3152C46.3994 91.0065 46.6984 90.7654 47.0842 90.5918C47.4797 90.4181 47.9476 90.3313 48.4877 90.3313C48.9893 90.3313 49.4138 90.3747 49.761 90.4615C50.1083 90.5483 50.3543 90.6255 50.499 90.693L50.253 91.6335C50.1276 91.566 49.925 91.4888 49.6453 91.402C49.3655 91.3056 48.9701 91.2573 48.4588 91.2573C48.0537 91.2573 47.7016 91.3442 47.4026 91.5178C47.1035 91.6818 46.954 91.947 46.954 92.3136C46.954 92.574 47.0167 92.7863 47.1421 92.9502C47.2675 93.1046 47.4556 93.2444 47.7064 93.3698C47.9572 93.4952 48.2659 93.6303 48.6324 93.775C49.0472 93.939 49.4186 94.1126 49.7466 94.2959C50.0842 94.4695 50.3543 94.6962 50.5568 94.9759C50.7594 95.2557 50.8607 95.627 50.8607 96.0901C50.8607 96.5434 50.7449 96.9293 50.5134 97.2476C50.2819 97.5563 49.9491 97.7878 49.5151 97.9421C49.0906 98.0965 48.5794 98.1736 47.9813 98.1736ZM52.649 98V90.5049H53.7342V98H52.649ZM53.1988 88.7108C52.9866 88.7108 52.8033 88.6384 52.649 88.4937C52.5043 88.349 52.432 88.1561 52.432 87.9149C52.432 87.6834 52.5043 87.4953 52.649 87.3506C52.8033 87.206 52.9866 87.1336 53.1988 87.1336C53.4111 87.1336 53.5895 87.206 53.7342 87.3506C53.8885 87.4953 53.9657 87.6834 53.9657 87.9149C53.9657 88.1561 53.8885 88.349 53.7342 88.4937C53.5895 88.6384 53.4111 88.7108 53.1988 88.7108ZM58.5259 100.72C58.0532 100.72 57.6143 100.682 57.2092 100.604C56.8041 100.527 56.4568 100.44 56.1674 100.344L56.3844 99.389C56.6256 99.4855 56.9439 99.5723 57.3394 99.6495C57.7349 99.7363 58.14 99.7797 58.5548 99.7797C59.1336 99.7797 59.6014 99.7074 59.9583 99.5627C60.3153 99.418 60.5757 99.1865 60.7397 98.8682C60.9133 98.5498 61.0001 98.1302 61.0001 97.6093V97.1318C60.8651 97.2283 60.6336 97.3489 60.3056 97.4936C59.9776 97.6286 59.558 97.6961 59.0468 97.6961C58.4584 97.6961 57.9085 97.5756 57.3973 97.3344C56.8957 97.0836 56.4906 96.6929 56.1819 96.1624C55.8828 95.6319 55.7333 94.9373 55.7333 94.0788C55.7333 93.365 55.8732 92.7284 56.1529 92.1689C56.4423 91.6094 56.8523 91.1705 57.3828 90.8522C57.923 90.5242 58.5645 90.3602 59.3072 90.3602C59.9825 90.3602 60.5371 90.4085 60.9712 90.5049C61.4149 90.5918 61.7766 90.6786 62.0564 90.7654V97.5515C62.0564 98.6801 61.7622 99.4903 61.1738 99.9823C60.595 100.474 59.7124 100.72 58.5259 100.72ZM59.0902 96.7412C59.4857 96.7412 59.8522 96.6833 60.1899 96.5675C60.5371 96.4518 60.8024 96.3167 60.9857 96.1624V91.5033C60.8313 91.4551 60.6288 91.4117 60.378 91.3731C60.1272 91.3345 59.7751 91.3152 59.3217 91.3152C58.8008 91.3152 58.3571 91.431 57.9905 91.6625C57.624 91.894 57.3442 92.222 57.1513 92.6464C56.9584 93.0612 56.8619 93.5435 56.8619 94.0933C56.8619 94.566 56.9246 94.9711 57.05 95.3087C57.1754 95.6463 57.3442 95.9213 57.5565 96.1335C57.7687 96.3457 58.005 96.5 58.2654 96.5965C58.5355 96.6929 58.8105 96.7412 59.0902 96.7412ZM64.49 98V90.7654C64.7891 90.6882 65.1797 90.6014 65.662 90.5049C66.1444 90.4085 66.7231 90.3602 67.3984 90.3602C68.1797 90.3602 68.7874 90.5049 69.2215 90.7943C69.6556 91.0837 69.9594 91.4888 70.133 92.0097C70.3163 92.521 70.408 93.119 70.408 93.8039V98H69.3228V94.1078C69.3228 93.4229 69.2601 92.8779 69.1347 92.4728C69.0093 92.0676 68.797 91.7734 68.498 91.5901C68.199 91.4069 67.7842 91.3152 67.2537 91.3152C66.8485 91.3152 66.4916 91.3393 66.1829 91.3876C65.8743 91.4358 65.6717 91.4744 65.5752 91.5033V98H64.49ZM77.6687 98.1736C77.0224 98.1736 76.516 98.1158 76.1494 98C75.7925 97.8939 75.5514 97.8119 75.426 97.754L75.6864 96.7991C75.7925 96.8376 76.0095 96.9196 76.3375 97.045C76.6655 97.1704 77.1092 97.2331 77.6687 97.2331C78.1992 97.2331 78.6285 97.1511 78.9564 96.9872C79.2844 96.8232 79.4484 96.5386 79.4484 96.1335C79.4484 95.873 79.3905 95.6656 79.2748 95.5113C79.159 95.3473 78.9709 95.1978 78.7105 95.0627C78.4597 94.9277 78.1124 94.7734 77.6687 94.5997C77.2925 94.4454 76.9452 94.2814 76.6269 94.1078C76.3086 93.9341 76.0481 93.7123 75.8456 93.4422C75.6526 93.1721 75.5562 92.8248 75.5562 92.4004C75.5562 91.9856 75.6623 91.6239 75.8745 91.3152C76.0867 91.0065 76.3857 90.7654 76.7716 90.5918C77.1671 90.4181 77.6349 90.3313 78.1751 90.3313C78.6767 90.3313 79.1011 90.3747 79.4484 90.4615C79.7957 90.5483 80.0416 90.6255 80.1863 90.693L79.9404 91.6335C79.815 91.566 79.6124 91.4888 79.3326 91.402C79.0529 91.3056 78.6574 91.2573 78.1462 91.2573C77.741 91.2573 77.3889 91.3442 77.0899 91.5178C76.7909 91.6818 76.6414 91.947 76.6414 92.3136C76.6414 92.574 76.7041 92.7863 76.8295 92.9502C76.9549 93.1046 77.143 93.2444 77.3938 93.3698C77.6446 93.4952 77.9532 93.6303 78.3198 93.775C78.7346 93.939 79.106 94.1126 79.4339 94.2959C79.7715 94.4695 80.0416 94.6962 80.2442 94.9759C80.4468 95.2557 80.5481 95.627 80.5481 96.0901C80.5481 96.5434 80.4323 96.9293 80.2008 97.2476C79.9693 97.5563 79.6365 97.7878 79.2024 97.9421C78.778 98.0965 78.2667 98.1736 77.6687 98.1736ZM84.608 98.1592C84.0678 98.1592 83.5855 98.082 83.1611 97.9277C82.7367 97.7733 82.4039 97.5225 82.1627 97.1753C81.9216 96.828 81.801 96.3698 81.801 95.8007C81.801 95.2508 81.936 94.8071 82.2061 94.4695C82.4762 94.1222 82.8476 93.8714 83.3203 93.7171C83.8026 93.5628 84.3428 93.4856 84.9408 93.4856C85.2109 93.4856 85.4955 93.5097 85.7945 93.5579C86.0935 93.6062 86.2816 93.6496 86.3588 93.6882V93.2541C86.3588 92.9261 86.3154 92.6126 86.2286 92.3136C86.1514 92.0049 85.9874 91.7541 85.7366 91.5612C85.4858 91.3683 85.1048 91.2718 84.5936 91.2718C84.063 91.2718 83.6579 91.3104 83.3781 91.3876C83.0984 91.4647 82.891 91.5274 82.756 91.5757L82.6113 90.6496C82.7849 90.5725 83.0502 90.5001 83.4071 90.4326C83.764 90.3651 84.1836 90.3313 84.6659 90.3313C85.3508 90.3313 85.891 90.4519 86.2865 90.693C86.6916 90.9342 86.981 91.267 87.1546 91.6914C87.3379 92.1062 87.4295 92.5837 87.4295 93.1239V97.8264C87.227 97.8746 86.8652 97.9421 86.3443 98.0289C85.8234 98.1158 85.2447 98.1592 84.608 98.1592ZM84.7672 97.2331C85.1048 97.2331 85.4087 97.2235 85.6788 97.2042C85.9488 97.1753 86.1755 97.1415 86.3588 97.1029V94.5853C86.2623 94.537 86.0984 94.4888 85.8669 94.4406C85.6353 94.3923 85.3363 94.3682 84.9698 94.3682C84.6611 94.3682 84.3476 94.402 84.0293 94.4695C83.7109 94.537 83.4408 94.6721 83.219 94.8746C83.0068 95.0772 82.9007 95.3811 82.9007 95.7862C82.9007 96.3264 83.0695 96.7026 83.4071 96.9148C83.7447 97.127 84.1981 97.2331 84.7672 97.2331ZM91.5633 98C91.3222 97.4888 91.0762 96.9389 90.8254 96.3505C90.5746 95.7621 90.3286 95.1496 90.0875 94.5129C89.8463 93.8763 89.6148 93.2252 89.3929 92.5596C89.1807 91.8843 88.9878 91.1995 88.8142 90.5049H89.9572C90.1116 91.1705 90.3045 91.8892 90.536 92.6609C90.7772 93.4229 91.0328 94.1705 91.3029 94.9036C91.5826 95.627 91.8479 96.2637 92.0987 96.8135C92.2916 96.4084 92.4894 95.9454 92.6919 95.4245C92.8945 94.9036 93.0922 94.3634 93.2852 93.8039C93.4781 93.2348 93.6565 92.6705 93.8205 92.111C93.9845 91.5419 94.1244 91.0065 94.2401 90.5049H95.3253C95.1517 91.1995 94.954 91.8843 94.7321 92.5596C94.5199 93.2252 94.2932 93.8763 94.052 94.5129C93.8109 95.1496 93.5649 95.7621 93.3141 96.3505C93.073 96.9389 92.827 97.4888 92.5762 98H91.5633ZM100.076 98.1592C99.1982 98.1592 98.4844 97.9904 97.9345 97.6527C97.3943 97.3151 96.994 96.8521 96.7336 96.2637C96.4828 95.6753 96.3574 95.0049 96.3574 94.2525C96.3574 93.3747 96.5165 92.6464 96.8349 92.0676C97.1532 91.4888 97.5632 91.0548 98.0648 90.7654C98.576 90.476 99.1114 90.3313 99.6708 90.3313C100.298 90.3313 100.838 90.4664 101.291 90.7364C101.754 90.9969 102.111 91.402 102.362 91.9519C102.613 92.492 102.738 93.1817 102.738 94.021C102.738 94.0885 102.733 94.1705 102.724 94.2669C102.724 94.3538 102.719 94.4357 102.709 94.5129H97.486C97.5246 95.3618 97.7513 96.0225 98.166 96.4952C98.5905 96.9582 99.2464 97.1897 100.134 97.1897C100.626 97.1897 101.026 97.1463 101.335 97.0595C101.653 96.963 101.88 96.881 102.015 96.8135L102.203 97.7251C102.068 97.8023 101.803 97.8939 101.407 98C101.021 98.1061 100.578 98.1592 100.076 98.1592ZM97.5149 93.6303H101.639C101.629 93.1383 101.547 92.7187 101.393 92.3715C101.238 92.0146 101.016 91.7445 100.727 91.5612C100.447 91.3683 100.1 91.2718 99.6853 91.2718C99.2609 91.2718 98.8895 91.3827 98.5712 91.6046C98.2529 91.8265 98.0021 92.1158 97.8188 92.4728C97.6451 92.8297 97.5439 93.2155 97.5149 93.6303ZM108.045 98.1736C107.312 98.1736 106.666 98.0193 106.106 97.7106C105.547 97.3923 105.113 96.9437 104.804 96.365C104.495 95.7766 104.341 95.0772 104.341 94.2669C104.341 93.4952 104.471 92.8152 104.732 92.2268C105.002 91.6384 105.388 91.1802 105.889 90.8522C106.4 90.5146 107.013 90.3458 107.727 90.3458C108.19 90.3458 108.595 90.4133 108.942 90.5483C109.299 90.6737 109.564 90.7991 109.738 90.9245V86.96L110.809 86.7719V97.7685C110.625 97.8264 110.399 97.8891 110.129 97.9566C109.859 98.0145 109.55 98.0627 109.203 98.1013C108.865 98.1495 108.479 98.1736 108.045 98.1736ZM108.059 97.2042C108.484 97.2042 108.831 97.1849 109.101 97.1463C109.381 97.0981 109.593 97.0547 109.738 97.0161V91.9374C109.574 91.8023 109.323 91.6673 108.986 91.5323C108.648 91.3876 108.267 91.3152 107.842 91.3152C107.408 91.3152 107.037 91.3924 106.728 91.5467C106.429 91.6914 106.183 91.8988 105.99 92.1689C105.807 92.439 105.672 92.7525 105.585 93.1094C105.508 93.4663 105.47 93.8473 105.47 94.2525C105.47 94.8795 105.576 95.4148 105.788 95.8586C106.01 96.2926 106.314 96.6254 106.699 96.8569C107.095 97.0884 107.548 97.2042 108.059 97.2042Z" fill="#020202"/>
</svg>
