<svg width="601" height="51" viewBox="0 0 601 51" fill="none" xmlns="http://www.w3.org/2000/svg">
<path d="M13.5443 4.86057C17.5685 4.86057 20.9351 6.43868 23.6442 9.59488C26.2744 12.6985 27.5895 16.5122 27.5895 21.0361C27.5895 25.5337 26.2744 29.3343 23.6442 32.4379C20.9351 35.5942 17.5685 37.1723 13.5443 37.1723C9.57277 37.1723 6.33765 35.5942 3.83899 32.4379C1.39292 29.3869 0.169894 25.5863 0.169894 21.0361C0.169894 16.4596 1.39292 12.6459 3.83899 9.59488C6.33765 6.43868 9.57277 4.86057 13.5443 4.86057ZM13.5443 35.318C17.0162 35.318 19.8962 33.9371 22.1845 31.1755C24.4727 28.3875 25.6168 25.0077 25.6168 21.0361C25.6168 17.0383 24.4727 13.6585 22.1845 10.8968C19.8962 8.13514 17.0162 6.7543 13.5443 6.7543C10.0988 6.7543 7.31082 8.14829 5.18038 10.9363C3.15514 13.5927 2.14252 16.9594 2.14252 21.0361C2.14252 25.0866 3.15514 28.4532 5.18038 31.136C7.31082 33.924 10.0988 35.318 13.5443 35.318ZM51.8414 23.9162C51.8414 24.2055 51.8414 24.4291 51.8414 24.5869C51.8677 24.7447 51.8677 25.0077 51.8414 25.3759C51.8414 25.7442 51.8283 26.0335 51.802 26.2439C51.46 29.8735 50.1186 32.7141 47.7778 34.7657C45.8578 36.449 43.3591 37.2906 40.2818 37.2906C38.9667 37.2906 37.0467 37.1723 34.5217 36.9355V50.2705H32.5491V14.0136C36.7837 13.6454 39.3612 13.4612 40.2818 13.4612C40.6763 13.4349 41.0708 13.4218 41.4654 13.4218C44.2008 13.4218 46.4364 14.1845 48.1723 15.71C50.4606 17.7353 51.6836 20.4707 51.8414 23.9162ZM49.7899 25.4548C49.8162 24.8236 49.8293 24.4028 49.8293 24.1924C49.6189 21.1413 48.7115 18.8662 47.1071 17.367C45.5027 15.8678 43.3854 15.1972 40.7552 15.355C39.0719 15.3813 36.9941 15.5259 34.5217 15.7889V24.5474C34.5217 24.7052 34.5217 24.7973 34.5217 24.8236V25.9283C34.5217 26.0598 34.5217 26.165 34.5217 26.2439V35.0024C37.9146 35.2654 39.9925 35.3969 40.7552 35.3969C42.8594 35.5284 44.832 34.792 46.6731 33.1875C48.1723 31.8725 49.1849 29.65 49.711 26.5201C49.7636 26.1255 49.7899 25.7705 49.7899 25.4548ZM74.4028 25.3365H56.6096V25.5337C56.6096 25.8494 56.6491 26.2044 56.728 26.599C57.2277 29.7026 58.2272 31.9119 59.7264 33.227C61.4097 34.6999 63.3823 35.4363 65.6443 35.4363C67.2487 35.5153 68.6953 35.3837 69.9841 35.0418C70.4575 34.9366 71.549 34.6473 73.2586 34.1739C73.2586 34.7525 73.2586 35.2391 73.2586 35.6336C73.2586 36.0281 73.2586 36.1859 73.2586 36.107C71.5753 36.6068 69.8657 36.9618 68.1298 37.1723C67.4196 37.2512 66.7358 37.3038 66.0783 37.3301C63.0536 37.3564 60.568 36.5147 58.6217 34.8051C56.3861 32.8325 55.0447 29.9919 54.5975 26.2833V25.4548C54.5975 25.1129 54.5975 24.8236 54.5975 24.5869C54.5975 24.4028 54.6107 24.2318 54.637 24.074C54.9 20.8126 56.2546 18.1166 58.7006 15.9862C60.5417 14.3555 62.6327 13.5401 64.9736 13.5401C65.4207 13.5401 65.881 13.5796 66.3544 13.6585C68.932 14.0793 70.9835 15.4996 72.509 17.9194C73.8767 20.1024 74.508 22.5748 74.4028 25.3365ZM65.0919 15.5522C63.1982 15.5522 61.4097 16.2887 59.7264 17.7616C58.0431 19.2345 57.0305 21.1019 56.6885 23.3638H72.3118C72.154 21.9172 71.7463 20.6548 71.0887 19.5764C69.5369 16.8936 67.538 15.5522 65.0919 15.5522ZM97.7901 17.5643C98.737 19.195 99.2104 21.4833 99.2104 24.4291V36.7383H97.1589V24.4291C97.1589 21.9304 96.7644 20.0235 95.9753 18.7084C95.3704 17.6301 94.6997 16.8542 93.9632 16.3807C93.2268 15.9073 92.1484 15.5522 90.7281 15.3155C90.4388 15.2629 90.1495 15.2366 89.8602 15.2366C87.9401 15.2366 86.1253 15.9862 84.4157 17.4854C82.3379 19.3265 81.2989 21.5885 81.2989 24.2713V36.7383H79.3263V13.9347H81.2989V17.9983C82.2721 16.578 83.4951 15.4339 84.968 14.5659C86.4672 13.698 88.0453 13.264 89.7024 13.264C90.1758 13.264 90.6361 13.2903 91.0832 13.3429C92.8454 13.6322 94.2131 14.0925 95.1863 14.7237C96.1594 15.3287 97.0274 16.2755 97.7901 17.5643ZM126.379 23.7978C128.799 25.297 130.469 26.5858 131.39 27.6642C132.31 28.7426 132.771 29.8998 132.771 31.136C132.771 31.6094 132.718 32.1355 132.613 32.7141C132.297 34.2922 131.535 35.5021 130.325 36.3438C129.22 37.1591 127.865 37.5668 126.261 37.5668C125.682 37.5668 125.104 37.501 124.525 37.3695C122.868 37.0539 121.527 36.5016 120.501 35.7125L120.58 33.5426C122.316 35.0944 124.223 35.8703 126.301 35.8703C128.668 35.8703 130.088 34.6078 130.561 32.0829C130.614 31.8199 130.64 31.5568 130.64 31.2938C130.64 29.9261 129.759 28.5847 127.997 27.2697C126.366 26.165 124.722 25.0603 123.065 23.9556C121.303 22.509 120.422 20.9309 120.422 19.2213C120.422 18.8531 120.462 18.4586 120.54 18.0377C121.119 15.0919 122.986 13.6191 126.143 13.6191C128.799 13.6191 130.89 14.4081 132.416 15.9862L132.218 17.8405C131.403 17.0251 130.68 16.4728 130.049 16.1835C129.549 15.9205 128.812 15.71 127.839 15.5522C127.366 15.4733 126.932 15.4339 126.537 15.4339C124.328 15.4339 123.013 16.4859 122.592 18.5901C122.513 18.932 122.474 19.2213 122.474 19.458C122.474 20.7731 123.776 22.2197 126.379 23.7978ZM141.83 34.6473C142.435 35.147 143.842 35.3706 146.051 35.318V37.0144C144.5 37.0144 143.5 36.9881 143.053 36.9355C141.817 36.804 140.909 36.4884 140.331 35.9887C139.384 35.1733 138.792 33.8451 138.555 32.004C138.477 31.2675 138.411 29.216 138.358 25.8494C138.306 22.5353 138.306 19.2213 138.358 15.9073H135.044V13.9347H138.358V10.1078H140.331V13.9347H145.42V15.9073H140.331C140.278 19.1687 140.278 22.4433 140.331 25.731C140.357 28.782 140.397 30.5574 140.449 31.0571C140.633 32.793 141.094 33.9897 141.83 34.6473ZM167.702 25.3365H149.909V25.5337C149.909 25.8494 149.948 26.2044 150.027 26.599C150.527 29.7026 151.526 31.9119 153.026 33.227C154.709 34.6999 156.682 35.4363 158.944 35.4363C160.548 35.5153 161.995 35.3837 163.283 35.0418C163.757 34.9366 164.848 34.6473 166.558 34.1739C166.558 34.7525 166.558 35.2391 166.558 35.6336C166.558 36.0281 166.558 36.1859 166.558 36.107C164.875 36.6068 163.165 36.9618 161.429 37.1723C160.719 37.2512 160.035 37.3038 159.378 37.3301C156.353 37.3564 153.867 36.5147 151.921 34.8051C149.685 32.8325 148.344 29.9919 147.897 26.2833V25.4548C147.897 25.1129 147.897 24.8236 147.897 24.5869C147.897 24.4028 147.91 24.2318 147.936 24.074C148.199 20.8126 149.554 18.1166 152 15.9862C153.841 14.3555 155.932 13.5401 158.273 13.5401C158.72 13.5401 159.18 13.5796 159.654 13.6585C162.231 14.0793 164.283 15.4996 165.808 17.9194C167.176 20.1024 167.807 22.5748 167.702 25.3365ZM158.391 15.5522C156.497 15.5522 154.709 16.2887 153.026 17.7616C151.342 19.2345 150.33 21.1019 149.988 23.3638H165.611C165.453 21.9172 165.046 20.6548 164.388 19.5764C162.836 16.8936 160.837 15.5522 158.391 15.5522ZM190.261 25.3365H172.468V25.5337C172.468 25.8494 172.507 26.2044 172.586 26.599C173.086 29.7026 174.085 31.9119 175.585 33.227C177.268 34.6999 179.24 35.4363 181.502 35.4363C183.107 35.5153 184.553 35.3837 185.842 35.0418C186.316 34.9366 187.407 34.6473 189.117 34.1739C189.117 34.7525 189.117 35.2391 189.117 35.6336C189.117 36.0281 189.117 36.1859 189.117 36.107C187.433 36.6068 185.724 36.9618 183.988 37.1723C183.278 37.2512 182.594 37.3038 181.936 37.3301C178.912 37.3564 176.426 36.5147 174.48 34.8051C172.244 32.8325 170.903 29.9919 170.456 26.2833V25.4548C170.456 25.1129 170.456 24.8236 170.456 24.5869C170.456 24.4028 170.469 24.2318 170.495 24.074C170.758 20.8126 172.113 18.1166 174.559 15.9862C176.4 14.3555 178.491 13.5401 180.832 13.5401C181.279 13.5401 181.739 13.5796 182.213 13.6585C184.79 14.0793 186.842 15.4996 188.367 17.9194C189.735 20.1024 190.366 22.5748 190.261 25.3365ZM180.95 15.5522C179.056 15.5522 177.268 16.2887 175.585 17.7616C173.901 19.2345 172.889 21.1019 172.547 23.3638H188.17C188.012 21.9172 187.604 20.6548 186.947 19.5764C185.395 16.8936 183.396 15.5522 180.95 15.5522ZM195.342 36.8172V0.481331H197.315V36.8172H195.342ZM237.934 0.639142H239.867V36.7383H237.934V34.1739V32.793C237.381 33.5821 236.658 34.3711 235.764 35.1602C233.923 36.7646 231.832 37.5668 229.491 37.5668C226.65 37.5668 224.323 36.3832 222.508 34.0161C220.851 31.833 220.022 29.2686 220.022 26.3228C220.022 25.56 220.088 24.7841 220.22 23.9951C220.746 20.7337 222.153 18.1035 224.441 16.1046C226.361 14.4213 228.925 13.5796 232.134 13.5796C233.476 13.5796 235.409 13.698 237.934 13.9347V0.639142ZM237.934 26.0072C237.986 19.9578 237.986 16.578 237.934 15.8678C234.515 15.6048 232.437 15.4733 231.7 15.4733C229.438 15.3155 227.387 16.052 225.546 17.6827C224.441 18.6295 223.573 19.9578 222.942 21.6674C222.363 23.2192 222.074 24.7973 222.074 26.4017C222.074 28.4006 222.508 30.1234 223.376 31.57C224.928 34.2265 226.927 35.5547 229.373 35.5547C231.266 35.5547 233.068 34.8183 234.778 33.3454C236.855 31.5305 237.908 29.0845 237.934 26.0072ZM263.429 25.3365H245.635V25.5337C245.635 25.8494 245.675 26.2044 245.754 26.599C246.253 29.7026 247.253 31.9119 248.752 33.227C250.435 34.6999 252.408 35.4363 254.67 35.4363C256.274 35.5153 257.721 35.3837 259.01 35.0418C259.483 34.9366 260.575 34.6473 262.284 34.1739C262.284 34.7525 262.284 35.2391 262.284 35.6336C262.284 36.0281 262.284 36.1859 262.284 36.107C260.601 36.6068 258.891 36.9618 257.156 37.1723C256.445 37.2512 255.762 37.3038 255.104 37.3301C252.079 37.3564 249.594 36.5147 247.647 34.8051C245.412 32.8325 244.07 29.9919 243.623 26.2833V25.4548C243.623 25.1129 243.623 24.8236 243.623 24.5869C243.623 24.4028 243.636 24.2318 243.663 24.074C243.926 20.8126 245.28 18.1166 247.726 15.9862C249.568 14.3555 251.658 13.5401 253.999 13.5401C254.446 13.5401 254.907 13.5796 255.38 13.6585C257.958 14.0793 260.009 15.4996 261.535 17.9194C262.902 20.1024 263.534 22.5748 263.429 25.3365ZM254.118 15.5522C252.224 15.5522 250.435 16.2887 248.752 17.7616C247.069 19.2345 246.056 21.1019 245.714 23.3638H261.338C261.18 21.9172 260.772 20.6548 260.115 19.5764C258.563 16.8936 256.564 15.5522 254.118 15.5522ZM272.021 23.7978C274.441 25.297 276.111 26.5858 277.032 27.6642C277.952 28.7426 278.413 29.8998 278.413 31.136C278.413 31.6094 278.36 32.1355 278.255 32.7141C277.939 34.2922 277.176 35.5021 275.966 36.3438C274.862 37.1591 273.507 37.5668 271.903 37.5668C271.324 37.5668 270.746 37.501 270.167 37.3695C268.51 37.0539 267.169 36.5016 266.143 35.7125L266.222 33.5426C267.958 35.0944 269.864 35.8703 271.942 35.8703C274.309 35.8703 275.73 34.6078 276.203 32.0829C276.256 31.8199 276.282 31.5568 276.282 31.2938C276.282 29.9261 275.401 28.5847 273.639 27.2697C272.008 26.165 270.364 25.0603 268.707 23.9556C266.945 22.509 266.064 20.9309 266.064 19.2213C266.064 18.8531 266.103 18.4586 266.182 18.0377C266.761 15.0919 268.628 13.6191 271.784 13.6191C274.441 13.6191 276.532 14.4081 278.057 15.9862L277.86 17.8405C277.045 17.0251 276.322 16.4728 275.69 16.1835C275.191 15.9205 274.454 15.71 273.481 15.5522C273.008 15.4733 272.574 15.4339 272.179 15.4339C269.97 15.4339 268.655 16.4859 268.234 18.5901C268.155 18.932 268.115 19.2213 268.115 19.458C268.115 20.7731 269.417 22.2197 272.021 23.7978ZM283.093 13.8952H285.065V36.7777H283.093V13.8952ZM285.065 8.09569V10.0683H283.093V8.09569H285.065ZM302.233 13.4612C304.337 13.4875 306.928 13.6585 310.005 13.9741V32.2407C310.031 34.45 310.031 36.4884 310.005 38.3558C309.952 42.5641 308.663 45.7729 306.138 47.9823C304.902 49.0869 303.206 49.7971 301.049 50.1127C300.365 50.1916 299.616 50.2311 298.8 50.2311C297.511 50.2311 295.881 50.0733 293.908 49.7576L294.263 47.8245C296.236 48.1401 297.867 48.2979 299.155 48.2979C301.522 48.2979 303.521 47.5877 305.152 46.1675C306.993 44.563 307.953 41.9329 308.032 38.2769C308.032 37.9613 308.032 37.5405 308.032 37.0144V34.1344V32.7536C307.48 33.5426 306.757 34.3317 305.862 35.1207C304.021 36.7251 301.93 37.5273 299.589 37.5273C296.722 37.5273 294.382 36.3438 292.567 33.9766C290.91 31.7936 290.081 29.216 290.081 26.2439C290.081 25.4811 290.134 24.7052 290.239 23.9162C290.765 20.6285 292.185 17.9851 294.5 15.9862C296.657 14.0925 299.234 13.2508 302.233 13.4612ZM308.032 25.9283C308.085 19.8526 308.085 16.4465 308.032 15.71C304.613 15.4733 302.535 15.355 301.799 15.355C299.51 15.2235 297.446 15.9599 295.605 17.5643C294.5 18.5375 293.632 19.8657 293.001 21.549C292.422 23.1271 292.133 24.7184 292.133 26.3228C292.133 28.3217 292.554 30.0445 293.395 31.4911C294.973 34.2002 296.985 35.5547 299.432 35.5547C301.352 35.5547 303.166 34.8051 304.876 33.3059C306.954 31.4648 308.006 29.0056 308.032 25.9283ZM334.882 17.5643C335.829 19.195 336.302 21.4833 336.302 24.4291V36.7383H334.251V24.4291C334.251 21.9304 333.856 20.0235 333.067 18.7084C332.462 17.6301 331.791 16.8542 331.055 16.3807C330.318 15.9073 329.24 15.5522 327.82 15.3155C327.53 15.2629 327.241 15.2366 326.952 15.2366C325.032 15.2366 323.217 15.9862 321.507 17.4854C319.43 19.3265 318.391 21.5885 318.391 24.2713V36.7383H316.418V13.9347H318.391V17.9983C319.364 16.578 320.587 15.4339 322.06 14.5659C323.559 13.698 325.137 13.264 326.794 13.264C327.267 13.264 327.728 13.2903 328.175 13.3429C329.937 13.6322 331.305 14.0925 332.278 14.7237C333.251 15.3287 334.119 16.2755 334.882 17.5643ZM370.099 13.5796C372.177 13.6059 374.755 13.79 377.832 14.1319V36.7383H375.859V34.1739V32.793C375.333 33.5821 374.623 34.3711 373.729 35.1602C371.888 36.7646 369.797 37.5668 367.456 37.5668C364.615 37.5668 362.288 36.3832 360.473 34.0161C358.816 31.833 357.987 29.2686 357.987 26.3228C357.987 25.56 358.053 24.7841 358.184 23.9951C358.71 20.7337 360.118 18.1035 362.406 16.1046C364.536 14.2108 367.101 13.3692 370.099 13.5796ZM375.859 26.0072C375.859 26.0072 375.859 22.6274 375.859 15.8678C372.466 15.6048 370.402 15.4733 369.665 15.4733C367.377 15.3155 365.312 16.052 363.471 17.6827C362.393 18.6295 361.538 19.9578 360.907 21.6674C360.328 23.2192 360.039 24.7973 360.039 26.4017C360.039 28.4006 360.46 30.1234 361.301 31.57C362.879 34.2265 364.878 35.5547 367.298 35.5547C369.218 35.5547 371.033 34.8183 372.742 33.3454C374.794 31.5305 375.833 29.0845 375.859 26.0072ZM402.019 17.5643C402.966 19.195 403.439 21.4833 403.439 24.4291V36.7383H401.388V24.4291C401.388 21.9304 400.993 20.0235 400.204 18.7084C399.599 17.6301 398.929 16.8542 398.192 16.3807C397.456 15.9073 396.377 15.5522 394.957 15.3155C394.668 15.2629 394.378 15.2366 394.089 15.2366C392.169 15.2366 390.354 15.9862 388.645 17.4854C386.567 19.3265 385.528 21.5885 385.528 24.2713V36.7383H383.555V13.9347H385.528V17.9983C386.501 16.578 387.724 15.4339 389.197 14.5659C390.696 13.698 392.274 13.264 393.931 13.264C394.405 13.264 394.865 13.2903 395.312 13.3429C397.074 13.6322 398.442 14.0925 399.415 14.7237C400.388 15.3287 401.256 16.2755 402.019 17.5643ZM424.975 0.639142H426.908V36.7383H424.975V34.1739V32.793C424.422 33.5821 423.699 34.3711 422.805 35.1602C420.964 36.7646 418.873 37.5668 416.532 37.5668C413.691 37.5668 411.363 36.3832 409.549 34.0161C407.892 31.833 407.063 29.2686 407.063 26.3228C407.063 25.56 407.129 24.7841 407.26 23.9951C407.786 20.7337 409.194 18.1035 411.482 16.1046C413.402 14.4213 415.966 13.5796 419.175 13.5796C420.517 13.5796 422.45 13.698 424.975 13.9347V0.639142ZM424.975 26.0072C425.027 19.9578 425.027 16.578 424.975 15.8678C421.555 15.6048 419.478 15.4733 418.741 15.4733C416.479 15.3155 414.428 16.052 412.587 17.6827C411.482 18.6295 410.614 19.9578 409.983 21.6674C409.404 23.2192 409.115 24.7973 409.115 26.4017C409.115 28.4006 409.549 30.1234 410.417 31.57C411.968 34.2265 413.967 35.5547 416.413 35.5547C418.307 35.5547 420.109 34.8183 421.818 33.3454C423.896 31.5305 424.948 29.0845 424.975 26.0072ZM460.877 13.4612C462.981 13.4875 465.572 13.6585 468.649 13.9741V32.2407C468.675 34.45 468.675 36.4884 468.649 38.3558C468.596 42.5641 467.308 45.7729 464.783 47.9823C463.546 49.0869 461.85 49.7971 459.693 50.1127C459.009 50.1916 458.26 50.2311 457.444 50.2311C456.156 50.2311 454.525 50.0733 452.552 49.7576L452.907 47.8245C454.88 48.1401 456.511 48.2979 457.8 48.2979C460.167 48.2979 462.166 47.5877 463.796 46.1675C465.637 44.563 466.597 41.9329 466.676 38.2769C466.676 37.9613 466.676 37.5405 466.676 37.0144V34.1344V32.7536C466.124 33.5426 465.401 34.3317 464.506 35.1207C462.665 36.7251 460.574 37.5273 458.234 37.5273C455.367 37.5273 453.026 36.3438 451.211 33.9766C449.554 31.7936 448.725 29.216 448.725 26.2439C448.725 25.4811 448.778 24.7052 448.883 23.9162C449.409 20.6285 450.83 17.9851 453.144 15.9862C455.301 14.0925 457.878 13.2508 460.877 13.4612ZM466.676 25.9283C466.729 19.8526 466.729 16.4465 466.676 15.71C463.257 15.4733 461.179 15.355 460.443 15.355C458.155 15.2235 456.09 15.9599 454.249 17.5643C453.144 18.5375 452.276 19.8657 451.645 21.549C451.066 23.1271 450.777 24.7184 450.777 26.3228C450.777 28.3217 451.198 30.0445 452.039 31.4911C453.618 34.2002 455.63 35.5547 458.076 35.5547C459.996 35.5547 461.811 34.8051 463.52 33.3059C465.598 31.4648 466.65 29.0056 466.676 25.9283ZM478.968 15.9862C480.099 15.013 481.427 14.316 482.953 13.8952V15.9073C481.901 16.2755 480.941 16.8279 480.073 17.5643C478.337 19.0898 477.232 21.3123 476.759 24.2318C476.601 25.1787 476.522 25.7705 476.522 26.0072V36.7383H474.549V13.9347H476.522V18.9846C477.206 17.8273 478.021 16.8279 478.968 15.9862ZM497.824 13.5796C499.902 13.6059 502.479 13.79 505.557 14.1319V36.7383H503.584V34.1739V32.793C503.058 33.5821 502.348 34.3711 501.454 35.1602C499.612 36.7646 497.521 37.5668 495.181 37.5668C492.34 37.5668 490.012 36.3832 488.197 34.0161C486.54 31.833 485.712 29.2686 485.712 26.3228C485.712 25.56 485.778 24.7841 485.909 23.9951C486.435 20.7337 487.842 18.1035 490.131 16.1046C492.261 14.2108 494.825 13.3692 497.824 13.5796ZM503.584 26.0072C503.584 26.0072 503.584 22.6274 503.584 15.8678C500.191 15.6048 498.126 15.4733 497.39 15.4733C495.102 15.3155 493.037 16.052 491.196 17.6827C490.117 18.6295 489.263 19.9578 488.631 21.6674C488.053 23.2192 487.763 24.7973 487.763 26.4017C487.763 28.4006 488.184 30.1234 489.026 31.57C490.604 34.2265 492.603 35.5547 495.023 35.5547C496.943 35.5547 498.758 34.8183 500.467 33.3454C502.519 31.5305 503.558 29.0845 503.584 26.0072ZM530.454 23.9162C530.454 24.2055 530.454 24.4291 530.454 24.5869C530.48 24.7447 530.48 25.0077 530.454 25.3759C530.454 25.7442 530.441 26.0335 530.415 26.2439C530.073 29.8735 528.731 32.7141 526.39 34.7657C524.47 36.449 521.972 37.2906 518.894 37.2906C517.579 37.2906 515.659 37.1723 513.134 36.9355V50.2705H511.162V14.0136C515.396 13.6454 517.974 13.4612 518.894 13.4612C519.289 13.4349 519.683 13.4218 520.078 13.4218C522.813 13.4218 525.049 14.1845 526.785 15.71C529.073 17.7353 530.296 20.4707 530.454 23.9162ZM528.402 25.4548C528.429 24.8236 528.442 24.4028 528.442 24.1924C528.231 21.1413 527.324 18.8662 525.72 17.367C524.115 15.8678 521.998 15.1972 519.368 15.355C517.684 15.3813 515.607 15.5259 513.134 15.7889V24.5474C513.134 24.7052 513.134 24.7973 513.134 24.8236V25.9283C513.134 26.0598 513.134 26.165 513.134 26.2439V35.0024C516.527 35.2654 518.605 35.3969 519.368 35.3969C521.472 35.5284 523.445 34.792 525.286 33.1875C526.785 31.8725 527.798 29.65 528.324 26.5201C528.376 26.1255 528.402 25.7705 528.402 25.4548ZM553.844 17.5643C554.791 19.1424 555.277 21.4307 555.304 24.4291V36.7383H553.252V24.4291C553.252 21.9041 552.858 19.9841 552.068 18.669C551.437 17.6169 550.753 16.8542 550.017 16.3807C549.307 15.881 548.242 15.5128 546.821 15.2761C546.532 15.2498 546.229 15.2366 545.914 15.2366C544.02 15.2366 542.218 15.9862 540.509 17.4854C538.405 19.3002 537.353 21.5622 537.353 24.2713V36.7777H535.38V0.441879H537.353V17.9983C538.352 16.5517 539.562 15.4076 540.982 14.5659C542.534 13.6717 544.138 13.2245 545.796 13.2245C546.243 13.2245 546.703 13.264 547.176 13.3429C548.912 13.6059 550.267 14.053 551.24 14.6843C552.239 15.2892 553.107 16.2492 553.844 17.5643ZM560.87 13.8952H562.842V36.7777H560.87V13.8952ZM562.842 8.09569V10.0683H560.87V8.09569H562.842ZM586.164 34.1739C586.164 34.7525 586.164 35.2391 586.164 35.6336C586.191 36.0281 586.204 36.1859 586.204 36.107C584.494 36.6068 582.785 36.9618 581.075 37.1723C580.339 37.2512 579.642 37.3038 578.984 37.3301C575.959 37.3564 573.487 36.5147 571.567 34.8051C569.226 32.7799 567.872 29.9393 567.503 26.2833C567.477 25.8888 567.464 25.6126 567.464 25.4548C567.464 25.0866 567.464 24.7973 567.464 24.5869C567.49 24.2976 567.503 24.1003 567.503 23.9951C567.635 20.5496 568.845 17.8273 571.133 15.8284C572.843 14.3292 575.46 13.5796 578.984 13.5796C580.273 13.5796 582.127 13.6848 584.547 13.8952V15.8678C581.917 15.6048 579.918 15.4733 578.55 15.4733C575.736 15.4733 573.632 16.1309 572.238 17.446C570.607 18.9715 569.7 21.2334 569.515 24.2318C569.489 24.4685 569.489 24.9025 569.515 25.5337C569.515 25.8494 569.555 26.2044 569.634 26.599C570.134 29.7026 571.133 31.9119 572.632 33.227C574.316 34.6999 576.288 35.4363 578.55 35.4363C580.155 35.5153 581.601 35.3837 582.89 35.0418C583.363 34.9366 584.455 34.6473 586.164 34.1739ZM594.05 23.7978C596.47 25.297 598.14 26.5858 599.061 27.6642C599.981 28.7426 600.441 29.8998 600.441 31.136C600.441 31.6094 600.389 32.1355 600.284 32.7141C599.968 34.2922 599.205 35.5021 597.995 36.3438C596.891 37.1591 595.536 37.5668 593.932 37.5668C593.353 37.5668 592.774 37.501 592.196 37.3695C590.539 37.0539 589.197 36.5016 588.172 35.7125L588.25 33.5426C589.986 35.0944 591.893 35.8703 593.971 35.8703C596.338 35.8703 597.759 34.6078 598.232 32.0829C598.285 31.8199 598.311 31.5568 598.311 31.2938C598.311 29.9261 597.43 28.5847 595.668 27.2697C594.037 26.165 592.393 25.0603 590.736 23.9556C588.974 22.509 588.093 20.9309 588.093 19.2213C588.093 18.8531 588.132 18.4586 588.211 18.0377C588.79 15.0919 590.657 13.6191 593.813 13.6191C596.47 13.6191 598.561 14.4081 600.086 15.9862L599.889 17.8405C599.074 17.0251 598.35 16.4728 597.719 16.1835C597.219 15.9205 596.483 15.71 595.51 15.5522C595.036 15.4733 594.602 15.4339 594.208 15.4339C591.998 15.4339 590.683 16.4859 590.263 18.5901C590.184 18.932 590.144 19.2213 590.144 19.458C590.144 20.7731 591.446 22.2197 594.05 23.7978Z" fill="white"/>
</svg>
