<svg width="1316" height="240" viewBox="0 0 1316 240" fill="none" xmlns="http://www.w3.org/2000/svg">
<path d="M33.8096 15.1938H171.341V148.328H33.8096V15.1938Z" fill="white"/>
<path d="M158.212 78.264L143.887 62.4334L158.121 46.3091L158.212 78.264Z" fill="black"/>
<path d="M46.4993 116.319L60.8249 100.488L46.5909 84.364L46.4993 116.319Z" fill="black"/>
<path d="M55.0882 139.895C55.0882 143.447 53.7125 146.854 51.2638 149.366C48.815 151.878 45.4938 153.29 42.0308 153.29C38.5678 153.29 35.2466 151.878 32.7978 149.366C30.3491 146.854 28.9734 143.447 28.9734 139.895C28.9734 138.136 29.3111 136.394 29.9673 134.769C30.6235 133.144 31.5853 131.667 32.7978 130.424C34.0103 129.18 35.4497 128.193 37.0339 127.52C38.6181 126.847 40.3161 126.5 42.0308 126.5C43.7455 126.5 45.4435 126.847 47.0277 127.52C48.6119 128.193 50.0513 129.18 51.2638 130.424C52.4763 131.667 53.4381 133.144 54.0943 134.769C54.7505 136.394 55.0882 138.136 55.0882 139.895Z" fill="black"/>
<path d="M176.177 23.627C176.177 25.386 175.839 27.1277 175.183 28.7528C174.527 30.3779 173.565 31.8546 172.352 33.0984C171.14 34.3422 169.7 35.3288 168.116 36.0019C166.532 36.675 164.834 37.0215 163.119 37.0215C161.405 37.0215 159.707 36.675 158.123 36.0019C156.538 35.3288 155.099 34.3422 153.886 33.0984C152.674 31.8546 151.712 30.3779 151.056 28.7528C150.4 27.1277 150.062 25.386 150.062 23.627C150.062 20.0745 151.438 16.6675 153.886 14.1556C156.335 11.6436 159.656 10.2324 163.119 10.2324C166.582 10.2324 169.904 11.6436 172.352 14.1556C174.801 16.6675 176.177 20.0745 176.177 23.627Z" fill="black"/>
<path d="M29.5034 95.4143H130.954V105.268H29.5034V95.4143Z" fill="#91B014"/>
<path d="M28.5266 94.4121V95.4109V106.265H131.928V94.4121H28.5266ZM30.4743 96.4098H129.981V104.267H30.4743V96.4098Z" fill="black"/>
<path d="M74.1926 57.3557H174.689V67.2172H74.1926V57.3557Z" fill="#91B014"/>
<path d="M73.2158 56.3533V57.3521V68.2134H175.665V56.3533H73.2158ZM75.1635 58.3583H173.718V66.2158H75.1635V58.3583Z" fill="black"/>
<path d="M35.8009 133.321C41.657 133.321 46.4054 128.5 46.4054 122.492V42.9107C46.4054 42.9107 46.6857 28.1148 60.9774 28.1148H146.93C152.786 28.1148 157.486 23.244 157.486 17.2365V10.2327H46.4054H37.4957H28.9734V133.321H35.8009Z" fill="#91B014"/>
<path d="M28 9.23071V134.321H35.7981C42.1755 134.321 47.3761 129.038 47.3761 122.49V42.9318C47.3761 42.9318 47.4611 39.4367 49.2012 35.9697C50.9413 32.5026 54.156 29.111 60.974 29.111H146.933C153.316 29.111 158.461 23.7781 158.461 17.2361V9.23071H46.4023H37.4933H28ZM29.9477 11.2284H37.4933H46.4023H156.513V17.2361C156.513 22.709 152.262 27.1134 146.933 27.1134H60.974C53.5004 27.1134 49.4356 31.1213 47.4627 35.0522C45.4897 38.9831 45.4284 42.8948 45.4284 42.8948V42.9024V122.49C45.4284 127.958 41.1328 132.323 35.7981 132.323H29.9477V11.2284Z" fill="black"/>
<path d="M168.574 29.4062C162.718 29.4062 157.97 34.2276 157.97 40.2348V119.817C157.97 119.817 157.69 134.612 143.398 134.612H57.4457C51.5896 134.612 46.8896 139.483 46.8896 145.491V152.494H157.97H166.88H175.402V29.4062H168.574Z" fill="#91B014"/>
<path d="M168.574 28.4084C162.197 28.4084 156.996 33.6844 156.996 40.2316V119.797C156.996 119.797 156.918 123.292 155.178 126.76C153.438 130.227 150.216 133.611 143.398 133.611H57.4465C51.0637 133.611 45.9189 138.951 45.9189 145.493V153.491H157.97H166.879H176.38V28.4084H168.574ZM168.574 30.4061H174.425V151.493H166.879H157.97H47.8667V145.493C47.8667 140.02 52.1172 135.608 57.4465 135.608H143.398C150.872 135.608 154.937 131.6 156.91 127.67C158.883 123.739 158.944 119.834 158.944 119.834V119.827V40.2314C158.944 34.7643 163.239 30.4061 168.574 30.4061Z" fill="black"/>
<path d="M245.897 180.504C251.048 180.504 255.357 182.524 258.824 186.564C262.191 190.537 263.874 195.418 263.874 201.209C263.874 206.966 262.191 211.831 258.824 215.803C255.357 219.843 251.048 221.863 245.897 221.863C240.813 221.863 236.672 219.843 233.474 215.803C230.343 211.898 228.777 207.033 228.777 201.209C228.777 195.351 230.343 190.469 233.474 186.564C236.672 182.524 240.813 180.504 245.897 180.504ZM245.897 219.49C250.341 219.49 254.027 217.722 256.956 214.187C259.885 210.619 261.349 206.293 261.349 201.209C261.349 196.092 259.885 191.766 256.956 188.231C254.027 184.696 250.341 182.928 245.897 182.928C241.486 182.928 237.918 184.713 235.191 188.281C232.599 191.681 231.302 195.991 231.302 201.209C231.302 206.394 232.599 210.703 235.191 214.137C237.918 217.705 241.486 219.49 245.897 219.49ZM295.927 204.895C295.927 205.266 295.927 205.552 295.927 205.754C295.96 205.956 295.96 206.293 295.927 206.764C295.927 207.235 295.91 207.605 295.876 207.875C295.439 212.521 293.722 216.157 290.725 218.783C288.268 220.937 285.069 222.015 281.131 222.015C279.447 222.015 276.99 221.863 273.758 221.56V238.629H271.233V192.22C276.653 191.749 279.952 191.513 281.131 191.513C281.636 191.479 282.141 191.463 282.646 191.463C286.147 191.463 289.008 192.439 291.23 194.392C294.159 196.984 295.725 200.485 295.927 204.895ZM293.301 206.865C293.335 206.057 293.351 205.518 293.351 205.249C293.082 201.344 291.921 198.431 289.867 196.513C287.813 194.594 285.103 193.735 281.737 193.937C279.582 193.971 276.922 194.156 273.758 194.493V205.703C273.758 205.905 273.758 206.023 273.758 206.057V207.471C273.758 207.639 273.758 207.774 273.758 207.875V219.086C278.101 219.422 280.76 219.591 281.737 219.591C284.43 219.759 286.955 218.816 289.311 216.763C291.23 215.079 292.527 212.235 293.2 208.228C293.267 207.723 293.301 207.269 293.301 206.865ZM325.815 206.713H303.04V206.966C303.04 207.37 303.091 207.824 303.192 208.329C303.831 212.302 305.111 215.13 307.03 216.813C309.184 218.698 311.709 219.641 314.604 219.641C316.658 219.742 318.51 219.574 320.159 219.136C320.765 219.001 322.162 218.631 324.351 218.025C324.351 218.766 324.351 219.389 324.351 219.894C324.351 220.399 324.351 220.601 324.351 220.5C322.196 221.139 320.008 221.594 317.786 221.863C316.877 221.964 316.002 222.031 315.16 222.065C311.288 222.099 308.107 221.021 305.616 218.833C302.754 216.308 301.037 212.672 300.465 207.925V206.865C300.465 206.427 300.465 206.057 300.465 205.754C300.465 205.518 300.481 205.299 300.515 205.097C300.852 200.923 302.586 197.472 305.717 194.745C308.073 192.658 310.75 191.614 313.746 191.614C314.318 191.614 314.907 191.665 315.513 191.766C318.813 192.304 321.439 194.122 323.391 197.219C325.142 200.014 325.95 203.178 325.815 206.713ZM313.897 194.19C311.473 194.19 309.184 195.132 307.03 197.017C304.875 198.903 303.579 201.293 303.141 204.188H323.139C322.937 202.337 322.415 200.721 321.573 199.34C319.587 195.907 317.028 194.19 313.897 194.19ZM356.761 196.765C357.973 198.852 358.579 201.781 358.579 205.552V221.308H355.953V205.552C355.953 202.354 355.448 199.913 354.438 198.229C353.664 196.849 352.805 195.856 351.863 195.25C350.92 194.644 349.54 194.19 347.722 193.887C347.351 193.819 346.981 193.786 346.611 193.786C344.153 193.786 341.83 194.745 339.642 196.664C336.982 199.021 335.652 201.916 335.652 205.35V221.308H333.127V192.119H335.652V197.32C336.898 195.503 338.463 194.038 340.349 192.927C342.268 191.816 344.288 191.261 346.409 191.261C347.015 191.261 347.604 191.294 348.176 191.362C350.432 191.732 352.182 192.321 353.428 193.129C354.674 193.903 355.785 195.115 356.761 196.765ZM395.375 204.744C398.472 206.663 400.61 208.312 401.789 209.693C402.967 211.073 403.556 212.554 403.556 214.137C403.556 214.743 403.489 215.416 403.354 216.157C402.95 218.177 401.974 219.725 400.425 220.803C399.011 221.846 397.277 222.368 395.224 222.368C394.483 222.368 393.742 222.284 393.002 222.116C390.881 221.712 389.164 221.005 387.851 219.995L387.952 217.217C390.174 219.203 392.615 220.197 395.274 220.197C398.304 220.197 400.122 218.581 400.728 215.349C400.795 215.012 400.829 214.675 400.829 214.339C400.829 212.588 399.701 210.871 397.446 209.188C395.358 207.774 393.254 206.36 391.133 204.946C388.878 203.094 387.75 201.074 387.75 198.886C387.75 198.415 387.8 197.91 387.901 197.371C388.642 193.6 391.032 191.715 395.072 191.715C398.472 191.715 401.149 192.725 403.102 194.745L402.849 197.118C401.805 196.075 400.88 195.368 400.072 194.998C399.432 194.661 398.489 194.392 397.244 194.19C396.638 194.089 396.082 194.038 395.577 194.038C392.749 194.038 391.066 195.385 390.527 198.078C390.426 198.516 390.376 198.886 390.376 199.189C390.376 200.872 392.042 202.724 395.375 204.744ZM416.162 218.631C416.936 219.271 418.737 219.557 421.565 219.49V221.661C419.579 221.661 418.3 221.627 417.727 221.56C416.145 221.392 414.984 220.988 414.243 220.348C413.031 219.304 412.273 217.604 411.97 215.248C411.869 214.305 411.785 211.679 411.718 207.37C411.651 203.128 411.651 198.886 411.718 194.644H407.476V192.119H411.718V187.221H414.243V192.119H420.757V194.644H414.243C414.176 198.819 414.176 203.01 414.243 207.218C414.277 211.124 414.327 213.396 414.394 214.036C414.63 216.258 415.219 217.79 416.162 218.631ZM450.288 206.713H427.513V206.966C427.513 207.37 427.563 207.824 427.664 208.329C428.304 212.302 429.583 215.13 431.502 216.813C433.657 218.698 436.182 219.641 439.077 219.641C441.131 219.742 442.982 219.574 444.632 219.136C445.238 219.001 446.635 218.631 448.823 218.025C448.823 218.766 448.823 219.389 448.823 219.894C448.823 220.399 448.823 220.601 448.823 220.5C446.669 221.139 444.48 221.594 442.259 221.863C441.35 221.964 440.474 222.031 439.633 222.065C435.761 222.099 432.579 221.021 430.088 218.833C427.227 216.308 425.51 212.672 424.937 207.925V206.865C424.937 206.427 424.937 206.057 424.937 205.754C424.937 205.518 424.954 205.299 424.988 205.097C425.324 200.923 427.058 197.472 430.189 194.745C432.546 192.658 435.222 191.614 438.219 191.614C438.791 191.614 439.38 191.665 439.986 191.766C443.285 192.304 445.911 194.122 447.864 197.219C449.615 200.014 450.423 203.178 450.288 206.713ZM438.37 194.19C435.946 194.19 433.657 195.132 431.502 197.017C429.348 198.903 428.051 201.293 427.614 204.188H447.611C447.409 202.337 446.888 200.721 446.046 199.34C444.06 195.907 441.501 194.19 438.37 194.19ZM480.173 206.713H457.398V206.966C457.398 207.37 457.449 207.824 457.55 208.329C458.189 212.302 459.468 215.13 461.387 216.813C463.542 218.698 466.067 219.641 468.962 219.641C471.016 219.742 472.868 219.574 474.517 219.136C475.123 219.001 476.52 218.631 478.709 218.025C478.709 218.766 478.709 219.389 478.709 219.894C478.709 220.399 478.709 220.601 478.709 220.5C476.554 221.139 474.366 221.594 472.144 221.863C471.235 221.964 470.359 222.031 469.518 222.065C465.646 222.099 462.465 221.021 459.973 218.833C457.112 216.308 455.395 212.672 454.823 207.925V206.865C454.823 206.427 454.823 206.057 454.823 205.754C454.823 205.518 454.839 205.299 454.873 205.097C455.21 200.923 456.944 197.472 460.074 194.745C462.431 192.658 465.108 191.614 468.104 191.614C468.676 191.614 469.265 191.665 469.871 191.766C473.171 192.304 475.797 194.122 477.749 197.219C479.5 200.014 480.308 203.178 480.173 206.713ZM468.255 194.19C465.831 194.19 463.542 195.132 461.387 197.017C459.233 198.903 457.937 201.293 457.499 204.188H477.497C477.295 202.337 476.773 200.721 475.931 199.34C473.945 195.907 471.386 194.19 468.255 194.19ZM487.687 221.409V174.899H490.212V221.409H487.687ZM544.224 175.101H546.699V221.308H544.224V218.025V216.258C543.517 217.268 542.591 218.278 541.447 219.288C539.09 221.341 536.414 222.368 533.417 222.368C529.782 222.368 526.802 220.853 524.479 217.823C522.358 215.029 521.298 211.746 521.298 207.976C521.298 207 521.382 206.006 521.55 204.996C522.223 200.822 524.025 197.455 526.954 194.897C529.411 192.742 532.694 191.665 536.801 191.665C538.518 191.665 540.992 191.816 544.224 192.119V175.101ZM544.224 207.572C544.292 199.829 544.292 195.503 544.224 194.594C539.848 194.257 537.188 194.089 536.245 194.089C533.35 193.887 530.724 194.829 528.368 196.916C526.954 198.128 525.843 199.829 525.035 202.017C524.294 204.003 523.924 206.023 523.924 208.077C523.924 210.635 524.479 212.841 525.59 214.692C527.576 218.093 530.135 219.793 533.266 219.793C535.69 219.793 537.996 218.85 540.184 216.965C542.844 214.642 544.191 211.511 544.224 207.572ZM577.867 206.713H555.092V206.966C555.092 207.37 555.143 207.824 555.244 208.329C555.883 212.302 557.163 215.13 559.082 216.813C561.236 218.698 563.761 219.641 566.657 219.641C568.71 219.742 570.562 219.574 572.212 219.136C572.818 219.001 574.215 218.631 576.403 218.025C576.403 218.766 576.403 219.389 576.403 219.894C576.403 220.399 576.403 220.601 576.403 220.5C574.248 221.139 572.06 221.594 569.838 221.863C568.929 221.964 568.054 222.031 567.212 222.065C563.34 222.099 560.159 221.021 557.668 218.833C554.806 216.308 553.089 212.672 552.517 207.925V206.865C552.517 206.427 552.517 206.057 552.517 205.754C552.517 205.518 552.534 205.299 552.567 205.097C552.904 200.923 554.638 197.472 557.769 194.745C560.125 192.658 562.802 191.614 565.798 191.614C566.37 191.614 566.96 191.665 567.566 191.766C570.865 192.304 573.491 194.122 575.443 197.219C577.194 200.014 578.002 203.178 577.867 206.713ZM565.95 194.19C563.526 194.19 561.236 195.132 559.082 197.017C556.927 198.903 555.631 201.293 555.193 204.188H575.191C574.989 202.337 574.467 200.721 573.625 199.34C571.639 195.907 569.081 194.19 565.95 194.19ZM589.876 204.744C592.973 206.663 595.111 208.312 596.289 209.693C597.468 211.073 598.057 212.554 598.057 214.137C598.057 214.743 597.99 215.416 597.855 216.157C597.451 218.177 596.475 219.725 594.926 220.803C593.512 221.846 591.778 222.368 589.724 222.368C588.984 222.368 588.243 222.284 587.503 222.116C585.382 221.712 583.665 221.005 582.352 219.995L582.453 217.217C584.675 219.203 587.115 220.197 589.775 220.197C592.805 220.197 594.623 218.581 595.229 215.349C595.296 215.012 595.33 214.675 595.33 214.339C595.33 212.588 594.202 210.871 591.946 209.188C589.859 207.774 587.755 206.36 585.634 204.946C583.378 203.094 582.251 201.074 582.251 198.886C582.251 198.415 582.301 197.91 582.402 197.371C583.143 193.6 585.533 191.715 589.573 191.715C592.973 191.715 595.65 192.725 597.602 194.745L597.35 197.118C596.306 196.075 595.38 195.368 594.572 194.998C593.933 194.661 592.99 194.392 591.744 194.19C591.138 194.089 590.583 194.038 590.078 194.038C587.25 194.038 585.567 195.385 585.028 198.078C584.927 198.516 584.877 198.886 584.877 199.189C584.877 200.872 586.543 202.724 589.876 204.744ZM605.057 192.069H607.582V221.358H605.057V192.069ZM607.582 184.645V187.17H605.057V184.645H607.582ZM630.567 191.513C633.26 191.547 636.576 191.766 640.515 192.17V215.551C640.549 218.379 640.549 220.988 640.515 223.378C640.448 228.765 638.798 232.872 635.566 235.7C633.984 237.114 631.812 238.023 629.052 238.427C628.176 238.528 627.217 238.578 626.173 238.578C624.523 238.578 622.436 238.376 619.911 237.972L620.366 235.498C622.891 235.902 624.978 236.104 626.628 236.104C629.658 236.104 632.216 235.195 634.303 233.377C636.66 231.323 637.889 227.957 637.99 223.277C637.99 222.873 637.99 222.334 637.99 221.661V217.975V216.207C637.283 217.217 636.357 218.227 635.212 219.237C632.856 221.291 630.179 222.318 627.183 222.318C623.513 222.318 620.517 220.803 618.194 217.773C616.073 214.978 615.013 211.679 615.013 207.875C615.013 206.899 615.08 205.905 615.215 204.895C615.888 200.687 617.706 197.304 620.669 194.745C623.429 192.321 626.729 191.244 630.567 191.513ZM637.99 207.471C638.057 199.694 638.057 195.334 637.99 194.392C633.613 194.089 630.954 193.937 630.011 193.937C627.082 193.769 624.439 194.711 622.083 196.765C620.669 198.011 619.558 199.711 618.75 201.865C618.009 203.885 617.639 205.922 617.639 207.976C617.639 210.534 618.177 212.74 619.255 214.591C621.275 218.059 623.85 219.793 626.981 219.793C629.439 219.793 631.762 218.833 633.95 216.914C636.61 214.558 637.956 211.41 637.99 207.471ZM673.367 196.765C674.579 198.852 675.185 201.781 675.185 205.552V221.308H672.559V205.552C672.559 202.354 672.054 199.913 671.044 198.229C670.27 196.849 669.412 195.856 668.469 195.25C667.526 194.644 666.146 194.19 664.328 193.887C663.958 193.819 663.587 193.786 663.217 193.786C660.759 193.786 658.436 194.745 656.248 196.664C653.588 199.021 652.259 201.916 652.259 205.35V221.308H649.734V192.119H652.259V197.32C653.504 195.503 655.07 194.038 656.955 192.927C658.874 191.816 660.894 191.261 663.015 191.261C663.621 191.261 664.21 191.294 664.782 191.362C667.038 191.732 668.789 192.321 670.034 193.129C671.28 193.903 672.391 195.115 673.367 196.765ZM720.465 191.665C723.125 191.698 726.424 191.934 730.363 192.372V221.308H727.838V218.025V216.258C727.165 217.268 726.256 218.278 725.111 219.288C722.755 221.341 720.078 222.368 717.082 222.368C713.446 222.368 710.467 220.853 708.144 217.823C706.023 215.029 704.962 211.746 704.962 207.976C704.962 207 705.046 206.006 705.215 204.996C705.888 200.822 707.689 197.455 710.618 194.897C713.345 192.473 716.627 191.395 720.465 191.665ZM727.838 207.572C727.838 207.572 727.838 203.246 727.838 194.594C723.495 194.257 720.853 194.089 719.91 194.089C716.981 193.887 714.338 194.829 711.981 196.916C710.601 198.128 709.507 199.829 708.699 202.017C707.958 204.003 707.588 206.023 707.588 208.077C707.588 210.635 708.127 212.841 709.204 214.692C711.224 218.093 713.783 219.793 716.88 219.793C719.338 219.793 721.661 218.85 723.849 216.965C726.475 214.642 727.805 211.511 727.838 207.572ZM762.333 196.765C763.545 198.852 764.151 201.781 764.151 205.552V221.308H761.525V205.552C761.525 202.354 761.02 199.913 760.01 198.229C759.235 196.849 758.377 195.856 757.434 195.25C756.492 194.644 755.111 194.19 753.293 193.887C752.923 193.819 752.553 193.786 752.182 193.786C749.725 193.786 747.402 194.745 745.214 196.664C742.554 199.021 741.224 201.916 741.224 205.35V221.308H738.699V192.119H741.224V197.32C742.47 195.503 744.035 194.038 745.921 192.927C747.839 191.816 749.859 191.261 751.98 191.261C752.586 191.261 753.176 191.294 753.748 191.362C756.004 191.732 757.754 192.321 759 193.129C760.245 193.903 761.356 195.115 762.333 196.765ZM792.726 175.101H795.2V221.308H792.726V218.025V216.258C792.019 217.268 791.093 218.278 789.948 219.288C787.592 221.341 784.915 222.368 781.919 222.368C778.283 222.368 775.304 220.853 772.981 217.823C770.86 215.029 769.799 211.746 769.799 207.976C769.799 207 769.883 206.006 770.052 204.996C770.725 200.822 772.526 197.455 775.455 194.897C777.913 192.742 781.195 191.665 785.302 191.665C787.019 191.665 789.494 191.816 792.726 192.119V175.101ZM792.726 207.572C792.793 199.829 792.793 195.503 792.726 194.594C788.349 194.257 785.69 194.089 784.747 194.089C781.852 193.887 779.226 194.829 776.869 196.916C775.455 198.128 774.344 199.829 773.536 202.017C772.795 204.003 772.425 206.023 772.425 208.077C772.425 210.635 772.981 212.841 774.092 214.692C776.078 218.093 778.637 219.793 781.767 219.793C784.191 219.793 786.498 218.85 788.686 216.965C791.345 214.642 792.692 211.511 792.726 207.572ZM840.7 191.513C843.394 191.547 846.71 191.766 850.649 192.17V215.551C850.682 218.379 850.682 220.988 850.649 223.378C850.581 228.765 848.932 232.872 845.7 235.7C844.118 237.114 841.946 238.023 839.185 238.427C838.31 238.528 837.351 238.578 836.307 238.578C834.657 238.578 832.57 238.376 830.045 237.972L830.5 235.498C833.025 235.902 835.112 236.104 836.762 236.104C839.791 236.104 842.35 235.195 844.437 233.377C846.794 231.323 848.023 227.957 848.124 223.277C848.124 222.873 848.124 222.334 848.124 221.661V217.975V216.207C847.417 217.217 846.491 218.227 845.346 219.237C842.99 221.291 840.313 222.318 837.317 222.318C833.647 222.318 830.651 220.803 828.328 217.773C826.207 214.978 825.147 211.679 825.147 207.875C825.147 206.899 825.214 205.905 825.349 204.895C826.022 200.687 827.84 197.304 830.803 194.745C833.563 192.321 836.863 191.244 840.7 191.513ZM848.124 207.471C848.191 199.694 848.191 195.334 848.124 194.392C843.747 194.089 841.088 193.937 840.145 193.937C837.216 193.769 834.573 194.711 832.217 196.765C830.803 198.011 829.692 199.711 828.884 201.865C828.143 203.885 827.773 205.922 827.773 207.976C827.773 210.534 828.311 212.74 829.389 214.591C831.409 218.059 833.984 219.793 837.115 219.793C839.573 219.793 841.896 218.833 844.084 216.914C846.744 214.558 848.09 211.41 848.124 207.471ZM864.867 194.745C866.315 193.499 868.015 192.607 869.967 192.069V194.644C868.621 195.115 867.392 195.822 866.281 196.765C864.059 198.718 862.645 201.562 862.039 205.299C861.837 206.511 861.736 207.269 861.736 207.572V221.308H859.211V192.119H861.736V198.583C862.611 197.102 863.655 195.822 864.867 194.745ZM890.013 191.665C892.672 191.698 895.971 191.934 899.91 192.372V221.308H897.385V218.025V216.258C896.712 217.268 895.803 218.278 894.658 219.288C892.302 221.341 889.625 222.368 886.629 222.368C882.993 222.368 880.014 220.853 877.691 217.823C875.57 215.029 874.509 211.746 874.509 207.976C874.509 207 874.593 206.006 874.762 204.996C875.435 200.822 877.236 197.455 880.165 194.897C882.892 192.473 886.175 191.395 890.013 191.665ZM897.385 207.572C897.385 207.572 897.385 203.246 897.385 194.594C893.042 194.257 890.4 194.089 889.457 194.089C886.528 193.887 883.885 194.829 881.529 196.916C880.148 198.128 879.054 199.829 878.246 202.017C877.506 204.003 877.135 206.023 877.135 208.077C877.135 210.635 877.674 212.841 878.751 214.692C880.771 218.093 883.33 219.793 886.427 219.793C888.885 219.793 891.208 218.85 893.396 216.965C896.022 214.642 897.352 211.511 897.385 207.572ZM932.789 204.895C932.789 205.266 932.789 205.552 932.789 205.754C932.823 205.956 932.823 206.293 932.789 206.764C932.789 207.235 932.772 207.605 932.738 207.875C932.301 212.521 930.584 216.157 927.587 218.783C925.13 220.937 921.932 222.015 917.993 222.015C916.309 222.015 913.852 221.863 910.62 221.56V238.629H908.095V192.22C913.515 191.749 916.814 191.513 917.993 191.513C918.498 191.479 919.003 191.463 919.508 191.463C923.009 191.463 925.871 192.439 928.092 194.392C931.021 196.984 932.587 200.485 932.789 204.895ZM930.163 206.865C930.197 206.057 930.213 205.518 930.213 205.249C929.944 201.344 928.783 198.431 926.729 196.513C924.675 194.594 921.965 193.735 918.599 193.937C916.444 193.971 913.784 194.156 910.62 194.493V205.703C910.62 205.905 910.62 206.023 910.62 206.057V207.471C910.62 207.639 910.62 207.774 910.62 207.875V219.086C914.963 219.422 917.622 219.591 918.599 219.591C921.292 219.759 923.817 218.816 926.173 216.763C928.092 215.079 929.389 212.235 930.062 208.228C930.129 207.723 930.163 207.269 930.163 206.865ZM963.738 196.765C964.95 198.785 965.573 201.714 965.606 205.552V221.308H962.98V205.552C962.98 202.32 962.475 199.862 961.465 198.179C960.657 196.832 959.782 195.856 958.839 195.25C957.93 194.61 956.567 194.139 954.749 193.836C954.379 193.802 953.991 193.786 953.587 193.786C951.163 193.786 948.857 194.745 946.669 196.664C943.976 198.987 942.629 201.882 942.629 205.35V221.358H940.104V174.848H942.629V197.32C943.908 195.469 945.457 194.004 947.275 192.927C949.261 191.782 951.315 191.21 953.436 191.21C954.008 191.21 954.597 191.261 955.203 191.362C957.425 191.698 959.159 192.271 960.405 193.079C961.684 193.853 962.795 195.082 963.738 196.765ZM973.741 192.069H976.266V221.358H973.741V192.069ZM976.266 184.645V187.17H973.741V184.645H976.266ZM1007.13 218.025C1007.13 218.766 1007.13 219.389 1007.13 219.894C1007.16 220.399 1007.18 220.601 1007.18 220.5C1004.99 221.139 1002.8 221.594 1000.61 221.863C999.671 221.964 998.779 222.031 997.937 222.065C994.066 222.099 990.901 221.021 988.443 218.833C985.447 216.241 983.713 212.605 983.242 207.925C983.208 207.42 983.191 207.067 983.191 206.865C983.191 206.394 983.191 206.023 983.191 205.754C983.225 205.384 983.242 205.131 983.242 204.996C983.41 200.586 984.959 197.102 987.888 194.543C990.076 192.624 993.426 191.665 997.937 191.665C999.587 191.665 1001.96 191.799 1005.06 192.069V194.594C1001.69 194.257 999.132 194.089 997.382 194.089C993.779 194.089 991.086 194.93 989.302 196.614C987.215 198.566 986.053 201.461 985.817 205.299C985.784 205.602 985.784 206.158 985.817 206.966C985.817 207.37 985.868 207.824 985.969 208.329C986.609 212.302 987.888 215.13 989.807 216.813C991.961 218.698 994.486 219.641 997.382 219.641C999.435 219.742 1001.29 219.574 1002.94 219.136C1003.54 219.001 1004.94 218.631 1007.13 218.025ZM1018.23 204.744C1021.33 206.663 1023.47 208.312 1024.64 209.693C1025.82 211.073 1026.41 212.554 1026.41 214.137C1026.41 214.743 1026.35 215.416 1026.21 216.157C1025.81 218.177 1024.83 219.725 1023.28 220.803C1021.87 221.846 1020.13 222.368 1018.08 222.368C1017.34 222.368 1016.6 222.284 1015.86 222.116C1013.74 221.712 1012.02 221.005 1010.71 219.995L1010.81 217.217C1013.03 219.203 1015.47 220.197 1018.13 220.197C1021.16 220.197 1022.98 218.581 1023.58 215.349C1023.65 215.012 1023.69 214.675 1023.69 214.339C1023.69 212.588 1022.56 210.871 1020.3 209.188C1018.21 207.774 1016.11 206.36 1013.99 204.946C1011.73 203.094 1010.61 201.074 1010.61 198.886C1010.61 198.415 1010.66 197.91 1010.76 197.371C1011.5 193.6 1013.89 191.715 1017.93 191.715C1021.33 191.715 1024.01 192.725 1025.96 194.745L1025.71 197.118C1024.66 196.075 1023.74 195.368 1022.93 194.998C1022.29 194.661 1021.35 194.392 1020.1 194.19C1019.49 194.089 1018.94 194.038 1018.43 194.038C1015.61 194.038 1013.92 195.385 1013.38 198.078C1013.28 198.516 1013.23 198.886 1013.23 199.189C1013.23 200.872 1014.9 202.724 1018.23 204.744Z" fill="black"/>
<path d="M273.408 18.7779C285.681 18.7779 295.949 23.5908 304.211 33.2168C312.233 42.6823 316.243 54.3137 316.243 68.1109C316.243 81.8279 312.233 93.4191 304.211 102.885C295.949 112.511 285.681 117.324 273.408 117.324C261.295 117.324 251.429 112.511 243.808 102.885C236.348 93.5795 232.618 81.9883 232.618 68.1109C232.618 54.1532 236.348 42.5219 243.808 33.2168C251.429 23.5908 261.295 18.7779 273.408 18.7779ZM273.408 111.668C283.996 111.668 292.78 107.457 299.759 99.0343C306.738 90.5313 310.227 80.2235 310.227 68.1109C310.227 55.918 306.738 45.6102 299.759 37.1875C292.78 28.7648 283.996 24.5534 273.408 24.5534C262.899 24.5534 254.397 28.8049 247.899 37.3078C241.722 45.4097 238.634 55.6774 238.634 68.1109C238.634 80.4642 241.722 90.7319 247.899 98.9139C254.397 107.417 262.899 111.668 273.408 111.668ZM345.327 76.5336C352.707 81.1059 357.801 85.0365 360.608 88.3254C363.416 91.6142 364.82 95.1438 364.82 98.9139C364.82 100.358 364.659 101.962 364.338 103.727C363.376 108.54 361.049 112.23 357.359 114.797C353.99 117.283 349.859 118.527 344.966 118.527C343.201 118.527 341.437 118.326 339.672 117.925C334.618 116.963 330.527 115.278 327.399 112.872L327.639 106.254C332.934 110.986 338.749 113.353 345.086 113.353C352.306 113.353 356.638 109.502 358.081 101.802C358.242 101 358.322 100.197 358.322 99.3952C358.322 95.224 355.635 91.133 350.26 87.1221C345.287 83.7531 340.273 80.384 335.22 77.0149C329.845 72.603 327.158 67.79 327.158 62.576C327.158 61.4529 327.278 60.2497 327.519 58.9662C329.284 49.982 334.979 45.4899 344.605 45.4899C352.707 45.4899 359.084 47.8964 363.737 52.7093L363.135 58.3646C360.648 55.8779 358.442 54.1933 356.517 53.311C354.993 52.5088 352.747 51.8671 349.779 51.3858C348.335 51.1451 347.012 51.0248 345.808 51.0248C339.07 51.0248 335.059 54.2335 333.776 60.6508C333.535 61.6936 333.415 62.576 333.415 63.2979C333.415 67.3087 337.386 71.7206 345.327 76.5336ZM428.907 5.90315H434.803V116H428.907V108.179V103.968C427.223 106.374 425.017 108.781 422.29 111.187C416.674 116.08 410.297 118.527 403.158 118.527C394.495 118.527 387.395 114.917 381.861 107.698C376.807 101.04 374.28 93.2186 374.28 84.2344C374.28 81.9081 374.481 79.5417 374.882 77.1352C376.486 67.1884 380.778 59.1668 387.756 53.0703C393.612 47.9365 401.433 45.3696 411.22 45.3696C415.311 45.3696 421.207 45.7305 428.907 46.4525V5.90315ZM428.907 83.2718C429.068 64.822 429.068 54.5142 428.907 52.3484C418.479 51.5462 412.142 51.1451 409.896 51.1451C402.998 50.6638 396.741 52.9099 391.126 57.8833C387.756 60.7711 385.109 64.822 383.184 70.0361C381.419 74.7688 380.537 79.5818 380.537 84.475C380.537 90.5714 381.861 95.8256 384.508 100.237C389.24 108.339 395.337 112.39 402.797 112.39C408.573 112.39 414.067 110.144 419.281 105.652C425.619 100.117 428.827 92.6571 428.907 83.2718ZM486.689 45.3696C493.026 45.4498 500.887 46.0113 510.272 47.0541V116H504.256V108.179V103.968C502.652 106.374 500.486 108.781 497.758 111.187C492.143 116.08 485.766 118.527 478.627 118.527C469.963 118.527 462.864 114.917 457.329 107.698C452.276 101.04 449.749 93.2186 449.749 84.2344C449.749 81.9081 449.949 79.5417 450.351 77.1352C451.955 67.1884 456.246 59.1668 463.225 53.0703C469.723 47.2948 477.544 44.7278 486.689 45.3696ZM504.256 83.2718C504.256 83.2718 504.256 72.964 504.256 52.3484C493.908 51.5462 487.611 51.1451 485.365 51.1451C478.386 50.6638 472.089 52.9099 466.474 57.8833C463.185 60.7711 460.578 64.822 458.653 70.0361C456.888 74.7688 456.006 79.5818 456.006 84.475C456.006 90.5714 457.289 95.8256 459.856 100.237C464.669 108.339 470.766 112.39 478.145 112.39C484.001 112.39 489.536 110.144 494.75 105.652C501.007 100.117 504.176 92.6571 504.256 83.2718ZM561.9 45.0086C568.317 45.0888 576.218 45.6102 585.604 46.5728V102.283C585.684 109.021 585.684 115.238 585.604 120.933C585.443 133.768 581.513 143.554 573.812 150.292C570.042 153.662 564.868 155.827 558.29 156.79C556.204 157.031 553.918 157.151 551.431 157.151C547.501 157.151 542.527 156.67 536.511 155.707L537.594 149.811C543.61 150.774 548.584 151.255 552.514 151.255C559.734 151.255 565.83 149.089 570.804 144.758C576.419 139.864 579.347 131.843 579.587 120.693C579.587 119.73 579.587 118.447 579.587 116.842V108.059V103.847C577.903 106.254 575.697 108.66 572.97 111.067C567.354 115.96 560.977 118.406 553.838 118.406C545.094 118.406 537.955 114.797 532.42 107.577C527.367 100.919 524.84 93.0581 524.84 83.9937C524.84 81.6674 525 79.301 525.321 76.8946C526.925 66.8675 531.257 58.8058 538.316 52.7093C544.894 46.9338 552.755 44.3669 561.9 45.0086ZM579.587 83.0311C579.748 64.5011 579.748 54.1131 579.587 51.8671C569.159 51.1451 562.822 50.7842 560.576 50.7842C553.597 50.3831 547.3 52.6291 541.685 57.5223C538.316 60.4903 535.669 64.5413 533.744 69.6751C531.979 74.4881 531.097 79.3412 531.097 84.2344C531.097 90.3308 532.38 95.585 534.947 99.9969C539.76 108.259 545.897 112.39 553.357 112.39C559.212 112.39 564.747 110.104 569.961 105.532C576.299 99.9166 579.507 92.4164 579.587 83.0311Z" fill="#090B01"/>
<path d="M616.23 16.4339C619.458 16.4339 622.609 17.2664 625.684 18.9314C628.76 20.5794 631.155 22.9494 632.871 26.0415C634.587 29.1166 635.445 32.3276 635.445 35.6745C635.445 38.9875 634.595 42.173 632.896 45.2311C631.214 48.2892 628.844 50.6677 625.786 52.3667C622.745 54.0486 619.56 54.8896 616.23 54.8896C612.9 54.8896 609.706 54.0486 606.648 52.3667C603.607 50.6677 601.237 48.2892 599.538 45.2311C597.839 42.173 596.989 38.9875 596.989 35.6745C596.989 32.3276 597.847 29.1166 599.563 26.0415C601.296 22.9494 603.7 20.5794 606.775 18.9314C609.85 17.2664 613.002 16.4339 616.23 16.4339ZM616.23 19.6195C613.528 19.6195 610.895 20.316 608.33 21.7092C605.781 23.0853 603.785 25.0646 602.341 27.647C600.897 30.2124 600.175 32.8883 600.175 35.6745C600.175 38.4438 600.88 41.1027 602.29 43.6511C603.717 46.1825 605.705 48.1618 608.253 49.5889C610.802 50.999 613.46 51.7041 616.23 51.7041C618.999 51.7041 621.658 50.999 624.206 49.5889C626.755 48.1618 628.734 46.1825 630.144 43.6511C631.554 41.1027 632.259 38.4438 632.259 35.6745C632.259 32.8883 631.537 30.2124 630.093 27.647C628.666 25.0646 626.67 23.0853 624.104 21.7092C621.539 20.316 618.914 19.6195 616.23 19.6195ZM607.794 46.3014V25.6083H614.905C617.334 25.6083 619.092 25.8036 620.18 26.1944C621.267 26.5682 622.134 27.2308 622.779 28.1822C623.425 29.1336 623.748 30.1445 623.748 31.2148C623.748 32.7269 623.204 34.0435 622.117 35.1648C621.046 36.2861 619.619 36.9148 617.835 37.0507C618.566 37.3565 619.152 37.7218 619.594 38.1465C620.426 38.962 621.446 40.3296 622.652 42.2495L625.175 46.3014H621.097L619.262 43.0395C617.818 40.4741 616.655 38.8685 615.771 38.2229C615.159 37.7472 614.267 37.5094 613.095 37.5094H611.133V46.3014H607.794ZM611.133 34.6552H615.185C617.122 34.6552 618.438 34.3663 619.135 33.7887C619.849 33.2111 620.205 32.4465 620.205 31.4951C620.205 30.8835 620.035 30.3398 619.696 29.8641C619.356 29.3714 618.88 29.0062 618.269 28.7683C617.674 28.5305 616.561 28.4115 614.93 28.4115H611.133V34.6552Z" fill="black"/>
<path d="M203 0H199V240H203V0Z" fill="#91B014"/>
</svg>
