<svg width="971" height="81" viewBox="0 0 971 81" fill="none" xmlns="http://www.w3.org/2000/svg">
<path d="M22.216 7.288C28.744 7.288 34.2053 9.848 38.6 14.968C42.8667 20.0027 45 26.1893 45 33.528C45 40.824 42.8667 46.9893 38.6 52.024C34.2053 57.144 28.744 59.704 22.216 59.704C15.7733 59.704 10.5253 57.144 6.472 52.024C2.504 47.0747 0.52 40.9093 0.52 33.528C0.52 26.104 2.504 19.9173 6.472 14.968C10.5253 9.848 15.7733 7.288 22.216 7.288ZM22.216 56.696C27.848 56.696 32.52 54.456 36.232 49.976C39.944 45.4533 41.8 39.9707 41.8 33.528C41.8 27.0427 39.944 21.56 36.232 17.08C32.52 12.6 27.848 10.36 22.216 10.36C16.6267 10.36 12.104 12.6213 8.648 17.144C5.36267 21.4533 3.72 26.9147 3.72 33.528C3.72 40.0987 5.36267 45.56 8.648 49.912C12.104 54.4347 16.6267 56.696 22.216 56.696ZM85.6215 38.2C85.6215 38.6693 85.6215 39.032 85.6215 39.288C85.6642 39.544 85.6642 39.9707 85.6215 40.568C85.6215 41.1653 85.6002 41.6347 85.5575 41.976C85.0028 47.864 82.8268 52.472 79.0295 55.8C75.9148 58.5307 71.8615 59.896 66.8695 59.896C64.7362 59.896 61.6215 59.704 57.5255 59.32V80.952H54.3255V22.136C61.1948 21.5387 65.3762 21.24 66.8695 21.24C67.5095 21.1973 68.1495 21.176 68.7895 21.176C73.2268 21.176 76.8535 22.4133 79.6695 24.888C83.3815 28.1733 85.3655 32.6107 85.6215 38.2ZM82.2935 40.696C82.3362 39.672 82.3575 38.9893 82.3575 38.648C82.0162 33.6987 80.5442 30.008 77.9415 27.576C75.3388 25.144 71.9042 24.056 67.6375 24.312C64.9068 24.3547 61.5362 24.5893 57.5255 25.016V39.224C57.5255 39.48 57.5255 39.6293 57.5255 39.672V41.464C57.5255 41.6773 57.5255 41.848 57.5255 41.976V56.184C63.0295 56.6107 66.4002 56.824 67.6375 56.824C71.0508 57.0373 74.2508 55.8427 77.2375 53.24C79.6695 51.1067 81.3122 47.5013 82.1655 42.424C82.2508 41.784 82.2935 41.208 82.2935 40.696ZM123.501 40.504H94.6365V40.824C94.6365 41.336 94.7005 41.912 94.8285 42.552C95.6392 47.5867 97.2605 51.1707 99.6925 53.304C102.423 55.6933 105.623 56.888 109.293 56.888C111.895 57.016 114.242 56.8027 116.333 56.248C117.101 56.0773 118.871 55.608 121.645 54.84C121.645 55.7787 121.645 56.568 121.645 57.208C121.645 57.848 121.645 58.104 121.645 57.976C118.914 58.7867 116.141 59.3627 113.325 59.704C112.173 59.832 111.063 59.9173 109.997 59.96C105.09 60.0027 101.058 58.6373 97.9005 55.864C94.2738 52.664 92.0978 48.056 91.3725 42.04V40.696C91.3725 40.1413 91.3725 39.672 91.3725 39.288C91.3725 38.9893 91.3938 38.712 91.4365 38.456C91.8632 33.1653 94.0605 28.792 98.0285 25.336C101.015 22.6907 104.407 21.368 108.205 21.368C108.93 21.368 109.677 21.432 110.445 21.56C114.626 22.2427 117.954 24.5467 120.429 28.472C122.647 32.0133 123.671 36.024 123.501 40.504ZM108.397 24.632C105.325 24.632 102.423 25.8267 99.6925 28.216C96.9618 30.6053 95.3192 33.6347 94.7645 37.304H120.109C119.853 34.9573 119.191 32.9093 118.125 31.16C115.607 26.808 112.365 24.632 108.397 24.632ZM162.72 27.896C164.256 30.5413 165.024 34.2533 165.024 39.032V59H161.696V39.032C161.696 34.9787 161.056 31.8853 159.776 29.752C158.794 28.0027 157.706 26.744 156.512 25.976C155.317 25.208 153.568 24.632 151.264 24.248C150.794 24.1627 150.325 24.12 149.856 24.12C146.741 24.12 143.797 25.336 141.024 27.768C137.653 30.7547 135.968 34.424 135.968 38.776V59H132.768V22.008H135.968V28.6C137.546 26.296 139.53 24.44 141.92 23.032C144.352 21.624 146.912 20.92 149.6 20.92C150.368 20.92 151.114 20.9627 151.84 21.048C154.698 21.5173 156.917 22.264 158.496 23.288C160.074 24.2693 161.482 25.8053 162.72 27.896ZM201.387 38.008C205.313 40.44 208.022 42.5307 209.515 44.28C211.009 46.0293 211.755 47.9067 211.755 49.912C211.755 50.68 211.67 51.5333 211.499 52.472C210.987 55.032 209.75 56.9947 207.787 58.36C205.995 59.6827 203.798 60.344 201.195 60.344C200.257 60.344 199.318 60.2373 198.379 60.024C195.691 59.512 193.515 58.616 191.851 57.336L191.979 53.816C194.795 56.3333 197.889 57.592 201.259 57.592C205.099 57.592 207.403 55.544 208.171 51.448C208.257 51.0213 208.299 50.5947 208.299 50.168C208.299 47.9493 206.87 45.7733 204.011 43.64C201.366 41.848 198.699 40.056 196.011 38.264C193.153 35.9173 191.723 33.3573 191.723 30.584C191.723 29.9867 191.787 29.3467 191.915 28.664C192.854 23.8853 195.883 21.496 201.003 21.496C205.313 21.496 208.705 22.776 211.179 25.336L210.859 28.344C209.537 27.0213 208.363 26.1253 207.339 25.656C206.529 25.2293 205.334 24.888 203.755 24.632C202.987 24.504 202.283 24.44 201.643 24.44C198.059 24.44 195.926 26.1467 195.243 29.56C195.115 30.1147 195.051 30.584 195.051 30.968C195.051 33.1013 197.163 35.448 201.387 38.008ZM227.731 55.608C228.713 56.4187 230.995 56.7813 234.579 56.696V59.448C232.062 59.448 230.441 59.4053 229.715 59.32C227.71 59.1067 226.238 58.5947 225.299 57.784C223.763 56.4613 222.803 54.3067 222.419 51.32C222.291 50.1253 222.185 46.7973 222.099 41.336C222.014 35.96 222.014 30.584 222.099 25.208H216.723V22.008H222.099V15.8H225.299V22.008H233.555V25.208H225.299C225.214 30.4987 225.214 35.8107 225.299 41.144C225.342 46.0933 225.406 48.9733 225.491 49.784C225.79 52.6 226.537 54.5413 227.731 55.608ZM270.981 40.504H242.117V40.824C242.117 41.336 242.181 41.912 242.309 42.552C243.12 47.5867 244.741 51.1707 247.173 53.304C249.904 55.6933 253.104 56.888 256.773 56.888C259.376 57.016 261.722 56.8027 263.813 56.248C264.581 56.0773 266.352 55.608 269.125 54.84C269.125 55.7787 269.125 56.568 269.125 57.208C269.125 57.848 269.125 58.104 269.125 57.976C266.394 58.7867 263.621 59.3627 260.805 59.704C259.653 59.832 258.544 59.9173 257.477 59.96C252.57 60.0027 248.538 58.6373 245.381 55.864C241.754 52.664 239.578 48.056 238.853 42.04V40.696C238.853 40.1413 238.853 39.672 238.853 39.288C238.853 38.9893 238.874 38.712 238.917 38.456C239.344 33.1653 241.541 28.792 245.509 25.336C248.496 22.6907 251.888 21.368 255.685 21.368C256.41 21.368 257.157 21.432 257.925 21.56C262.106 22.2427 265.434 24.5467 267.909 28.472C270.128 32.0133 271.152 36.024 270.981 40.504ZM255.877 24.632C252.805 24.632 249.904 25.8267 247.173 28.216C244.442 30.6053 242.8 33.6347 242.245 37.304H267.589C267.333 34.9573 266.672 32.9093 265.605 31.16C263.088 26.808 259.845 24.632 255.877 24.632ZM308.856 40.504H279.992V40.824C279.992 41.336 280.056 41.912 280.184 42.552C280.995 47.5867 282.616 51.1707 285.048 53.304C287.779 55.6933 290.979 56.888 294.648 56.888C297.251 57.016 299.597 56.8027 301.688 56.248C302.456 56.0773 304.227 55.608 307 54.84C307 55.7787 307 56.568 307 57.208C307 57.848 307 58.104 307 57.976C304.269 58.7867 301.496 59.3627 298.68 59.704C297.528 59.832 296.419 59.9173 295.352 59.96C290.445 60.0027 286.413 58.6373 283.256 55.864C279.629 52.664 277.453 48.056 276.728 42.04V40.696C276.728 40.1413 276.728 39.672 276.728 39.288C276.728 38.9893 276.749 38.712 276.792 38.456C277.219 33.1653 279.416 28.792 283.384 25.336C286.371 22.6907 289.763 21.368 293.56 21.368C294.285 21.368 295.032 21.432 295.8 21.56C299.981 22.2427 303.309 24.5467 305.784 28.472C308.003 32.0133 309.027 36.024 308.856 40.504ZM293.752 24.632C290.68 24.632 287.779 25.8267 285.048 28.216C282.317 30.6053 280.675 33.6347 280.12 37.304H305.464C305.208 34.9573 304.547 32.9093 303.48 31.16C300.963 26.808 297.72 24.632 293.752 24.632ZM318.379 59.128V0.183998H321.579V59.128H318.379ZM379.761 0.439999H382.897V59H379.761V54.84V52.6C378.865 53.88 377.692 55.16 376.241 56.44C373.255 59.0427 369.863 60.344 366.065 60.344C361.457 60.344 357.681 58.424 354.737 54.584C352.049 51.0427 350.705 46.8827 350.705 42.104C350.705 40.8667 350.812 39.608 351.025 38.328C351.879 33.0373 354.161 28.7707 357.873 25.528C360.988 22.7973 365.148 21.432 370.353 21.432C372.529 21.432 375.665 21.624 379.761 22.008V0.439999ZM379.761 41.592C379.847 31.7787 379.847 26.296 379.761 25.144C374.215 24.7173 370.844 24.504 369.649 24.504C365.98 24.248 362.652 25.4427 359.665 28.088C357.873 29.624 356.465 31.7787 355.441 34.552C354.503 37.0693 354.033 39.6293 354.033 42.232C354.033 45.4747 354.737 48.2693 356.145 50.616C358.663 54.9253 361.905 57.08 365.873 57.08C368.945 57.08 371.868 55.8853 374.641 53.496C378.012 50.552 379.719 46.584 379.761 41.592ZM422.399 40.504H393.535V40.824C393.535 41.336 393.599 41.912 393.727 42.552C394.538 47.5867 396.159 51.1707 398.591 53.304C401.322 55.6933 404.522 56.888 408.191 56.888C410.794 57.016 413.14 56.8027 415.231 56.248C415.999 56.0773 417.77 55.608 420.543 54.84C420.543 55.7787 420.543 56.568 420.543 57.208C420.543 57.848 420.543 58.104 420.543 57.976C417.812 58.7867 415.039 59.3627 412.223 59.704C411.071 59.832 409.962 59.9173 408.895 59.96C403.988 60.0027 399.956 58.6373 396.799 55.864C393.172 52.664 390.996 48.056 390.271 42.04V40.696C390.271 40.1413 390.271 39.672 390.271 39.288C390.271 38.9893 390.292 38.712 390.335 38.456C390.762 33.1653 392.959 28.792 396.927 25.336C399.914 22.6907 403.306 21.368 407.103 21.368C407.828 21.368 408.575 21.432 409.343 21.56C413.524 22.2427 416.852 24.5467 419.327 28.472C421.546 32.0133 422.57 36.024 422.399 40.504ZM407.295 24.632C404.223 24.632 401.322 25.8267 398.591 28.216C395.86 30.6053 394.218 33.6347 393.663 37.304H419.007C418.751 34.9573 418.09 32.9093 417.023 31.16C414.506 26.808 411.263 24.632 407.295 24.632ZM437.618 38.008C441.543 40.44 444.253 42.5307 445.746 44.28C447.239 46.0293 447.986 47.9067 447.986 49.912C447.986 50.68 447.901 51.5333 447.73 52.472C447.218 55.032 445.981 56.9947 444.018 58.36C442.226 59.6827 440.029 60.344 437.426 60.344C436.487 60.344 435.549 60.2373 434.61 60.024C431.922 59.512 429.746 58.616 428.082 57.336L428.21 53.816C431.026 56.3333 434.119 57.592 437.49 57.592C441.33 57.592 443.634 55.544 444.402 51.448C444.487 51.0213 444.53 50.5947 444.53 50.168C444.53 47.9493 443.101 45.7733 440.242 43.64C437.597 41.848 434.93 40.056 432.242 38.264C429.383 35.9173 427.954 33.3573 427.954 30.584C427.954 29.9867 428.018 29.3467 428.146 28.664C429.085 23.8853 432.114 21.496 437.234 21.496C441.543 21.496 444.935 22.776 447.41 25.336L447.09 28.344C445.767 27.0213 444.594 26.1253 443.57 25.656C442.759 25.2293 441.565 24.888 439.986 24.632C439.218 24.504 438.514 24.44 437.874 24.44C434.29 24.44 432.157 26.1467 431.474 29.56C431.346 30.1147 431.282 30.584 431.282 30.968C431.282 33.1013 433.394 35.448 437.618 38.008ZM456.858 21.944H460.058V59.064H456.858V21.944ZM460.058 12.536V15.736H456.858V12.536H460.058ZM489.187 21.24C492.6 21.2827 496.803 21.56 501.795 22.072V51.704C501.838 55.288 501.838 58.5947 501.795 61.624C501.71 68.4507 499.619 73.656 495.523 77.24C493.518 79.032 490.766 80.184 487.267 80.696C486.158 80.824 484.942 80.888 483.619 80.888C481.528 80.888 478.883 80.632 475.683 80.12L476.259 76.984C479.459 77.496 482.104 77.752 484.195 77.752C488.035 77.752 491.278 76.6 493.923 74.296C496.91 71.6933 498.467 67.4267 498.595 61.496C498.595 60.984 498.595 60.3013 498.595 59.448V54.776V52.536C497.699 53.816 496.526 55.096 495.075 56.376C492.088 58.9787 488.696 60.28 484.899 60.28C480.248 60.28 476.451 58.36 473.507 54.52C470.819 50.9787 469.475 46.7973 469.475 41.976C469.475 40.7387 469.56 39.48 469.731 38.2C470.584 32.8667 472.888 28.5787 476.643 25.336C480.142 22.264 484.323 20.8987 489.187 21.24ZM498.595 41.464C498.68 31.608 498.68 26.0827 498.595 24.888C493.048 24.504 489.678 24.312 488.483 24.312C484.771 24.0987 481.422 25.2933 478.435 27.896C476.643 29.4747 475.235 31.6293 474.211 34.36C473.272 36.92 472.803 39.5013 472.803 42.104C472.803 45.3467 473.486 48.1413 474.851 50.488C477.411 54.8827 480.675 57.08 484.643 57.08C487.758 57.08 490.702 55.864 493.475 53.432C496.846 50.4453 498.552 46.456 498.595 41.464ZM543.43 27.896C544.966 30.5413 545.734 34.2533 545.734 39.032V59H542.406V39.032C542.406 34.9787 541.766 31.8853 540.486 29.752C539.505 28.0027 538.417 26.744 537.222 25.976C536.028 25.208 534.278 24.632 531.974 24.248C531.505 24.1627 531.036 24.12 530.566 24.12C527.452 24.12 524.508 25.336 521.734 27.768C518.364 30.7547 516.678 34.424 516.678 38.776V59H513.478V22.008H516.678V28.6C518.257 26.296 520.241 24.44 522.63 23.032C525.062 21.624 527.622 20.92 530.31 20.92C531.078 20.92 531.825 20.9627 532.55 21.048C535.409 21.5173 537.628 22.264 539.206 23.288C540.785 24.2693 542.193 25.8053 543.43 27.896ZM592.85 21.432C596.221 21.4747 600.402 21.7733 605.394 22.328V59H602.194V54.84V52.6C601.341 53.88 600.189 55.16 598.738 56.44C595.752 59.0427 592.36 60.344 588.562 60.344C583.954 60.344 580.178 58.424 577.234 54.584C574.546 51.0427 573.202 46.8827 573.202 42.104C573.202 40.8667 573.309 39.608 573.522 38.328C574.376 33.0373 576.658 28.7707 580.37 25.528C583.826 22.456 587.986 21.0907 592.85 21.432ZM602.194 41.592C602.194 41.592 602.194 36.1093 602.194 25.144C596.69 24.7173 593.341 24.504 592.146 24.504C588.434 24.248 585.085 25.4427 582.098 28.088C580.349 29.624 578.962 31.7787 577.938 34.552C577 37.0693 576.53 39.6293 576.53 42.232C576.53 45.4747 577.213 48.2693 578.578 50.616C581.138 54.9253 584.381 57.08 588.306 57.08C591.421 57.08 594.365 55.8853 597.138 53.496C600.466 50.552 602.152 46.584 602.194 41.592ZM645.911 27.896C647.447 30.5413 648.215 34.2533 648.215 39.032V59H644.887V39.032C644.887 34.9787 644.247 31.8853 642.967 29.752C641.986 28.0027 640.898 26.744 639.703 25.976C638.508 25.208 636.759 24.632 634.455 24.248C633.986 24.1627 633.516 24.12 633.047 24.12C629.932 24.12 626.988 25.336 624.215 27.768C620.844 30.7547 619.159 34.424 619.159 38.776V59H615.959V22.008H619.159V28.6C620.738 26.296 622.722 24.44 625.111 23.032C627.543 21.624 630.103 20.92 632.791 20.92C633.559 20.92 634.306 20.9627 635.031 21.048C637.89 21.5173 640.108 22.264 641.687 23.288C643.266 24.2693 644.674 25.8053 645.911 27.896ZM684.429 0.439999H687.565V59H684.429V54.84V52.6C683.533 53.88 682.36 55.16 680.909 56.44C677.923 59.0427 674.531 60.344 670.733 60.344C666.125 60.344 662.349 58.424 659.405 54.584C656.717 51.0427 655.373 46.8827 655.373 42.104C655.373 40.8667 655.48 39.608 655.693 38.328C656.547 33.0373 658.829 28.7707 662.541 25.528C665.656 22.7973 669.816 21.432 675.021 21.432C677.197 21.432 680.333 21.624 684.429 22.008V0.439999ZM684.429 41.592C684.515 31.7787 684.515 26.296 684.429 25.144C678.883 24.7173 675.512 24.504 674.317 24.504C670.648 24.248 667.32 25.4427 664.333 28.088C662.541 29.624 661.133 31.7787 660.109 34.552C659.171 37.0693 658.701 39.6293 658.701 42.232C658.701 45.4747 659.405 48.2693 660.813 50.616C663.331 54.9253 666.573 57.08 670.541 57.08C673.613 57.08 676.536 55.8853 679.309 53.496C682.68 50.552 684.387 46.584 684.429 41.592ZM734.96 21.24C738.374 21.2827 742.576 21.56 747.568 22.072V51.704C747.611 55.288 747.611 58.5947 747.568 61.624C747.483 68.4507 745.392 73.656 741.296 77.24C739.291 79.032 736.539 80.184 733.04 80.696C731.931 80.824 730.715 80.888 729.392 80.888C727.302 80.888 724.656 80.632 721.456 80.12L722.032 76.984C725.232 77.496 727.878 77.752 729.968 77.752C733.808 77.752 737.051 76.6 739.696 74.296C742.683 71.6933 744.24 67.4267 744.368 61.496C744.368 60.984 744.368 60.3013 744.368 59.448V54.776V52.536C743.472 53.816 742.299 55.096 740.848 56.376C737.862 58.9787 734.47 60.28 730.672 60.28C726.022 60.28 722.224 58.36 719.28 54.52C716.592 50.9787 715.248 46.7973 715.248 41.976C715.248 40.7387 715.334 39.48 715.504 38.2C716.358 32.8667 718.662 28.5787 722.416 25.336C725.915 22.264 730.096 20.8987 734.96 21.24ZM744.368 41.464C744.454 31.608 744.454 26.0827 744.368 24.888C738.822 24.504 735.451 24.312 734.256 24.312C730.544 24.0987 727.195 25.2933 724.208 27.896C722.416 29.4747 721.008 31.6293 719.984 34.36C719.046 36.92 718.576 39.5013 718.576 42.104C718.576 45.3467 719.259 48.1413 720.624 50.488C723.184 54.8827 726.448 57.08 730.416 57.08C733.531 57.08 736.475 55.864 739.248 53.432C742.619 50.4453 744.326 46.456 744.368 41.464ZM765.588 25.336C767.423 23.7573 769.577 22.6267 772.052 21.944V25.208C770.345 25.8053 768.788 26.7013 767.38 27.896C764.564 30.3707 762.772 33.976 762.004 38.712C761.748 40.248 761.62 41.208 761.62 41.592V59H758.42V22.008H761.62V30.2C762.729 28.3227 764.052 26.7013 765.588 25.336ZM797.456 21.432C800.827 21.4747 805.008 21.7733 810 22.328V59H806.8V54.84V52.6C805.947 53.88 804.795 55.16 803.344 56.44C800.357 59.0427 796.965 60.344 793.168 60.344C788.56 60.344 784.784 58.424 781.84 54.584C779.152 51.0427 777.808 46.8827 777.808 42.104C777.808 40.8667 777.915 39.608 778.128 38.328C778.981 33.0373 781.264 28.7707 784.976 25.528C788.432 22.456 792.592 21.0907 797.456 21.432ZM806.8 41.592C806.8 41.592 806.8 36.1093 806.8 25.144C801.296 24.7173 797.947 24.504 796.752 24.504C793.04 24.248 789.691 25.4427 786.704 28.088C784.955 29.624 783.568 31.7787 782.544 34.552C781.605 37.0693 781.136 39.6293 781.136 42.232C781.136 45.4747 781.819 48.2693 783.184 50.616C785.744 54.9253 788.987 57.08 792.912 57.08C796.027 57.08 798.971 55.8853 801.744 53.496C805.072 50.552 806.757 46.584 806.8 41.592ZM851.668 38.2C851.668 38.6693 851.668 39.032 851.668 39.288C851.711 39.544 851.711 39.9707 851.668 40.568C851.668 41.1653 851.647 41.6347 851.604 41.976C851.05 47.864 848.874 52.472 845.076 55.8C841.962 58.5307 837.908 59.896 832.916 59.896C830.783 59.896 827.668 59.704 823.572 59.32V80.952H820.372V22.136C827.242 21.5387 831.423 21.24 832.916 21.24C833.556 21.1973 834.196 21.176 834.836 21.176C839.274 21.176 842.9 22.4133 845.716 24.888C849.428 28.1733 851.412 32.6107 851.668 38.2ZM848.34 40.696C848.383 39.672 848.404 38.9893 848.404 38.648C848.063 33.6987 846.591 30.008 843.988 27.576C841.386 25.144 837.951 24.056 833.684 24.312C830.954 24.3547 827.583 24.5893 823.572 25.016V39.224C823.572 39.48 823.572 39.6293 823.572 39.672V41.464C823.572 41.6773 823.572 41.848 823.572 41.976V56.184C829.076 56.6107 832.447 56.824 833.684 56.824C837.098 57.0373 840.298 55.8427 843.284 53.24C845.716 51.1067 847.359 47.5013 848.212 42.424C848.298 41.784 848.34 41.208 848.34 40.696ZM890.891 27.896C892.427 30.456 893.217 34.168 893.259 39.032V59H889.931V39.032C889.931 34.936 889.291 31.8213 888.011 29.688C886.987 27.9813 885.878 26.744 884.683 25.976C883.531 25.1653 881.803 24.568 879.499 24.184C879.03 24.1413 878.539 24.12 878.027 24.12C874.955 24.12 872.033 25.336 869.259 27.768C865.846 30.712 864.139 34.3813 864.139 38.776V59.064H860.939V0.119999H864.139V28.6C865.761 26.2533 867.723 24.3973 870.027 23.032C872.545 21.5813 875.147 20.856 877.835 20.856C878.561 20.856 879.307 20.92 880.075 21.048C882.891 21.4747 885.089 22.2 886.667 23.224C888.289 24.2053 889.697 25.7627 890.891 27.896ZM903.569 21.944H906.769V59.064H903.569V21.944ZM906.769 12.536V15.736H903.569V12.536H906.769ZM945.882 54.84C945.882 55.7787 945.882 56.568 945.882 57.208C945.925 57.848 945.946 58.104 945.946 57.976C943.173 58.7867 940.399 59.3627 937.626 59.704C936.431 59.832 935.301 59.9173 934.234 59.96C929.327 60.0027 925.317 58.6373 922.202 55.864C918.405 52.5787 916.207 47.9707 915.61 42.04C915.567 41.4 915.546 40.952 915.546 40.696C915.546 40.0987 915.546 39.6293 915.546 39.288C915.589 38.8187 915.61 38.4987 915.61 38.328C915.823 32.7387 917.786 28.3227 921.498 25.08C924.271 22.648 928.517 21.432 934.234 21.432C936.325 21.432 939.333 21.6027 943.258 21.944V25.144C938.991 24.7173 935.749 24.504 933.53 24.504C928.965 24.504 925.551 25.5707 923.29 27.704C920.645 30.1787 919.173 33.848 918.874 38.712C918.831 39.096 918.831 39.8 918.874 40.824C918.874 41.336 918.938 41.912 919.066 42.552C919.877 47.5867 921.498 51.1707 923.93 53.304C926.661 55.6933 929.861 56.888 933.53 56.888C936.133 57.016 938.479 56.8027 940.57 56.248C941.338 56.0773 943.109 55.608 945.882 54.84ZM959.954 38.008C963.879 40.44 966.589 42.5307 968.082 44.28C969.575 46.0293 970.322 47.9067 970.322 49.912C970.322 50.68 970.237 51.5333 970.066 52.472C969.554 55.032 968.317 56.9947 966.354 58.36C964.562 59.6827 962.365 60.344 959.762 60.344C958.823 60.344 957.885 60.2373 956.946 60.024C954.258 59.512 952.082 58.616 950.418 57.336L950.546 53.816C953.362 56.3333 956.455 57.592 959.826 57.592C963.666 57.592 965.97 55.544 966.738 51.448C966.823 51.0213 966.866 50.5947 966.866 50.168C966.866 47.9493 965.437 45.7733 962.578 43.64C959.933 41.848 957.266 40.056 954.578 38.264C951.719 35.9173 950.29 33.3573 950.29 30.584C950.29 29.9867 950.354 29.3467 950.482 28.664C951.421 23.8853 954.45 21.496 959.57 21.496C963.879 21.496 967.271 22.776 969.746 25.336L969.426 28.344C968.103 27.0213 966.93 26.1253 965.906 25.656C965.095 25.2293 963.901 24.888 962.322 24.632C961.554 24.504 960.85 24.44 960.21 24.44C956.626 24.44 954.493 26.1467 953.81 29.56C953.682 30.1147 953.618 30.584 953.618 30.968C953.618 33.1013 955.73 35.448 959.954 38.008Z" fill="black"/>
</svg>
