<svg width="149" height="141" viewBox="0 0 149 141" fill="none" xmlns="http://www.w3.org/2000/svg">
<path d="M5.80957 5.81396H143.341V135.62H5.80957V5.81396Z" fill="white"/>
<path d="M130.212 67.3074L115.887 51.8725L130.121 36.1514L130.212 67.3074Z" fill="black"/>
<path d="M18.4993 104.411L32.8249 88.976L18.5909 73.2549L18.4993 104.411Z" fill="black"/>
<path d="M27.0882 127.398C27.0882 130.861 25.7125 134.183 23.2638 136.632C20.815 139.081 17.4938 140.457 14.0308 140.457C10.5678 140.457 7.24656 139.081 4.79782 136.632C2.34908 134.183 0.973392 130.861 0.973389 127.398C0.973386 125.683 1.31112 123.984 1.96732 122.4C2.62351 120.815 3.58531 119.376 4.79781 118.163C6.0103 116.95 7.44974 115.988 9.03394 115.332C10.6181 114.676 12.3161 114.338 14.0308 114.338C15.7455 114.338 17.4435 114.676 19.0277 115.332C20.6119 115.988 22.0513 116.95 23.2638 118.163C24.4763 119.376 25.4381 120.815 26.0943 122.4C26.7505 123.984 27.0882 125.683 27.0882 127.398Z" fill="black"/>
<path d="M148.177 14.0363C148.177 15.7513 147.839 17.4495 147.183 19.034C146.527 20.6184 145.565 22.0582 144.352 23.2709C143.14 24.4836 141.7 25.4455 140.116 26.1018C138.532 26.7581 136.834 27.0959 135.119 27.0959C133.405 27.0959 131.707 26.7581 130.123 26.1018C128.538 25.4455 127.099 24.4836 125.886 23.2709C124.674 22.0582 123.712 20.6184 123.056 19.034C122.4 17.4495 122.062 15.7513 122.062 14.0363C122.062 10.5726 123.438 7.25081 125.886 4.80165C128.335 2.35249 131.656 0.976562 135.119 0.976563C138.582 0.976563 141.904 2.35249 144.352 4.80165C146.801 7.25081 148.177 10.5726 148.177 14.0363Z" fill="black"/>
<path d="M1.50342 84.0288H102.954V93.6366H1.50342V84.0288Z" fill="#91B014"/>
<path d="M0.526611 83.0518V84.0256V94.6082H103.928V83.0518H0.526611ZM2.47432 84.9995H101.981V92.6605H2.47432V84.9995Z" fill="black"/>
<path d="M46.1926 46.9219H146.689V56.5368H46.1926V46.9219Z" fill="#91B014"/>
<path d="M45.2158 45.9443V46.9182V57.508H147.665V45.9443H45.2158ZM47.1635 47.8993H145.718V55.5603H47.1635V47.8993Z" fill="black"/>
<path d="M7.80092 120.988C13.657 120.988 18.4054 116.287 18.4054 110.43V32.8381C18.4054 32.8381 18.6857 18.4121 32.9774 18.4121H118.93C124.786 18.4121 129.486 13.6631 129.486 7.80582V0.977051H18.4054H9.49569H0.973389V120.988H7.80092Z" fill="#91B014"/>
<path d="M0 0V121.963H7.79806C14.1755 121.963 19.3761 116.812 19.3761 110.428V32.8586C19.3761 32.8586 19.4611 29.4508 21.2012 26.0705C22.9413 22.6901 26.156 19.3833 32.974 19.3833H118.933C125.316 19.3833 130.461 14.1837 130.461 7.80527V0H18.4023H9.49329H0ZM1.94771 1.94771H9.49329H18.4023H128.513V7.80527C128.513 13.1414 124.262 17.4356 118.933 17.4356H32.974C25.5004 17.4356 21.4356 21.3434 19.4627 25.176C17.4897 29.0086 17.4284 32.8225 17.4284 32.8225V32.8299V110.428C17.4284 115.759 13.1328 120.015 7.79806 120.015H1.94771V1.94771Z" fill="black"/>
<path d="M140.574 19.6714C134.718 19.6714 129.97 24.3722 129.97 30.2293V107.821C129.97 107.821 129.69 122.247 115.398 122.247H29.4457C23.5896 122.247 18.8896 126.996 18.8896 132.854V139.682H129.97H138.88H147.402V19.6714H140.574Z" fill="#91B014"/>
<path d="M140.574 18.6982C134.197 18.6982 128.996 23.8423 128.996 30.2258V107.802C128.996 107.802 128.918 111.21 127.178 114.591C125.438 117.971 122.216 121.27 115.398 121.27H29.4465C23.0637 121.27 17.9189 126.477 17.9189 132.856V140.654H129.97H138.879H148.38V18.6982H140.574ZM140.574 20.646H146.425V138.706H138.879H129.97H19.8667V132.856C19.8667 127.52 24.1172 123.218 29.4465 123.218H115.398C122.872 123.218 126.937 119.31 128.91 115.478C130.883 111.645 130.944 107.838 130.944 107.838V107.831V30.2256C130.944 24.8952 135.239 20.646 140.574 20.646Z" fill="black"/>
</svg>
