<?xml version="1.0" encoding="UTF-8"?>
<svg version="1.1" xmlns="http://www.w3.org/2000/svg" width="289" height="272">
<path d="M0 0 C95.37 0 190.74 0 289 0 C289 89.76 289 179.52 289 272 C193.63 272 98.26 272 0 272 C0 182.24 0 92.48 0 0 Z " fill="#0E0E0E" transform="translate(0,0)"/>
<path d="M0 0 C1.14215724 -0.00512655 1.14215724 -0.00512655 2.30738837 -0.01035666 C4.84265057 -0.01691203 7.37683896 0.00500053 9.91200256 0.0269165 C11.73567174 0.02804549 13.55934274 0.02741011 15.38301086 0.02514648 C20.32268152 0.02400042 25.26196241 0.0474924 30.20154262 0.07544231 C35.36783155 0.10047385 40.53412975 0.10279936 45.70046997 0.10754395 C55.47867145 0.11996855 65.25669371 0.15278327 75.03481632 0.1929419 C86.16896157 0.23767557 97.30311545 0.25965068 108.43732822 0.27972364 C131.3366191 0.32151629 154.23575098 0.39185842 177.13490295 0.48101807 C177.38812317 1.03023926 177.64134338 1.57946045 177.90223694 2.14532471 C178.24585266 2.86583008 178.58946838 3.58633545 178.9434967 4.32867432 C179.44707703 5.4000061 179.44707703 5.4000061 179.96083069 6.49298096 C182.28887609 10.43502165 185.93503326 12.0810615 190.13490295 13.48101807 C190.61442021 16.64214335 190.88736851 19.79401213 191.13490295 22.98101807 C191.3359967 24.28232666 191.3359967 24.28232666 191.54115295 25.60992432 C191.95235435 32.75454855 188.65132622 37.62841124 184.08998108 42.76812744 C177.31171997 49.84918401 170.97937335 51.89716664 161.26033497 52.25477314 C155.3794733 52.37601575 149.51545535 52.27885756 143.63673973 52.10332108 C139.67210104 52.00223877 135.70719876 51.99382067 131.74147034 51.97491455 C124.25678459 51.92548496 116.77590712 51.7946278 109.29288721 51.63332272 C100.76359496 51.45351693 92.23410564 51.36627558 83.70338535 51.28619576 C66.17830428 51.11964117 48.6571544 50.83555514 31.13490295 50.48101807 C31.13490295 57.08101807 31.13490295 63.68101807 31.13490295 70.48101807 C33.74675758 70.42439247 33.74675758 70.42439247 36.41137695 70.36662292 C52.87280981 70.02103646 69.33335587 69.7656895 85.79759884 69.60021114 C94.2610523 69.51286978 102.7217828 69.39400889 111.18348694 69.19854736 C118.56658402 69.02808377 125.94770851 68.91919723 133.33271891 68.88151366 C137.237524 68.859509 141.13669125 68.80856576 145.03967094 68.6836071 C171.64093423 67.86743621 171.64093423 67.86743621 181.34062862 75.57424355 C188.81598347 82.80825076 191.94363163 90.2370994 192.21678448 100.56672668 C192.18852355 103.44954224 192.08258556 106.32298477 191.97084045 109.20367432 C191.95176149 111.24524323 191.9395766 113.28688687 191.93388367 115.32853699 C191.905024 119.57437081 191.8214904 123.81398163 191.69203186 128.05792236 C191.52708585 133.48190398 191.45904088 138.90145572 191.42636681 144.32769108 C191.39090335 149.53692809 191.30769539 154.74508336 191.22084045 159.95367432 C191.20840679 160.93637865 191.19597313 161.91908298 191.18316269 162.93156624 C191.13912495 165.72426337 191.06115107 168.51389199 190.9723053 171.30548096 C190.96357391 172.11962967 190.95484253 172.93377838 190.94584656 173.77259827 C190.70281538 179.71635314 189.14257301 184.01552685 185.13490295 188.48101807 C178.46787498 194.62172512 167.8549916 193.00894002 159.4278717 192.93511963 C157.62375921 192.93399035 155.81964488 192.93462658 154.01553345 192.93688965 C149.13376917 192.93803458 144.25240018 192.91456098 139.37072754 192.88659382 C134.26316852 192.86154339 129.15559986 192.85923529 124.04798889 192.85449219 C114.3831507 192.84207312 104.71849407 192.80926593 95.05373573 192.76909423 C84.04773932 192.72434328 73.04173411 192.70238111 62.03566933 192.68231249 C39.40197998 192.6405324 16.76845165 192.57020109 -5.86509705 192.48101807 C-6.19630554 191.85453369 -6.52751404 191.22804932 -6.86875916 190.58258057 C-7.3096991 189.76531494 -7.75063904 188.94804932 -8.2049408 188.10601807 C-8.85644104 186.887854 -8.85644104 186.887854 -9.52110291 185.64508057 C-12.06826814 181.54370497 -15.39896028 180.53853882 -19.86509705 179.48101807 C-21.28230281 170.77129469 -22.26995447 161.36818522 -17.20068359 153.69148254 C-11.25740555 146.43586149 -5.26426477 141.4181242 4.20133972 140.00662231 C12.05076369 139.36139796 19.86964351 139.50733624 27.73446012 139.75732112 C31.69636184 139.86481822 35.6585691 139.87367245 39.6217041 139.89375305 C47.09951331 139.9462454 54.57301273 140.08523922 62.04893774 140.25669438 C70.57092657 140.44782626 79.09313991 140.54045303 87.61674416 140.62551677 C105.12534643 140.8024197 122.62950114 141.10420814 140.13490295 141.48101807 C140.13490295 134.88101807 140.13490295 128.28101807 140.13490295 121.48101807 C138.36638977 121.51654785 136.59787659 121.55207764 134.77577209 121.58868408 C118.06381832 121.91381496 101.35250938 122.15421051 84.63809204 122.31001282 C76.04588629 122.39224689 67.4560533 122.50418082 58.8653717 122.68804932 C51.37058546 122.84838453 43.87751813 122.95094492 36.38106441 122.98643398 C32.41680775 123.00715914 28.45746443 123.0552211 24.49479675 123.17269897 C-2.54035618 123.94063386 -2.54035618 123.94063386 -11.74044514 116.74769592 C-18.94340417 109.78563151 -21.57764143 102.40196332 -21.83116436 92.51123047 C-21.80545656 89.62283555 -21.70715733 86.74257813 -21.6033783 83.85601807 C-21.5861744 81.81301135 -21.57540732 79.76994143 -21.57070923 77.72686768 C-21.54484796 73.47538243 -21.46733684 69.22939219 -21.3467865 64.97955322 C-21.19329731 59.54771286 -21.13222678 54.11995416 -21.10474873 48.68615723 C-21.07410629 43.47141924 -20.99620116 38.25768523 -20.9158783 33.04351807 C-20.90495966 32.05929871 -20.89404102 31.07507935 -20.88279152 30.06103516 C-20.84348603 27.2635025 -20.77038094 24.46893778 -20.68663025 21.67242432 C-20.67946991 20.85670456 -20.67230957 20.0409848 -20.66493225 19.20054626 C-20.43919453 13.40287254 -18.95478092 8.73215946 -14.86509705 4.48101807 C-9.85019271 1.021718 -6.12312621 -0.10200051 0 0 Z " fill="#FDFDFD" transform="translate(58.86509704589844,39.51898193359375)"/>
<path d="M0 0 C0 75.57 0 151.14 0 229 C-81.18 229 -162.36 229 -246 229 C-246 208 -246 208 -241 200 C-235.53784222 195.73951693 -231.41949057 194.85215913 -224.66975403 194.87542725 C-223.91737809 194.8740171 -223.16500216 194.87260695 -222.38982695 194.87115407 C-219.86118435 194.86749546 -217.33259763 194.87084004 -214.80395508 194.87402344 C-212.99385535 194.87262889 -211.18375595 194.87072973 -209.37365723 194.86836243 C-205.47113088 194.86386206 -201.56861507 194.86200927 -197.6660862 194.86190033 C-191.49291438 194.86076082 -185.31980249 194.84792817 -179.14665222 194.83233643 C-178.10508132 194.82976357 -177.06351042 194.82719072 -175.99037677 194.8245399 C-173.86025043 194.81927318 -171.73012413 194.8139877 -169.59999788 194.80868387 C-155.22640541 194.77356876 -140.85288696 194.74702122 -126.47924805 194.74951172 C-116.7866735 194.75110087 -107.09430285 194.73505056 -97.40179366 194.69880509 C-92.27288779 194.68035081 -87.1443223 194.67099755 -82.0153904 194.68328094 C-77.18811312 194.69472943 -72.36144473 194.68298624 -67.53424835 194.65364647 C-65.76541685 194.64701357 -63.99652947 194.64885956 -62.22772026 194.65994453 C-50.69186564 195.14810208 -50.69186564 195.14810208 -40.48365974 190.69077301 C-33.1590567 182.3436832 -33.2972213 173.19936305 -33.40405273 162.62988281 C-33.40214593 160.99283961 -33.3979842 159.35579772 -33.39175415 157.71876526 C-33.3830028 154.2117884 -33.38964059 150.70530833 -33.40841484 147.19837189 C-33.43762787 141.65097959 -33.42968224 136.10401056 -33.41651917 130.55657959 C-33.39590637 119.78795942 -33.41143353 109.01954674 -33.43199158 98.25093842 C-33.45717844 84.52936579 -33.46999242 70.80790751 -33.44203526 57.08633113 C-33.43208974 51.57331538 -33.44218923 46.06081086 -33.46794307 40.54785109 C-33.48011904 37.12010032 -33.47590953 33.69250903 -33.46736526 30.26475334 C-33.46683054 28.67727033 -33.47315854 27.0897677 -33.48690605 25.50234413 C-33.50478405 23.33250292 -33.49801485 21.16404875 -33.4853363 18.99420166 C-33.48814322 17.78120518 -33.49095015 16.56820869 -33.49384212 15.31845474 C-32.73856239 10.24322624 -30.26936088 7.17171774 -26.5625 3.75 C-17.66007615 -2.32970409 -12.48094934 0 0 0 Z " fill="#91AF17" transform="translate(285,39)"/>
<path d="M0 0 C81.51 0 163.02 0 247 0 C247 22.47884187 247 22.47884187 242.24609375 28.05859375 C241.35083984 28.74115234 241.35083984 28.74115234 240.4375 29.4375 C239.83808594 29.91058594 239.23867187 30.38367188 238.62109375 30.87109375 C235.07457423 33.34083867 231.98470645 33.13895502 227.8034668 33.12457275 C227.05335642 33.1259829 226.30324604 33.12739305 225.53040504 33.12884593 C223.00332438 33.13251148 220.47629938 33.12915695 217.94921875 33.12597656 C216.14251156 33.1273708 214.33580469 33.12926976 212.52909851 33.13163757 C208.6303786 33.13614164 204.73166923 33.13799082 200.83294678 33.13809967 C194.66350632 33.13923864 188.49412591 33.15206816 182.32470703 33.16766357 C181.28390614 33.17023643 180.24310524 33.17280928 179.17076492 33.1754601 C177.04192856 33.18072704 174.91309225 33.18601252 172.78425598 33.19131613 C158.4178478 33.22642767 144.05151322 33.25298146 129.68505859 33.25048828 C120.000163 33.24889788 110.31547126 33.26498085 100.63064098 33.30119491 C95.50612783 33.31963247 90.38195488 33.32901732 85.25741577 33.31671906 C80.43096678 33.3052495 75.60512548 33.31706289 70.7787571 33.34635353 C69.01237904 33.35297332 67.245945 33.35116308 65.47958946 33.34005547 C51.86704996 33.05387683 51.86704996 33.05387683 40 39 C33.36888945 45.93298522 34.30712619 55.30389916 34.38818359 64.2565918 C34.38463797 65.89348964 34.37885527 67.53038393 34.37101746 69.16726685 C34.35888361 72.67697782 34.36225191 76.18620178 34.37784958 79.69589806 C34.40224587 85.24742108 34.39064003 90.79852098 34.37417603 96.35005188 C34.34972867 106.12779684 34.35546803 115.90534767 34.36798096 125.68310547 C34.38659541 140.41309098 34.38170675 155.14304013 34.34794676 169.87299854 C34.33644241 175.3901151 34.34085772 180.90692188 34.35796714 186.42402112 C34.36586875 189.85502924 34.36161149 193.28594728 34.35425758 196.71695328 C34.35344796 198.30604084 34.35778961 199.89514076 34.36770058 201.48419762 C34.38059028 203.65608175 34.37503302 205.82718683 34.36508179 207.99906921 C34.36696692 209.21336452 34.36885204 210.42765982 34.3707943 211.67875195 C33.76852249 217.07337121 31.65240546 220.93511355 27.4375 224.3125 C26.83808594 224.80363281 26.23867188 225.29476562 25.62109375 225.80078125 C17.72482101 231.64212036 13.73814284 228 0 228 C0 152.76 0 77.52 0 0 Z " fill="#90AE16" transform="translate(3,4)"/>
<path d="M0 0 C1.32 0 2.64 0 4 0 C6 2 6 2 6.24609566 4.80734444 C6.24425207 6.01489325 6.24240849 7.22244205 6.24050903 8.46658325 C6.24221788 9.13799469 6.24392673 9.80940613 6.24568737 10.50116336 C6.24899389 12.76146199 6.23795974 15.0214668 6.22705078 17.28173828 C6.22648692 18.89777621 6.22680274 20.51381466 6.22793579 22.12985229 C6.22851127 26.52633243 6.21672542 30.92270416 6.20278788 35.31915903 C6.19031302 39.91026674 6.18911259 44.50137674 6.18673706 49.09249878 C6.18051273 57.7906178 6.16408905 66.48868674 6.14403808 75.18678367 C6.12170869 85.08748109 6.11069311 94.98818086 6.10064721 104.88889718 C6.07972362 125.25929277 6.04452917 145.62964324 6 166 C5.01 166 4.02 166 3 166 C3.02300171 164.89547485 3.04600342 163.79094971 3.06970215 162.6529541 C3.27714462 152.18005658 3.39835154 141.70912913 3.43784332 131.23421478 C3.46084183 125.84995982 3.51288242 120.46943252 3.63427734 115.08642578 C3.75060275 109.8786411 3.78674283 104.67559495 3.7702179 99.46659851 C3.77748347 97.4922622 3.81234727 95.51780474 3.87687683 93.54450989 C4.20742018 82.85218353 3.23525361 74.05946752 -4.07226562 65.76953125 C-13.41317101 56.74550493 -25.231216 56.93569943 -37.46289062 57.03479004 C-39.74088413 57.07449073 -42.01848975 57.12378473 -44.29623413 57.1757679 C-48.23325577 57.24843362 -52.16989248 57.22905047 -56.10742188 57.22009277 C-63.53852092 57.21683663 -70.96640627 57.29445485 -78.39663315 57.40231276 C-86.86591892 57.52122834 -95.33475326 57.54820142 -103.80475998 57.56806469 C-121.2046996 57.61089804 -138.60155618 57.77045953 -156 58 C-156 51.4 -156 44.8 -156 38 C-154.24179428 38.0207811 -152.48358856 38.04156219 -150.67210388 38.06297302 C-134.06218164 38.24942479 -117.45348303 38.35711391 -100.84252834 38.38603115 C-92.30343309 38.40289036 -83.76621169 38.44743222 -75.2277832 38.55883789 C-67.77912471 38.65595263 -60.33233927 38.69940204 -52.88304001 38.68036038 C-48.94339687 38.67211304 -45.00785666 38.68940344 -41.06896782 38.77114677 C-22.02319537 39.74467522 -22.02319537 39.74467522 -5.50196934 31.81192112 C-0.29983513 26.35519652 3.70201144 21.07994185 3.67382812 13.21679688 C3.59583984 12.34087891 3.51785156 11.46496094 3.4375 10.5625 C3.41751953 9.62857422 3.39753906 8.69464844 3.37695312 7.73242188 C3.3190987 5.47609948 3.19455275 3.2479125 3 1 C2.01 0.67 1.02 0.34 0 0 Z " fill="#61770E" transform="translate(246,52)"/>
<path d="M0 0 C95.37 0 190.74 0 289 0 C289 89.76 289 179.52 289 272 C193.63 272 98.26 272 0 272 C0 182.24 0 92.48 0 0 Z M1 3 C1 78.9 1 154.8 1 233 C2.65 233.33 4.3 233.66 6 234 C5.9175 235.134375 5.835 236.26875 5.75 237.4375 C5.79198427 245.37252725 9.8041595 251.52938343 15.0625 257.20703125 C21.11521302 262.8082314 26.70686753 265.30715305 35 265 C35.33 264.67 35.66 264.34 36 264 C36.66 265.98 37.32 267.96 38 270 C69.57671125 270.02278978 101.15342016 270.04049787 132.7301377 270.05106533 C136.45412502 270.05231611 140.17811232 270.05361042 143.90209961 270.05493164 C144.64350976 270.05519395 145.38491992 270.05545626 146.14879704 270.05572652 C158.16939669 270.06008334 170.18999157 270.06797096 182.21058839 270.0771528 C194.53563817 270.086489 206.86068545 270.09205554 219.18573862 270.09408849 C226.79708257 270.09546379 234.40841306 270.09981475 242.01975287 270.10791647 C247.84628133 270.1138042 253.6728028 270.11445905 259.49933434 270.11310768 C261.89678785 270.11338421 264.29424185 270.11539189 266.69169235 270.11920547 C269.94938294 270.12413594 273.20701464 270.12300069 276.46470642 270.12025452 C277.42674876 270.12316736 278.38879109 270.1260802 279.37998623 270.12908131 C283.51591457 270.54497066 283.51591457 270.54497066 287 269 C287.09798913 266.02908869 287.12991523 263.08141569 287.12025452 260.11009216 C287.12110894 259.16593714 287.12196337 258.22178212 287.12284368 257.24901634 C287.12450137 254.05979091 287.11897241 250.87061714 287.11352539 247.68139648 C287.11324356 245.40541587 287.11340118 243.12943516 287.1139679 240.85345459 C287.11425601 234.65329042 287.10835702 228.45314541 287.10139394 222.25298572 C287.09516273 215.78137479 287.09455679 209.30976348 287.09336853 202.83815002 C287.09060881 191.96900052 287.08435326 181.09985891 287.07543945 170.23071289 C287.06626608 159.03344763 287.05918488 147.83618428 287.05493164 136.63891602 C287.05466892 135.94918276 287.05440619 135.25944951 287.05413551 134.54881524 C287.05283051 131.08876543 287.05156679 127.6287156 287.05032361 124.16866577 C287.03995009 95.4457724 287.02225687 66.72288648 287 38 C285.68 37.67 284.36 37.34 283 37 C282.9071875 35.081875 282.9071875 35.081875 282.8125 33.125 C281.74528335 24.06077325 277.4506321 17.44236081 270.47265625 11.69921875 C265.88131146 8.5440292 260.88939637 5.57627567 255.203125 6.41015625 C254.47609375 6.60480469 253.7490625 6.79945313 253 7 C252.87625 6.360625 252.7525 5.72125 252.625 5.0625 C252.41875 4.381875 252.2125 3.70125 252 3 C249.71036147 1.85518073 248.44656546 1.8747108 245.90200043 1.87415886 C244.60727932 1.87024724 244.60727932 1.87024724 243.28640223 1.86625659 C241.85559077 1.86960268 241.85559077 1.86960268 240.39587402 1.87301636 C239.38693887 1.87145637 238.37800372 1.86989638 237.33849478 1.86828911 C233.93593507 1.86427997 230.53341947 1.86746844 227.13085938 1.87060547 C224.70034255 1.86925139 222.26982592 1.86747142 219.83930969 1.86529541 C213.90993759 1.86119749 207.98057707 1.86181309 202.05120528 1.86470805 C197.23385808 1.86696305 192.41651444 1.86727419 187.59916687 1.86618423 C186.91450107 1.866031 186.22983527 1.86587777 185.52442202 1.86571989 C184.13369755 1.86540018 182.74297308 1.86507597 181.35224861 1.8647473 C168.30009182 1.86189323 155.24794205 1.86517839 142.19578642 1.87054767 C130.98745436 1.87501564 119.77913265 1.87423969 108.57080078 1.86962891 C95.5665242 1.86428186 82.56225377 1.86216791 69.55797625 1.86524117 C68.17226187 1.86555973 66.7865475 1.8658741 65.40083313 1.86618423 C64.71896929 1.86633851 64.03710546 1.86649279 63.33457908 1.86665174 C58.52095873 1.8675165 53.70734228 1.86605489 48.89372253 1.86370468 C42.41940449 1.86061325 35.94510144 1.86280256 29.47078514 1.86859894 C27.08826416 1.86992628 24.70574154 1.86953286 22.32322121 1.86733627 C19.08350014 1.86462376 15.84384292 1.86800719 12.60412598 1.87301636 C11.65025167 1.87078564 10.69637736 1.86855491 9.71359777 1.86625659 C8.85045037 1.86886434 7.98730296 1.87147209 7.09799957 1.87415886 C6.34951579 1.87432121 5.601032 1.87448356 4.82986689 1.87465084 C2.90161304 1.88875957 2.90161304 1.88875957 1 3 Z " fill="#F6F6F6" transform="translate(0,0)"/>
<path d="M0 0 C0.95678715 0.00223072 1.9135743 0.00446144 2.89935499 0.00675976 C3.90743572 0.00519977 4.91551645 0.00363978 5.95414507 0.00203252 C9.35981082 -0.00198224 12.76543263 0.00121401 16.17109877 0.00434887 C18.6014681 0.00299504 21.03183722 0.0012152 23.46220595 -0.00096118 C29.39505727 -0.00506169 35.32789702 -0.0044421 41.26074802 -0.00154854 C46.08097955 0.00070547 50.90120752 0.00101802 55.72143942 -0.00007236 C56.74864136 -0.00030221 56.74864136 -0.00030221 57.79659485 -0.0005367 C59.18756085 -0.00085641 60.57852686 -0.00118063 61.96949286 -0.00150929 C75.02832173 -0.00436431 88.08714359 -0.00107683 101.14597131 0.00429107 C112.36056809 0.00875813 123.57515452 0.00798403 134.78975111 0.00337231 C147.79878146 -0.00197478 160.80780566 -0.00408857 173.81683695 -0.00101542 C175.2031286 -0.00069686 176.58942024 -0.00038249 177.97571188 -0.00007236 C178.65787071 0.00008192 179.34002953 0.00023619 180.04285983 0.00039514 C184.8589733 0.00125997 189.67508288 -0.00020186 194.49119574 -0.00255191 C200.96960441 -0.00564346 207.44799809 -0.00345386 213.92640501 0.00234234 C216.3105377 0.00366969 218.69467203 0.00327626 221.07880408 0.00107968 C224.32076817 -0.00163285 227.56266846 0.00175063 230.80462843 0.00675976 C232.23646307 0.00341368 232.23646307 0.00341368 233.69722366 0 C234.56098777 0.00260775 235.42475187 0.00521549 236.31469065 0.00790226 C237.06371651 0.00806462 237.81274237 0.00822697 238.58446598 0.00839424 C240.41548353 0.13374341 240.41548353 0.13374341 242.41548353 1.13374341 C243.04048353 3.19624341 243.04048353 3.19624341 243.41548353 5.13374341 C244.14251478 4.93909497 244.86954603 4.74444653 245.61860853 4.54389966 C251.30487991 3.71001908 256.29679499 6.67777261 260.88813978 9.83296216 C267.86611563 15.57610422 272.16076688 22.19451666 273.22798353 31.25874341 C273.28985853 32.53749341 273.35173353 33.81624341 273.41548353 35.13374341 C274.73548353 35.46374341 276.05548353 35.79374341 277.41548353 36.13374341 C277.41548353 112.36374341 277.41548353 188.59374341 277.41548353 267.13374341 C195.90548353 267.13374341 114.39548353 267.13374341 30.41548353 267.13374341 C30.41548353 266.80374341 30.41548353 266.47374341 30.41548353 266.13374341 C111.26548353 266.13374341 192.11548353 266.13374341 275.41548353 266.13374341 C275.41548353 190.56374341 275.41548353 114.99374341 275.41548353 37.13374341 C258.89163707 36.77348714 258.89163707 36.77348714 246.04048353 44.57124341 C242.40515863 50.30387114 242.02817828 55.30564641 241.79048353 61.94624341 C241.73247572 63.27172192 241.73247572 63.27172192 241.67329603 64.62397778 C241.5794757 66.79357312 241.49641028 68.96362888 241.41548353 71.13374341 C241.08548353 71.13374341 240.75548353 71.13374341 240.41548353 71.13374341 C240.41548353 64.20374341 240.41548353 57.27374341 240.41548353 50.13374341 C238.43548353 50.13374341 236.45548353 50.13374341 234.41548353 50.13374341 C230.27616276 47.34766212 227.70072551 45.01766292 226.41548353 40.13374341 C226.41548353 39.14374341 226.41548353 38.15374341 226.41548353 37.13374341 C225.42548353 36.80374341 224.43548353 36.47374341 223.41548353 36.13374341 C224.42868666 35.67934887 224.42868666 35.67934887 225.46235853 35.21577466 C232.50096024 31.96701206 232.50096024 31.96701206 237.41548353 26.13374341 C240.30715919 18.33577447 240.30715919 18.33577447 240.41548353 2.13374341 C158.90548353 2.13374341 77.39548353 2.13374341 -6.58451647 2.13374341 C-6.58451647 77.37374341 -6.58451647 152.61374341 -6.58451647 230.13374341 C-6.91451647 230.13374341 -7.24451647 230.13374341 -7.58451647 230.13374341 C-7.60730659 200.97752063 -7.62501451 171.82129873 -7.6355818 142.66506884 C-7.63683257 139.22648574 -7.63812689 135.78790265 -7.63944811 132.34931958 C-7.63971042 131.6647311 -7.63997273 130.98014263 -7.64024299 130.27480906 C-7.64459973 119.17568922 -7.65248729 108.07657454 -7.66166926 96.97745777 C-7.67100569 85.59709814 -7.67649715 74.21674234 -7.67860496 62.83637863 C-7.6799125 56.44069387 -7.68300106 50.04502082 -7.69024652 43.6493398 C-7.69700275 37.63714936 -7.69913424 31.62497552 -7.69762415 25.61278164 C-7.69790065 23.39915959 -7.69990812 21.18553701 -7.70372194 18.97191823 C-7.70865299 15.96383249 -7.70751694 12.95581053 -7.70477098 9.94772351 C-7.70768382 9.05960919 -7.71059667 8.17149487 -7.71359777 7.256468 C-7.69525935 -0.10901258 -7.32602015 0.0221846 0 0 Z " fill="#010101" transform="translate(9.58451646566391,1.866256594657898)"/>
<path d="M0 0 C20.45298513 -0.02311723 40.90596658 -0.04097832 61.35896206 -0.05181217 C70.85495383 -0.0569755 80.35093735 -0.06401889 89.84692383 -0.07543945 C98.12052845 -0.08538517 106.39412711 -0.09185316 114.66773754 -0.09408849 C119.0513359 -0.09539579 123.43491716 -0.09848285 127.81851006 -0.10573006 C131.939635 -0.11248851 136.06073573 -0.11461732 140.18186569 -0.11310768 C141.69886341 -0.11338409 143.2158619 -0.11539025 144.73285484 -0.11920547 C146.79507301 -0.12414001 148.85719826 -0.1229992 150.91941833 -0.12025452 C152.07626853 -0.12117631 153.23311872 -0.1220981 154.42502499 -0.12304783 C157 0 157 0 158 1 C158 5.95 158 10.9 158 16 C105.86 16 53.72 16 0 16 C0 10.72 0 5.44 0 0 Z " fill="#657E05" transform="translate(39,163)"/>
<path d="M0 0 C0 46.53 0 93.06 0 141 C-0.33 141 -0.66 141 -1 141 C-0.97477768 139.94780777 -0.94955536 138.89561554 -0.92356873 137.8115387 C-0.69553754 127.8246544 -0.55956467 117.84004216 -0.51034451 107.85063267 C-0.48217634 102.71604623 -0.42324504 97.58590758 -0.2902832 92.45288086 C-0.1627885 87.48483298 -0.12096999 82.52233884 -0.13490486 77.55274773 C-0.12582333 75.6712647 -0.08747987 73.78965536 -0.01739311 71.90945625 C0.36656258 61.02376757 -1.15855704 52.68167638 -8.57226562 44.32421875 C-18.22931678 34.93080935 -29.85803981 34.80792122 -42.57618713 34.92149353 C-44.85024608 34.9646615 -47.1238579 35.01810156 -49.39762807 35.07437396 C-53.33193921 35.15343115 -57.26586554 35.13449759 -61.20079041 35.12672424 C-68.62498304 35.12655716 -76.04549909 35.21230552 -83.46865219 35.33029372 C-91.93066362 35.46050936 -100.3922094 35.49287937 -108.85508358 35.51774108 C-126.23849754 35.57096452 -143.61836683 35.74822194 -161 36 C-161 29.73 -161 23.46 -161 17 C-114.14 17 -67.28 17 -19 17 C-19 17.33 -19 17.66 -19 18 C-65.2 18 -111.4 18 -159 18 C-159 23.28 -159 28.56 -159 34 C-106.86 34 -54.72 34 -1 34 C-1.33 29.05 -1.66 24.1 -2 19 C-7.28 18.67 -12.56 18.34 -18 18 C-14.2698595 13.46334263 -10.32946434 9.22058878 -6.1875 5.0625 C-5.69531982 4.56580811 -5.20313965 4.06911621 -4.69604492 3.55737305 C-1.12375366 0 -1.12375366 0 0 0 Z " fill="#050505" transform="translate(251,74)"/>
<path d="M0 0 C12.54 0 25.08 0 38 0 C38 88.44 38 176.88 38 268 C37.67 268 37.34 268 37 268 C37 192.1 37 116.2 37 38 C35.35 37.67 33.7 37.34 32 37 C31.85304688 36.23816406 31.70609375 35.47632813 31.5546875 34.69140625 C29.35922831 24.58472342 25.75714879 17.16878132 17.078125 11.22265625 C12.51871342 8.5401453 8.84324885 6.83542421 3.5 7.3125 C2.2625 7.6528125 2.2625 7.6528125 1 8 C0.67 5.36 0.34 2.72 0 0 Z " fill="#FEFEFE" transform="translate(251,0)"/>
<path d="M0 0 C82.83 0 165.66 0 251 0 C250.67 0.99 250.34 1.98 250 3 C167.83 3 85.66 3 1 3 C1 79.23 1 155.46 1 234 C0.67 234 0.34 234 0 234 C0 156.78 0 79.56 0 0 Z " fill="#EBEBEB" transform="translate(0,0)"/>
<path d="M0 0 C23.56490559 -0.06999695 47.12979566 -0.12294241 70.69478416 -0.15543652 C81.63575078 -0.17092329 92.5766529 -0.19204729 103.51757812 -0.22631836 C113.05067188 -0.25616541 122.58371895 -0.27556182 132.11685812 -0.28226548 C137.16732347 -0.28618573 142.21765521 -0.29543619 147.26807785 -0.31719017 C152.01714303 -0.33748127 156.76601896 -0.34384883 161.51512337 -0.33932304 C163.26230585 -0.34015157 165.00949436 -0.346161 166.75663948 -0.35761642 C169.13400609 -0.37244551 171.5106492 -0.36898928 173.88803101 -0.36076355 C174.93568494 -0.37387134 174.93568494 -0.37387134 176.00450361 -0.38724393 C177.92716026 -0.36914349 177.92716026 -0.36914349 181 0 C181.99 1.485 181.99 1.485 183 3 C122.61 3 62.22 3 0 3 C0 2.01 0 1.02 0 0 Z " fill="#373736" transform="translate(53,37)"/>
<path d="M0 0 C0.33 0 0.66 0 1 0 C0.50558028 6.1802465 -0.93070477 9.95535806 -5.36552429 14.35455608 C-12.43938603 19.78439737 -21.25024808 18.66022725 -29.70703125 18.56762695 C-31.5111436 18.56621535 -33.31525882 18.56701065 -35.11936951 18.56983948 C-40.00122507 18.57127067 -44.88246304 18.54192893 -49.76417542 18.50696969 C-54.87172289 18.47565672 -59.97928541 18.47277155 -65.08691406 18.46684265 C-74.75180127 18.45131874 -84.41640478 18.41030985 -94.08116722 18.3600952 C-105.08714917 18.30415659 -116.09314485 18.27670386 -127.09923363 18.25161803 C-149.73297953 18.19939279 -172.36647385 18.11147867 -195 18 C-195 17.34 -195 16.68 -195 16 C-194.0745488 15.99853344 -193.1490976 15.99706688 -192.19560242 15.99555588 C-169.6690073 15.95894787 -147.14256072 15.89948116 -124.61608887 15.81609726 C-113.72240962 15.77630151 -102.82880267 15.74391171 -91.93505859 15.72900391 C-82.43918048 15.71599021 -72.9434614 15.68903263 -63.44767284 15.64538693 C-58.42050246 15.6227659 -53.39352828 15.60708971 -48.36630249 15.60811615 C-43.63186054 15.60886237 -38.89785242 15.59092651 -34.16352272 15.55883217 C-32.4285664 15.55033265 -30.69356143 15.54858361 -28.95859337 15.55419731 C-16.85415063 15.79159563 -16.85415063 15.79159563 -6 11 C-3.82990165 8.2924471 -3.82990165 8.2924471 -2.5 5.25 C-2.0153125 4.26515625 -1.530625 3.2803125 -1.03125 2.265625 C-0.6909375 1.51796875 -0.350625 0.7703125 0 0 Z " fill="#0A0A0A" transform="translate(250,216)"/>
<path d="M0 0 C0 10.89 0 21.78 0 33 C-0.33 33 -0.66 33 -1 33 C-1.33 28.38 -1.66 23.76 -2 19 C-7.28 18.67 -12.56 18.34 -18 18 C-14.2698595 13.46334263 -10.32946434 9.22058878 -6.1875 5.0625 C-5.69531982 4.56580811 -5.20313965 4.06911621 -4.69604492 3.55737305 C-1.12375366 0 -1.12375366 0 0 0 Z " fill="#000000" transform="translate(251,74)"/>
<path d="M0 0 C-2.43522807 1.94818245 -4.68758043 3.34379022 -7.5 4.75 C-11.64892993 7.07375689 -13.04004558 9.70317686 -15 14 C-15.77485832 16.77138597 -15.77485832 16.77138597 -16 19 C-16.66 19 -17.32 19 -18 19 C-17.66723352 12.67743695 -16.51368115 8.57154885 -12 4 C-8.26879556 1.11214999 -4.8137082 -0.58347978 0 0 Z " fill="#151513" transform="translate(55,38)"/>
<path d="M0 0 C1 2 1 2 0.44140625 4.1640625 C0.15136719 4.97617187 -0.13867188 5.78828125 -0.4375 6.625 C-0.72496094 7.44226562 -1.01242188 8.25953125 -1.30859375 9.1015625 C-1.53675781 9.72804688 -1.76492187 10.35453125 -2 11 C-2.66 11 -3.32 11 -4 11 C-3.38461538 3.49230769 -3.38461538 3.49230769 -1.4375 1 C-0.963125 0.67 -0.48875 0.34 0 0 Z " fill="#0E0F09" transform="translate(41,46)"/>
<path d="M0 0 C-1.5830577 4.2742558 -4.50568404 6.26531794 -8 9 C-6.68994234 5.06982701 -4.75047804 0 0 0 Z " fill="#9EB24C" transform="translate(261,42)"/>
<path d="M0 0 C-0.33 0.99 -0.66 1.98 -1 3 C-4.5625 4.6875 -4.5625 4.6875 -8 6 C-8.33 5.01 -8.66 4.02 -9 3 C-2.25 0 -2.25 0 0 0 Z " fill="#1A1A18" transform="translate(245,228)"/>
<path d="M0 0 C0.66 0.33 1.32 0.66 2 1 C1.0479279 2.00596297 0.08812654 3.00461563 -0.875 4 C-1.40867187 4.556875 -1.94234375 5.11375 -2.4921875 5.6875 C-4 7 -4 7 -6 7 C-4.60667426 3.63279613 -3.0210714 2.0140476 0 0 Z " fill="#97AA49" transform="translate(48,236)"/>
</svg>
