<svg width="217" height="96" viewBox="0 0 217 96" fill="none" xmlns="http://www.w3.org/2000/svg">
<path d="M25.216 16.288C31.744 16.288 37.2053 18.848 41.6 23.968C45.8667 29.0027 48 35.1893 48 42.528C48 49.824 45.8667 55.9893 41.6 61.024C37.2053 66.144 31.744 68.704 25.216 68.704C18.7733 68.704 13.5253 66.144 9.472 61.024C5.504 56.0747 3.52 49.9093 3.52 42.528C3.52 35.104 5.504 28.9173 9.472 23.968C13.5253 18.848 18.7733 16.288 25.216 16.288ZM25.216 65.696C30.848 65.696 35.52 63.456 39.232 58.976C42.944 54.4533 44.8 48.9707 44.8 42.528C44.8 36.0427 42.944 30.56 39.232 26.08C35.52 21.6 30.848 19.36 25.216 19.36C19.6267 19.36 15.104 21.6213 11.648 26.144C8.36267 30.4533 6.72 35.9147 6.72 42.528C6.72 49.0987 8.36267 54.56 11.648 58.912C15.104 63.4347 19.6267 65.696 25.216 65.696ZM63.4695 47.008C67.3948 49.44 70.1042 51.5307 71.5975 53.28C73.0908 55.0293 73.8375 56.9067 73.8375 58.912C73.8375 59.68 73.7522 60.5333 73.5815 61.472C73.0695 64.032 71.8322 65.9947 69.8695 67.36C68.0775 68.6827 65.8802 69.344 63.2775 69.344C62.3388 69.344 61.4002 69.2373 60.4615 69.024C57.7735 68.512 55.5975 67.616 53.9335 66.336L54.0615 62.816C56.8775 65.3333 59.9708 66.592 63.3415 66.592C67.1815 66.592 69.4855 64.544 70.2535 60.448C70.3388 60.0213 70.3815 59.5947 70.3815 59.168C70.3815 56.9493 68.9522 54.7733 66.0935 52.64C63.4482 50.848 60.7815 49.056 58.0935 47.264C55.2348 44.9173 53.8055 42.3573 53.8055 39.584C53.8055 38.9867 53.8695 38.3467 53.9975 37.664C54.9362 32.8853 57.9655 30.496 63.0855 30.496C67.3948 30.496 70.7868 31.776 73.2615 34.336L72.9415 37.344C71.6188 36.0213 70.4455 35.1253 69.4215 34.656C68.6108 34.2293 67.4162 33.888 65.8375 33.632C65.0695 33.504 64.3655 33.44 63.7255 33.44C60.1415 33.44 58.0082 35.1467 57.3255 38.56C57.1975 39.1147 57.1335 39.584 57.1335 39.968C57.1335 42.1013 59.2455 44.448 63.4695 47.008ZM107.926 9.44H111.062V68H107.926V63.84V61.6C107.03 62.88 105.856 64.16 104.406 65.44C101.419 68.0427 98.0268 69.344 94.2295 69.344C89.6215 69.344 85.8455 67.424 82.9015 63.584C80.2135 60.0427 78.8695 55.8827 78.8695 51.104C78.8695 49.8667 78.9762 48.608 79.1895 47.328C80.0428 42.0373 82.3255 37.7707 86.0375 34.528C89.1522 31.7973 93.3122 30.432 98.5175 30.432C100.694 30.432 103.83 30.624 107.926 31.008V9.44ZM107.926 50.592C108.011 40.7787 108.011 35.296 107.926 34.144C102.379 33.7173 99.0082 33.504 97.8135 33.504C94.1442 33.248 90.8162 34.4427 87.8295 37.088C86.0375 38.624 84.6295 40.7787 83.6055 43.552C82.6668 46.0693 82.1975 48.6293 82.1975 51.232C82.1975 54.4747 82.9015 57.2693 84.3095 59.616C86.8268 63.9253 90.0695 66.08 94.0375 66.08C97.1095 66.08 100.032 64.8853 102.806 62.496C106.176 59.552 107.883 55.584 107.926 50.592ZM138.659 30.432C142.03 30.4747 146.211 30.7733 151.203 31.328V68H148.003V63.84V61.6C147.15 62.88 145.998 64.16 144.547 65.44C141.56 68.0427 138.168 69.344 134.371 69.344C129.763 69.344 125.987 67.424 123.043 63.584C120.355 60.0427 119.011 55.8827 119.011 51.104C119.011 49.8667 119.118 48.608 119.331 47.328C120.184 42.0373 122.467 37.7707 126.179 34.528C129.635 31.456 133.795 30.0907 138.659 30.432ZM148.003 50.592C148.003 50.592 148.003 45.1093 148.003 34.144C142.499 33.7173 139.15 33.504 137.955 33.504C134.243 33.248 130.894 34.4427 127.907 37.088C126.158 38.624 124.771 40.7787 123.747 43.552C122.808 46.0693 122.339 48.6293 122.339 51.232C122.339 54.4747 123.022 57.2693 124.387 59.616C126.947 63.9253 130.19 66.08 134.115 66.08C137.23 66.08 140.174 64.8853 142.947 62.496C146.275 59.552 147.96 55.584 148.003 50.592ZM178.664 30.24C182.077 30.2827 186.28 30.56 191.272 31.072V60.704C191.314 64.288 191.314 67.5947 191.272 70.624C191.186 77.4507 189.096 82.656 185 86.24C182.994 88.032 180.242 89.184 176.744 89.696C175.634 89.824 174.418 89.888 173.096 89.888C171.005 89.888 168.36 89.632 165.16 89.12L165.736 85.984C168.936 86.496 171.581 86.752 173.672 86.752C177.512 86.752 180.754 85.6 183.4 83.296C186.386 80.6933 187.944 76.4267 188.072 70.496C188.072 69.984 188.072 69.3013 188.072 68.448V63.776V61.536C187.176 62.816 186.002 64.096 184.552 65.376C181.565 67.9787 178.173 69.28 174.376 69.28C169.725 69.28 165.928 67.36 162.984 63.52C160.296 59.9787 158.952 55.7973 158.952 50.976C158.952 49.7387 159.037 48.48 159.208 47.2C160.061 41.8667 162.365 37.5787 166.12 34.336C169.618 31.264 173.8 29.8987 178.664 30.24ZM188.072 50.464C188.157 40.608 188.157 35.0827 188.072 33.888C182.525 33.504 179.154 33.312 177.96 33.312C174.248 33.0987 170.898 34.2933 167.912 36.896C166.12 38.4747 164.712 40.6293 163.688 43.36C162.749 45.92 162.28 48.5013 162.28 51.104C162.28 54.3467 162.962 57.1413 164.328 59.488C166.888 63.8827 170.152 66.08 174.12 66.08C177.234 66.08 180.178 64.864 182.952 62.432C186.322 59.4453 188.029 55.456 188.072 50.464Z" fill="black"/>
<path d="M202.904 34.784C201.768 34.784 200.704 34.576 199.712 34.16C198.736 33.728 197.88 33.136 197.144 32.384C196.408 31.632 195.832 30.768 195.416 29.792C195.016 28.8 194.816 27.752 194.816 26.648C194.816 25.544 195.024 24.496 195.44 23.504C195.856 22.512 196.432 21.64 197.168 20.888C197.904 20.136 198.76 19.544 199.736 19.112C200.728 18.68 201.8 18.464 202.952 18.464C204.088 18.464 205.144 18.68 206.12 19.112C207.112 19.528 207.976 20.112 208.712 20.864C209.448 21.6 210.024 22.464 210.44 23.456C210.856 24.432 211.064 25.48 211.064 26.6C211.064 27.704 210.856 28.752 210.44 29.744C210.024 30.736 209.44 31.608 208.688 32.36C207.952 33.112 207.088 33.704 206.096 34.136C205.12 34.568 204.056 34.784 202.904 34.784ZM204.992 30.488L203.144 27.464H204.512L206.576 30.488H204.992ZM202.904 33.416C203.864 33.416 204.752 33.24 205.568 32.888C206.4 32.52 207.12 32.024 207.728 31.4C208.352 30.776 208.832 30.056 209.168 29.24C209.52 28.408 209.696 27.528 209.696 26.6C209.696 25.672 209.52 24.8 209.168 23.984C208.832 23.168 208.36 22.448 207.752 21.824C207.144 21.2 206.432 20.712 205.616 20.36C204.8 20.008 203.912 19.832 202.952 19.832C201.992 19.832 201.096 20.016 200.264 20.384C199.448 20.736 198.736 21.224 198.128 21.848C197.52 22.472 197.04 23.2 196.688 24.032C196.352 24.848 196.184 25.72 196.184 26.648C196.184 27.576 196.352 28.448 196.688 29.264C197.024 30.08 197.496 30.8 198.104 31.424C198.712 32.048 199.424 32.536 200.24 32.888C201.056 33.24 201.944 33.416 202.904 33.416ZM199.856 30.488V22.304H203.12C204.176 22.304 204.984 22.544 205.544 23.024C206.12 23.504 206.408 24.192 206.408 25.088C206.408 26 206.12 26.712 205.544 27.224C204.984 27.736 204.176 27.992 203.12 27.992H201.224V30.488H199.856ZM201.224 26.888H203.12C203.744 26.888 204.232 26.736 204.584 26.432C204.936 26.112 205.112 25.672 205.112 25.112C205.112 24.552 204.936 24.128 204.584 23.84C204.232 23.552 203.744 23.408 203.12 23.408H201.224V26.888Z" fill="black"/>
</svg>
