<svg width="289" height="272" viewBox="0 0 289 272" fill="none" xmlns="http://www.w3.org/2000/svg">
<g clip-path="url(#clip0_881_25)">
<path d="M0 0C95.37 0 190.74 0 289 0C289 89.76 289 179.52 289 272C193.63 272 98.26 272 0 272C0 182.24 0 92.48 0 0Z" fill="#0E0E0E"/>
<path d="M58.8653 39.5189C60.0075 39.5137 60.0075 39.5137 61.1727 39.5085C63.708 39.5019 66.2422 39.5239 68.7773 39.5458C70.601 39.5469 72.4247 39.5463 74.2484 39.544C79.188 39.5429 84.1273 39.5664 89.0669 39.5943C94.2332 39.6193 99.3995 39.6217 104.566 39.6264C114.344 39.6388 124.122 39.6716 133.9 39.7118C145.034 39.7565 156.168 39.7785 167.303 39.7986C190.202 39.8404 213.101 39.9107 236 39.9999C236.253 40.5491 236.507 41.0983 236.768 41.6642C237.111 42.3847 237.455 43.1052 237.809 43.8475C238.312 44.9189 238.312 44.9189 238.826 46.0118C241.154 49.9539 244.8 51.5999 249 52.9999C249.48 56.161 249.753 59.3129 250 62.4999C250.201 63.8012 250.201 63.8012 250.406 65.1288C250.818 72.2734 247.517 77.1473 242.955 82.287C236.177 89.368 229.845 91.416 220.126 91.7736C214.245 91.8949 208.381 91.7977 202.502 91.6222C198.537 91.5211 194.573 91.5127 190.607 91.4938C183.122 91.4443 175.641 91.3135 168.158 91.1522C159.629 90.9724 151.099 90.8851 142.569 90.8051C125.044 90.6385 107.522 90.3544 90.0002 89.9999C90.0002 96.5999 90.0002 103.2 90.0002 110C92.6121 109.943 92.6121 109.943 95.2767 109.885C111.738 109.54 128.199 109.285 144.663 109.119C153.126 109.032 161.587 108.913 170.049 108.717C177.432 108.547 184.813 108.438 192.198 108.4C196.103 108.378 200.002 108.327 203.905 108.202C230.506 107.386 230.506 107.386 240.206 115.093C247.681 122.327 250.809 129.756 251.082 140.086C251.054 142.968 250.948 145.842 250.836 148.723C250.817 150.764 250.805 152.806 250.799 154.847C250.77 159.093 250.687 163.333 250.557 167.577C250.392 173.001 250.324 178.42 250.292 183.847C250.256 189.056 250.173 194.264 250.086 199.473C250.074 200.455 250.061 201.438 250.049 202.45C250.004 205.243 249.926 208.033 249.838 210.824C249.829 211.638 249.82 212.453 249.811 213.291C249.568 219.235 248.008 223.534 244 228C237.333 234.141 226.72 232.528 218.293 232.454C216.489 232.453 214.685 232.453 212.881 232.456C207.999 232.457 203.118 232.433 198.236 232.405C193.129 232.38 188.021 232.378 182.913 232.373C173.248 232.361 163.584 232.328 153.919 232.288C142.913 232.243 131.907 232.221 120.901 232.201C98.2673 232.159 75.6338 232.089 53.0002 232C52.669 231.373 52.3378 230.747 51.9966 230.101C51.5556 229.284 51.1147 228.467 50.6604 227.625C50.0089 226.407 50.0089 226.407 49.3442 225.164C46.7971 221.063 43.4664 220.057 39.0002 219C37.583 210.29 36.5954 200.887 41.6647 193.21C47.6079 185.955 53.6011 180.937 63.0667 179.525C70.9161 178.88 78.735 179.026 86.5998 179.276C90.5617 179.384 94.5239 179.393 98.487 179.413C105.965 179.465 113.438 179.604 120.914 179.776C129.436 179.967 137.958 180.059 146.482 180.144C163.991 180.321 181.495 180.623 199 181C199 174.4 199 167.8 199 161C197.232 161.035 195.463 161.071 193.641 161.108C176.929 161.433 160.218 161.673 143.503 161.829C134.911 161.911 126.321 162.023 117.731 162.207C110.236 162.367 102.743 162.47 95.2464 162.505C91.2821 162.526 87.3228 162.574 83.3601 162.692C56.325 163.459 56.325 163.459 47.1249 156.267C39.9219 149.304 37.2877 141.921 37.0342 132.03C37.0599 129.142 37.1582 126.261 37.262 123.375C37.2792 121.332 37.2899 119.289 37.2946 117.246C37.3205 112.994 37.398 108.748 37.5186 104.498C37.672 99.0666 37.7331 93.6388 37.7606 88.205C37.7912 82.9903 37.8691 77.7765 37.9495 72.5624C37.9604 71.5782 37.9713 70.5939 37.9826 69.5799C38.0219 66.7824 38.095 63.9878 38.1787 61.1913C38.1859 60.3756 38.193 59.5598 38.2004 58.7194C38.4261 52.9217 39.9106 48.251 44.0002 43.9999C49.0152 40.5406 52.7422 39.4169 58.8653 39.5189Z" fill="#FDFDFD"/>
<path d="M285 39.0001C285 114.57 285 190.14 285 268C203.82 268 122.64 268 39 268C39 247 39 247 44 239C49.4622 234.74 53.5805 233.852 60.3302 233.876C61.0826 233.874 61.835 233.873 62.6102 233.871C65.1388 233.868 67.6674 233.871 70.196 233.874C72.0061 233.873 73.8162 233.871 75.6263 233.868C79.5289 233.864 83.4314 233.862 87.3339 233.862C93.5071 233.861 99.6802 233.848 105.853 233.832C106.895 233.83 107.936 233.827 109.01 233.825C111.14 233.819 113.27 233.814 115.4 233.809C129.774 233.774 144.147 233.747 158.521 233.75C168.213 233.751 177.906 233.735 187.598 233.699C192.727 233.68 197.856 233.671 202.985 233.683C207.812 233.695 212.639 233.683 217.466 233.654C219.235 233.647 221.003 233.649 222.772 233.66C234.308 234.148 234.308 234.148 244.516 229.691C251.841 221.344 251.703 212.199 251.596 201.63C251.598 199.993 251.602 198.356 251.608 196.719C251.617 193.212 251.61 189.705 251.592 186.198C251.562 180.651 251.57 175.104 251.583 169.557C251.604 158.788 251.589 148.02 251.568 137.251C251.543 123.529 251.53 109.808 251.558 96.0864C251.568 90.5734 251.558 85.0609 251.532 79.5479C251.52 76.1202 251.524 72.6926 251.533 69.2648C251.533 67.6774 251.527 66.0898 251.513 64.5024C251.495 62.3326 251.502 60.1641 251.515 57.9943C251.512 56.7813 251.509 55.5683 251.506 54.3185C252.261 49.2433 254.731 46.1718 258.438 42.7501C267.34 36.6704 272.519 39.0001 285 39.0001Z" fill="#91AF17"/>
<path d="M3 4C84.51 4 166.02 4 250 4C250 26.4788 250 26.4788 245.246 32.0586C244.351 32.7412 244.351 32.7412 243.438 33.4375C242.838 33.9106 242.239 34.3837 241.621 34.8711C238.075 37.3408 234.985 37.139 230.803 37.1246C230.053 37.126 229.303 37.1274 228.53 37.1288C226.003 37.1325 223.476 37.1292 220.949 37.126C219.143 37.1274 217.336 37.1293 215.529 37.1316C211.63 37.1361 207.732 37.138 203.833 37.1381C197.664 37.1392 191.494 37.1521 185.325 37.1677C184.284 37.1702 183.243 37.1728 182.171 37.1755C180.042 37.1807 177.913 37.186 175.784 37.1913C161.418 37.2264 147.052 37.253 132.685 37.2505C123 37.2489 113.315 37.265 103.631 37.3012C98.5061 37.3196 93.382 37.329 88.2574 37.3167C83.431 37.3052 78.6051 37.3171 73.7788 37.3464C72.0124 37.353 70.2459 37.3512 68.4796 37.3401C54.8671 37.0539 54.8671 37.0539 43 43C36.3689 49.933 37.3071 59.3039 37.3882 68.2566C37.3846 69.8935 37.3789 71.5304 37.371 73.1673C37.3589 76.677 37.3623 80.1862 37.3778 83.6959C37.4022 89.2474 37.3906 94.7985 37.3742 100.35C37.3497 110.128 37.3555 119.905 37.368 129.683C37.3866 144.413 37.3817 159.143 37.3479 173.873C37.3364 179.39 37.3409 184.907 37.358 190.424C37.3659 193.855 37.3616 197.286 37.3543 200.717C37.3534 202.306 37.3578 203.895 37.3677 205.484C37.3806 207.656 37.375 209.827 37.3651 211.999C37.367 213.213 37.3689 214.428 37.3708 215.679C36.7685 221.073 34.6524 224.935 30.4375 228.312C29.8381 228.804 29.2387 229.295 28.6211 229.801C20.7248 235.642 16.7381 232 3 232C3 156.76 3 81.52 3 4Z" fill="#90AE16"/>
<path d="M246 52C247.32 52 248.64 52 250 52C252 54 252 54 252.246 56.8073C252.244 58.0149 252.242 59.2224 252.241 60.4666C252.242 61.138 252.244 61.8094 252.246 62.5012C252.249 64.7615 252.238 67.0215 252.227 69.2817C252.226 70.8978 252.227 72.5138 252.228 74.1299C252.229 78.5263 252.217 82.9227 252.203 87.3192C252.19 91.9103 252.189 96.5014 252.187 101.092C252.181 109.791 252.164 118.489 252.144 127.187C252.122 137.087 252.111 146.988 252.101 156.889C252.08 177.259 252.045 197.63 252 218C251.01 218 250.02 218 249 218C249.023 216.895 249.046 215.791 249.07 214.653C249.277 204.18 249.398 193.709 249.438 183.234C249.461 177.85 249.513 172.469 249.634 167.086C249.751 161.879 249.787 156.676 249.77 151.467C249.777 149.492 249.812 147.518 249.877 145.545C250.207 134.852 249.235 126.059 241.928 117.77C232.587 108.746 220.769 108.936 208.537 109.035C206.259 109.074 203.982 109.124 201.704 109.176C197.767 109.248 193.83 109.229 189.893 109.22C182.461 109.217 175.034 109.294 167.603 109.402C159.134 109.521 150.665 109.548 142.195 109.568C124.795 109.611 107.398 109.77 90 110C90 103.4 90 96.8 90 90C91.7582 90.0208 93.5164 90.0416 95.3279 90.063C111.938 90.2494 128.547 90.3571 145.157 90.386C153.697 90.4029 162.234 90.4474 170.772 90.5588C178.221 90.656 185.668 90.6994 193.117 90.6804C197.057 90.6721 200.992 90.6894 204.931 90.7711C223.977 91.7447 223.977 91.7447 240.498 83.8119C245.7 78.3552 249.702 73.0799 249.674 65.2168C249.596 64.3409 249.518 63.465 249.438 62.5625C249.418 61.6286 249.398 60.6946 249.377 59.7324C249.319 57.4761 249.195 55.2479 249 53C248.01 52.67 247.02 52.34 246 52Z" fill="#61770E"/>
<path d="M0 0C95.37 0 190.74 0 289 0C289 89.76 289 179.52 289 272C193.63 272 98.26 272 0 272C0 182.24 0 92.48 0 0ZM1 3C1 78.9 1 154.8 1 233C2.65 233.33 4.3 233.66 6 234C5.9175 235.134 5.835 236.269 5.75 237.438C5.79198 245.373 9.80416 251.529 15.0625 257.207C21.1152 262.808 26.7069 265.307 35 265C35.33 264.67 35.66 264.34 36 264C36.66 265.98 37.32 267.96 38 270C69.5767 270.023 101.153 270.04 132.73 270.051C136.454 270.052 140.178 270.054 143.902 270.055C144.644 270.055 145.385 270.055 146.149 270.056C158.169 270.06 170.19 270.068 182.211 270.077C194.536 270.086 206.861 270.092 219.186 270.094C226.797 270.095 234.408 270.1 242.02 270.108C247.846 270.114 253.673 270.114 259.499 270.113C261.897 270.113 264.294 270.115 266.692 270.119C269.949 270.124 273.207 270.123 276.465 270.12C277.427 270.123 278.389 270.126 279.38 270.129C283.516 270.545 283.516 270.545 287 269C287.098 266.029 287.13 263.081 287.12 260.11C287.121 259.166 287.122 258.222 287.123 257.249C287.124 254.06 287.119 250.871 287.114 247.681C287.113 245.405 287.113 243.129 287.114 240.853C287.114 234.653 287.108 228.453 287.101 222.253C287.095 215.781 287.095 209.31 287.093 202.838C287.091 191.969 287.084 181.1 287.075 170.231C287.066 159.033 287.059 147.836 287.055 136.639C287.055 135.949 287.054 135.259 287.054 134.549C287.053 131.089 287.052 127.629 287.05 124.169C287.04 95.4458 287.022 66.7229 287 38C285.68 37.67 284.36 37.34 283 37C282.907 35.0819 282.907 35.0819 282.812 33.125C281.745 24.0608 277.451 17.4424 270.473 11.6992C265.881 8.54403 260.889 5.57628 255.203 6.41016C254.476 6.6048 253.749 6.79945 253 7C252.876 6.36063 252.752 5.72125 252.625 5.0625C252.419 4.38187 252.213 3.70125 252 3C249.71 1.85518 248.447 1.87471 245.902 1.87416C244.607 1.87025 244.607 1.87025 243.286 1.86626C241.856 1.8696 241.856 1.8696 240.396 1.87302C239.387 1.87146 238.378 1.8699 237.339 1.86829C233.936 1.86428 230.533 1.86747 227.131 1.87061C224.7 1.86925 222.27 1.86747 219.839 1.8653C213.91 1.8612 207.981 1.86181 202.051 1.86471C197.234 1.86696 192.417 1.86727 187.599 1.86618C186.915 1.86603 186.23 1.86588 185.524 1.86572C184.134 1.8654 182.743 1.86508 181.352 1.86475C168.3 1.86189 155.248 1.86518 142.196 1.87055C130.987 1.87502 119.779 1.87424 108.571 1.86963C95.5665 1.86428 82.5623 1.86217 69.558 1.86524C68.1723 1.86556 66.7865 1.86587 65.4008 1.86618C64.719 1.86634 64.0371 1.86649 63.3346 1.86665C58.521 1.86752 53.7073 1.86605 48.8937 1.8637C42.4194 1.86061 35.9451 1.8628 29.4708 1.8686C27.0883 1.86993 24.7057 1.86953 22.3232 1.86734C19.0835 1.86462 15.8438 1.86801 12.6041 1.87302C11.6503 1.87079 10.6964 1.86855 9.7136 1.86626C8.85045 1.86886 7.9873 1.87147 7.098 1.87416C6.34952 1.87432 5.60103 1.87448 4.82987 1.87465C2.90161 1.88876 2.90161 1.88876 1 3Z" fill="#F6F6F6"/>
<path d="M9.58469 1.86626C10.5415 1.86849 11.4983 1.87072 12.484 1.87302C13.4921 1.87146 14.5002 1.8699 15.5388 1.86829C18.9445 1.86428 22.3501 1.86747 25.7558 1.87061C28.1862 1.86925 30.6165 1.86747 33.0469 1.8653C38.9797 1.8612 44.9126 1.86182 50.8454 1.86471C55.6657 1.86696 60.4859 1.86728 65.3061 1.86619C66.3333 1.86596 66.3333 1.86596 67.3813 1.86572C68.7723 1.8654 70.1632 1.86508 71.5542 1.86475C84.613 1.86189 97.6718 1.86518 110.731 1.87055C121.945 1.87502 133.16 1.87424 144.374 1.86963C157.383 1.86428 170.392 1.86217 183.402 1.86524C184.788 1.86556 186.174 1.86588 187.56 1.86619C188.243 1.86634 188.925 1.8665 189.628 1.86665C194.444 1.86752 199.26 1.86606 204.076 1.86371C210.554 1.86062 217.033 1.86281 223.511 1.8686C225.895 1.86993 228.279 1.86954 230.663 1.86734C233.905 1.86463 237.147 1.86801 240.389 1.87302C241.821 1.86967 241.821 1.86967 243.282 1.86626C244.146 1.86887 245.009 1.87147 245.899 1.87416C246.648 1.87432 247.397 1.87449 248.169 1.87465C250 2 250 2 252 3C252.625 5.0625 252.625 5.0625 253 7C253.727 6.80535 254.454 6.61071 255.203 6.41016C260.89 5.57628 265.881 8.54403 270.473 11.6992C277.451 17.4424 281.745 24.0608 282.813 33.125C282.875 34.4038 282.936 35.6825 283 37C284.32 37.33 285.64 37.66 287 38C287 114.23 287 190.46 287 269C205.49 269 123.98 269 40.0002 269C40.0002 268.67 40.0002 268.34 40.0002 268C120.85 268 201.7 268 285 268C285 192.43 285 116.86 285 39C268.476 38.6397 268.476 38.6397 255.625 46.4375C251.99 52.1701 251.613 57.1719 251.375 63.8125C251.317 65.138 251.317 65.138 251.258 66.4902C251.164 68.6598 251.081 70.8299 251 73C250.67 73 250.34 73 250 73C250 66.07 250 59.14 250 52C248.02 52 246.04 52 244 52C239.861 49.2139 237.285 46.8839 236 42C236 41.01 236 40.02 236 39C235.01 38.67 234.02 38.34 233 38C234.013 37.5456 234.013 37.5456 235.047 37.082C242.086 33.8333 242.086 33.8333 247 28C249.892 20.202 249.892 20.202 250 4C168.49 4 86.9802 4 3.00017 4C3.00017 79.24 3.00017 154.48 3.00017 232C2.67017 232 2.34018 232 2.00017 232C1.97738 202.844 1.95968 173.688 1.94911 144.531C1.94786 141.093 1.94656 137.654 1.94524 134.216C1.94498 133.531 1.94472 132.846 1.94445 132.141C1.94009 121.042 1.9322 109.943 1.92302 98.8437C1.91369 87.4634 1.90819 76.083 1.90609 64.7026C1.90478 58.307 1.90169 51.9113 1.89444 45.5156C1.88769 39.5034 1.88556 33.4912 1.88707 27.479C1.88679 25.2654 1.88478 23.0518 1.88097 20.8382C1.87604 17.8301 1.87717 14.8221 1.87992 11.814C1.87701 10.9259 1.87409 10.0378 1.87109 9.12273C1.88943 1.75725 2.25867 1.88844 9.58469 1.86626Z" fill="#010101"/>
<path d="M39 163C59.453 162.977 79.906 162.959 100.359 162.948C109.855 162.943 119.351 162.936 128.847 162.925C137.121 162.915 145.394 162.908 153.668 162.906C158.051 162.905 162.435 162.902 166.819 162.894C170.94 162.888 175.061 162.885 179.182 162.887C180.699 162.887 182.216 162.885 183.733 162.881C185.795 162.876 187.857 162.877 189.919 162.88C191.076 162.879 192.233 162.878 193.425 162.877C196 163 196 163 197 164C197 168.95 197 173.9 197 179C144.86 179 92.72 179 39 179C39 173.72 39 168.44 39 163Z" fill="#657E05"/>
<path d="M251 74C251 120.53 251 167.06 251 215C250.67 215 250.34 215 250 215C250.025 213.948 250.05 212.896 250.076 211.812C250.304 201.825 250.44 191.84 250.49 181.851C250.518 176.716 250.577 171.586 250.71 166.453C250.837 161.485 250.879 156.522 250.865 151.553C250.874 149.671 250.913 147.79 250.983 145.909C251.367 135.024 249.841 126.682 242.428 118.324C232.771 108.931 221.142 108.808 208.424 108.921C206.15 108.965 203.876 109.018 201.602 109.074C197.668 109.153 193.734 109.134 189.799 109.127C182.375 109.127 174.955 109.212 167.531 109.33C159.069 109.461 150.608 109.493 142.145 109.518C124.761 109.571 107.382 109.748 90 110C90 103.73 90 97.46 90 91C136.86 91 183.72 91 232 91C232 91.33 232 91.66 232 92C185.8 92 139.6 92 92 92C92 97.28 92 102.56 92 108C144.14 108 196.28 108 250 108C249.67 103.05 249.34 98.1 249 93C243.72 92.67 238.44 92.34 233 92C236.73 87.4633 240.671 83.2206 244.812 79.0625C245.305 78.5658 245.797 78.0691 246.304 77.5574C249.876 74 249.876 74 251 74Z" fill="#050505"/>
<path d="M251 0C263.54 0 276.08 0 289 0C289 88.44 289 176.88 289 268C288.67 268 288.34 268 288 268C288 192.1 288 116.2 288 38C286.35 37.67 284.7 37.34 283 37C282.853 36.2382 282.706 35.4763 282.555 34.6914C280.359 24.5847 276.757 17.1688 268.078 11.2227C263.519 8.54015 259.843 6.83542 254.5 7.3125C253.263 7.65281 253.263 7.65281 252 8C251.67 5.36 251.34 2.72 251 0Z" fill="#FEFEFE"/>
<path d="M0 0C82.83 0 165.66 0 251 0C250.67 0.99 250.34 1.98 250 3C167.83 3 85.66 3 1 3C1 79.23 1 155.46 1 234C0.67 234 0.34 234 0 234C0 156.78 0 79.56 0 0Z" fill="#EBEBEB"/>
<path d="M53 37C76.5649 36.93 100.13 36.8771 123.695 36.8446C134.636 36.8291 145.577 36.808 156.518 36.7737C166.051 36.7439 175.584 36.7245 185.117 36.7178C190.167 36.7139 195.218 36.7046 200.268 36.6828C205.017 36.6626 209.766 36.6562 214.515 36.6607C216.262 36.6599 218.009 36.6539 219.757 36.6424C222.134 36.6276 224.511 36.631 226.888 36.6393C227.936 36.6262 227.936 36.6262 229.005 36.6128C230.927 36.6309 230.927 36.6309 234 37C234.99 38.485 234.99 38.485 236 40C175.61 40 115.22 40 53 40C53 39.01 53 38.02 53 37Z" fill="#373736"/>
<path d="M250 216C250.33 216 250.66 216 251 216C250.506 222.18 249.069 225.955 244.634 230.355C237.561 235.784 228.75 234.66 220.293 234.568C218.489 234.566 216.685 234.567 214.881 234.57C209.999 234.571 205.118 234.542 200.236 234.507C195.128 234.476 190.021 234.473 184.913 234.467C175.248 234.451 165.584 234.41 155.919 234.36C144.913 234.304 133.907 234.277 122.901 234.252C100.267 234.199 77.6335 234.111 55 234C55 233.34 55 232.68 55 232C55.9255 231.999 56.8509 231.997 57.8044 231.996C80.331 231.959 102.857 231.899 125.384 231.816C136.278 231.776 147.171 231.744 158.065 231.729C167.561 231.716 177.057 231.689 186.552 231.645C191.579 231.623 196.606 231.607 201.634 231.608C206.368 231.609 211.102 231.591 215.836 231.559C217.571 231.55 219.306 231.549 221.041 231.554C233.146 231.792 233.146 231.792 244 227C246.17 224.292 246.17 224.292 247.5 221.25C247.985 220.265 248.469 219.28 248.969 218.266C249.309 217.518 249.649 216.77 250 216Z" fill="#0A0A0A"/>
<path d="M251 74C251 84.89 251 95.78 251 107C250.67 107 250.34 107 250 107C249.67 102.38 249.34 97.76 249 93C243.72 92.67 238.44 92.34 233 92C236.73 87.4633 240.671 83.2206 244.812 79.0625C245.305 78.5658 245.797 78.0691 246.304 77.5574C249.876 74 249.876 74 251 74Z" fill="black"/>
<path d="M55 37.9999C52.5648 39.9481 50.3124 41.3437 47.5 42.7499C43.3511 45.0737 41.96 47.7031 40 51.9999C39.2251 54.7713 39.2251 54.7713 39 56.9999C38.34 56.9999 37.68 56.9999 37 56.9999C37.3328 50.6774 38.4863 46.5715 43 41.9999C46.7312 39.1121 50.1863 37.4164 55 37.9999Z" fill="#151513"/>
<path d="M41 46C42 48 42 48 41.4414 50.1641C41.1514 50.9762 40.8613 51.7883 40.5625 52.625C40.275 53.4423 39.9876 54.2595 39.6914 55.1016C39.4632 55.728 39.2351 56.3545 39 57C38.34 57 37.68 57 37 57C37.6154 49.4923 37.6154 49.4923 39.5625 47C40.0369 46.67 40.5112 46.34 41 46Z" fill="#0E0F09"/>
<path d="M261 42C259.417 46.2743 256.494 48.2653 253 51C254.31 47.0698 256.25 42 261 42Z" fill="#9EB24C"/>
<path d="M245 228C244.67 228.99 244.34 229.98 244 231C240.438 232.688 240.438 232.688 237 234C236.67 233.01 236.34 232.02 236 231C242.75 228 242.75 228 245 228Z" fill="#1A1A18"/>
<path d="M48 236C48.66 236.33 49.32 236.66 50 237C49.0479 238.006 48.0881 239.005 47.125 240C46.5913 240.557 46.0577 241.114 45.5078 241.688C44 243 44 243 42 243C43.3933 239.633 44.9789 238.014 48 236Z" fill="#97AA49"/>
</g>
<defs>
<clipPath id="clip0_881_25">
<path d="M0 0H248C270.644 0 289 18.3563 289 41V272H41C18.3563 272 0 253.644 0 231V0Z" fill="white"/>
</clipPath>
</defs>
</svg>
