<svg width="279" height="105" viewBox="0 0 279 105" fill="none" xmlns="http://www.w3.org/2000/svg">
<path d="M32.0047 13.9936C40.053 13.9936 46.7863 17.1498 52.2044 23.4622C57.4648 29.6694 60.0949 37.2969 60.0949 46.3447C60.0949 55.3399 57.4648 62.9411 52.2044 69.1484C46.7863 75.4608 40.053 78.617 32.0047 78.617C24.0615 78.617 17.5913 75.4608 12.594 69.1484C7.70186 63.0464 5.2558 55.4451 5.2558 46.3447C5.2558 37.1917 7.70186 29.5642 12.594 23.4622C17.5913 17.1498 24.0615 13.9936 32.0047 13.9936ZM32.0047 74.9084C38.9483 74.9084 44.7084 72.1468 49.2849 66.6234C53.8614 61.0474 56.1497 54.2879 56.1497 46.3447C56.1497 38.349 53.8614 31.5895 49.2849 26.0661C44.7084 20.5427 38.9483 17.7811 32.0047 17.7811C25.1136 17.7811 19.5376 20.569 15.2768 26.145C11.2263 31.458 9.20106 38.1912 9.20106 46.3447C9.20106 54.4457 11.2263 61.1789 15.2768 66.5445C19.5376 72.1205 25.1136 74.9084 32.0047 74.9084ZM79.1672 51.8681C84.0067 54.8665 87.347 57.4441 89.1882 59.6008C91.0293 61.7576 91.9498 64.0721 91.9498 66.5445C91.9498 67.4913 91.8446 68.5434 91.6342 69.7007C91.003 72.8569 89.4775 75.2767 87.0577 76.96C84.8484 78.5907 82.1393 79.406 78.9305 79.406C77.7732 79.406 76.6159 79.2745 75.4586 79.0115C72.1446 78.3803 69.4618 77.2756 67.4103 75.6975L67.5681 71.3577C71.0399 74.4613 74.8537 76.0131 79.0094 76.0131C83.7437 76.0131 86.5843 73.4881 87.5311 68.4382C87.6363 67.9122 87.6889 67.3861 87.6889 66.8601C87.6889 64.1247 85.9267 61.4419 82.4023 58.8118C79.1409 56.6024 75.8532 54.3931 72.5391 52.1837C69.0147 49.2905 67.2525 46.1343 67.2525 42.7151C67.2525 41.9787 67.3314 41.1896 67.4892 40.3479C68.6465 34.4564 72.3813 31.5106 78.6938 31.5106C84.0067 31.5106 88.1887 33.0887 91.2397 36.2449L90.8452 39.9534C89.2145 38.3227 87.7679 37.218 86.5054 36.6394C85.5059 36.1134 84.033 35.6925 82.0867 35.3769C81.1398 35.2191 80.2719 35.1402 79.4828 35.1402C75.0641 35.1402 72.4339 37.2443 71.5923 41.4526C71.4345 42.1365 71.3556 42.7151 71.3556 43.1885C71.3556 45.8187 73.9594 48.7119 79.1672 51.8681ZM133.977 5.55075H137.843V77.749H133.977V72.6202V69.8585C132.872 71.4366 131.425 73.0147 129.637 74.5928C125.955 77.8016 121.773 79.406 117.091 79.406C111.41 79.406 106.754 77.0389 103.125 72.3046C99.8108 67.9385 98.1538 62.8096 98.1538 56.918C98.1538 55.3925 98.2853 53.8407 98.5483 52.2626C99.6004 45.7398 102.415 40.4795 106.991 36.4816C110.831 33.115 115.96 31.4317 122.378 31.4317C125.06 31.4317 128.927 31.6684 133.977 32.1418V5.55075ZM133.977 56.2868C134.082 44.188 134.082 37.4285 133.977 36.0082C127.138 35.4821 122.983 35.2191 121.51 35.2191C116.986 34.9035 112.883 36.3764 109.2 39.6378C106.991 41.5315 105.255 44.188 103.993 47.6072C102.835 50.7108 102.257 53.867 102.257 57.0759C102.257 61.0737 103.125 64.5192 104.861 67.4124C107.964 72.7254 111.962 75.3819 116.854 75.3819C120.642 75.3819 124.245 73.909 127.664 70.9632C131.82 67.3335 133.924 62.4414 133.977 56.2868ZM171.868 31.4317C176.024 31.4843 181.179 31.8525 187.333 32.5363V77.749H183.388V72.6202V69.8585C182.336 71.4366 180.916 73.0147 179.127 74.5928C175.445 77.8016 171.263 79.406 166.581 79.406C160.9 79.406 156.245 77.0389 152.615 72.3046C149.301 67.9385 147.644 62.8096 147.644 56.918C147.644 55.3925 147.775 53.8407 148.039 52.2626C149.091 45.7398 151.905 40.4795 156.481 36.4816C160.742 32.6941 165.871 31.0108 171.868 31.4317ZM183.388 56.2868C183.388 56.2868 183.388 49.5273 183.388 36.0082C176.602 35.4821 172.473 35.2191 171 35.2191C166.423 34.9035 162.294 36.3764 158.612 39.6378C156.455 41.5315 154.745 44.188 153.483 47.6072C152.326 50.7108 151.747 53.867 151.747 57.0759C151.747 61.0737 152.589 64.5192 154.272 67.4124C157.428 72.7254 161.426 75.3819 166.266 75.3819C170.106 75.3819 173.735 73.909 177.155 70.9632C181.258 67.3335 183.335 62.4414 183.388 56.2868ZM221.189 31.1949C225.397 31.2475 230.579 31.5895 236.734 32.2207V68.7538C236.786 73.1725 236.786 77.2493 236.734 80.9841C236.628 89.4007 234.051 95.8183 229.001 100.237C226.528 102.446 223.136 103.867 218.822 104.498C217.454 104.656 215.955 104.735 214.324 104.735C211.747 104.735 208.485 104.419 204.54 103.788L205.25 99.9214C209.196 100.553 212.457 100.868 215.035 100.868C219.769 100.868 223.767 99.448 227.028 96.6074C230.71 93.3986 232.63 88.1382 232.788 80.8263C232.788 80.1951 232.788 79.3534 232.788 78.3014V72.5413V69.7796C231.684 71.3577 230.237 72.9358 228.448 74.5139C224.766 77.7227 220.584 79.3271 215.903 79.3271C210.169 79.3271 205.487 76.96 201.857 72.2257C198.543 67.8596 196.886 62.7044 196.886 56.7602C196.886 55.2347 196.992 53.6829 197.202 52.1048C198.254 45.5294 201.095 40.2427 205.724 36.2449C210.037 32.4574 215.192 30.7741 221.189 31.1949ZM232.788 56.129C232.893 43.9776 232.893 37.1654 232.788 35.6925C225.95 35.2191 221.794 34.9824 220.321 34.9824C215.745 34.7194 211.615 36.1923 207.933 39.4011C205.724 41.3474 203.988 44.0039 202.725 47.3705C201.568 50.5267 200.989 53.7092 200.989 56.918C200.989 60.9159 201.831 64.3614 203.514 67.2546C206.671 72.6728 210.695 75.3819 215.587 75.3819C219.427 75.3819 223.057 73.8827 226.476 70.8843C230.632 67.202 232.736 62.2836 232.788 56.129Z" fill="white"/>
<path d="M250.528 34.6449C248.661 34.6449 246.912 34.303 245.281 33.6192C243.677 32.909 242.27 31.9358 241.06 30.6997C239.85 29.4635 238.903 28.0432 238.219 26.4388C237.562 24.8081 237.233 23.0853 237.233 21.2705C237.233 19.4557 237.575 17.7329 238.259 16.1022C238.942 14.4715 239.889 13.038 241.099 11.8019C242.309 10.5657 243.716 9.59252 245.321 8.88237C246.951 8.17222 248.713 7.81715 250.607 7.81715C252.475 7.81715 254.211 8.17222 255.815 8.88237C257.446 9.56622 258.866 10.5262 260.076 11.7624C261.286 12.9723 262.233 14.3926 262.916 16.0233C263.6 17.6277 263.942 19.3505 263.942 21.1916C263.942 23.0064 263.6 24.7292 262.916 26.3599C262.233 27.9906 261.273 29.424 260.036 30.6602C258.826 31.8964 257.406 32.8696 255.775 33.5797C254.171 34.2899 252.422 34.6449 250.528 34.6449ZM253.961 27.5829L250.923 22.6119H253.172L256.565 27.5829H253.961ZM250.528 32.3961C252.106 32.3961 253.566 32.1068 254.908 31.5282C256.275 30.9232 257.459 30.1079 258.458 29.0821C259.484 28.0563 260.273 26.8728 260.825 25.5314C261.404 24.1637 261.693 22.7171 261.693 21.1916C261.693 19.6661 261.404 18.2326 260.825 16.8913C260.273 15.5499 259.497 14.3663 258.498 13.3405C257.498 12.3147 256.328 11.5125 254.986 10.9339C253.645 10.3553 252.185 10.0659 250.607 10.0659C249.029 10.0659 247.556 10.3684 246.188 10.9734C244.847 11.552 243.677 12.3542 242.677 13.38C241.678 14.4057 240.889 15.6025 240.31 16.9702C239.758 18.3115 239.482 19.745 239.482 21.2705C239.482 22.796 239.758 24.2294 240.31 25.5708C240.862 26.9122 241.638 28.0958 242.638 29.1216C243.637 30.1473 244.808 30.9495 246.149 31.5282C247.49 32.1068 248.95 32.3961 250.528 32.3961ZM245.518 27.5829V14.1296H250.883C252.619 14.1296 253.948 14.5241 254.868 15.3131C255.815 16.1022 256.288 17.2332 256.288 18.7061C256.288 20.2053 255.815 21.3757 254.868 22.2174C253.948 23.059 252.619 23.4798 250.883 23.4798H247.767V27.5829H245.518ZM247.767 21.665H250.883C251.909 21.665 252.711 21.4152 253.29 20.9154C253.869 20.3894 254.158 19.6661 254.158 18.7455C254.158 17.825 253.869 17.128 253.29 16.6545C252.711 16.1811 251.909 15.9444 250.883 15.9444H247.767V21.665Z" fill="white"/>
</svg>
