<svg width="34" height="919" viewBox="0 0 34 919" fill="none" xmlns="http://www.w3.org/2000/svg">
<rect width="39" height="919" fill="white"/>
<path d="M8.69667 228.901C8.69667 227.425 8.96967 226.141 9.51567 225.049C10.0819 223.957 10.8604 223.108 11.8513 222.501C12.8624 221.915 14.0353 221.621 15.37 221.621H24.7733C26.108 221.621 27.2708 221.915 28.2617 222.501C29.2728 223.108 30.0513 223.957 30.5973 225.049C31.1636 226.141 31.4467 227.425 31.4467 228.901C31.4467 230.398 31.1636 231.682 30.5973 232.754C30.0513 233.846 29.2728 234.685 28.2617 235.271C27.2708 235.878 26.108 236.181 24.7733 236.181H15.37C14.0353 236.181 12.8624 235.878 11.8513 235.271C10.8604 234.685 10.0819 233.846 9.51567 232.754C8.96967 231.682 8.69667 230.398 8.69667 228.901ZM12.64 228.901C12.64 229.811 12.8726 230.489 13.3377 230.934C13.823 231.399 14.5004 231.631 15.37 231.631H24.7733C25.6631 231.631 26.3406 231.409 26.8057 230.964C27.2708 230.519 27.5033 229.832 27.5033 228.901C27.5033 227.971 27.2708 227.284 26.8057 226.839C26.3406 226.394 25.6631 226.171 24.7733 226.171H15.37C14.5004 226.171 13.823 226.394 13.3377 226.839C12.8726 227.304 12.64 227.991 12.64 228.901ZM8.69667 305.936C8.69667 303.692 9.30333 301.912 10.5167 300.598C11.73 299.303 13.3882 298.656 15.4913 298.656H31.1433V303.206H15.5217C14.5914 303.206 13.8736 303.439 13.368 303.904C12.8827 304.389 12.64 305.067 12.64 305.936C12.64 306.786 12.8827 307.453 13.368 307.938C13.8736 308.424 14.5914 308.666 15.5217 308.666H31.1433V313.216H15.4913C13.4084 313.216 11.7502 312.559 10.5167 311.245C9.30333 309.95 8.69667 308.181 8.69667 305.936ZM9 380.696H26.8967V375.084H31.1433V390.858H26.8967V385.246H9V380.696ZM9 452.908H31.1433V460.461C31.1433 462.018 30.8501 463.373 30.2637 464.526C29.6772 465.699 28.8582 466.598 27.8067 467.225C26.7551 467.872 25.5216 468.196 24.106 468.196C22.7107 468.196 21.4771 467.872 20.4053 467.225C19.3538 466.578 18.5348 465.678 17.9483 464.526C17.3619 463.373 17.0687 462.018 17.0687 460.461V457.458H9V452.908ZM21.1637 457.458V460.461C21.1637 461.432 21.4266 462.2 21.9523 462.766C22.4983 463.353 23.2162 463.646 24.106 463.646C24.9958 463.646 25.7036 463.353 26.2293 462.766C26.7753 462.2 27.0483 461.432 27.0483 460.461V457.458H21.1637ZM8.69667 537.041C8.69667 534.796 9.30333 533.017 10.5167 531.702C11.73 530.408 13.3882 529.761 15.4913 529.761H31.1433V534.311H15.5217C14.5914 534.311 13.8736 534.543 13.368 535.008C12.8827 535.494 12.64 536.171 12.64 537.041C12.64 537.89 12.8827 538.557 13.368 539.043C13.8736 539.528 14.5914 539.771 15.5217 539.771H31.1433V544.321H15.4913C13.4084 544.321 11.7502 543.664 10.5167 542.349C9.30333 541.055 8.69667 539.285 8.69667 537.041ZM9 611.801H26.8967V606.189H31.1433V621.962H26.8967V616.351H9V611.801ZM8.69667 691.11C8.69667 689.553 8.95956 688.198 9.48533 687.046C10.0111 685.893 10.7492 685.003 11.6997 684.376C12.6501 683.75 13.7724 683.436 15.0667 683.436V687.986C14.3184 687.986 13.7219 688.269 13.277 688.835C12.8523 689.422 12.64 690.211 12.64 691.201C12.64 692.152 12.8523 692.89 13.277 693.416C13.7017 693.962 14.2881 694.235 15.0363 694.235C15.6834 694.235 16.2396 694.033 16.7047 693.628C17.1698 693.224 17.4832 692.657 17.645 691.929L18.1607 689.685C18.6056 687.804 19.4246 686.338 20.6177 685.286C21.831 684.255 23.3072 683.739 25.0463 683.739C26.3406 683.739 27.4629 684.033 28.4133 684.619C29.384 685.226 30.1322 686.075 30.658 687.167C31.1838 688.259 31.4467 689.553 31.4467 691.05C31.4467 693.315 30.8804 695.104 29.748 696.419C28.6358 697.753 27.1292 698.421 25.2283 698.421V693.871C25.9361 693.871 26.4922 693.618 26.8967 693.112C27.3011 692.627 27.5033 691.919 27.5033 690.989C27.5033 690.12 27.3011 689.452 26.8967 688.987C26.5124 688.522 25.9563 688.289 25.2283 688.289C24.5812 688.289 24.0251 688.471 23.56 688.835C23.1151 689.22 22.8118 689.756 22.65 690.443L22.104 692.809C21.6591 694.771 20.8502 696.257 19.6773 697.268C18.5247 698.279 17.0484 698.785 15.2487 698.785C13.9544 698.785 12.8119 698.461 11.821 697.814C10.8301 697.187 10.0617 696.297 9.51567 695.145C8.96967 694.012 8.69667 692.668 8.69667 691.11Z" fill="black"/>
</svg>
