<svg width="40" height="40" viewBox="0 0 40 40" fill="none" xmlns="http://www.w3.org/2000/svg">
<path d="M7.77792 35C7.01403 35 6.36 34.7281 5.81583 34.1842C5.27194 33.64 5 32.986 5 32.2221V7.77792C5 7.01403 5.27194 6.36 5.81583 5.81583C6.36 5.27195 7.01403 5 7.77792 5H32.2221C32.986 5 33.64 5.27195 34.1842 5.81583C34.7281 6.36 35 7.01403 35 7.77792V32.2221C35 32.986 34.7281 33.64 34.1842 34.1842C33.64 34.7281 32.986 35 32.2221 35H7.77792ZM32.2221 31.5V32.2221V7.77792V14.5V31.5ZM23.6946 32.2221V7.77792H7.77792V32.2221H23.6946Z" fill="black"/>
</svg>
