<svg width="28" height="28" viewBox="0 0 28 28" fill="none" xmlns="http://www.w3.org/2000/svg">
<g clip-path="url(#clip0_262_399)">
<path d="M10.2083 26.1628C9.31381 26.1628 8.51173 25.9294 7.80201 25.4628C7.09228 24.9961 6.54298 24.3544 6.15409 23.5378C5.84298 23.9461 5.44923 24.2621 4.97284 24.4857C4.49645 24.7093 4.00548 24.8211 3.49992 24.8211C2.50826 24.8211 1.67701 24.4808 1.00617 23.8003C0.33534 23.1197 -7.62939e-05 22.2933 -7.62939e-05 21.3211C-7.62939e-05 20.485 0.272146 19.7315 0.81659 19.0607C1.36103 18.3898 2.05131 18.0058 2.88742 17.9086C2.6152 17.5197 2.40617 17.1065 2.26034 16.669C2.11451 16.2315 2.04159 15.7697 2.04159 15.2836C2.04159 14.5058 2.2409 13.7766 2.63951 13.0961C3.03812 12.4155 3.59715 11.8614 4.31659 11.4336C4.41381 11.7836 4.54506 12.1579 4.71034 12.5565C4.87562 12.9551 5.0652 13.3003 5.27909 13.5919C5.00687 13.8058 4.79298 14.0635 4.63742 14.3648C4.48187 14.6662 4.40409 14.9822 4.40409 15.3128C4.40409 16.4016 4.85131 17.0725 5.74576 17.3253C6.6402 17.578 7.48603 17.7822 8.28326 17.9378L8.83742 18.8711C8.62354 19.4933 8.43881 20.0232 8.28326 20.4607C8.1277 20.8982 8.04992 21.2919 8.04992 21.6419C8.04992 22.2253 8.25895 22.7357 8.67701 23.1732C9.09506 23.6107 9.60548 23.8294 10.2083 23.8294C10.9471 23.8294 11.5596 23.4989 12.0458 22.8378C12.5319 22.1766 12.9305 21.3989 13.2416 20.5044C13.5527 19.61 13.7909 18.7058 13.9562 17.7919C14.1215 16.878 14.2527 16.178 14.3499 15.6919L16.6249 16.3044C16.4499 17.1794 16.236 18.1808 15.9833 19.3086C15.7305 20.4364 15.3756 21.5107 14.9187 22.5315C14.4617 23.5523 13.859 24.4128 13.1103 25.1128C12.3617 25.8128 11.3944 26.1628 10.2083 26.1628ZM3.49992 22.4878C3.83048 22.4878 4.10756 22.376 4.33117 22.1523C4.55478 21.9287 4.66659 21.6516 4.66659 21.3211C4.66659 20.9905 4.55478 20.7135 4.33117 20.4898C4.10756 20.2662 3.83048 20.1544 3.49992 20.1544C3.16937 20.1544 2.89228 20.2662 2.66867 20.4898C2.44506 20.7135 2.33326 20.9905 2.33326 21.3211C2.33326 21.6516 2.44506 21.9287 2.66867 22.1523C2.89228 22.376 3.16937 22.4878 3.49992 22.4878ZM11.7833 17.8794C10.8888 17.0822 10.077 16.3385 9.34784 15.6482C8.61867 14.9579 7.99159 14.2871 7.46659 13.6357C6.94159 12.9843 6.53812 12.3329 6.25617 11.6815C5.97423 11.0301 5.83326 10.3544 5.83326 9.65443C5.83326 8.39054 6.2659 7.32595 7.13117 6.46068C7.99645 5.5954 9.06104 5.16276 10.3249 5.16276C10.4027 5.16276 10.4708 5.16762 10.5291 5.17734C10.5874 5.18707 10.6555 5.19193 10.7333 5.19193C10.6555 4.99748 10.5971 4.80304 10.5583 4.60859C10.5194 4.41415 10.4999 4.20998 10.4999 3.99609C10.4999 3.02387 10.8402 2.19748 11.5208 1.51693C12.2013 0.836372 13.0277 0.496094 13.9999 0.496094C14.9721 0.496094 15.7985 0.836372 16.4791 1.51693C17.1596 2.19748 17.4999 3.02387 17.4999 3.99609C17.4999 4.20998 17.4805 4.40929 17.4416 4.59401C17.4027 4.77873 17.3444 4.96832 17.2666 5.16276H17.6749C18.8416 5.16276 19.8333 5.53707 20.6499 6.28568C21.4666 7.03429 21.9527 7.96276 22.1083 9.07109C21.7583 9.01276 21.3645 8.98359 20.927 8.98359C20.4895 8.98359 20.086 9.00304 19.7166 9.04193C19.5805 8.5947 19.3326 8.22526 18.9728 7.93359C18.6131 7.64193 18.1805 7.49609 17.6749 7.49609C16.9944 7.49609 16.4645 7.6954 16.0853 8.09401C15.7062 8.49262 15.186 9.07109 14.5249 9.82943H13.4458C12.7652 9.0322 12.2353 8.44401 11.8562 8.06484C11.477 7.68568 10.9666 7.49609 10.3249 7.49609C9.7027 7.49609 9.18742 7.70026 8.77909 8.10859C8.37076 8.51693 8.16659 9.0322 8.16659 9.65443C8.16659 10.1016 8.29298 10.5635 8.54576 11.0398C8.79853 11.5162 9.1534 12.0218 9.61034 12.5565C10.0673 13.0912 10.6215 13.66 11.2728 14.2628C11.9242 14.8655 12.6485 15.5169 13.4458 16.2169L11.7833 17.8794ZM13.9999 5.16276C14.3305 5.16276 14.6076 5.05095 14.8312 4.82734C15.0548 4.60373 15.1666 4.32665 15.1666 3.99609C15.1666 3.66554 15.0548 3.38845 14.8312 3.16484C14.6076 2.94123 14.3305 2.82943 13.9999 2.82943C13.6694 2.82943 13.3923 2.94123 13.1687 3.16484C12.9451 3.38845 12.8333 3.66554 12.8333 3.99609C12.8333 4.32665 12.9451 4.60373 13.1687 4.82734C13.3923 5.05095 13.6694 5.16276 13.9999 5.16276ZM17.7624 26.1628C17.3346 26.1628 16.9117 26.1044 16.4937 25.9878C16.0756 25.8711 15.6721 25.6864 15.2833 25.4336C15.4971 25.1614 15.711 24.8405 15.9249 24.4711C16.1388 24.1017 16.3333 23.7614 16.5083 23.4503C16.7221 23.5864 16.936 23.6836 17.1499 23.7419C17.3638 23.8003 17.5777 23.8294 17.7916 23.8294C18.4138 23.8294 18.934 23.6107 19.352 23.1732C19.7701 22.7357 19.9791 22.2155 19.9791 21.6128C19.9791 21.2433 19.9013 20.8447 19.7458 20.4169C19.5902 19.9891 19.4055 19.4641 19.1916 18.8419L19.7458 17.9086C20.5624 17.753 21.4131 17.5489 22.2978 17.2961C23.1826 17.0433 23.6249 16.3725 23.6249 15.2836C23.6249 14.5058 23.3381 13.9419 22.7645 13.5919C22.1909 13.2419 21.5638 13.0669 20.8833 13.0669C20.0666 13.0669 19.1138 13.2225 18.0249 13.5336C16.936 13.8447 15.6624 14.2433 14.2041 14.7294L13.5916 12.4544C15.1083 11.9683 16.4596 11.56 17.6458 11.2294C18.8319 10.8989 19.9208 10.7336 20.9124 10.7336C22.2541 10.7336 23.4305 11.1322 24.4416 11.9294C25.4527 12.7266 25.9583 13.8447 25.9583 15.2836C25.9583 15.7697 25.8853 16.2315 25.7395 16.669C25.5937 17.1065 25.3846 17.5197 25.1124 17.9086C25.9485 18.0058 26.6388 18.3898 27.1833 19.0607C27.7277 19.7315 27.9999 20.485 27.9999 21.3211C27.9999 22.2933 27.6645 23.1197 26.9937 23.8003C26.3228 24.4808 25.4916 24.8211 24.4999 24.8211C23.9944 24.8211 23.5034 24.7093 23.027 24.4857C22.5506 24.2621 22.1569 23.9461 21.8458 23.5378C21.4569 24.3544 20.9076 24.9961 20.1978 25.4628C19.4881 25.9294 18.6763 26.1628 17.7624 26.1628ZM24.5291 22.4878C24.8596 22.4878 25.1319 22.376 25.3458 22.1523C25.5596 21.9287 25.6666 21.6516 25.6666 21.3211C25.6666 20.9905 25.5548 20.7086 25.3312 20.4753C25.1076 20.2419 24.8305 20.1253 24.4999 20.1253C24.1694 20.1253 23.8923 20.2371 23.6687 20.4607C23.4451 20.6843 23.3333 20.9614 23.3333 21.2919C23.3333 21.6225 23.4499 21.9044 23.6833 22.1378C23.9166 22.3711 24.1985 22.4878 24.5291 22.4878Z" fill="black"/>
</g>
<defs>
<clipPath id="clip0_262_399">
<rect width="28" height="28" fill="white"/>
</clipPath>
</defs>
</svg>
