<svg width="28" height="28" viewBox="0 0 28 28" fill="none" xmlns="http://www.w3.org/2000/svg">
<path d="M25.53 27.6537L15.9723 18.096C15.2138 18.7028 14.3414 19.1833 13.3553 19.5372C12.3692 19.8912 11.3199 20.0682 10.2073 20.0682C7.45127 20.0682 5.11873 19.1137 3.20971 17.2047C1.3007 15.2957 0.346191 12.9631 0.346191 10.2071C0.346191 7.45102 1.3007 5.11849 3.20971 3.20947C5.11873 1.30046 7.45127 0.345947 10.2073 0.345947C12.9634 0.345947 15.2959 1.30046 17.2049 3.20947C19.114 5.11849 20.0685 7.45102 20.0685 10.2071C20.0685 11.3196 19.8915 12.369 19.5375 13.3551C19.1835 14.3412 18.7031 15.2135 18.0962 15.9721L27.654 25.5298L25.53 27.6537ZM10.2073 17.034C12.1037 17.034 13.7156 16.3703 15.0431 15.0428C16.3705 13.7154 17.0343 12.1035 17.0343 10.2071C17.0343 8.31071 16.3705 6.6988 15.0431 5.37134C13.7156 4.04387 12.1037 3.38014 10.2073 3.38014C8.31096 3.38014 6.69904 4.04387 5.37158 5.37134C4.04412 6.6988 3.38039 8.31071 3.38039 10.2071C3.38039 12.1035 4.04412 13.7154 5.37158 15.0428C6.69904 16.3703 8.31096 17.034 10.2073 17.034Z" fill="#565656"/>
</svg>
