<svg width="73" height="19" viewBox="0 0 73 19" fill="none" xmlns="http://www.w3.org/2000/svg">
<path d="M73 9.5C73 14.7467 56.6584 19 36.5 19C16.3416 19 0 14.7467 0 9.5C0 4.25329 16.3416 0 36.5 0C56.6584 0 73 4.25329 73 9.5Z" fill="#FAFAFA"/>
<path d="M9.73291 13.3389C9.71859 13.3783 9.69889 13.4105 9.67383 13.4355C9.64876 13.4606 9.61296 13.4803 9.56641 13.4946C9.52344 13.509 9.46615 13.5179 9.39453 13.5215C9.3265 13.5286 9.24056 13.5322 9.13672 13.5322C9.05794 13.5322 8.98812 13.5304 8.92725 13.5269C8.86995 13.5269 8.81982 13.5233 8.77686 13.5161C8.73389 13.509 8.69629 13.5018 8.66406 13.4946C8.63542 13.4839 8.61035 13.4714 8.58887 13.457C8.56738 13.4427 8.54948 13.4266 8.53516 13.4087C8.52441 13.3872 8.51367 13.3621 8.50293 13.3335L6.23096 6.87744C6.20231 6.79867 6.1862 6.736 6.18262 6.68945C6.18262 6.63932 6.19873 6.60173 6.23096 6.57666C6.26318 6.5516 6.3151 6.53548 6.38672 6.52832C6.45833 6.52116 6.55501 6.51758 6.67676 6.51758C6.77702 6.51758 6.85579 6.52116 6.91309 6.52832C6.97396 6.5319 7.02051 6.54085 7.05273 6.55518C7.08496 6.5695 7.10824 6.58919 7.12256 6.61426C7.14046 6.63574 7.15658 6.66439 7.1709 6.7002L9.16357 12.5493H9.16895L11.1079 6.71094C11.1187 6.67155 11.1312 6.63932 11.1455 6.61426C11.1598 6.58919 11.1849 6.5695 11.2207 6.55518C11.2565 6.54085 11.3066 6.5319 11.3711 6.52832C11.4355 6.52116 11.5215 6.51758 11.6289 6.51758C11.7399 6.51758 11.8276 6.52295 11.8921 6.53369C11.9565 6.54085 11.9995 6.55697 12.021 6.58203C12.0461 6.6071 12.055 6.64469 12.0479 6.69482C12.0443 6.74137 12.0282 6.80404 11.9995 6.88281L9.73291 13.3389ZM16.6401 10.7393C16.6401 10.8789 16.6043 10.9792 16.5327 11.04C16.4647 11.0973 16.3859 11.126 16.2964 11.126H13.1274C13.1274 11.3945 13.1543 11.6362 13.208 11.8511C13.2617 12.0659 13.3512 12.2503 13.4766 12.4043C13.6019 12.5583 13.7648 12.6764 13.9653 12.7588C14.1659 12.8411 14.4111 12.8823 14.7012 12.8823C14.9303 12.8823 15.1344 12.8644 15.3135 12.8286C15.4925 12.7892 15.6465 12.7463 15.7754 12.6997C15.9079 12.6532 16.0153 12.612 16.0977 12.5762C16.1836 12.5368 16.248 12.5171 16.291 12.5171C16.3161 12.5171 16.3376 12.5243 16.3555 12.5386C16.377 12.5493 16.3931 12.5672 16.4038 12.5923C16.4146 12.6174 16.4217 12.6532 16.4253 12.6997C16.4325 12.7427 16.436 12.7964 16.436 12.8608C16.436 12.9074 16.4342 12.9486 16.4307 12.9844C16.4271 13.0166 16.4217 13.047 16.4146 13.0757C16.411 13.1007 16.402 13.124 16.3877 13.1455C16.377 13.167 16.3608 13.1885 16.3394 13.21C16.3215 13.2279 16.2642 13.2601 16.1675 13.3066C16.0708 13.3496 15.9455 13.3926 15.7915 13.4355C15.6375 13.4785 15.4585 13.5161 15.2544 13.5483C15.0539 13.5841 14.839 13.6021 14.6099 13.6021C14.2124 13.6021 13.8633 13.5465 13.5625 13.4355C13.2653 13.3245 13.0146 13.1598 12.8105 12.9414C12.6064 12.723 12.4525 12.4491 12.3486 12.1196C12.2448 11.7902 12.1929 11.4071 12.1929 10.9702C12.1929 10.5549 12.2466 10.1825 12.354 9.85303C12.4614 9.52002 12.6154 9.23893 12.8159 9.00977C13.02 8.77702 13.2653 8.59977 13.5518 8.47803C13.8382 8.3527 14.1587 8.29004 14.5132 8.29004C14.8927 8.29004 15.215 8.35091 15.48 8.47266C15.7485 8.5944 15.9688 8.75911 16.1406 8.9668C16.3125 9.1709 16.4378 9.4126 16.5166 9.69189C16.599 9.96761 16.6401 10.263 16.6401 10.5781V10.7393ZM15.7485 10.4761C15.7593 10.0106 15.6554 9.64535 15.437 9.38037C15.2222 9.1154 14.9017 8.98291 14.4756 8.98291C14.2572 8.98291 14.0656 9.02409 13.9009 9.10645C13.7362 9.1888 13.5983 9.29801 13.4873 9.43408C13.3763 9.57015 13.2904 9.72949 13.2295 9.91211C13.1686 10.0911 13.1346 10.2791 13.1274 10.4761H15.7485ZM20.8188 8.84863C20.8188 8.92741 20.8171 8.99365 20.8135 9.04736C20.8099 9.10107 20.8027 9.14404 20.792 9.17627C20.7812 9.20492 20.7669 9.22819 20.749 9.24609C20.7347 9.26042 20.7132 9.26758 20.6846 9.26758C20.6559 9.26758 20.6201 9.26042 20.5771 9.24609C20.5378 9.22819 20.4912 9.21208 20.4375 9.19775C20.3874 9.17985 20.3301 9.16374 20.2656 9.14941C20.2012 9.13509 20.1313 9.12793 20.0562 9.12793C19.9666 9.12793 19.8789 9.14583 19.793 9.18164C19.707 9.21745 19.6157 9.27653 19.519 9.35889C19.4259 9.44124 19.3275 9.55046 19.2236 9.68652C19.1198 9.82259 19.0052 9.9891 18.8799 10.186V13.3657C18.8799 13.3944 18.8727 13.4194 18.8584 13.4409C18.8441 13.4588 18.8208 13.4749 18.7886 13.4893C18.7563 13.5036 18.7116 13.5143 18.6543 13.5215C18.597 13.5286 18.5236 13.5322 18.4341 13.5322C18.3481 13.5322 18.2765 13.5286 18.2192 13.5215C18.1619 13.5143 18.1154 13.5036 18.0796 13.4893C18.0474 13.4749 18.0241 13.4588 18.0098 13.4409C17.999 13.4194 17.9937 13.3944 17.9937 13.3657V8.53174C17.9937 8.50309 17.999 8.47982 18.0098 8.46191C18.0205 8.44043 18.042 8.42253 18.0742 8.4082C18.1064 8.3903 18.1476 8.37956 18.1978 8.37598C18.2479 8.36882 18.3141 8.36523 18.3965 8.36523C18.4753 8.36523 18.5397 8.36882 18.5898 8.37598C18.6436 8.37956 18.6847 8.3903 18.7134 8.4082C18.742 8.42253 18.7617 8.44043 18.7725 8.46191C18.7868 8.47982 18.7939 8.50309 18.7939 8.53174V9.23535C18.9264 9.04199 19.05 8.88444 19.1646 8.7627C19.2827 8.64095 19.3937 8.54606 19.4976 8.47803C19.6014 8.40641 19.7035 8.35807 19.8037 8.33301C19.9076 8.30436 20.0114 8.29004 20.1152 8.29004C20.1618 8.29004 20.2137 8.29362 20.271 8.30078C20.3319 8.30436 20.3945 8.31331 20.459 8.32764C20.5234 8.34196 20.5807 8.35807 20.6309 8.37598C20.6846 8.39388 20.7222 8.41178 20.7437 8.42969C20.7651 8.44759 20.7795 8.46549 20.7866 8.4834C20.7938 8.49772 20.7992 8.51742 20.8027 8.54248C20.8099 8.56755 20.8135 8.60514 20.8135 8.65527C20.8171 8.70182 20.8188 8.76628 20.8188 8.84863ZM24.6699 12.0498C24.6699 12.2969 24.6234 12.5171 24.5303 12.7104C24.4408 12.9038 24.3118 13.0667 24.1436 13.1992C23.9753 13.3317 23.7747 13.432 23.542 13.5C23.3092 13.568 23.0532 13.6021 22.7739 13.6021C22.6021 13.6021 22.4373 13.5877 22.2798 13.5591C22.1258 13.534 21.9862 13.5018 21.8608 13.4624C21.7391 13.4194 21.6353 13.3765 21.5493 13.3335C21.4634 13.2869 21.4007 13.2458 21.3613 13.21C21.3219 13.1742 21.2933 13.124 21.2754 13.0596C21.2575 12.9951 21.2485 12.9074 21.2485 12.7964C21.2485 12.7284 21.2521 12.6711 21.2593 12.6245C21.2664 12.578 21.2754 12.5404 21.2861 12.5117C21.2969 12.4831 21.3112 12.4634 21.3291 12.4526C21.3506 12.4383 21.3739 12.4312 21.3989 12.4312C21.4383 12.4312 21.4956 12.4562 21.5708 12.5063C21.6496 12.5529 21.7445 12.6048 21.8555 12.6621C21.9701 12.7194 22.1043 12.7731 22.2583 12.8232C22.4123 12.8698 22.5895 12.8931 22.79 12.8931C22.9404 12.8931 23.0765 12.877 23.1982 12.8447C23.32 12.8125 23.4256 12.766 23.5151 12.7051C23.6047 12.6406 23.6727 12.5601 23.7192 12.4634C23.7694 12.3667 23.7944 12.2521 23.7944 12.1196C23.7944 11.9836 23.7586 11.869 23.687 11.7759C23.619 11.6828 23.5277 11.6004 23.4131 11.5288C23.2985 11.4572 23.1696 11.3945 23.0264 11.3408C22.8831 11.2835 22.7345 11.2244 22.5806 11.1636C22.4302 11.1027 22.2816 11.0347 22.1348 10.9595C21.9915 10.8807 21.8626 10.7858 21.748 10.6748C21.6335 10.5638 21.5404 10.4313 21.4688 10.2773C21.4007 10.1234 21.3667 9.93896 21.3667 9.72412C21.3667 9.53434 21.4025 9.35352 21.4741 9.18164C21.5493 9.00618 21.6603 8.854 21.8071 8.7251C21.9539 8.59261 22.1366 8.48698 22.355 8.4082C22.577 8.32943 22.8348 8.29004 23.1284 8.29004C23.2573 8.29004 23.3862 8.30078 23.5151 8.32227C23.644 8.34375 23.7604 8.37061 23.8643 8.40283C23.9681 8.43506 24.0558 8.47087 24.1274 8.51025C24.2026 8.54606 24.2581 8.57829 24.2939 8.60693C24.3333 8.63558 24.3584 8.66064 24.3691 8.68213C24.3835 8.70361 24.3924 8.72868 24.396 8.75732C24.4032 8.78239 24.4085 8.81462 24.4121 8.854C24.4193 8.89339 24.4229 8.94173 24.4229 8.99902C24.4229 9.0599 24.4193 9.11361 24.4121 9.16016C24.4085 9.20312 24.3996 9.23893 24.3853 9.26758C24.3745 9.29622 24.3602 9.31771 24.3423 9.33203C24.3244 9.34277 24.3047 9.34814 24.2832 9.34814C24.251 9.34814 24.2044 9.32845 24.1436 9.28906C24.0827 9.24967 24.0039 9.2085 23.9072 9.16553C23.8105 9.11898 23.696 9.07601 23.5635 9.03662C23.4346 8.99723 23.286 8.97754 23.1177 8.97754C22.9673 8.97754 22.8348 8.99544 22.7202 9.03125C22.6056 9.06348 22.5107 9.11182 22.4355 9.17627C22.3639 9.23714 22.3084 9.31055 22.269 9.39648C22.2332 9.48242 22.2153 9.57552 22.2153 9.67578C22.2153 9.81543 22.2511 9.93359 22.3228 10.0303C22.3944 10.1234 22.4875 10.2057 22.6021 10.2773C22.7166 10.349 22.8473 10.4134 22.9941 10.4707C23.141 10.528 23.2896 10.5871 23.4399 10.6479C23.5939 10.7088 23.7443 10.7769 23.8911 10.8521C24.0415 10.9272 24.174 11.0186 24.2886 11.126C24.4032 11.2334 24.4945 11.3623 24.5625 11.5127C24.6341 11.6631 24.6699 11.8421 24.6699 12.0498ZM26.8291 13.3657C26.8291 13.3944 26.8219 13.4194 26.8076 13.4409C26.7933 13.4588 26.77 13.4749 26.7378 13.4893C26.7056 13.5036 26.6608 13.5143 26.6035 13.5215C26.5462 13.5286 26.4728 13.5322 26.3833 13.5322C26.2974 13.5322 26.2257 13.5286 26.1685 13.5215C26.1112 13.5143 26.0646 13.5036 26.0288 13.4893C25.9966 13.4749 25.9733 13.4588 25.959 13.4409C25.9482 13.4194 25.9429 13.3944 25.9429 13.3657V8.53174C25.9429 8.50667 25.9482 8.4834 25.959 8.46191C25.9733 8.44043 25.9966 8.42253 26.0288 8.4082C26.0646 8.39388 26.1112 8.38314 26.1685 8.37598C26.2257 8.36882 26.2974 8.36523 26.3833 8.36523C26.4728 8.36523 26.5462 8.36882 26.6035 8.37598C26.6608 8.38314 26.7056 8.39388 26.7378 8.4082C26.77 8.42253 26.7933 8.44043 26.8076 8.46191C26.8219 8.4834 26.8291 8.50667 26.8291 8.53174V13.3657ZM26.9312 6.89893C26.9312 7.10661 26.8918 7.24805 26.813 7.32324C26.7342 7.39844 26.5892 7.43604 26.3779 7.43604C26.1702 7.43604 26.027 7.40023 25.9482 7.32861C25.873 7.25342 25.8354 7.11377 25.8354 6.90967C25.8354 6.70199 25.8748 6.56055 25.9536 6.48535C26.0324 6.41016 26.1774 6.37256 26.3887 6.37256C26.5964 6.37256 26.7378 6.41016 26.813 6.48535C26.8918 6.55697 26.9312 6.69482 26.9312 6.89893ZM32.9629 10.895C32.9629 11.2889 32.911 11.6523 32.8071 11.9854C32.7033 12.3148 32.5475 12.5994 32.3398 12.8394C32.1357 13.0793 31.8779 13.2673 31.5664 13.4033C31.2585 13.5358 30.9004 13.6021 30.4922 13.6021C30.0947 13.6021 29.7474 13.543 29.4502 13.4248C29.1566 13.3066 28.9113 13.1348 28.7144 12.9092C28.5174 12.6836 28.3706 12.4097 28.2739 12.0874C28.1772 11.7651 28.1289 11.3999 28.1289 10.9917C28.1289 10.5978 28.179 10.2362 28.2793 9.90674C28.3831 9.57373 28.5371 9.28727 28.7412 9.04736C28.9489 8.80745 29.2067 8.62126 29.5146 8.48877C29.8226 8.35628 30.1825 8.29004 30.5942 8.29004C30.9917 8.29004 31.3372 8.34912 31.6309 8.46729C31.9281 8.58545 32.1751 8.75732 32.3721 8.98291C32.569 9.2085 32.7158 9.48242 32.8125 9.80469C32.9128 10.127 32.9629 10.4904 32.9629 10.895ZM32.0283 10.9541C32.0283 10.6927 32.0033 10.4456 31.9531 10.2129C31.9066 9.98014 31.8278 9.77604 31.7168 9.60059C31.6058 9.42513 31.4554 9.28727 31.2656 9.18701C31.0758 9.08317 30.8395 9.03125 30.5566 9.03125C30.2952 9.03125 30.0697 9.0778 29.8799 9.1709C29.6937 9.264 29.5397 9.39648 29.418 9.56836C29.2962 9.73665 29.2049 9.93717 29.144 10.1699C29.0868 10.4027 29.0581 10.6569 29.0581 10.9326C29.0581 11.1976 29.0814 11.4465 29.1279 11.6792C29.1781 11.9119 29.2586 12.116 29.3696 12.2915C29.4842 12.4634 29.6364 12.6012 29.8262 12.7051C30.016 12.8053 30.2523 12.8555 30.5352 12.8555C30.793 12.8555 31.0168 12.8089 31.2065 12.7158C31.3963 12.6227 31.5521 12.492 31.6738 12.3237C31.7956 12.1554 31.8851 11.9549 31.9424 11.7222C31.9997 11.4894 32.0283 11.2334 32.0283 10.9541ZM38.4307 13.3657C38.4307 13.3944 38.4235 13.4194 38.4092 13.4409C38.3949 13.4588 38.3716 13.4749 38.3394 13.4893C38.3071 13.5036 38.2624 13.5143 38.2051 13.5215C38.1478 13.5286 38.0762 13.5322 37.9902 13.5322C37.9007 13.5322 37.8273 13.5286 37.77 13.5215C37.7127 13.5143 37.668 13.5036 37.6357 13.4893C37.6035 13.4749 37.5802 13.4588 37.5659 13.4409C37.5516 13.4194 37.5444 13.3944 37.5444 13.3657V10.5352C37.5444 10.2594 37.5229 10.0374 37.48 9.86914C37.437 9.70085 37.3743 9.55583 37.292 9.43408C37.2096 9.31234 37.1022 9.21924 36.9697 9.15479C36.8408 9.09033 36.6904 9.05811 36.5186 9.05811C36.2965 9.05811 36.0745 9.13688 35.8525 9.29443C35.6305 9.45199 35.3978 9.68294 35.1543 9.9873V13.3657C35.1543 13.3944 35.1471 13.4194 35.1328 13.4409C35.1185 13.4588 35.0952 13.4749 35.063 13.4893C35.0308 13.5036 34.986 13.5143 34.9287 13.5215C34.8714 13.5286 34.798 13.5322 34.7085 13.5322C34.6226 13.5322 34.5509 13.5286 34.4937 13.5215C34.4364 13.5143 34.3898 13.5036 34.354 13.4893C34.3218 13.4749 34.2985 13.4588 34.2842 13.4409C34.2734 13.4194 34.2681 13.3944 34.2681 13.3657V8.53174C34.2681 8.50309 34.2734 8.47982 34.2842 8.46191C34.2949 8.44043 34.3164 8.42253 34.3486 8.4082C34.3809 8.3903 34.422 8.37956 34.4722 8.37598C34.5223 8.36882 34.5885 8.36523 34.6709 8.36523C34.7497 8.36523 34.8141 8.36882 34.8643 8.37598C34.918 8.37956 34.9591 8.3903 34.9878 8.4082C35.0164 8.42253 35.0361 8.44043 35.0469 8.46191C35.0612 8.47982 35.0684 8.50309 35.0684 8.53174V9.1709C35.3405 8.86654 35.6108 8.64453 35.8794 8.50488C36.1515 8.36165 36.4255 8.29004 36.7012 8.29004C37.0234 8.29004 37.2938 8.34554 37.5122 8.45654C37.7342 8.56396 37.9132 8.70898 38.0493 8.8916C38.1854 9.07422 38.2821 9.28906 38.3394 9.53613C38.4002 9.77962 38.4307 10.0732 38.4307 10.417V13.3657ZM46.6968 13.1348C46.6968 13.2028 46.6914 13.2601 46.6807 13.3066C46.6699 13.3532 46.6556 13.3908 46.6377 13.4194C46.6198 13.4481 46.5983 13.4696 46.5732 13.4839C46.5518 13.4946 46.5285 13.5 46.5034 13.5H42.8726C42.8475 13.5 42.8242 13.4946 42.8027 13.4839C42.7812 13.4696 42.7598 13.4481 42.7383 13.4194C42.7204 13.3908 42.7061 13.3532 42.6953 13.3066C42.6846 13.2601 42.6792 13.2028 42.6792 13.1348C42.6792 13.0703 42.6846 13.0148 42.6953 12.9683C42.7061 12.9217 42.7186 12.8841 42.7329 12.8555C42.7508 12.8232 42.7705 12.8 42.792 12.7856C42.8171 12.7677 42.8439 12.7588 42.8726 12.7588H44.3228V7.47363L42.98 8.27393C42.9119 8.30973 42.8564 8.33122 42.8135 8.33838C42.7741 8.34554 42.7419 8.33838 42.7168 8.31689C42.6917 8.29183 42.6738 8.25244 42.6631 8.19873C42.6559 8.14502 42.6523 8.07699 42.6523 7.99463C42.6523 7.93376 42.6541 7.88184 42.6577 7.83887C42.6649 7.7959 42.6738 7.76009 42.6846 7.73145C42.6953 7.7028 42.7096 7.67773 42.7275 7.65625C42.749 7.63477 42.7759 7.61328 42.8081 7.5918L44.4087 6.56592C44.423 6.55518 44.4409 6.54622 44.4624 6.53906C44.4839 6.5319 44.5107 6.52474 44.543 6.51758C44.5752 6.51042 44.6128 6.50684 44.6558 6.50684C44.6987 6.50326 44.7524 6.50146 44.8169 6.50146C44.9028 6.50146 44.9744 6.50505 45.0317 6.51221C45.089 6.51937 45.1338 6.53011 45.166 6.54443C45.1982 6.55518 45.2197 6.57129 45.2305 6.59277C45.2412 6.61068 45.2466 6.63037 45.2466 6.65186V12.7588H46.5034C46.5321 12.7588 46.5589 12.7677 46.584 12.7856C46.609 12.8 46.6287 12.8232 46.6431 12.8555C46.661 12.8841 46.6735 12.9217 46.6807 12.9683C46.6914 13.0148 46.6968 13.0703 46.6968 13.1348ZM49.2588 12.9146C49.2588 13.1688 49.2158 13.3389 49.1299 13.4248C49.0475 13.5072 48.8953 13.5483 48.6733 13.5483C48.4585 13.5483 48.3099 13.5072 48.2275 13.4248C48.1452 13.3424 48.104 13.1777 48.104 12.9307C48.104 12.6764 48.1452 12.5081 48.2275 12.4258C48.3135 12.3398 48.4674 12.2969 48.6895 12.2969C48.9043 12.2969 49.0529 12.3381 49.1353 12.4204C49.2176 12.5028 49.2588 12.6675 49.2588 12.9146ZM55.269 10.0088C55.269 10.5423 55.2261 11.0293 55.1401 11.4697C55.0578 11.9102 54.9181 12.2897 54.7212 12.6084C54.5278 12.9235 54.2736 13.1688 53.9585 13.3442C53.6434 13.5161 53.2549 13.6021 52.793 13.6021C52.3561 13.6021 51.9873 13.5251 51.6865 13.3711C51.3893 13.2135 51.1494 12.9844 50.9668 12.6836C50.7842 12.3792 50.6535 12.0068 50.5747 11.5664C50.4995 11.1224 50.4619 10.6139 50.4619 10.041C50.4619 9.51107 50.5049 9.02588 50.5908 8.58545C50.6768 8.14144 50.8164 7.76188 51.0098 7.44678C51.2031 7.12809 51.4574 6.88281 51.7725 6.71094C52.0876 6.53548 52.4743 6.44775 52.9326 6.44775C53.373 6.44775 53.7419 6.52653 54.0391 6.68408C54.3398 6.83805 54.5815 7.06722 54.7642 7.37158C54.9468 7.67236 55.0757 8.04476 55.1509 8.48877C55.2297 8.9292 55.269 9.43587 55.269 10.0088ZM54.3237 10.0732C54.3237 9.72591 54.3112 9.41439 54.2861 9.13867C54.2611 8.86296 54.2235 8.61947 54.1733 8.4082C54.1268 8.19694 54.0641 8.01611 53.9854 7.86572C53.9102 7.71175 53.8188 7.58643 53.7114 7.48975C53.604 7.38949 53.4805 7.31787 53.3408 7.2749C53.2048 7.22835 53.0508 7.20508 52.8789 7.20508C52.5745 7.20508 52.3275 7.27669 52.1377 7.41992C51.9479 7.56315 51.7975 7.76009 51.6865 8.01074C51.5791 8.26139 51.5057 8.55501 51.4663 8.8916C51.4269 9.22819 51.4072 9.58984 51.4072 9.97656C51.4072 10.4958 51.4341 10.938 51.4878 11.3032C51.5415 11.6649 51.6257 11.9603 51.7402 12.1895C51.8584 12.4186 52.007 12.5851 52.186 12.689C52.3687 12.7928 52.5889 12.8447 52.8467 12.8447C53.0472 12.8447 53.2227 12.8125 53.373 12.748C53.527 12.6836 53.6577 12.5923 53.7651 12.4741C53.8761 12.3524 53.9674 12.2074 54.0391 12.0391C54.1107 11.8708 54.168 11.6846 54.2109 11.4805C54.2539 11.2764 54.2826 11.0562 54.2969 10.8198C54.3148 10.5799 54.3237 10.3311 54.3237 10.0732ZM57.6162 12.9146C57.6162 13.1688 57.5732 13.3389 57.4873 13.4248C57.4049 13.5072 57.2528 13.5483 57.0308 13.5483C56.8159 13.5483 56.6673 13.5072 56.585 13.4248C56.5026 13.3424 56.4614 13.1777 56.4614 12.9307C56.4614 12.6764 56.5026 12.5081 56.585 12.4258C56.6709 12.3398 56.8249 12.2969 57.0469 12.2969C57.2617 12.2969 57.4103 12.3381 57.4927 12.4204C57.575 12.5028 57.6162 12.6675 57.6162 12.9146ZM63.6265 10.0088C63.6265 10.5423 63.5835 11.0293 63.4976 11.4697C63.4152 11.9102 63.2756 12.2897 63.0786 12.6084C62.8853 12.9235 62.631 13.1688 62.3159 13.3442C62.0008 13.5161 61.6123 13.6021 61.1504 13.6021C60.7135 13.6021 60.3447 13.5251 60.0439 13.3711C59.7467 13.2135 59.5068 12.9844 59.3242 12.6836C59.1416 12.3792 59.0109 12.0068 58.9321 11.5664C58.8569 11.1224 58.8193 10.6139 58.8193 10.041C58.8193 9.51107 58.8623 9.02588 58.9482 8.58545C59.0342 8.14144 59.1738 7.76188 59.3672 7.44678C59.5605 7.12809 59.8148 6.88281 60.1299 6.71094C60.445 6.53548 60.8317 6.44775 61.29 6.44775C61.7305 6.44775 62.0993 6.52653 62.3965 6.68408C62.6973 6.83805 62.939 7.06722 63.1216 7.37158C63.3042 7.67236 63.4331 8.04476 63.5083 8.48877C63.5871 8.9292 63.6265 9.43587 63.6265 10.0088ZM62.6812 10.0732C62.6812 9.72591 62.6686 9.41439 62.6436 9.13867C62.6185 8.86296 62.5809 8.61947 62.5308 8.4082C62.4842 8.19694 62.4215 8.01611 62.3428 7.86572C62.2676 7.71175 62.1763 7.58643 62.0688 7.48975C61.9614 7.38949 61.8379 7.31787 61.6982 7.2749C61.5622 7.22835 61.4082 7.20508 61.2363 7.20508C60.932 7.20508 60.6849 7.27669 60.4951 7.41992C60.3053 7.56315 60.1549 7.76009 60.0439 8.01074C59.9365 8.26139 59.8631 8.55501 59.8237 8.8916C59.7843 9.22819 59.7646 9.58984 59.7646 9.97656C59.7646 10.4958 59.7915 10.938 59.8452 11.3032C59.8989 11.6649 59.9831 11.9603 60.0977 12.1895C60.2158 12.4186 60.3644 12.5851 60.5435 12.689C60.7261 12.7928 60.9463 12.8447 61.2041 12.8447C61.4046 12.8447 61.5801 12.8125 61.7305 12.748C61.8844 12.6836 62.0151 12.5923 62.1226 12.4741C62.2336 12.3524 62.3249 12.2074 62.3965 12.0391C62.4681 11.8708 62.5254 11.6846 62.5684 11.4805C62.6113 11.2764 62.64 11.0562 62.6543 10.8198C62.6722 10.5799 62.6812 10.3311 62.6812 10.0732Z" fill="black"/>
</svg>
