<?xml version="1.0" encoding="utf-8" ?>
<svg baseProfile="full" height="100%" version="1.1" width="100%" xmlns="http://www.w3.org/2000/svg" xmlns:ev="http://www.w3.org/2001/xml-events" xmlns:xlink="http://www.w3.org/1999/xlink"><defs /><polyline fill="none" points="0,0 200,0.0 200,1000 0.0,1000 0,0" stroke="blue" stroke-width="2.5" /><line stroke="blue" stroke-linecap="square" stroke-width="2.5" x1="15.0" x2="15.0" y1="0.0" y2="1000" /><line stroke="blue" stroke-linecap="square" stroke-width="2.5" x1="185.0" x2="185.0" y1="0.0" y2="1000" /><polyline fill="none" points="220,333.0 220,300 720,300 720,700 220,700 220,653.0" stroke="blue" stroke-width="2.5" /><line stroke="red" stroke-dasharray="5 5" stroke-linecap="square" stroke-width="2.5" x1="220" x2="220" y1="333.0" y2="653.0" /><line stroke="blue" stroke-linecap="square" stroke-width="2.5" x1="220" x2="720" y1="316.0" y2="316.0" /><line stroke="blue" stroke-linecap="square" stroke-width="2.5" x1="220" x2="720" y1="684.0" y2="684.0" /><rect fill="none" height="320.0" stroke="blue" stroke-width="2.5" width="120.0" x="200" y="333.0" /><rect fill="none" height="320.0" stroke="blue" stroke-width="2.5" width="120.0" x="200" y="333.0" /><rect fill="none" height="320.0" stroke="blue" stroke-width="2.0" width="7" x="200" y="333.0" /><circle cx="240.0" cy="373.0" fill="none" r="8" stroke="blue" stroke-width="1.5" /><line stroke="red" stroke-linecap="square" stroke-width="2.0" x1="228.0" x2="252.0" y1="373.0" y2="373.0" /><line stroke="blue" stroke-dasharray="20 5 1 5" stroke-linecap="square" stroke-width="1.5" x1="240.0" x2="240.0" y1="333.0" y2="653.0" /><circle cx="280.0" cy="373.0" fill="none" r="8" stroke="blue" stroke-width="1.5" /><line stroke="red" stroke-linecap="square" stroke-width="2.0" x1="268.0" x2="292.0" y1="373.0" y2="373.0" /><line stroke="blue" stroke-dasharray="20 5 1 5" stroke-linecap="square" stroke-width="1.5" x1="280.0" x2="280.0" y1="333.0" y2="653.0" /><circle cx="240.0" cy="433.0" fill="none" r="8" stroke="blue" stroke-width="1.5" /><line stroke="red" stroke-linecap="square" stroke-width="2.0" x1="228.0" x2="252.0" y1="433.0" y2="433.0" /><line stroke="blue" stroke-dasharray="20 5 1 5" stroke-linecap="square" stroke-width="1.5" x1="240.0" x2="240.0" y1="333.0" y2="653.0" /><circle cx="280.0" cy="433.0" fill="none" r="8" stroke="blue" stroke-width="1.5" /><line stroke="red" stroke-linecap="square" stroke-width="2.0" x1="268.0" x2="292.0" y1="433.0" y2="433.0" /><line stroke="blue" stroke-dasharray="20 5 1 5" stroke-linecap="square" stroke-width="1.5" x1="280.0" x2="280.0" y1="333.0" y2="653.0" /><circle cx="240.0" cy="493.0" fill="none" r="8" stroke="blue" stroke-width="1.5" /><line stroke="red" stroke-linecap="square" stroke-width="2.0" x1="228.0" x2="252.0" y1="493.0" y2="493.0" /><line stroke="blue" stroke-dasharray="20 5 1 5" stroke-linecap="square" stroke-width="1.5" x1="240.0" x2="240.0" y1="333.0" y2="653.0" /><circle cx="280.0" cy="493.0" fill="none" r="8" stroke="blue" stroke-width="1.5" /><line stroke="red" stroke-linecap="square" stroke-width="2.0" x1="268.0" x2="292.0" y1="493.0" y2="493.0" /><line stroke="blue" stroke-dasharray="20 5 1 5" stroke-linecap="square" stroke-width="1.5" x1="280.0" x2="280.0" y1="333.0" y2="653.0" /><circle cx="240.0" cy="553.0" fill="none" r="8" stroke="blue" stroke-width="1.5" /><line stroke="red" stroke-linecap="square" stroke-width="2.0" x1="228.0" x2="252.0" y1="553.0" y2="553.0" /><line stroke="blue" stroke-dasharray="20 5 1 5" stroke-linecap="square" stroke-width="1.5" x1="240.0" x2="240.0" y1="333.0" y2="653.0" /><circle cx="280.0" cy="553.0" fill="none" r="8" stroke="blue" stroke-width="1.5" /><line stroke="red" stroke-linecap="square" stroke-width="2.0" x1="268.0" x2="292.0" y1="553.0" y2="553.0" /><line stroke="blue" stroke-dasharray="20 5 1 5" stroke-linecap="square" stroke-width="1.5" x1="280.0" x2="280.0" y1="333.0" y2="653.0" /><circle cx="240.0" cy="613.0" fill="none" r="8" stroke="blue" stroke-width="1.5" /><line stroke="red" stroke-linecap="square" stroke-width="2.0" x1="228.0" x2="252.0" y1="613.0" y2="613.0" /><line stroke="blue" stroke-dasharray="20 5 1 5" stroke-linecap="square" stroke-width="1.5" x1="240.0" x2="240.0" y1="333.0" y2="653.0" /><circle cx="280.0" cy="613.0" fill="none" r="8" stroke="blue" stroke-width="1.5" /><line stroke="red" stroke-linecap="square" stroke-width="2.0" x1="268.0" x2="292.0" y1="613.0" y2="613.0" /><line stroke="blue" stroke-dasharray="20 5 1 5" stroke-linecap="square" stroke-width="1.5" x1="280.0" x2="280.0" y1="333.0" y2="653.0" /></svg>