<?xml version="1.0" encoding="utf-8" ?>
<svg baseProfile="full" height="100%" version="1.1" viewBox="-340 -350 1200 1300" width="100%" xmlns="http://www.w3.org/2000/svg" xmlns:ev="http://www.w3.org/2001/xml-events" xmlns:xlink="http://www.w3.org/1999/xlink"><defs><pattern height="8" id="diagonalHatch" patternTransform="rotate(45 2 2)" patternUnits="userSpaceOnUse" width="6"><path d="M -1,2 l 6,0" stroke="#000000" stroke-width="2.5" /></pattern><marker id="id1" markerHeight="30" markerWidth="30" orient="auto" refX="8" refY="3"><path d=" M0,0 L3,3 L0,6 L8,3 L0,0" fill="black" /></marker><marker id="id2" markerHeight="20" markerWidth="30" orient="auto" refX="0" refY="3"><path d=" M0,3 L8,6 L5,3 L8,0 L0,3" fill="black" /></marker><marker id="id3" markerHeight="10" markerWidth="10" orient="auto" refX="0" refY="5"><path d="M 0 0 L 10 5 L 0 10 z" fill="blue" stroke="black" /></marker><marker id="id4" markerHeight="10" markerWidth="10" orient="auto" refX="0" refY="5"><path d="M 0 0 L 10 5 L 0 10 z" fill="blue" stroke="black" /></marker><marker id="id5" markerHeight="30" markerWidth="30" orient="auto" refX="8" refY="3"><path d=" M0,0 L3,3 L0,6 L8,3 L0,0" fill="black" /></marker><marker id="id6" markerHeight="20" markerWidth="30" orient="auto" refX="0" refY="3"><path d=" M0,3 L8,6 L5,3 L8,0 L0,3" fill="black" /></marker><marker id="id7" markerHeight="30" markerWidth="30" orient="auto" refX="8" refY="3"><path d=" M0,0 L3,3 L0,6 L8,3 L0,0" fill="black" /></marker><marker id="id8" markerHeight="20" markerWidth="30" orient="auto" refX="0" refY="3"><path d=" M0,3 L8,6 L5,3 L8,0 L0,3" fill="black" /></marker><marker id="id9" markerHeight="30" markerWidth="30" orient="auto" refX="8" refY="3"><path d=" M0,0 L3,3 L0,6 L8,3 L0,0" fill="black" /></marker><marker id="id10" markerHeight="20" markerWidth="30" orient="auto" refX="0" refY="3"><path d=" M0,3 L8,6 L5,3 L8,0 L0,3" fill="black" /></marker><marker id="id11" markerHeight="30" markerWidth="30" orient="auto" refX="8" refY="3"><path d=" M0,0 L3,3 L0,6 L8,3 L0,0" fill="black" /></marker><marker id="id12" markerHeight="20" markerWidth="30" orient="auto" refX="0" refY="3"><path d=" M0,3 L8,6 L5,3 L8,0 L0,3" fill="black" /></marker><marker id="id13" markerHeight="30" markerWidth="30" orient="auto" refX="8" refY="3"><path d=" M0,0 L3,3 L0,6 L8,3 L0,0" fill="black" /></marker><marker id="id14" markerHeight="20" markerWidth="30" orient="auto" refX="0" refY="3"><path d=" M0,3 L8,6 L5,3 L8,0 L0,3" fill="black" /></marker><marker id="id15" markerHeight="20" markerWidth="30" orient="auto" refX="0" refY="3"><path d=" M0,3 L8,6 L5,3 L8,0 L0,3" fill="black" /></marker><marker id="id16" markerHeight="20" markerWidth="30" orient="auto" refX="0" refY="3"><path d=" M0,3 L8,6 L5,3 L8,0 L0,3" fill="black" /></marker><marker id="id17" markerHeight="20" markerWidth="30" orient="auto" refX="0" refY="3"><path d=" M0,3 L8,6 L5,3 L8,0 L0,3" fill="black" /></marker><marker id="id18" markerHeight="15" markerWidth="15" orient="auto" refX="15" refY="7.5"><path d="M 0 0 L 8 7.5 L 0 15 z" fill="none" stroke="black" /></marker><marker id="id19" markerHeight="20" markerWidth="30" orient="auto" refX="0" refY="3"><path d=" M0,3 L8,6 L5,3 L8,0 L0,3" fill="black" /></marker><marker id="id20" markerHeight="20" markerWidth="30" orient="auto" refX="0" refY="3"><path d=" M0,3 L8,6 L5,3 L8,0 L0,3" fill="black" /></marker></defs><polyline fill="none" points="0,0 200,0.0 200,700 0.0,700 0,0" stroke="blue" stroke-width="2.5" /><line stroke="blue" stroke-linecap="square" stroke-width="2.5" x1="15.0" x2="15.0" y1="0.0" y2="700" /><line stroke="blue" stroke-linecap="square" stroke-width="2.5" x1="185.0" x2="185.0" y1="0.0" y2="700" /><polyline fill="none" points="220.0,183.0 220,150 570,150 570,550 220,550 220,423.0" stroke="blue" stroke-width="2.5" /><line stroke="red" stroke-dasharray="5 5" stroke-linecap="square" stroke-width="2.5" x1="220.0" x2="220" y1="183.0" y2="423.0" /><line stroke="blue" stroke-linecap="square" stroke-width="2.5" x1="220" x2="570" y1="166.0" y2="166.0" /><line stroke="blue" stroke-linecap="square" stroke-width="2.5" x1="220" x2="570" y1="534.0" y2="534.0" /><rect fill="url(#diagonalHatch)" height="240.0" stroke="white" stroke-width="2.0" width="12" x="200" y="183.0" /><rect fill="none" height="240.0" stroke="blue" stroke-width="2.5" width="100.0" x="200" y="183.0" /><rect fill="none" height="240.0" stroke="blue" stroke-width="2.5" width="100.0" x="200" y="183.0" /><circle cx="260.0" cy="223.0" fill="none" r="10" stroke="blue" stroke-width="1.5" /><line stroke="red" stroke-linecap="square" stroke-width="2.0" x1="246.0" x2="274.0" y1="223.0" y2="223.0" /><line stroke="blue" stroke-dasharray="20 5 1 5" stroke-linecap="square" stroke-width="1.5" x1="260.0" x2="260.0" y1="183.0" y2="423.0" /><circle cx="260.0" cy="303.0" fill="none" r="10" stroke="blue" stroke-width="1.5" /><line stroke="red" stroke-linecap="square" stroke-width="2.0" x1="246.0" x2="274.0" y1="303.0" y2="303.0" /><line stroke="blue" stroke-dasharray="20 5 1 5" stroke-linecap="square" stroke-width="1.5" x1="260.0" x2="260.0" y1="183.0" y2="423.0" /><circle cx="260.0" cy="383.0" fill="none" r="10" stroke="blue" stroke-width="1.5" /><line stroke="red" stroke-linecap="square" stroke-width="2.0" x1="246.0" x2="274.0" y1="383.0" y2="383.0" /><line stroke="blue" stroke-dasharray="20 5 1 5" stroke-linecap="square" stroke-width="1.5" x1="260.0" x2="260.0" y1="183.0" y2="423.0" /><line marker-end="url(#id1)" marker-start="url(#id2)" stroke="black" stroke-linecap="square" stroke-width="2.5" x1="-50.0" x2="-50.0" y1="223.0" y2="383.0" /><text fill="black" font-family="sans-serif" font-size="28" x="-285.0" y="303.0">2 @80 mm c/c</text><line stroke="black" stroke-linecap="square" stroke-opacity="1.0" stroke-width="2.5" x1="-60.0" x2="-40.0" y1="223.0" y2="223.0" /><line stroke="black" stroke-linecap="square" stroke-opacity="1.0" stroke-width="2.5" x1="-60.0" x2="-40.0" y1="383.0" y2="383.0" /><line marker-end="url(#id3)" stroke="black" stroke-linecap="square" stroke-width="2.5" x1="0" x2="0" y1="-320" y2="-270" /><text fill="black" font-family="sans-serif" font-size="52" x="-10" y="-190">A</text><line marker-end="url(#id4)" stroke="black" stroke-linecap="square" stroke-width="2.5" x1="570" x2="570" y1="-322" y2="-272" /><text fill="black" font-family="sans-serif" font-size="52" x="560" y="-192">A</text><line stroke="#666666" stroke-linecap="square" stroke-width="1.0" x1="0" x2="570" y1="-320" y2="-322" /><line marker-end="url(#id5)" marker-start="url(#id6)" stroke="black" stroke-linecap="square" stroke-width="2.5" x1="-50.0" x2="-50.0" y1="150.0" y2="183.0" /><text fill="black" font-family="sans-serif" font-size="28" x="-175.0" y="166.5">33 mm</text><line stroke="black" stroke-linecap="square" stroke-opacity="1.0" stroke-width="2.5" x1="-60.0" x2="-40.0" y1="150.0" y2="150.0" /><line stroke="black" stroke-linecap="square" stroke-opacity="1.0" stroke-width="2.5" x1="-60.0" x2="-40.0" y1="183.0" y2="183.0" /><line stroke="#D8D8D8" stroke-linecap="square" stroke-opacity="0.7" stroke-width="2.5" x1="220" x2="-30" y1="150" y2="150" /><line marker-end="url(#id7)" marker-start="url(#id8)" stroke="black" stroke-linecap="square" stroke-width="2.5" x1="-50.0" x2="-50.0" y1="223.0" y2="183.0" /><text fill="black" font-family="sans-serif" font-size="28" x="-175.0" y="203.0">40 mm</text><line stroke="black" stroke-linecap="square" stroke-opacity="1.0" stroke-width="2.5" x1="-60.0" x2="-40.0" y1="223.0" y2="223.0" /><line stroke="black" stroke-linecap="square" stroke-opacity="1.0" stroke-width="2.5" x1="-60.0" x2="-40.0" y1="183.0" y2="183.0" /><line marker-end="url(#id9)" marker-start="url(#id10)" stroke="black" stroke-linecap="square" stroke-width="2.5" x1="-50.0" x2="-50.0" y1="383.0" y2="423.0" /><text fill="black" font-family="sans-serif" font-size="28" x="-175.0" y="403.0">40 mm</text><line stroke="black" stroke-linecap="square" stroke-opacity="1.0" stroke-width="2.5" x1="-60.0" x2="-40.0" y1="383.0" y2="383.0" /><line stroke="black" stroke-linecap="square" stroke-opacity="1.0" stroke-width="2.5" x1="-60.0" x2="-40.0" y1="423.0" y2="423.0" /><line marker-end="url(#id11)" marker-start="url(#id12)" stroke="black" stroke-linecap="square" stroke-width="2.5" x1="260.0" x2="300.0" y1="-37.0" y2="-37.0" /><text fill="black" font-family="sans-serif" font-size="28" x="280.0" y="-57.0">40 mm</text><line stroke="black" stroke-linecap="square" stroke-opacity="1.0" stroke-width="2.5" x1="260.0" x2="260.0" y1="-47.0" y2="-27.0" /><line stroke="black" stroke-linecap="square" stroke-opacity="1.0" stroke-width="2.5" x1="300.0" x2="300.0" y1="-47.0" y2="-27.0" /><line stroke="#D8D8D8" stroke-linecap="square" stroke-opacity="0.7" stroke-width="2.5" x1="300.0" x2="300.0" y1="183.0" y2="-5.0" /><line stroke="black" stroke-linecap="square" stroke-width="2.5" x1="200.0" x2="200.0" y1="740.0" y2="720.0" /><line stroke="black" stroke-linecap="square" stroke-width="2.5" x1="220.0" x2="220.0" y1="740.0" y2="720.0" /><line marker-end="url(#id13)" stroke="black" stroke-linecap="square" stroke-width="2.5" x1="150.0" x2="200.0" y1="730.0" y2="730.0" /><line marker-end="url(#id13)" stroke="black" stroke-linecap="butt" stroke-width="2.5" x1="270.0" x2="220.0" y1="730.0" y2="730.0" /><text fill="black" font-family="sans-serif" font-size="28" x="290.0" y="730.0">20 mm</text><line stroke="#D8D8D8" stroke-linecap="square" stroke-opacity="0.7" stroke-width="2.5" x1="200" x2="200" y1="700" y2="720" /><line stroke="#D8D8D8" stroke-linecap="square" stroke-opacity="0.7" stroke-width="2.5" x1="220" x2="220" y1="550" y2="620" /><line stroke="#D8D8D8" stroke-linecap="square" stroke-opacity="0.7" stroke-width="2.5" x1="260.0" x2="260.0" y1="183.0" y2="-5.0" /><line stroke="#D8D8D8" stroke-linecap="square" stroke-opacity="0.7" stroke-width="2.5" x1="200" x2="-30" y1="183.0" y2="183.0" /><line stroke="#D8D8D8" stroke-linecap="square" stroke-opacity="0.7" stroke-width="2.5" x1="240.0" x2="-30" y1="223.0" y2="223.0" /><line stroke="#D8D8D8" stroke-linecap="square" stroke-opacity="0.7" stroke-width="2.5" x1="260.0" x2="-30" y1="383.0" y2="383.0" /><line stroke="#D8D8D8" stroke-linecap="square" stroke-opacity="0.7" stroke-width="2.5" x1="200" x2="-30" y1="423.0" y2="423.0" /><polyline fill="none" marker-start="url(#id15)" points="570,350 570.0,350.0 778.0,350.0" stroke="black" stroke-width="2.5" /><text fill="black" font-family="sans-serif" font-size="28" x="590.8" y="332.0">Beam ISMB 400</text><text fill="black" font-family="sans-serif" font-size="28" x="590.8" y="383.0" /><polyline fill="none" marker-start="url(#id16)" points="10,0 -59.2820323028,-40.0 -299.282032303,-40.0" stroke="black" stroke-width="2.5" /><text fill="black" font-family="sans-serif" font-size="28" x="-251.282032303" y="-58.0">Column ISSC 200</text><text fill="black" font-family="sans-serif" font-size="28" x="-323.282032303" y="-22.0" /><polyline fill="none" marker-end="url(#id18)" marker-start="url(#id17)" points="206.0,223.0 6.0,23.0 -250.0,23.0" stroke="black" stroke-width="2.5" /><text fill="black" font-family="sans-serif" font-size="28" x="-198.8" y="5.0">         z 10 mm</text><text fill="black" font-family="sans-serif" font-size="28" x="-275.6" y="41.0" /><polyline fill="none" marker-start="url(#id19)" points="260.0,223.0 410.0,73.0 794.0,73.0" stroke="black" stroke-width="2.5" /><text fill="black" font-family="sans-serif" font-size="28" x="448.4" y="55.0">3 nos 20Ø holes</text><text fill="black" font-family="sans-serif" font-size="28" x="448.4" y="106.0">for M20 bolts (grade8.8)</text><polyline fill="none" marker-start="url(#id20)" points="250.0,423.0 450.0,623.0 690.0,623.0" stroke="black" stroke-width="2.5" /><text fill="black" font-family="sans-serif" font-size="28" x="474.0" y="605.0">PLT. 240X100X12</text><text fill="black" font-family="sans-serif" font-size="28" x="474.0" y="656.0" /><text fill="black" font-family="sans-serif" font-size="30" x="135.0" y="840.0">Front view (Sec C-C)</text></svg>