<?xml version="1.0" encoding="utf-8" ?>
<svg baseProfile="full" height="100%" preserveAspectRatio="xMidYMid meet" version="1.1" viewBox="-10 -100 700.0 980.0" width="100%" xmlns="http://www.w3.org/2000/svg" xmlns:ev="http://www.w3.org/2001/xml-events" xmlns:xlink="http://www.w3.org/1999/xlink"><defs><pattern height="8" id="diagonalHatch" patternTransform="rotate(45 2 2)" patternUnits="userSpaceOnUse" width="6"><path d="M -1,2 l 6,0" stroke="#000000" stroke-width="2.5" /></pattern><marker id="id21" markerHeight="30" markerWidth="30" orient="auto" refX="8" refY="3"><path d=" M0,0 L3,3 L0,6 L8,3 L0,0" fill="black" /></marker><marker id="id22" markerHeight="20" markerWidth="30" orient="auto" refX="0" refY="3"><path d=" M0,3 L8,6 L5,3 L8,0 L0,3" fill="black" /></marker><marker id="id23" markerHeight="30" markerWidth="30" orient="auto" refX="8" refY="3"><path d=" M0,0 L3,3 L0,6 L8,3 L0,0" fill="black" /></marker><marker id="id24" markerHeight="20" markerWidth="30" orient="auto" refX="0" refY="3"><path d=" M0,3 L8,6 L5,3 L8,0 L0,3" fill="black" /></marker><marker id="id25" markerHeight="30" markerWidth="30" orient="auto" refX="8" refY="3"><path d=" M0,0 L3,3 L0,6 L8,3 L0,0" fill="black" /></marker><marker id="id26" markerHeight="20" markerWidth="30" orient="auto" refX="0" refY="3"><path d=" M0,3 L8,6 L5,3 L8,0 L0,3" fill="black" /></marker><marker id="id27" markerHeight="20" markerWidth="30" orient="auto" refX="0" refY="3"><path d=" M0,3 L8,6 L5,3 L8,0 L0,3" fill="black" /></marker><marker id="id28" markerHeight="20" markerWidth="30" orient="auto" refX="0" refY="3"><path d=" M0,3 L8,6 L5,3 L8,0 L0,3" fill="black" /></marker><marker id="id29" markerHeight="20" markerWidth="30" orient="auto" refX="0" refY="3"><path d=" M0,3 L8,6 L5,3 L8,0 L0,3" fill="black" /></marker><marker id="id30" markerHeight="20" markerWidth="30" orient="auto" refX="0" refY="3"><path d=" M0,3 L8,6 L5,3 L8,0 L0,3" fill="black" /></marker><marker id="id31" markerHeight="20" markerWidth="30" orient="auto" refX="0" refY="3"><path d=" M0,3 L8,6 L5,3 L8,0 L0,3" fill="black" /></marker><marker id="id32" markerHeight="15" markerWidth="15" orient="auto" refX="45" refY="7.5"><path d="M 0 0 L 8 7.5 L 0 15 z" fill="none" stroke="black" /></marker></defs><rect fill="none" height="700" stroke="blue" stroke-width="2.5" width="200" x="0" y="0" /><polyline fill="#E0E0E0" points="30.05,150.0 170.05,150.0 170.05,166.0 104.5,166.0 104.5,534.0 170.05,534.0 170.05,550.0 30.05,550.0 30.05,534.0 95.6,534.0 95.6,166.0 30.05,166.0 30.05,150.0" stroke="blue" stroke-width="2.5" /><rect fill="none" height="240.0" stroke="blue" stroke-width="2.5" width="12" x="92.5" y="183.0" /><rect fill="url(#diagonalHatch)" height="240.0" stroke="white" stroke-width="1.0" width="8" x="84.5" y="183.0" /><line stroke="red" stroke-dasharray="10 5 1 5" stroke-linecap="square" stroke-width="1.5" x1="124.5" x2="74.5" y1="223.0" y2="223.0" /><rect fill="black" height="20.9" stroke="black" stroke-width="2.5" width="20" x="92.5" y="213.0" /><line stroke="black" stroke-linecap="square" stroke-width="1.5" x1="92.5" x2="113.4" y1="213.0" y2="213.0" /><line stroke="black" stroke-linecap="square" stroke-width="1.5" x1="92.5" x2="113.4" y1="233.0" y2="233.0" /><line stroke="red" stroke-dasharray="10 5 1 5" stroke-linecap="square" stroke-width="1.5" x1="124.5" x2="74.5" y1="303.0" y2="303.0" /><rect fill="black" height="20.9" stroke="black" stroke-width="2.5" width="20" x="92.5" y="293.0" /><line stroke="black" stroke-linecap="square" stroke-width="1.5" x1="92.5" x2="113.4" y1="293.0" y2="293.0" /><line stroke="black" stroke-linecap="square" stroke-width="1.5" x1="92.5" x2="113.4" y1="313.0" y2="313.0" /><line stroke="red" stroke-dasharray="10 5 1 5" stroke-linecap="square" stroke-width="1.5" x1="124.5" x2="74.5" y1="383.0" y2="383.0" /><rect fill="black" height="20.9" stroke="black" stroke-width="2.5" width="20" x="92.5" y="373.0" /><line stroke="black" stroke-linecap="square" stroke-width="1.5" x1="92.5" x2="113.4" y1="373.0" y2="373.0" /><line stroke="black" stroke-linecap="square" stroke-width="1.5" x1="92.5" x2="113.4" y1="393.0" y2="393.0" /><line marker-end="url(#id21)" marker-start="url(#id22)" stroke="black" stroke-linecap="square" stroke-width="2.5" x1="234.5" x2="234.5" y1="223.0" y2="383.0" /><text fill="black" font-family="sans-serif" font-size="28" x="249.5" y="303.0">2 @80mm c/c</text><line stroke="black" stroke-linecap="square" stroke-opacity="1.0" stroke-width="2.5" x1="244.5" x2="224.5" y1="223.0" y2="223.0" /><line stroke="black" stroke-linecap="square" stroke-opacity="1.0" stroke-width="2.5" x1="244.5" x2="224.5" y1="383.0" y2="383.0" /><line marker-end="url(#id23)" marker-start="url(#id24)" stroke="black" stroke-linecap="square" stroke-width="2.5" x1="234.5" x2="234.5" y1="183.0" y2="223.0" /><text fill="black" font-family="sans-serif" font-size="28" x="249.5" y="203.0">40 mm </text><line stroke="black" stroke-linecap="square" stroke-opacity="1.0" stroke-width="2.5" x1="244.5" x2="224.5" y1="183.0" y2="183.0" /><line stroke="black" stroke-linecap="square" stroke-opacity="1.0" stroke-width="2.5" x1="244.5" x2="224.5" y1="223.0" y2="223.0" /><line marker-end="url(#id25)" marker-start="url(#id26)" stroke="black" stroke-linecap="square" stroke-width="2.5" x1="234.5" x2="234.5" y1="383.0" y2="423.0" /><text fill="black" font-family="sans-serif" font-size="28" x="249.5" y="403.0">40 mm</text><line stroke="black" stroke-linecap="square" stroke-opacity="1.0" stroke-width="2.5" x1="244.5" x2="224.5" y1="383.0" y2="383.0" /><line stroke="black" stroke-linecap="square" stroke-opacity="1.0" stroke-width="2.5" x1="244.5" x2="224.5" y1="423.0" y2="423.0" /><line stroke="#D8D8D8" stroke-linecap="square" stroke-opacity="0.7" stroke-width="2.5" x1="104.5" x2="219.5" y1="183.0" y2="183.0" /><line stroke="#D8D8D8" stroke-linecap="square" stroke-opacity="0.7" stroke-width="2.5" x1="104.5" x2="219.5" y1="223.0" y2="223.0" /><line stroke="#D8D8D8" stroke-linecap="square" stroke-opacity="0.7" stroke-width="2.5" x1="104.5" x2="219.5" y1="423.0" y2="423.0" /><line stroke="#D8D8D8" stroke-linecap="square" stroke-opacity="0.7" stroke-width="2.5" x1="104.5" x2="219.5" y1="383.0" y2="383.0" /><polyline fill="none" marker-start="url(#id27)" points="100.05,150.0 275.05,-25.0 483.05,-25.0" stroke="black" stroke-width="2.5" /><text fill="black" font-family="sans-serif" font-size="28" x="295.85" y="-43.0">Beam ISMB 400</text><text fill="black" font-family="sans-serif" font-size="28" x="295.85" y="8.0" /><polyline fill="none" marker-start="url(#id28)" points="100,700 186.602540378,750.0 426.602540378,750.0" stroke="black" stroke-width="2.5" /><text fill="black" font-family="sans-serif" font-size="28" x="210.602540378" y="732.0">Column ISSC 200</text><text fill="black" font-family="sans-serif" font-size="28" x="210.602540378" y="783.0"> </text><polyline fill="none" marker-start="url(#id29)" points="98.5,423.0 273.5,598.0 513.5,598.0" stroke="black" stroke-width="2.5" /><text fill="black" font-family="sans-serif" font-size="28" x="297.5" y="580.0">PLT. 240x100x12</text><text fill="black" font-family="sans-serif" font-size="28" x="297.5" y="631.0" /><polyline fill="none" marker-start="url(#id30)" points="104.5,223.0 254.5,73.0 670.5,73.0" stroke="black" stroke-width="2.5" /><text fill="black" font-family="sans-serif" font-size="28" x="296.1" y="55.0">3 nos 20Ø holes</text><text fill="black" font-family="sans-serif" font-size="28" x="296.1" y="106.0">for M 20 bolts (grade 8.8)</text><polyline fill="none" marker-end="url(#id32)" marker-start="url(#id31)" points="88.5,343.0 228.5,483.0 500.5,483.0" stroke="black" stroke-width="2.5" /><text fill="black" font-family="sans-serif" font-size="28" x="255.7" y="465.0">          z 10 mm</text><text fill="black" font-family="sans-serif" font-size="28" x="255.7" y="516.0" /><text fill="black" font-family="sans-serif" font-size="30" x="150.0" y="827.272727273">Side view (Sec B-B)</text></svg>