<?xml version="1.0" encoding="utf-8" ?>
<svg baseProfile="full" height="100%" version="1.1" viewBox="-50 -250 950 800" width="100%" xmlns="http://www.w3.org/2000/svg" xmlns:ev="http://www.w3.org/2001/xml-events" xmlns:xlink="http://www.w3.org/1999/xlink"><defs><marker id="id33" markerHeight="10" markerWidth="10" orient="auto" refX="0" refY="5"><path d="M 0 0 L 10 5 L 0 10 z" fill="blue" stroke="black" /></marker><marker id="id34" markerHeight="10" markerWidth="10" orient="auto" refX="0" refY="5"><path d="M 0 0 L 10 5 L 0 10 z" fill="blue" stroke="black" /></marker><marker id="id35" markerHeight="10" markerWidth="10" orient="auto" refX="0" refY="5"><path d="M 0 0 L 10 5 L 0 10 z" fill="blue" stroke="black" /></marker><marker id="id36" markerHeight="10" markerWidth="10" orient="auto" refX="0" refY="5"><path d="M 0 0 L 10 5 L 0 10 z" fill="blue" stroke="black" /></marker><marker id="id37" markerHeight="30" markerWidth="30" orient="auto" refX="8" refY="3"><path d=" M0,0 L3,3 L0,6 L8,3 L0,0" fill="black" /></marker><marker id="id38" markerHeight="20" markerWidth="30" orient="auto" refX="0" refY="3"><path d=" M0,3 L8,6 L5,3 L8,0 L0,3" fill="black" /></marker><marker id="id39" markerHeight="20" markerWidth="30" orient="auto" refX="0" refY="3"><path d=" M0,3 L8,6 L5,3 L8,0 L0,3" fill="black" /></marker><marker id="id40" markerHeight="20" markerWidth="30" orient="auto" refX="0" refY="3"><path d=" M0,3 L8,6 L5,3 L8,0 L0,3" fill="black" /></marker><marker id="id41" markerHeight="20" markerWidth="30" orient="auto" refX="0" refY="3"><path d=" M0,3 L8,6 L5,3 L8,0 L0,3" fill="black" /></marker><marker id="id42" markerHeight="20" markerWidth="30" orient="auto" refX="0" refY="3"><path d=" M0,3 L8,6 L5,3 L8,0 L0,3" fill="black" /></marker><marker id="id43" markerHeight="20" markerWidth="30" orient="auto" refX="0" refY="3"><path d=" M0,3 L8,6 L5,3 L8,0 L0,3" fill="black" /></marker><marker id="id44" markerHeight="15" markerWidth="15" orient="auto" refX="45" refY="7.5"><path d="M 0 0 L 8 7.5 L 0 15 z" fill="none" stroke="black" /></marker><marker id="id45" markerHeight="30" markerWidth="30" orient="auto" refX="8" refY="3"><path d=" M0,0 L3,3 L0,6 L8,3 L0,0" fill="black" /></marker><marker id="id46" markerHeight="20" markerWidth="30" orient="auto" refX="0" refY="3"><path d=" M0,3 L8,6 L5,3 L8,0 L0,3" fill="black" /></marker></defs><line marker-end="url(#id33)" stroke="black" stroke-linecap="square" stroke-width="2.5" x1="800" x2="750" y1="0" y2="0" /><text fill="black" font-family="sans-serif" font-size="52" x="670" y="20">B</text><line marker-end="url(#id34)" stroke="black" stroke-linecap="square" stroke-width="2.5" x1="800" x2="750" y1="200" y2="200" /><text fill="black" font-family="sans-serif" font-size="52" x="670" y="220">B</text><line stroke="#666666" stroke-linecap="square" stroke-width="1.0" x1="800" x2="800" y1="0" y2="200" /><line marker-end="url(#id35)" stroke="black" stroke-linecap="square" stroke-width="2.5" x1="0.0" x2="0.0" y1="399.95" y2="349.95" /><text fill="black" font-family="sans-serif" font-size="52" x="-20.0" y="309.95">C</text><line marker-end="url(#id36)" stroke="black" stroke-linecap="square" stroke-width="2.5" x1="670.0" x2="670.0" y1="399.95" y2="349.95" /><text fill="black" font-family="sans-serif" font-size="52" x="650.0" y="309.95">C</text><line stroke="#666666" stroke-linecap="square" stroke-width="1.0" x1="0.0" x2="670.0" y1="399.95" y2="399.95" /><polyline fill="#E0E0E0" points="0,0 15.0,0.0 15.0,95.5 185.0,95.5 185.0,0.0 200,0 200,200 185.0,200.0 185.0,104.5 15.0,104.5 15.0,200.0 0.0,200.0 0,0" stroke="blue" stroke-width="2.5" /><rect fill="none" height="140" stroke="blue" stroke-width="2.5" width="350" x="220.0" y="29.95" /><line stroke="blue" stroke-linecap="square" stroke-width="2.5" x1="200.0" x2="220.0" y1="104.4" y2="104.4" /><line stroke="blue" stroke-linecap="square" stroke-width="2.5" x1="200.0" x2="220.0" y1="116.4" y2="116.4" /><polyline fill="none" points="220.0,104.4 300.0,104.4 300.0,116.4 220.0,116.4" stroke="red" stroke-dasharray="5 5" stroke-width="2.5" /><line stroke="red" stroke-dasharray="5 5" stroke-linecap="square" stroke-width="2.5" x1="220.0" x2="570.0" y1="95.5" y2="95.5" /><line stroke="red" stroke-dasharray="5 5" stroke-linecap="square" stroke-width="2.5" x1="220.0" x2="570.0" y1="104.4" y2="104.4" /><polyline fill="black" points="202.5,101.9 212.5,101.9 202.5,91.9 202.5,101.9" stroke="black" stroke-width="2.5" /><polyline fill="black" points="202.5,118.9 202.5,128.9 212.5,118.9 202.5,118.9" stroke="black" stroke-width="2.5" /><rect fill="black" height="20.9" stroke="black" stroke-width="2.5" width="20" x="250.0" y="95.5" /><line stroke="black" stroke-linecap="square" stroke-width="2.5" x1="260.0" x2="260.0" y1="85.5" y2="126.4" /><line stroke="#D8D8D8" stroke-linecap="square" stroke-opacity="0.7" stroke-width="2.5" x1="260.0" x2="260.0" y1="85.5" y2="-167.5" /><line stroke="#D8D8D8" stroke-linecap="square" stroke-opacity="0.7" stroke-width="2.5" x1="300.0" x2="300.0" y1="95.5" y2="-97.5" /><line marker-end="url(#id37)" marker-start="url(#id38)" stroke="black" stroke-linecap="square" stroke-width="2.5" x1="260.0" x2="300.0" y1="-107.5" y2="-107.5" /><text fill="black" font-family="sans-serif" font-size="28" x="280.0" y="-127.5">40 mm</text><line stroke="black" stroke-linecap="square" stroke-opacity="1.0" stroke-width="2.5" x1="260.0" x2="260.0" y1="-117.5" y2="-97.5" /><line stroke="black" stroke-linecap="square" stroke-opacity="1.0" stroke-width="2.5" x1="300.0" x2="300.0" y1="-117.5" y2="-97.5" /><polyline fill="none" marker-start="url(#id39)" points="395.0,29.95 451.016603057,-50.05 659.016603057,-50.05" stroke="black" stroke-width="2.5" /><text fill="black" font-family="sans-serif" font-size="28" x="471.816603057" y="-68.05">Beam ISMB 400</text><text fill="black" font-family="sans-serif" font-size="28" x="471.816603057" y="-17.05" /><line marker-start="url(#id40)" stroke="black" stroke-linecap="square" stroke-width="2.5" x1="95.0" x2="95.0" y1="104.5" y2="224.5" /><text fill="black" font-family="sans-serif" font-size="28" x="-25.0" y="254.5">Column ISSC 200</text><polyline fill="none" marker-start="url(#id41)" points="300.0,116.4 369.282032303,236.4 609.282032303,236.4" stroke="black" stroke-width="2.5" /><text fill="black" font-family="sans-serif" font-size="28" x="393.282032303" y="218.4">PLT. 240x100x12</text><text fill="black" font-family="sans-serif" font-size="28" x="393.282032303" y="269.4" /><polyline fill="none" marker-start="url(#id42)" points="260.0,95.5 449.056035317,-174.5 849.056035317,-174.5" stroke="black" stroke-width="2.5" /><text fill="black" font-family="sans-serif" font-size="28" x="489.056035317" y="-192.5">3 nos 20Ø holes</text><text fill="black" font-family="sans-serif" font-size="28" x="489.056035317" y="-141.5">for M20 bolts (grade 8.8)</text><polyline fill="none" marker-end="url(#id44)" marker-start="url(#id43)" points="200.0,126.4 299.304246301,298.4 571.304246301,298.4" stroke="black" stroke-width="2.5" /><text fill="black" font-family="sans-serif" font-size="28" x="326.504246301" y="280.4">          z 10 mm</text><text fill="black" font-family="sans-serif" font-size="28" x="326.504246301" y="331.4" /><line stroke="black" stroke-linecap="square" stroke-width="2.5" x1="200.0" x2="200.0" y1="-40.0" y2="-60.0" /><line stroke="black" stroke-linecap="square" stroke-width="2.5" x1="220.0" x2="220.0" y1="-40.0" y2="-60.0" /><line marker-end="url(#id45)" stroke="black" stroke-linecap="square" stroke-width="2.5" x1="150.0" x2="200" y1="-50.0" y2="-50" /><line marker-end="url(#id45)" stroke="black" stroke-linecap="butt" stroke-width="2.5" x1="270.0" x2="220" y1="-50.0" y2="-50" /><text fill="black" font-family="sans-serif" font-size="28" x="40.0" y="-50.0">20 mm</text><line stroke="#D8D8D8" stroke-linecap="square" stroke-opacity="0.7" stroke-width="2.5" x1="200" x2="200" y1="0" y2="-50" /><line stroke="#D8D8D8" stroke-linecap="square" stroke-opacity="0.7" stroke-width="2.5" x1="220.0" x2="220" y1="29.95" y2="-50" /><text fill="black" font-family="sans-serif" font-size="30" x="200" y="470">Top view (Sec A-A)</text></svg>